<?xml version="1.0" encoding="UTF-8" standalone="no"?>
<!-- Created with Inkscape (http://www.inkscape.org/) -->

<svg
   width="30"
   height="30"
   viewBox="0 0 30 30"
   id="svg2"
   version="1.1"
   inkscape:version="1.3.2 (091e20e, 2023-11-25, custom)"
   sodipodi:docname="alien.svg"
   xml:space="preserve"
   xmlns:inkscape="http://www.inkscape.org/namespaces/inkscape"
   xmlns:sodipodi="http://sodipodi.sourceforge.net/DTD/sodipodi-0.dtd"
   xmlns="http://www.w3.org/2000/svg"
   xmlns:svg="http://www.w3.org/2000/svg"
   xmlns:rdf="http://www.w3.org/1999/02/22-rdf-syntax-ns#"
   xmlns:cc="http://creativecommons.org/ns#"
   xmlns:dc="http://purl.org/dc/elements/1.1/"><defs
     id="defs4" /><sodipodi:namedview
     id="base"
     pagecolor="#ffffff"
     bordercolor="#666666"
     borderopacity="1.0"
     inkscape:pageopacity="0.0"
     inkscape:pageshadow="2"
     inkscape:zoom="15.839192"
     inkscape:cx="18.59312"
     inkscape:cy="14.299972"
     inkscape:document-units="px"
     inkscape:current-layer="layer1"
     showgrid="false"
     units="px"
     inkscape:showpageshadow="false"
     inkscape:window-width="1743"
     inkscape:window-height="1266"
     inkscape:window-x="1285"
     inkscape:window-y="287"
     inkscape:window-maximized="0"
     inkscape:pagecheckerboard="0"
     inkscape:deskcolor="#d1d1d1" /><metadata
     id="metadata7"><rdf:RDF><cc:Work
         rdf:about=""><dc:format>image/svg+xml</dc:format><dc:type
           rdf:resource="http://purl.org/dc/dcmitype/StillImage" /><dc:title /></cc:Work></rdf:RDF></metadata><g
     inkscape:label="Layer 1"
     inkscape:groupmode="layer"
     id="layer1"
     transform="translate(0,-1022.3622)"><path
       style="fill:#000000"
       d=""
       id="path4151"
       inkscape:connector-curvature="0" /><path
       style="fill:#000000"
       d=""
       id="path4147"
       inkscape:connector-curvature="0" /><path
       style="fill:#2c3094;fill-opacity:1;stroke-width:0.0578403"
       d="m 5.377701,1046.0948 c -0.3180921,-0.072 -0.7251467,-0.4607 -0.813428,-0.7786 -0.041432,-0.1493 -0.061981,-1.7105 -0.062205,-4.7364 l -3.462e-4,-4.5137 5.2602167,-4.3359 c 2.8931155,-2.3847 5.2891755,-4.3359 5.3245655,-4.3359 0.0354,0 2.431462,1.9512 5.324577,4.3359 l 5.260217,4.3359 -5.81e-4,4.5137 c 0,3.0259 -0.02077,4.5871 -0.06221,4.7364 -0.09537,0.3434 -0.490612,0.7042 -0.857752,0.783 -0.201568,0.043 -1.447904,0.065 -3.796578,0.065 h -3.4965 v -3.5282 -3.5283 H 15.086225 12.71478 v 3.5283 3.5282 l -3.5427235,-0.011 c -2.0593061,0 -3.6482251,-0.03 -3.7946906,-0.063 z m -3.611215,-9.6888 c -0.161073,-0.043 -1.42254134,-1.5804 -1.46130473,-1.7823 -0.0184268,-0.096 -0.006701,-0.2432 0.0249042,-0.3277 0.0746008,-0.1961 13.30213853,-11.2316 13.73094853,-11.4554 0.567145,-0.2961 1.381209,-0.3154 1.987497,-0.047 0.131847,0.058 1.290259,0.9842 2.574241,2.0575 l 2.334525,1.9516 0.0153,-1.8908 c 0.01697,-2.1101 0.01876,-2.1193 0.410472,-2.2349 0.137085,-0.04 0.860768,-0.056 2.07464,-0.044 l 1.864115,0.019 0.160291,0.1604 0.160292,0.1603 0.01563,3.8749 0.01563,3.8749 2.056314,1.7126 c 1.257749,1.0475 2.078637,1.7713 2.113816,1.8639 0.108551,0.2856 0.0078,0.479 -0.67315,1.292 -0.557886,0.6662 -0.695384,0.7985 -0.861896,0.8298 -0.108998,0.02 -0.253017,0.02 -0.320091,0 -0.06712,-0.021 -2.989504,-2.4314 -6.494257,-5.3558 -3.504764,-2.9244 -6.388319,-5.317 -6.407908,-5.317 -0.01954,0 -2.900787,2.3907 -6.4026361,5.3126 -3.50186,2.922 -6.4111351,5.3296 -6.465042,5.3502 -0.1065406,0.041 -0.2888547,0.04 -0.4523958,0 z"
       id="path1" /></g></svg>
