<?xml version="1.0" encoding="UTF-8" standalone="no"?>
<!-- Created with Inkscape (http://www.inkscape.org/) -->

<svg
   xmlns:dc="http://purl.org/dc/elements/1.1/"
   xmlns:cc="http://creativecommons.org/ns#"
   xmlns:rdf="http://www.w3.org/1999/02/22-rdf-syntax-ns#"
   xmlns:svg="http://www.w3.org/2000/svg"
   xmlns="http://www.w3.org/2000/svg"
   xmlns:sodipodi="http://sodipodi.sourceforge.net/DTD/sodipodi-0.dtd"
   xmlns:inkscape="http://www.inkscape.org/namespaces/inkscape"
   width="30"
   height="30"
   viewBox="0 0 30 30"
   id="svg2"
   version="1.1"
   inkscape:version="0.91 r13725"
   sodipodi:docname="alien.svg">
  <defs
     id="defs4" />
  <sodipodi:namedview
     id="base"
     pagecolor="#ffffff"
     bordercolor="#666666"
     borderopacity="1.0"
     inkscape:pageopacity="0.0"
     inkscape:pageshadow="2"
     inkscape:zoom="7.9195959"
     inkscape:cx="39.463192"
     inkscape:cy="37.625631"
     inkscape:document-units="px"
     inkscape:current-layer="layer1"
     showgrid="false"
     units="px"
     inkscape:showpageshadow="false"
     inkscape:window-width="1920"
     inkscape:window-height="1017"
     inkscape:window-x="-8"
     inkscape:window-y="-8"
     inkscape:window-maximized="1" />
  <metadata
     id="metadata7">
    <rdf:RDF>
      <cc:Work
         rdf:about="">
        <dc:format>image/svg+xml</dc:format>
        <dc:type
           rdf:resource="http://purl.org/dc/dcmitype/StillImage" />
        <dc:title></dc:title>
      </cc:Work>
    </rdf:RDF>
  </metadata>
  <g
     inkscape:label="Layer 1"
     inkscape:groupmode="layer"
     id="layer1"
     transform="translate(0,-1022.3622)">
    <path
       style="fill:#000000"
       d=""
       id="path4151"
       inkscape:connector-curvature="0" />
    <path
       style="fill:#000000"
       d=""
       id="path4147"
       inkscape:connector-curvature="0" />
    <g
       id="g4177"
       transform="matrix(0.04422516,0,0,0.04422516,13.765909,1019.4843)"
       style="fill:#ffffff">
      <path
         style="fill:#ffffff;fill-opacity:1"
         d="m 16.343638,724.8283 c 4.323812,-0.24479 11.073812,-0.24278 15,0.005 3.926175,0.24726 0.388512,0.44754 -7.861488,0.44507 -8.25,-0.002 -11.462338,-0.20477 -7.138512,-0.44956 z M 3.79465,723.67721 c 0.859375,-0.34676 2.265625,-0.34676 3.125,0 0.859375,0.34676 0.15625,0.63049 -1.5625,0.63049 -1.71875,0 -2.421875,-0.28373 -1.5625,-0.63049 z m 36.226213,0.008 c 0.846287,-0.3424 2.533787,-0.36324 3.75,-0.0464 1.216212,0.31692 0.523787,0.59707 -1.538713,0.62255 -2.0625,0.0255 -3.057575,-0.23383 -2.211287,-0.57624 z m -41.8251755,-1.18529 c 0.4153625,-0.41536 1.4934875,-0.45976 2.3958375,-0.0986 0.9971625,0.39902 0.700975,0.69522 -0.7552125,0.7552 -1.3177,0.0543 -2.0559875,-0.24116 -1.640625,-0.65653 z m 48.7499995,0 c 0.415363,-0.41536 1.493488,-0.45976 2.395838,-0.0986 0.997162,0.39902 0.700975,0.69522 -0.755213,0.7552 -1.3177,0.0543 -2.055987,-0.24116 -1.640625,-0.65653 z m -58.75,-136.25 c 0.415363,-0.41536 1.493488,-0.45976 2.395838,-0.0986 0.9971625,0.39902 0.700975,0.69522 -0.755213,0.7552 -1.3177,0.0543 -2.055987,-0.24116 -1.640625,-0.65653 z m -9.401037,-1.37652 c 1.546875,-0.29795 4.078125,-0.29795 5.625,0 1.546875,0.29794 0.28125,0.54171 -2.8125,0.54171 -3.09375,0 -4.359375,-0.24377 -2.8125,-0.54171 z m 73.75,0 c 1.546875,-0.29795 4.078125,-0.29795 5.625,0 1.546875,0.29794 0.28125,0.54171 -2.8125,0.54171 -3.09375,0 -4.359375,-0.24377 -2.8125,-0.54171 z m -81.25,-1.19569 c 0.859375,-0.34676 2.265625,-0.34676 3.125,0 0.859375,0.34676 0.15625,0.63049 -1.5625,0.63049 -1.71875,0 -2.421875,-0.28373 -1.5625,-0.63049 z m 92.5,-0.0544 c 1.546875,-0.29795 4.078125,-0.29795 5.625,0 1.546875,0.29793 0.28125,0.54171 -2.8125,0.54171 -3.09375,0 -4.359375,-0.24378 -2.8125,-0.54171 z m -98.75,-1.19569 c 0.859375,-0.34676 2.265625,-0.34676 3.125,0 0.859375,0.34676 0.15625,0.63049 -1.5625,0.63049 -1.71875,0 -2.421875,-0.28373 -1.5625,-0.63049 z m 108.726213,0.008 c 0.846287,-0.3424 2.533787,-0.36324 3.75,-0.0464 1.216212,0.31693 0.523787,0.59708 -1.538713,0.62255 -2.0625,0.0255 -3.057575,-0.23382 -2.211287,-0.57623 z m -114.325175,-1.18529 c 0.415362,-0.41536 1.493487,-0.45976 2.395837,-0.0986 0.997163,0.39902 0.700975,0.69522 -0.755212,0.7552 -1.3177,0.0543 -2.055988,-0.24117 -1.640625,-0.65653 z m 121.825175,-0.0648 c 0.846287,-0.3424 2.533787,-0.36324 3.75,-0.0464 1.216212,0.31692 0.523787,0.59707 -1.538713,0.62255 -2.0625,0.0255 -3.057575,-0.23383 -2.211287,-0.57624 z m -126.825175,-1.18529 c 0.415362,-0.41536 1.493487,-0.45976 2.395837,-0.0986 0.997163,0.39902 0.700975,0.69522 -0.755212,0.7552 -1.3177,0.0543 -2.055988,-0.24116 -1.640625,-0.65653 z m 45.0189745,-4.86926 c 0.01,-3.4375 0.25215,-4.69539 0.5394625,-2.79531 0.287325,1.90007 0.2796375,4.71257 -0.017,6.25 -0.2967,1.53742 -0.531775,-0.0172 -0.5224,-3.45469 z m 44.7411745,3.85416 c -0.05425,-1.3177 0.241163,-2.05598 0.656525,-1.64062 0.415363,0.41536 0.459763,1.49349 0.09863,2.39584 -0.399025,0.99716 -0.695225,0.70097 -0.7552,-0.75522 z m 43.98985,1.01563 c 0.415363,-0.41536 1.493488,-0.45976 2.395838,-0.0986 0.997162,0.39903 0.700975,0.69523 -0.755213,0.7552 -1.3177,0.0543 -2.055987,-0.24116 -1.640625,-0.65652 z m 5,-1.25 c 0.415363,-0.41536 1.493488,-0.45976 2.395838,-0.0986 0.997162,0.39903 0.700975,0.69523 -0.755213,0.7552 -1.3177,0.0543 -2.055987,-0.24116 -1.640625,-0.65652 z m -147.5,-1.25 c 0.415363,-0.41536 1.493488,-0.45976 2.395838,-0.0986 0.997162,0.39903 0.700975,0.69523 -0.755213,0.7552 -1.3177,0.0543 -2.055987,-0.24116 -1.640625,-0.65652 z m 160.000003,-2.5 c 0.41536,-0.41536 1.49348,-0.45976 2.39583,-0.0986 0.99717,0.39903 0.70098,0.69523 -0.75521,0.7552 -1.3177,0.0543 -2.05599,-0.24116 -1.64062,-0.65652 z m -58.989853,-4.76563 c -0.05425,-1.3177 0.241163,-2.05598 0.656525,-1.64062 0.415363,0.41536 0.459763,1.49349 0.09863,2.39584 -0.399025,0.99716 -0.695225,0.70097 -0.7552,-0.75522 z m -48.6513245,-4.47916 c 0,-1.71875 0.283725,-2.42187 0.6304875,-1.5625 0.3467625,0.85938 0.3467625,2.26563 0,3.125 -0.3467625,0.85938 -0.6304875,0.15625 -0.6304875,-1.5625 z M -194.54416,483.98422 c -0.0542,-1.3177 0.24115,-2.05598 0.65652,-1.64062 0.41536,0.41536 0.45976,1.49349 0.0986,2.39584 -0.39903,0.99716 -0.69523,0.70097 -0.7552,-0.75522 z m -2.5,-8.75 c -0.0542,-1.3177 0.24115,-2.05598 0.65652,-1.64062 0.41536,0.41536 0.45976,1.49349 0.0986,2.39584 -0.39903,0.99716 -0.69523,0.70097 -0.7552,-0.75522 z m 441.25,-1.25 c -0.0542,-1.3177 0.24116,-2.05598 0.65652,-1.64062 0.41536,0.41536 0.45976,1.49349 0.0986,2.39584 -0.39903,0.99716 -0.69523,0.70097 -0.7552,-0.75522 z m -406.25,-2.5 c -0.0542,-1.3177 0.24115,-2.05598 0.65652,-1.64062 0.41536,0.41536 0.45976,1.49349 0.0986,2.39584 -0.39903,0.99716 -0.69523,0.70097 -0.7552,-0.75522 z m -36.25,-1.25 c -0.0542,-1.3177 0.24115,-2.05598 0.65652,-1.64062 0.41536,0.41536 0.45976,1.49349 0.0986,2.39584 -0.39903,0.99716 -0.69523,0.70097 -0.7552,-0.75522 z m 405,-1.25 c -0.0542,-1.3177 0.24116,-2.05598 0.65652,-1.64062 0.41536,0.41536 0.45976,1.49349 0.0986,2.39584 -0.39903,0.99716 -0.69523,0.70097 -0.7552,-0.75522 z m -369.90133,-3.22916 c 0,-1.71875 0.28373,-2.42187 0.63049,-1.5625 0.34676,0.85938 0.34676,2.26563 0,3.125 -0.34676,0.85938 -0.63049,0.15625 -0.63049,-1.5625 z m -36.34867,-0.52084 c -0.0542,-1.3177 0.24115,-2.05598 0.65652,-1.64062 0.41537,0.41536 0.45977,1.49349 0.0986,2.39584 -0.39903,0.99716 -0.69523,0.70097 -0.7552,-0.75522 z m 446.25,0 c -0.0542,-1.3177 0.24116,-2.05598 0.65652,-1.64062 0.41536,0.41536 0.45977,1.49349 0.0986,2.39584 -0.39903,0.99716 -0.69523,0.70097 -0.7552,-0.75522 z m -38.75,-1.25 c -0.0542,-1.3177 0.24116,-2.05598 0.65652,-1.64062 0.41536,0.41536 0.45977,1.49349 0.0986,2.39584 -0.39903,0.99716 -0.69523,0.70097 -0.7552,-0.75522 z m -408.65133,-4.47916 c 0,-1.71875 0.28373,-2.42187 0.63049,-1.5625 0.34676,0.85938 0.34676,2.26563 0,3.125 -0.34676,0.85938 -0.63049,0.15625 -0.63049,-1.5625 z m 36.54584,-14.375 c 0.002,-9.625 0.19816,-13.39726 0.43604,-8.38281 0.23787,5.01445 0.23627,12.88945 -0.004,17.5 -0.23961,4.61055 -0.43424,0.50781 -0.43229,-9.11719 z m 412.10549,15.10416 c -0.0542,-1.3177 0.24116,-2.05598 0.65652,-1.64062 0.41536,0.41536 0.45977,1.49349 0.0986,2.39584 -0.39903,0.99716 -0.69523,0.70097 -0.7552,-0.75522 z m -38.65133,-1.97916 c 0,-1.71875 0.28373,-2.42187 0.63049,-1.5625 0.34676,0.85938 0.34676,2.26563 0,3.125 -0.34676,0.85938 -0.63049,0.15625 -0.63049,-1.5625 z m 40,-3.75 c 0,-1.71875 0.28373,-2.42187 0.63049,-1.5625 0.34676,0.85938 0.34676,2.26563 0,3.125 -0.34676,0.85938 -0.63049,0.15625 -0.63049,-1.5625 z m -451.25,-1.25 c 0,-1.71875 0.28373,-2.42187 0.63049,-1.5625 0.34676,0.85938 0.34676,2.26563 0,3.125 -0.34676,0.85938 -0.63049,0.15625 -0.63049,-1.5625 z m 412.54633,-1.875 c -0.0255,-2.0625 0.23382,-3.05757 0.57623,-2.21129 0.3424,0.84629 0.36324,2.53379 0.0464,3.75 -0.31693,1.21622 -0.59708,0.52379 -0.62255,-1.53871 z m 39.95367,-3.125 c 0,-1.71875 0.28373,-2.42187 0.63049,-1.5625 0.34676,0.85938 0.34676,2.26563 0,3.125 -0.34676,0.85938 -0.63049,0.15625 -0.63049,-1.5625 z m -453.75,-1.25 c 0,-1.71875 0.28373,-2.42187 0.63049,-1.5625 0.34676,0.85938 0.34676,2.26563 0,3.125 -0.34676,0.85938 -0.63049,0.15625 -0.63049,-1.5625 z m 415.11786,-4.375 c -0.0139,-2.75 0.23077,-4.02219 0.54363,-2.82707 0.31286,1.19511 0.32421,3.44511 0.0252,5 -0.29899,1.55488 -0.55497,0.57707 -0.56885,-2.17293 z m 39.92847,-1.25 c -0.0255,-2.0625 0.23382,-3.05757 0.57623,-2.21129 0.3424,0.84629 0.36324,2.53379 0.0464,3.75 -0.31693,1.21622 -0.59708,0.52379 -0.62255,-1.53871 z m -456.25,-1.25 c -0.0255,-2.0625 0.23382,-3.05757 0.57624,-2.21129 0.3424,0.84629 0.36323,2.53379 0.0464,3.75 -0.31692,1.21622 -0.59707,0.52379 -0.62255,-1.53871 z m 417.6564,-10.625 c 0,-4.46875 0.22687,-6.29687 0.50416,-4.0625 0.27727,2.23438 0.27727,5.89063 0,8.125 -0.27729,2.23438 -0.50416,0.40625 -0.50416,-4.0625 z m 39.88991,3.75 c 0,-2.40625 0.25725,-3.39062 0.57166,-2.1875 0.3144,1.20313 0.3144,3.17188 0,4.375 -0.31441,1.20313 -0.57166,0.21875 -0.57166,-2.1875 z m -458.75,-1.25 c 0,-2.40625 0.25725,-3.39062 0.57166,-2.1875 0.3144,1.20313 0.3144,3.17188 0,4.375 -0.31441,1.20313 -0.57166,0.21875 -0.57166,-2.1875 z m 460.13851,-13.125 c 0.005,-5.5 0.2243,-7.59451 0.48836,-4.65446 0.26405,2.94005 0.26034,7.44005 -0.009,10 -0.26858,2.55995 -0.48463,0.15446 -0.4801,-5.34554 z m -461.36328,3.75 c -0.0139,-2.75 0.23076,-4.02219 0.54362,-2.82707 0.31286,1.19511 0.32421,3.44511 0.0252,5 -0.29899,1.55488 -0.55497,0.57707 -0.56885,-2.17293 z m 80.02331,3.61979 c 0.41536,-0.41536 1.49348,-0.45976 2.39583,-0.0986 0.99717,0.39903 0.70098,0.69523 -0.75521,0.7552 -1.3177,0.0542 -2.05599,-0.24116 -1.64062,-0.65652 z m -5.65104,-1.32264 c 0.85938,-0.34676 2.26563,-0.34676 3.125,0 0.85938,0.34676 0.15625,0.63049 -1.5625,0.63049 -1.71875,0 -2.42187,-0.28373 -1.5625,-0.63049 z m 308.15104,0.0726 c 0.41536,-0.41537 1.49348,-0.45977 2.39583,-0.0986 0.99717,0.39903 0.70098,0.69523 -0.75521,0.7552 -1.3177,0.0543 -2.05599,-0.24116 -1.64062,-0.65652 z m -315.67483,-1.31472 c 0.84629,-0.3424 2.53379,-0.36323 3.75,-0.0464 1.21621,0.31692 0.52379,0.59707 -1.53871,0.62255 -2.0625,0.0255 -3.05758,-0.23383 -2.21129,-0.57624 z m 320.67483,0.0648 c 0.41536,-0.41536 1.49348,-0.45976 2.39583,-0.0986 0.99717,0.39902 0.70098,0.69522 -0.75521,0.7552 -1.3177,0.0542 -2.05599,-0.24116 -1.64062,-0.65653 z m -330.65104,-1.37697 c 1.54688,-0.29795 4.07813,-0.29795 5.625,0 1.54688,0.29794 0.28125,0.54171 -2.8125,0.54171 -3.09375,0 -4.35937,-0.24377 -2.8125,-0.54171 z m 335.65104,0.12695 c 0.41536,-0.41536 1.49348,-0.45976 2.39583,-0.0986 0.99717,0.39903 0.70098,0.69523 -0.75521,0.7552 -1.3177,0.0542 -2.05599,-0.24116 -1.64062,-0.65652 z m 5.59896,-1.32264 c 0.85937,-0.34676 2.26562,-0.34676 3.125,0 0.85937,0.34676 0.15625,0.63049 -1.5625,0.63049 -1.71875,0 -2.42188,-0.28373 -1.5625,-0.63049 z m 6.22621,-1.24207 c 0.84629,-0.3424 2.53379,-0.36324 3.75,-0.0464 1.21621,0.31693 0.52379,0.59708 -1.53871,0.62255 -2.0625,0.0255 -3.05758,-0.23382 -2.21129,-0.57624 z m 7.5,-1.25 c 0.84629,-0.3424 2.53379,-0.36324 3.75,-0.0464 1.21621,0.31693 0.52379,0.59708 -1.53871,0.62255 -2.0625,0.0255 -3.05758,-0.23382 -2.21129,-0.57624 z m -413.07326,-6.68008 c 0,-3.09375 0.24378,-4.35937 0.54171,-2.8125 0.29795,1.54688 0.29795,4.07813 0,5.625 -0.29793,1.54688 -0.54171,0.28125 -0.54171,-2.8125 z m 463.81973,-11.875 c -0.005,-4.8125 0.21585,-6.93442 0.49198,-4.71537 0.27614,2.21903 0.28068,6.15653 0.01,8.75 -0.2706,2.59345 -0.49652,0.77787 -0.50207,-4.03463 z m -464.98992,-3.125 c 0,-5.15625 0.22064,-7.26562 0.49033,-4.6875 0.26967,2.57813 0.26967,6.79688 0,9.375 -0.26969,2.57813 -0.49033,0.46875 -0.49033,-4.6875 z m 463.85698,-31.25 c 0,-14.09375 0.1823,-19.85937 0.40511,-12.8125 0.22281,7.04688 0.22281,18.57813 0,25.625 -0.22281,7.04688 -0.40511,1.28125 -0.40511,-12.8125 z m -465.02731,3.125 c 0.001,-10.3125 0.19536,-14.36491 0.43023,-9.00536 0.23488,5.35954 0.23345,13.79704 -0.004,18.75 -0.23662,4.95295 -0.4288,0.56786 -0.42705,-9.74464 z m 1.16025,-27.5 c -0.005,-4.8125 0.21585,-6.93442 0.49198,-4.71537 0.27614,2.21903 0.28068,6.15653 0.01,8.75 -0.2706,2.59345 -0.49652,0.77787 -0.50207,-4.03463 z m 462.44733,-7.5 c 0.01,-3.4375 0.25215,-4.69539 0.53947,-2.79531 0.28732,1.90007 0.27963,4.71257 -0.017,6.25 -0.2967,1.53742 -0.53178,-0.0171 -0.5224,-3.45469 z m -461.26706,-6.875 c 0,-3.09375 0.24378,-4.35937 0.54171,-2.8125 0.29795,1.54688 0.29795,4.07813 0,5.625 -0.29793,1.54688 -0.54171,0.28125 -0.54171,-2.8125 z m 459.94955,-3.75 c 0,-2.40625 0.25725,-3.39062 0.57166,-2.1875 0.3144,1.20313 0.3144,3.17188 0,4.375 -0.31441,1.20313 -0.57166,0.21875 -0.57166,-2.1875 z m -458.75,-6.25 c 0,-2.40625 0.25725,-3.39062 0.57166,-2.1875 0.3144,1.20313 0.3144,3.17188 0,4.375 -0.31441,1.20313 -0.57166,0.21875 -0.57166,-2.1875 z m 457.5,-2.5 c 0,-2.40625 0.25725,-3.39062 0.57166,-2.1875 0.3144,1.20313 0.3144,3.17188 0,4.375 -0.31441,1.20313 -0.57166,0.21875 -0.57166,-2.1875 z m -456.29631,-5.625 c -0.0255,-2.0625 0.23382,-3.05757 0.57624,-2.21129 0.3424,0.84629 0.36323,2.53379 0.0463,3.75 -0.31693,1.21622 -0.59708,0.52379 -0.62255,-1.53871 z m 454.95367,-1.875 c 0,-1.71875 0.28373,-2.42187 0.63049,-1.5625 0.34676,0.85938 0.34676,2.26563 0,3.125 -0.34676,0.85938 -0.63049,0.15625 -0.63049,-1.5625 z m -453.70367,-5.625 c -0.0255,-2.0625 0.23382,-3.05757 0.57624,-2.21129 0.3424,0.84629 0.36323,2.53379 0.0464,3.75 -0.31692,1.21622 -0.59707,0.52379 -0.62255,-1.53871 z m 452.45367,-0.625 c 0,-1.71875 0.28373,-2.42187 0.63049,-1.5625 0.34676,0.85938 0.34676,2.26563 0,3.125 -0.34676,0.85938 -0.63049,0.15625 -0.63049,-1.5625 z m -451.34867,-5.52084 c -0.0542,-1.3177 0.24115,-2.05598 0.65652,-1.64062 0.41537,0.41536 0.45977,1.49349 0.0986,2.39584 -0.39903,0.99716 -0.69523,0.70097 -0.7552,-0.75522 z m 450.09867,-0.72916 c 0,-1.71875 0.28373,-2.42187 0.63049,-1.5625 0.34676,0.85938 0.34676,2.26563 0,3.125 -0.34676,0.85938 -0.63049,0.15625 -0.63049,-1.5625 z m -448.75,-5 c 0,-1.71875 0.28373,-2.42187 0.63049,-1.5625 0.34676,0.85938 0.34676,2.26563 0,3.125 -0.34676,0.85938 -0.63049,0.15625 -0.63049,-1.5625 z m 447.5,-1.25 c 0,-1.71875 0.28373,-2.42187 0.63049,-1.5625 0.34676,0.85938 0.34676,2.26563 0,3.125 -0.34676,0.85938 -0.63049,0.15625 -0.63049,-1.5625 z m -446.34867,-4.27084 c -0.0542,-1.3177 0.24115,-2.05598 0.65652,-1.64062 0.41537,0.41536 0.45977,1.49349 0.0986,2.39584 -0.39903,0.99716 -0.69523,0.70097 -0.7552,-0.75522 z m 445.09867,-1.97916 c 0,-1.71875 0.28373,-2.42187 0.63049,-1.5625 0.34676,0.85938 0.34676,2.26563 0,3.125 -0.34676,0.85938 -0.63049,0.15625 -0.63049,-1.5625 z m -443.84867,-3.02084 c -0.0542,-1.3177 0.24115,-2.05598 0.65652,-1.64062 0.41537,0.41536 0.45977,1.49349 0.0986,2.39584 -0.39903,0.99716 -0.69523,0.70097 -0.7552,-0.75522 z m 442.5,-2.5 c -0.0542,-1.3177 0.24116,-2.05598 0.65652,-1.64062 0.41536,0.41536 0.45977,1.49349 0.0986,2.39584 -0.39903,0.99716 -0.69523,0.70097 -0.7552,-0.75522 z m -1.25,-5 c -0.0542,-1.3177 0.24116,-2.05598 0.65652,-1.64062 0.41536,0.41536 0.45977,1.49349 0.0986,2.39584 -0.39903,0.99716 -0.69523,0.70097 -0.7552,-0.75522 z m -438.75,-1.25 c -0.0542,-1.3177 0.24115,-2.05598 0.65652,-1.64062 0.41537,0.41536 0.45977,1.49349 0.0986,2.39584 -0.39903,0.99716 -0.69523,0.70097 -0.7552,-0.75522 z m 437.5,-3.75 c -0.0542,-1.3177 0.24116,-2.05598 0.65652,-1.64062 0.41536,0.41536 0.45977,1.49349 0.0986,2.39584 -0.39903,0.99716 -0.69523,0.70097 -0.7552,-0.75522 z m -1.25,-5 c -0.0542,-1.3177 0.24116,-2.05598 0.65652,-1.64062 0.41536,0.41536 0.45977,1.49349 0.0986,2.39584 -0.39903,0.99716 -0.69523,0.70097 -0.7552,-0.75522 z m -1.25,-5 c -0.0542,-1.3177 0.24116,-2.05598 0.65652,-1.64062 0.41536,0.41536 0.45977,1.49349 0.0986,2.39584 -0.39903,0.99716 -0.69523,0.70097 -0.7552,-0.75522 z m -3.75,-12.5 c -0.0542,-1.3177 0.24116,-2.05598 0.65652,-1.64062 0.41536,0.41536 0.45977,1.49349 0.0986,2.39584 -0.39903,0.99716 -0.69523,0.70097 -0.7552,-0.75522 z M -49.304313,101.24985 c 0.415363,-0.41536 1.493488,-0.45977 2.395838,-0.0987 0.997162,0.39903 0.700975,0.69522 -0.755213,0.7552 -1.3177,0.0543 -2.055987,-0.24116 -1.640625,-0.65652 z m 141.25,0 c 0.415363,-0.41536 1.493488,-0.45977 2.395838,-0.0987 0.997162,0.39903 0.700975,0.69522 -0.755213,0.7552 -1.3177,0.0543 -2.055987,-0.24116 -1.640625,-0.65652 z m -136.25,-1.249997 c 0.415363,-0.415363 1.493488,-0.459772 2.395838,-0.09869 0.997162,0.399037 0.700975,0.695227 -0.755213,0.755207 -1.3177,0.0543 -2.055987,-0.24116 -1.640625,-0.656523 z m 131.25,0 c 0.415363,-0.415363 1.493488,-0.459772 2.395838,-0.09869 0.997162,0.399037 0.700975,0.695227 -0.755213,0.755207 -1.3177,0.0543 -2.055987,-0.24116 -1.640625,-0.656523 z m -126.25,-1.25 c 0.415363,-0.415363 1.493488,-0.459772 2.395838,-0.09869 0.997162,0.399032 0.700975,0.695229 -0.755213,0.755208 -1.3177,0.05428 -2.055987,-0.24116 -1.640625,-0.656524 z m 5.598963,-1.322642 c 0.859375,-0.346765 2.265625,-0.346765 3.125,0 0.859375,0.346766 0.15625,0.630482 -1.5625,0.630482 -1.71875,0 -2.421875,-0.283716 -1.5625,-0.630482 z m 111.25,0 c 0.859375,-0.346765 2.265625,-0.346765 3.125,0 0.859375,0.346766 0.15625,0.630482 -1.5625,0.630482 -1.71875,0 -2.421875,-0.283716 -1.5625,-0.630482 z m -105.023787,-1.24207 c 0.846287,-0.342404 2.533787,-0.363247 3.75,-0.04631 1.216212,0.31693 0.523787,0.597079 -1.538713,0.622553 -2.0625,0.02548 -3.057575,-0.233832 -2.211287,-0.576235 z m 97.5,0 c 0.846287,-0.342404 2.533787,-0.363247 3.75,-0.04631 1.216212,0.31693 0.523787,0.597079 -1.538713,0.622553 -2.0625,0.02548 -3.057575,-0.233832 -2.211287,-0.576235 z M -19.33035,94.893405 c 1.203125,-0.314409 3.171875,-0.314409 4.375,0 1.203125,0.314409 0.21875,0.571653 -2.1875,0.571653 -2.40625,0 -3.390625,-0.257244 -2.1875,-0.571653 z m 81.25,0 c 1.203125,-0.314409 3.171875,-0.314409 4.375,0 1.203125,0.314409 0.21875,0.571653 -2.1875,0.571653 -2.40625,0 -3.390625,-0.257244 -2.1875,-0.571653 z M -9.3131625,93.608086 c 1.900075,-0.287319 4.712575,-0.27964 6.25,0.01706 1.537425,0.296703 -0.01725,0.53178 -3.4546875,0.522396 -3.4375,-0.0094 -4.695387,-0.252141 -2.7953125,-0.539458 z m 60.6078125,0.01481 c 1.546875,-0.297941 4.078125,-0.297941 5.625,0 1.546875,0.297941 0.28125,0.541711 -2.8125,0.541711 -3.09375,0 -4.359375,-0.24377 -2.8125,-0.541711 z m -39.375,-1.299711 c 6.703125,-0.224759 17.671875,-0.224759 24.375,0 6.703125,0.224759 1.21875,0.408653 -12.1875,0.408653 -13.40625,0 -18.890625,-0.183894 -12.1875,-0.408653 z"
         id="path4183"
         inkscape:connector-curvature="0" />
      <path
         style="fill:#ffffff;fill-opacity:1"
         d="m -41.0523,702.31756 c -1.554838,-1.98257 -1.510625,-2.02679 0.47195,-0.47195 1.203125,0.94356 2.1875,1.92794 2.1875,2.1875 0,1.0288 -1.026488,0.36664 -2.65945,-1.71555 z m 132.65945,-2.1875 c 0.855862,-1.03125 1.837363,-1.875 2.181112,-1.875 0.34375,0 -0.07525,0.84375 -0.931112,1.875 -0.855862,1.03125 -1.837363,1.875 -2.181113,1.875 -0.343749,0 0.07525,-0.84375 0.931113,-1.875 z m -138.243763,-2.1875 -2.381237,-2.8125 2.8125,2.38124 c 2.64305,2.23777 3.38155,3.24376 2.381237,3.24376 -0.237199,0 -1.502825,-1.26562 -2.8125,-2.8125 z m 143.868763,-2.1875 c 1.244363,-1.375 2.543725,-2.5 2.88747,-2.5 0.34375,0 -0.393107,1.125 -1.63747,2.5 -1.244363,1.375 -2.543725,2.5 -2.887475,2.5 -0.34375,0 0.393112,-1.125 1.637475,-2.5 z m -157.5,-10 c -5.467738,-5.5 -9.6601,-10 -9.31635,-10 0.34375,0 5.098612,4.5 10.56635,10 5.467737,5.5 9.6601,10 9.31635,10 -0.34375,0 -5.098613,-4.5 -10.56635,-10 z m 177.5,-8.75 c 8.91766,-8.9375 16.49517,-16.25 16.83892,-16.25 0.34375,0 -6.67126,7.3125 -15.58892,16.25 -8.91766,8.9375 -16.49518,16.25 -16.83892,16.25 -0.34375,0 6.67126,-7.3125 15.58892,-16.25 z m -190.78445,-3.4375 c -1.554837,-1.98257 -1.510625,-2.02679 0.47195,-0.47195 2.082187,1.63296 2.74435,2.65945 1.71555,2.65945 -0.259562,0 -1.243937,-0.98437 -2.1875,-2.1875 z m -12.34055,-13.4375 c -5.813388,-5.84375 -10.28855,-10.625 -9.9448,-10.625 0.34375,0 5.381412,4.78125 11.1948,10.625 5.813387,5.84375 10.28855,10.625 9.9448,10.625 -0.34375,0 -5.381413,-4.78125 -11.1948,-10.625 z m 223.75,-5 c 2.33222,-2.40625 4.52166,-4.375 4.86541,-4.375 0.34375,0 -1.28318,1.96875 -3.61541,4.375 -2.33222,2.40625 -4.52166,4.375 -4.86541,4.375 -0.34375,0 1.28318,-1.96875 3.61541,-4.375 z m 7.5,-8.75 c 1.61469,-1.71875 3.21704,-3.125 3.56079,-3.125 0.34375,0 -0.6961,1.40625 -2.31079,3.125 -1.61469,1.71875 -3.21704,3.125 -3.56079,3.125 -0.34375,0 0.6961,-1.40625 2.31079,-3.125 z m -246.875,-3.125 c -2.6853,-2.75 -4.60113,-5 -4.25738,-5 0.34375,0 2.82208,2.25 5.50738,5 2.6853,2.75 4.601125,5 4.257375,5 -0.34375,0 -2.822075,-2.25 -5.507375,-5 z m 252.5,-3.75 c 1.24436,-1.375 2.54373,-2.5 2.88747,-2.5 0.34375,0 -0.39311,1.125 -1.63747,2.5 -1.24436,1.375 -2.54373,2.5 -2.88748,2.5 -0.34374,0 0.39312,-1.125 1.63748,-2.5 z m -261.25,-6.25 c -1.976,-2.0625 -3.31148,-3.75 -2.96773,-3.75 0.34376,0 2.24173,1.6875 4.21773,3.75 1.976,2.0625 3.31147,3.75 2.96772,3.75 -0.34375,0 -2.24172,-1.6875 -4.21772,-3.75 z m 265.625,0.625 c 0.85586,-1.03125 1.83736,-1.875 2.18111,-1.875 0.34375,0 -0.0753,0.84375 -0.93111,1.875 -0.85586,1.03125 -1.83736,1.875 -2.18111,1.875 -0.34375,0 0.0753,-0.84375 0.93111,-1.875 z m 3.75,-5 c 0.85586,-1.03125 1.83736,-1.875 2.18111,-1.875 0.34375,0 -0.0753,0.84375 -0.93111,1.875 -0.85586,1.03125 -1.83736,1.875 -2.18111,1.875 -0.34375,0 0.0753,-0.84375 0.93111,-1.875 z m -275.74376,-3.4375 -2.38124,-2.8125 2.8125,2.38124 c 2.64305,2.23777 3.38155,3.24376 2.38124,3.24376 -0.2372,0 -1.50283,-1.26562 -2.8125,-2.8125 z m 279.49376,-1.5625 c 0.85586,-1.03125 1.83736,-1.875 2.18111,-1.875 0.34375,0 -0.0753,0.84375 -0.93111,1.875 -0.85586,1.03125 -1.83736,1.875 -2.18111,1.875 -0.34375,0 0.0753,-0.84375 0.93111,-1.875 z m -284.49376,-4.6875 -2.38124,-2.8125 2.8125,2.38124 c 2.64305,2.23777 3.38155,3.24376 2.38124,3.24376 -0.2372,0 -1.50283,-1.26562 -2.8125,-2.8125 z m 288.24376,-0.3125 c 0.85586,-1.03125 1.83736,-1.875 2.18111,-1.875 0.34375,0 -0.0753,0.84375 -0.93111,1.875 -0.85586,1.03125 -1.83736,1.875 -2.18111,1.875 -0.34375,0 0.0753,-0.84375 0.93111,-1.875 z m -292.65945,-5.3125 c -1.55484,-1.98257 -1.51062,-2.02679 0.47195,-0.47195 1.20312,0.94356 2.1875,1.92794 2.1875,2.1875 0,1.0288 -1.02649,0.36664 -2.65945,-1.71555 z m -3.75,-5 c -1.55484,-1.98257 -1.51062,-2.02679 0.47195,-0.47195 1.20313,0.94356 2.1875,1.92794 2.1875,2.1875 0,1.0288 -1.02649,0.36664 -2.65945,-1.71555 z m -6.25,-8.75 c -1.55484,-1.98257 -1.51062,-2.02679 0.47195,-0.47195 1.20313,0.94356 2.1875,1.92794 2.1875,2.1875 0,1.0288 -1.02649,0.36664 -2.65945,-1.71555 z m 133.28445,-16.5625 c 1.2443625,-1.375 2.543725,-2.5 2.887475,-2.5 0.34375,0 -0.3931125,1.125 -1.637475,2.5 -1.2443625,1.375 -2.543725,2.5 -2.887475,2.5 -0.34375,0 0.3931125,-1.125 1.637475,-2.5 z m 47.96555,-0.9375 c -1.554838,-1.98257 -1.510625,-2.02679 0.47195,-0.47195 2.082187,1.63296 2.74435,2.65945 1.71555,2.65945 -0.259563,0 -1.243938,-0.98437 -2.1875,-2.1875 z m -141.25,-25 c -1.554838,-1.98257 -1.510625,-2.02679 0.47195,-0.47195 1.203125,0.94356 2.1875,1.92794 2.1875,2.1875 0,1.0288 -1.026488,0.36664 -2.65945,-1.71555 z m -8.75,-6.25 c -1.55484,-1.98257 -1.51063,-2.02679 0.47195,-0.47195 1.20312,0.94356 2.1875,1.92794 2.1875,2.1875 0,1.0288 -1.02649,0.36664 -2.65945,-1.71555 z m 258.28445,-0.3125 c 1.24436,-1.375 2.54373,-2.5 2.88747,-2.5 0.34375,0 -0.39311,1.125 -1.63747,2.5 -1.24436,1.375 -2.54373,2.5 -2.88748,2.5 -0.34374,0 0.39312,-1.125 1.63748,-2.5 z m -265,-5 c -1.976,-2.0625 -3.31148,-3.75 -2.96773,-3.75 0.34376,0 2.24173,1.6875 4.21773,3.75 1.976,2.0625 3.31147,3.75 2.96772,3.75 -0.34375,0 -2.24172,-1.6875 -4.21772,-3.75 z m 269.375,2.44135 c 0,-0.34375 4.5,-5.09861 10,-10.56635 5.5,-5.46774 10,-9.6601 10,-9.31635 0,0.34375 -4.5,5.09861 -10,10.56635 -5.5,5.46774 -10,9.6601 -10,9.31635 z m -281.25,-13.06635 c -3.73427,-3.78125 -6.50835,-6.875 -6.1646,-6.875 0.34375,0 3.68033,3.09375 7.4146,6.875 3.73427,3.78125 6.50835,6.875 6.1646,6.875 -0.34375,0 -3.68033,-3.09375 -7.4146,-6.875 z m -10.625,-11.875 c -1.976,-2.0625 -3.31147,-3.75 -2.96772,-3.75 0.34375,0 2.24172,1.6875 4.21772,3.75 1.976,2.0625 3.31148,3.75 2.96773,3.75 -0.34376,0 -2.24173,-1.6875 -4.21773,-3.75 z m 313.75,1.25 c 1.24436,-1.375 2.54373,-2.5 2.88747,-2.5 0.34375,0 -0.39311,1.125 -1.63747,2.5 -1.24436,1.375 -2.54373,2.5 -2.88748,2.5 -0.34374,0 0.39312,-1.125 1.63748,-2.5 z m -319.53445,-8.4375 c -1.55484,-1.98257 -1.51062,-2.02679 0.47195,-0.47195 1.20313,0.94356 2.1875,1.92794 2.1875,2.1875 0,1.0288 -1.02649,0.36664 -2.65945,-1.71555 z m -3.75,-5 c -1.55484,-1.98257 -1.51062,-2.02679 0.47195,-0.47195 1.20313,0.94356 2.1875,1.92794 2.1875,2.1875 0,1.0288 -1.02649,0.36664 -2.65945,-1.71555 z m 105,-22.5 c -1.554838,-1.98257 -1.510625,-2.02679 0.47195,-0.47195 2.082187,1.63296 2.74435,2.65945 1.71555,2.65945 -0.259563,0 -1.243938,-0.98437 -2.1875,-2.1875 z m -3.75,-5 c -1.554838,-1.98257 -1.510625,-2.02679 0.47195,-0.47195 2.082187,1.63296 2.74435,2.65945 1.71555,2.65945 -0.259563,0 -1.243938,-0.98437 -2.1875,-2.1875 z m 128.90945,0.3125 c 0.855862,-1.03125 1.837363,-1.875 2.181112,-1.875 0.34375,0 -0.07525,0.84375 -0.931112,1.875 -0.855862,1.03125 -1.837363,1.875 -2.181113,1.875 -0.343749,0 0.07525,-0.84375 0.931113,-1.875 z m -133.243763,-5.9375 -2.381237,-2.8125 2.8125,2.38124 c 2.64305,2.23777 3.38155,3.24376 2.381237,3.24376 -0.237199,0 -1.502825,-1.26562 -2.8125,-2.8125 z m 135.743763,2.65523 c 0,-0.34375 1.6875,-2.24173 3.75,-4.21773 2.0625,-1.976 3.75,-3.31147 3.75,-2.96772 0,0.34375 -1.6875,2.24172 -3.75,4.21772 -2.0625,1.976 -3.75,3.31148 -3.75,2.96773 z m -148.125,-16.09273 c -5.467738,-5.5 -9.6601,-10 -9.31635,-10 0.34375,0 5.098612,4.5 10.56635,10 5.467737,5.5 9.6601,10 9.31635,10 -0.34375,0 -5.098613,-4.5 -10.56635,-10 z m 160.625,1.875 c 3.03629,-3.09375 5.80177,-5.625 6.14553,-5.625 0.34374,0 -1.85924,2.53125 -4.89553,5.625 -3.036288,3.09375 -5.801775,5.625 -6.145525,5.625 -0.34375,0 1.859237,-2.53125 4.895525,-5.625 z m 10,-8.75 c 1.61469,-1.71875 3.21704,-3.125 3.56079,-3.125 0.34375,0 -0.6961,1.40625 -2.31079,3.125 -1.61469,1.71875 -3.21704,3.125 -3.56079,3.125 -0.34375,0 0.6961,-1.40625 2.31079,-3.125 z m -184.493763,-5.9375 -2.381237,-2.8125 2.8125,2.38124 c 2.64305,2.23777 3.38155,3.24376 2.381237,3.24376 -0.2372,0 -1.502825,-1.26562 -2.8125,-2.8125 z m 190.743763,0.9375 c 0.85586,-1.03125 1.83736,-1.875 2.18111,-1.875 0.34375,0 -0.0752,0.84375 -0.93111,1.875 -0.85586,1.03125 -1.83736,1.875 -2.18111,1.875 -0.34375,0 0.0752,-0.84375 0.93111,-1.875 z m -200.15945,-7.8125 c -1.554837,-1.98257 -1.510625,-2.02679 0.47195,-0.47195 1.203125,0.94356 2.1875,1.92794 2.1875,2.1875 0,1.0288 -1.026488,0.36664 -2.65945,-1.71555 z m -79.84055,-20.9375 c 0.85586,-1.03125 1.83736,-1.875 2.18111,-1.875 0.34375,0 -0.0753,0.84375 -0.93111,1.875 -0.85586,1.03125 -1.83736,1.875 -2.18111,1.875 -0.34375,0 0.0753,-0.84375 0.93111,-1.875 z m 373.59055,-4.0625 c -1.55484,-1.98257 -1.51063,-2.02679 0.47195,-0.47195 1.20312,0.94356 2.1875,1.92794 2.1875,2.1875 0,1.0288 -1.02649,0.36664 -2.65945,-1.71555 z m -11.25,-243.75 c -1.55484,-1.98257 -1.51063,-2.02679 0.47195,-0.47195 2.08219,1.63296 2.74435,2.65945 1.71555,2.65945 -0.25956,0 -1.24394,-0.98437 -2.1875,-2.1875 z m -4.33431,-5.625 -2.38124,-2.8125 2.8125,2.38124 c 1.54687,1.30967 2.8125,2.5753 2.8125,2.8125 0,1.00031 -1.00599,0.26181 -3.24376,-2.38124 z m -341.75624,-2.8125 c 0.85586,-1.03125 1.83736,-1.875 2.18111,-1.875 0.34375,0 -0.0753,0.84375 -0.93111,1.875 -0.85586,1.03125 -1.83736,1.875 -2.18111,1.875 -0.34375,0 0.0753,-0.84375 0.93111,-1.875 z m 336.75624,-3.4375 -2.38124,-2.8125 2.8125,2.38124 c 1.54687,1.30967 2.8125,2.5753 2.8125,2.8125 0,1.00031 -1.00599,0.26181 -3.24376,-2.38124 z m -331.75624,-2.8125 c 1.61469,-1.71875 3.21704,-3.125 3.56079,-3.125 0.34375,0 -0.6961,1.40625 -2.31079,3.125 -1.61469,1.71875 -3.21704,3.125 -3.56079,3.125 -0.34375,0 0.6961,-1.40625 2.31079,-3.125 z m 321.875,-8.125 c -4.08196,-4.125 -7.14049,-7.5 -6.79674,-7.5 0.34375,0 3.96478,3.375 8.04674,7.5 4.08196,4.125 7.14049,7.5 6.79674,7.5 -0.34375,0 -3.96478,-3.375 -8.04674,-7.5 z m -318.125,3.67778 c 0,-0.34375 3.65625,-4.24875 8.125,-8.67778 4.46875,-4.42903 8.125,-7.77153 8.125,-7.42778 0,0.34375 -3.65625,4.24875 -8.125,8.67778 -4.46875,4.42903 -8.125,7.77153 -8.125,7.42778 z m 306.15539,-14.61528 -3.03039,-3.4375 3.4375,3.03039 c 1.89062,1.66672 3.4375,3.2136 3.4375,3.4375 0,0.98035 -1.01225,0.18247 -3.84461,-3.03039 z m -286.15539,-4.6875 c 1.61469,-1.71875 3.21704,-3.125 3.56079,-3.125 0.34375,0 -0.6961,1.40625 -2.31079,3.125 -1.61469,1.71875 -3.21704,3.125 -3.56079,3.125 -0.34375,0 0.6961,-1.40625 2.31079,-3.125 z m 279.84055,-0.3125 c -1.55484,-1.98257 -1.51062,-2.02678 0.47195,-0.47194 2.08219,1.63296 2.74435,2.65944 1.71555,2.65944 -0.25956,0 -1.24394,-0.98437 -2.1875,-2.1875 z m -5,-3.75 c -1.55484,-1.98257 -1.51062,-2.02678 0.47195,-0.47194 2.08219,1.63296 2.74435,2.65944 1.71555,2.65944 -0.25956,0 -1.24394,-0.98437 -2.1875,-2.1875 z m -268.59055,-0.9375 c 0.85586,-1.03125 1.83736,-1.875 2.18111,-1.875 0.34375,0 -0.0752,0.84375 -0.93111,1.875 -0.85586,1.03125 -1.83736,1.875 -2.18111,1.875 -0.34375,0 0.0752,-0.84375 0.93111,-1.875 z"
         id="path4181"
         inkscape:connector-curvature="0" />
      <path
         style="fill:#ffffff;fill-opacity:1"
         d="m 0.35715,722.02916 c -12.326225,-3.27785 -30.218112,-12.18541 -41.532775,-20.67727 -10.728738,-8.05213 -42.435538,-39.2526 -59.674765,-58.72183 -59.31786,-66.99101 -92.48108,-134.80571 -103.86958,-212.40046 -13.86372,-94.45954 3.2064,-177.24275 51.62227,-250.34733 C -119.89254,129.7448 -71.7195,101.6402 -6.8796125,94.577266 10.5867,92.674681 41.617163,92.950112 58.730625,95.159632 113.35288,102.21191 162.73054,128.9464 194.28245,168.5513 c 28.68211,36.00262 45.59543,80.95225 56.79979,150.95376 2.45209,15.31991 4.36117,79.61305 2.95646,99.56615 -3.73567,53.06311 -25.34004,105.86648 -73.19946,178.90718 -36.25631,55.3326 -78.61339,99.3632 -111.348127,115.74748 -14.9523,7.48389 -24.865988,9.87693 -42.883963,10.35169 -13.893662,0.3661 -18.5313,0.004 -26.25,-2.0484 z M -1.8389875,583.62099 c 5.378375,-4.83304 0.248125,-27.59253 -12.0914255,-53.64159 -25.394587,-53.60849 -57.041762,-85.84323 -98.493837,-100.32246 -12.63771,-4.41437 -28.24531,-7.56702 -39.5282,-7.98449 -6.98467,-0.25844 -8.18034,0.0502 -10.29636,2.65859 -3.52915,4.35016 -3.46054,33.0674 0.11262,47.16157 9.23978,36.44536 43.2118,75.42424 83.680728,96.01376 15.366325,7.81797 27.586537,12.09849 44.667599,15.64627 20.685751,4.29647 27.576338,4.39748 31.9488255,0.46835 z M 80.451225,582.59374 C 143.32365,571.80249 190.05755,530.90819 207.10167,471.76879 c 5.76804,-20.01383 8.80579,-48.71342 5.50548,-52.01373 -2.07795,-2.07795 -5.53349,-1.89459 -20.17865,1.07073 -56.47134,11.43417 -95.430337,39.92525 -121.276313,88.69046 -9.313287,17.57196 -27.045037,63.47822 -27.045037,70.01769 0,1.28115 1.265625,3.25065 2.8125,4.37666 3.229437,2.35079 14.81355,1.89585 33.531575,-1.31686 z"
         id="path4179"
         inkscape:connector-curvature="0" />
    </g>
  </g>
</svg>
