<?xml version="1.0" encoding="UTF-8" standalone="no"?>
<svg
   version="1.1"
   id="Layer_1"
   x="0px"
   y="0px"
   width="600px"
   height="600px"
   viewBox="0 0 600 600"
   enable-background="new 0 0 600 600"
   xml:space="preserve"
   sodipodi:docname="azure.svg"
   inkscape:version="1.3.2 (091e20e, 2023-11-25, custom)"
   xmlns:inkscape="http://www.inkscape.org/namespaces/inkscape"
   xmlns:sodipodi="http://sodipodi.sourceforge.net/DTD/sodipodi-0.dtd"
   xmlns="http://www.w3.org/2000/svg"
   xmlns:svg="http://www.w3.org/2000/svg"><defs
   id="defs1"><pattern
     id="EMFhbasepattern"
     patternUnits="userSpaceOnUse"
     width="6"
     height="6"
     x="0"
     y="0" /></defs><sodipodi:namedview
   id="namedview1"
   pagecolor="#ffffff"
   bordercolor="#000000"
   borderopacity="0.25"
   inkscape:showpageshadow="2"
   inkscape:pageopacity="0.0"
   inkscape:pagecheckerboard="0"
   inkscape:deskcolor="#d1d1d1"
   inkscape:zoom="0.47906484"
   inkscape:cx="217.08961"
   inkscape:cy="510.36932"
   inkscape:window-width="1920"
   inkscape:window-height="1009"
   inkscape:window-x="1073"
   inkscape:window-y="2152"
   inkscape:window-maximized="1"
   inkscape:current-layer="g5" />  
<g
   id="g1"
   transform="matrix(0.39238967,0,0,0.39238967,653.50563,226.04184)"><g
     style="fill:none"
     id="g5"
     transform="matrix(8.5429944,0,0,8.5429944,-1559.151,-471.69565)"><path
       style="fill:#ffffff;stroke-width:0.50669"
       d="m 0.33989,155.32044 c -1.09183558,-0.2067 -2.7846205,-1.06646 -3.6737751,-1.86589 -1.7363147,-1.56109 -2.632036,-3.56248 -2.6372903,-5.89271 -0.00253,-1.16843 0.077088,-1.60563 0.5650301,-3.09862 C -2.4373683,135.37947 42.200063,3.4478949 42.514818,2.8267595 c 0.569231,-1.1233304 2.187461,-2.70771008 3.380838,-3.31012578 1.891392,-0.95477142 0.24314,-0.90689842 31.305139,-0.90925042 31.086905,-0.00233 29.402325,-0.051283 31.305125,0.90925042 1.19497,0.6032153 2.81182,2.18721748 3.38287,3.31412808 0.2304,0.4546604 6.6397,19.2613602 14.24289,41.7926622 7.60319,22.531304 18.38514,54.467682 23.95987,70.969726 l 10.13588,30.00371 0.0689,1.67124 c 0.0614,1.48945 0.0286,1.7871 -0.30142,2.73617 -0.70697,2.03289 -2.13721,3.68849 -3.96827,4.59356 -1.93349,0.95571 -0.214,0.90969 -32.31383,0.86478 l -29.205116,-0.0408 -0.965345,-0.34865 c -0.53094,-0.19176 -1.315615,-0.57272 -1.743728,-0.84658 -0.572615,-0.3663 -28.909808,-26.63195 -33.904387,-31.42586 -0.351572,-0.33745 -0.681204,-0.57157 -0.732506,-0.52026 -0.05131,0.0513 -2.252105,6.48698 -4.890662,14.30151 -3.336213,9.88074 -4.954606,14.46948 -5.313581,15.06599 -1.072829,1.7827 -3.293995,3.31536 -5.343049,3.68683 -1.152031,0.20885 -40.1672762,0.19534 -41.274576,-0.0143 z M 83.631419,81.772837 C 80.21486,71.651307 77.364222,63.234018 77.296665,63.067752 c -0.101667,-0.250223 -0.16933,-0.15908 -0.39273,0.52903 -0.14844,0.457237 -2.965144,8.814058 -6.259337,18.570716 -3.294189,9.756653 -5.989439,17.799842 -5.989439,17.873752 0,0.0773 5.347067,0.13437 12.59409,0.13437 H 89.84334 Z"
       id="path5" /></g></g></svg>
