<?xml version="1.0" encoding="UTF-8" standalone="no"?>
<svg
   version="1.1"
   id="Layer_1"
   x="0px"
   y="0px"
   width="600px"
   height="600px"
   viewBox="0 0 600 600"
   enable-background="new 0 0 600 600"
   xml:space="preserve"
   sodipodi:docname="bruno.svg"
   inkscape:version="1.3.2 (091e20e, 2023-11-25, custom)"
   xmlns:inkscape="http://www.inkscape.org/namespaces/inkscape"
   xmlns:sodipodi="http://sodipodi.sourceforge.net/DTD/sodipodi-0.dtd"
   xmlns="http://www.w3.org/2000/svg"
   xmlns:svg="http://www.w3.org/2000/svg"><defs
   id="defs1"><pattern
     id="EMFhbasepattern"
     patternUnits="userSpaceOnUse"
     width="6"
     height="6"
     x="0"
     y="0" /></defs><sodipodi:namedview
   id="namedview1"
   pagecolor="#ffffff"
   bordercolor="#000000"
   borderopacity="0.25"
   inkscape:showpageshadow="2"
   inkscape:pageopacity="0.0"
   inkscape:pagecheckerboard="0"
   inkscape:deskcolor="#d1d1d1"
   inkscape:zoom="0.47906484"
   inkscape:cx="215.00221"
   inkscape:cy="510.36933"
   inkscape:window-width="1920"
   inkscape:window-height="1009"
   inkscape:window-x="-8"
   inkscape:window-y="-8"
   inkscape:window-maximized="1"
   inkscape:current-layer="g5"
   showgrid="false" />  
<g
   id="g1"
   transform="matrix(0.39238967,0,0,0.39238967,653.50563,226.04184)"><g
     style="fill:none"
     id="g5"
     transform="matrix(8.5429944,0,0,8.5429944,-1559.151,-471.69565)"><path
       style="fill:#ffffff;stroke-width:4.69007842;stroke:#ffffff;stroke-opacity:1;stroke-dasharray:none"
       d="m 75.793431,132.65523 c -2.278556,-0.37122 -4.448367,-0.98593 -5.623521,-1.59313 -1.789972,-0.9249 -3.928441,-3.51413 -4.890645,-5.92152 -1.230688,-3.07915 -1.554294,-5.04386 -1.79761,-10.91362 l -0.207033,-4.99473 -1.448102,-0.76822 c -1.717696,-0.91123 -5.609411,-4.59375 -6.83155,-6.46432 -1.735249,-2.655898 -2.550882,-9.007922 -1.372663,-10.690069 0.656117,-0.936747 2.227464,-0.973772 3.127552,-0.07372 0.542474,0.542475 0.662378,1.103968 0.662378,3.101828 0,2.129876 0.148403,2.736088 1.169426,4.77698 1.316996,2.632531 2.493617,3.801591 5.518118,5.482681 3.076869,1.71019 4.023774,1.79571 6.34765,0.57328 1.060136,-0.55766 2.622157,-1.62434 3.471164,-2.37038 l 1.543647,-1.35644 0.165589,-3.309164 c 0.178989,-3.576668 0.533193,-4.249249 2.237833,-4.249249 1.85079,0 2.067671,0.413912 2.067671,3.946071 v 3.260382 l 1.573168,1.27063 c 0.865237,0.69886 1.650062,1.37708 1.744041,1.50718 0.09404,0.13009 1.059859,0.70417 2.146396,1.27572 1.568106,0.82487 2.211666,0.99488 3.120591,0.82436 2.872123,-0.53881 6.595485,-3.26802 8.801725,-6.451618 0.82088,-1.184525 0.95935,-1.747727 1.13093,-4.599944 0.12059,-2.004466 0.36975,-3.459918 0.65008,-3.797435 0.65264,-0.785779 2.538324,-0.700748 3.392034,0.152966 0.63359,0.63359 0.68761,0.988638 0.56769,3.730588 -0.11589,2.649625 -0.27668,3.317665 -1.27982,5.317183 -0.631,1.25775 -1.892474,3.0996 -2.803254,4.09301 -1.88936,2.06076 -5.93175,5.03696 -6.8414,5.03696 -0.560678,0 -0.610438,0.33861 -0.610438,4.15387 0,4.85439 -0.563713,7.99248 -2.198765,12.24017 -1.369987,3.55909 -2.777377,5.17234 -5.352994,6.13601 -2.038994,0.76288 -5.754217,1.06885 -8.179888,0.67366 z m 7.283209,-4.79007 c 1.109197,-0.72678 2.99488,-4.86328 3.638285,-7.98107 0.362275,-1.75552 0.511722,-3.80134 0.44291,-6.06304 l -0.103805,-3.4135 -2.152747,-0.73257 c -2.006497,-0.68279 -6.292661,-3.57825 -6.292661,-4.25091 0,-0.65178 -0.926954,-0.15551 -3.21095,1.71907 -2.062864,1.69309 -2.841704,2.10905 -5.116041,2.73235 l -2.682743,0.73521 0.197442,3.55005 c 0.452036,8.12761 1.791592,11.92931 4.648705,13.19315 3.000731,1.32736 8.949536,1.61343 10.63166,0.51126 z m 12.344016,-7.82554 c -1.84936,-1.12304 -1.34117,-2.95237 1.14717,-4.12944 0.96069,-0.45445 2.53309,-1.3152 3.494244,-1.9128 1.8291,-1.13725 6.94331,-6.54674 7.86444,-8.3185 0.29442,-0.56631 1.10489,-1.9698 1.80105,-3.11889 l 1.26575,-2.08924 -0.96902,-1.939171 c -1.1319,-2.265134 -1.24902,-3.925498 -0.48334,-6.852311 2.83077,-10.820619 3.14081,-20.944011 0.84651,-27.640436 -0.53789,-1.569948 -0.97798,-3.163642 -0.97798,-3.541545 0,-0.857287 1.18504,-1.718232 2.36503,-1.718232 1.17904,0 1.98663,1.324719 3.05491,5.011144 2.08217,7.185154 1.78227,17.51287 -0.80821,27.832104 -0.35058,1.396521 -0.63741,2.870069 -0.63741,3.274566 0,0.404486 1.13377,3.012921 2.51951,5.796521 3.37944,6.78842 3.8995,6.91783 7.61479,1.89485 1.04781,-1.41664 2.24091,-2.948297 2.65132,-3.403686 0.41041,-0.455389 1.16663,-1.603011 1.68051,-2.550282 0.51387,-0.947261 1.73387,-3.033771 2.7111,-4.636693 0.97722,-1.602922 2.04247,-3.659579 2.36722,-4.570358 0.32477,-0.910778 0.99084,-2.757671 1.48019,-4.10421 0.48934,-1.346528 1.04862,-3.73111 1.24285,-5.299082 0.31358,-2.531642 0.27737,-3.128962 -0.32329,-5.334787 -1.97232,-7.242875 -6.98731,-18.241388 -10.34446,-22.686693 -0.68782,-0.910779 -1.62629,-2.252109 -2.08546,-2.980733 -0.89575,-1.421378 -6.33159,-6.789449 -6.87516,-6.789449 -0.18017,0 -1.0906,-0.536323 -2.0232,-1.191828 -2.19933,-1.54587 -4.8809,-2.47688 -7.57807,-2.631013 -2.28293,-0.13046 -2.65011,-0.285448 -8.106564,-3.421713 -3.26208,-1.874979 -9.224539,-3.920656 -14.241837,-4.886272 -6.207651,-1.194707 -14.762981,-0.613678 -20.505418,1.39261 -1.263218,0.44134 -2.511514,0.802436 -2.774003,0.802436 -0.74308,0 -5.265454,2.203016 -6.832416,3.328323 -0.968232,0.695326 -2.022739,1.099243 -3.367691,1.289953 -3.386476,0.48019 -4.629909,0.965611 -7.808264,3.048253 -4.454229,2.918651 -12.056992,10.872148 -13.363585,13.980055 -0.240496,0.572062 -0.868391,1.636259 -1.395312,2.364883 -1.155326,1.597561 -2.880994,4.947451 -5.982599,11.613475 -3.05743,6.57106 -3.694839,9.421567 -3.079312,13.770569 0.689889,4.874291 1.284689,6.501826 4.642477,12.703105 1.732018,3.19875 3.451158,5.9272 4.621583,7.334923 0.476606,0.573254 1.20915,1.616504 1.62788,2.318344 0.418718,0.70186 1.49714,2.05854 2.396483,3.01485 3.016985,3.20813 3.795559,2.5603 7.767342,-6.462963 l 1.204764,-2.737054 -0.838026,-3.555607 C 38.000883,82.183183 37.949579,68.839305 40.271146,62.137417 c 0.758345,-2.189201 1.341621,-2.695977 3.102959,-2.695977 1.283701,0 1.833481,1.61033 1.23,3.602759 -1.423699,4.70053 -1.598936,6.100682 -1.580162,12.625679 0.01865,6.465211 0.457632,10.367561 2.01237,17.886924 0.492704,2.382895 0.485254,2.572143 -0.178834,4.543446 -0.381116,1.131346 -0.692943,2.324712 -0.692943,2.651932 0,0.61669 1.216744,3.10919 1.659888,3.40027 0.138666,0.091 1.13643,1.35788 2.217261,2.81513 2.518585,3.39573 5.896368,6.35445 9.028394,7.90827 2.970533,1.47372 3.654083,2.04847 3.654083,3.07242 0,0.93748 -1.084328,2.10142 -1.957681,2.10142 -1.32247,0 -4.589064,-1.52062 -6.818915,-3.17426 -2.97362,-2.20519 -6.229246,-5.57415 -8.557995,-8.85587 l -1.838688,-2.59115 -0.813146,1.59757 c -0.971019,1.90775 -1.950864,2.87779 -3.604934,3.56892 -1.623428,0.67831 -3.431707,0.63708 -5.056799,-0.11529 -1.485184,-0.6876 -1.839299,-1.02263 -4.063232,-3.8443 -0.861874,-1.09353 -1.826187,-2.28581 -2.14291,-2.64954 -0.316723,-0.36372 -1.061913,-1.42819 -1.655968,-2.36548 -0.594045,-0.93729 -1.66948,-2.576678 -2.389834,-3.64311 -1.581184,-2.340795 -4.929002,-9.068772 -5.991226,-12.040327 -1.153394,-3.226638 -1.629522,-8.190712 -1.143946,-11.926796 0.388376,-2.988141 0.542441,-3.421537 3.471763,-9.766323 0.588704,-1.275097 1.18548,-2.690947 1.326189,-3.146332 0.374166,-1.211018 2.006431,-4.388471 3.277553,-6.380304 0.608599,-0.953654 1.394212,-2.330061 1.745807,-3.058685 1.127082,-2.335674 6.445116,-9.188447 9.273608,-11.949879 3.007559,-2.936252 6.365314,-5.382434 9.905666,-7.21644 2.186752,-1.132802 5.51552,-2.195607 6.87678,-2.195607 0.347754,0 1.471472,-0.50631 2.497159,-1.125134 4.11479,-2.482563 8.445085,-3.963164 15.774967,-5.393731 3.208753,-0.626249 12.013727,-0.707242 14.903669,-0.137092 3.970973,0.783422 8.987867,2.096106 10.969447,2.870183 1.92435,0.751722 9.816844,4.826564 10.587824,5.46642 0.19933,0.165421 0.44757,0.215589 0.55168,0.111486 0.10414,-0.104105 1.40968,0.0409 2.90129,0.322235 3.34669,0.631215 7.62516,2.661413 10.6255,5.041963 2.35524,1.868713 7.86714,7.658154 8.41971,8.843685 0.18592,0.398867 1.16982,1.992026 2.18643,3.540352 2.53916,3.867196 6.55012,12.470582 8.41505,18.049994 1.43372,4.289362 1.54975,4.884794 1.549,7.94863 -8.6e-4,3.418761 -0.68474,7.416901 -1.5573,9.104222 -0.27424,0.53034 -0.49863,1.247674 -0.49863,1.594084 0,1.382122 -5.21698,10.887444 -8.43336,15.365556 -5.31156,7.39519 -6.39791,8.35103 -9.45104,8.31564 -2.82308,-0.0327 -4.72682,-1.0272 -5.90056,-3.08233 l -0.96821,-1.69527 -0.90927,1.55155 c -0.50009,0.85336 -1.38945,2.09187 -1.97633,2.75226 -0.58689,0.66038 -1.42669,1.73559 -1.86621,2.38933 -1.32401,1.96929 -6.66755,6.33882 -8.812514,7.20616 -2.41237,0.97546 -3.42339,1.14655 -4.1539,0.70294 z M 70.163159,91.374458 c -1.092943,-0.458421 -2.583311,-1.073304 -3.311925,-1.366413 -1.817527,-0.731145 -2.152757,-1.041329 -2.152757,-1.99192 0,-1.100692 2.501621,-7.2524 3.413266,-8.393504 1.23716,-1.548577 1.759596,-1.634475 9.932822,-1.633154 7.092718,0.0011 7.768074,0.05207 8.76777,0.661624 0.595721,0.363208 1.254802,1.070583 1.464622,1.571924 0.209809,0.501353 0.951957,2.161728 1.649207,3.689722 1.767612,3.873684 1.678572,4.450942 -0.885032,5.737852 -0.546461,0.274312 -1.865666,0.9668 -2.931565,1.53884 -2.138047,1.147455 -3.405572,1.290984 -4.841794,0.548292 -2.963672,-1.532578 -3.118348,-5.800868 -0.210209,-5.800868 1.179784,0 2.187696,0.552134 2.187696,1.198425 0,0.282007 0.111777,0.459164 0.2484,0.393695 0.136612,-0.0655 0.797781,-0.399035 1.469252,-0.74126 l 1.220862,-0.62221 -0.977236,-1.935888 -0.977236,-1.935887 h -6.42108 -6.421091 l -0.331378,0.910778 c -0.182254,0.500931 -0.563847,1.451555 -0.847996,2.11249 l -0.516629,1.2017 1.488436,0.568443 1.488436,0.568443 0.675968,-0.859364 c 0.858099,-1.090901 2.064528,-1.108809 3.126907,-0.04641 1.170015,1.170026 0.999951,2.303526 -0.610964,4.07217 l -0.678732,0.745178 h 0.94091 c 1.627225,0 0.75889,0.231092 -1.653426,0.440024 -2.006875,0.173816 -2.585332,0.08882 -4.305504,-0.632691 z M 57.753374,66.648622 c -1.053653,-0.550479 -2.328294,-2.443623 -2.328294,-3.458085 0,-1.556482 0.897245,-3.024101 2.28011,-3.729585 1.679183,-0.856658 2.88548,-0.861778 4.2692,-0.01812 1.336991,0.815161 1.790216,1.93733 1.662885,4.117199 -0.09492,1.625492 -0.143996,1.700088 -1.588334,2.41579 -1.985914,0.984064 -3.304475,1.190587 -4.295567,0.672803 z m 39.401972,-0.516074 c -1.77823,-0.893459 -1.82392,-0.95169 -1.92127,-2.448519 -0.20455,-3.144888 1.60777,-5.167507 4.30592,-4.805609 3.766874,0.505242 5.161454,4.733367 2.369714,7.18454 -1.41197,1.239725 -2.396744,1.254147 -4.754364,0.06961 z"
       id="path1" /></g></g></svg>
