<?xml version="1.0" encoding="UTF-8" standalone="no"?>
<svg
   xmlns:dc="http://purl.org/dc/elements/1.1/"
   xmlns:cc="http://creativecommons.org/ns#"
   xmlns:rdf="http://www.w3.org/1999/02/22-rdf-syntax-ns#"
   xmlns:svg="http://www.w3.org/2000/svg"
   xmlns="http://www.w3.org/2000/svg"
   xmlns:sodipodi="http://sodipodi.sourceforge.net/DTD/sodipodi-0.dtd"
   xmlns:inkscape="http://www.inkscape.org/namespaces/inkscape"
   version="1.1"
   id="Layer_1"
   x="0px"
   y="0px"
   width="600px"
   height="600px"
   viewBox="0 0 600 600"
   enable-background="new 0 0 600 600"
   xml:space="preserve"
   sodipodi:docname="cobol2.svg"
   inkscape:version="0.92.4 (5da689c313, 2019-01-14)"><metadata
   id="metadata829"><rdf:RDF><cc:Work
       rdf:about=""><dc:format>image/svg+xml</dc:format><dc:type
         rdf:resource="http://purl.org/dc/dcmitype/StillImage" /><dc:title></dc:title></cc:Work></rdf:RDF></metadata><defs
   id="defs827" /><sodipodi:namedview
   pagecolor="#ffffff"
   bordercolor="#666666"
   borderopacity="1"
   objecttolerance="10"
   gridtolerance="10"
   guidetolerance="10"
   inkscape:pageopacity="0"
   inkscape:pageshadow="2"
   inkscape:window-width="1920"
   inkscape:window-height="1017"
   id="namedview825"
   showgrid="false"
   inkscape:zoom="0.70833333"
   inkscape:cx="675.36388"
   inkscape:cy="356.50067"
   inkscape:window-x="-8"
   inkscape:window-y="-8"
   inkscape:window-maximized="1"
   inkscape:current-layer="Layer_1" />  
<path
   style="fill:#ffffff;stroke-width:1.0998472"
   d="m 169.47902,539.27929 c -4.31382,-0.86258 -8.33828,-2.78311 -11.4052,-5.44276 -2.14063,-1.85636 -7.85027,-10.37788 -10.77487,-16.08141 -2.22752,-4.34395 -14.90876,-26.43925 -17.99042,-31.34565 -1.32983,-2.1172 -4.52521,-7.56145 -7.10084,-12.09832 -8.78367,-15.47203 -34.356565,-59.9257 -37.962555,-65.99083 -13.907834,-23.3924 -48.440264,-83.66337 -52.303334,-91.28732 -3.402752,-6.71548 -4.205871,-19.63098 -1.691455,-27.20119 1.718181,-5.17297 6.235759,-13.3716 31.979289,-58.03696 20.26391,-35.15816 26.65406,-46.20934 39.111955,-67.64061 6.85688,-11.79586 14.47555,-25.03188 16.93052,-29.41337 2.45486,-4.3815 9.12158,-16.01238 14.81494,-25.84641 23.6465,-40.844378 24.12966,-41.543276 30.89273,-44.686803 3.47299,-1.614301 16.48704,-1.821883 133.08151,-2.122726 98.72514,-0.254737 130.76633,-0.01575 135.73137,1.012363 8.7858,1.819256 12.23712,5.136347 20.79789,19.988985 3.90787,6.780129 12.43279,21.483741 18.94421,32.674691 6.51143,11.19094 13.8121,23.81169 16.22374,28.0461 2.41152,4.23441 6.25945,10.91598 8.55065,14.84794 2.29131,3.93195 6.51538,11.35592 9.38675,16.49771 2.87138,5.14178 6.76154,11.82335 8.6448,14.84793 1.88327,3.02458 6.32797,10.69602 9.87707,17.04763 3.54899,6.35162 7.81585,13.77559 9.48178,16.49771 1.66605,2.72212 6.60778,11.13596 10.98165,18.6974 27.622,47.75153 27.817,48.18413 27.26268,60.4916 -0.3194,7.09346 -1.02583,9.55829 -5.04368,17.59756 -2.56979,5.14178 -5.83293,11.32842 -7.2514,13.74809 -2.63546,4.49553 -21.37927,36.7898 -35.10976,60.49159 -11.69336,20.18542 -23.9759,41.47016 -28.85548,50.00455 -2.41967,4.23197 -8.18342,14.26199 -12.80827,22.28893 -41.77671,72.50765 -38.56164,67.72927 -47.92739,71.23341 -5.7743,2.16048 -8.35773,2.20043 -134.2535,2.07638 -70.60128,-0.0695 -130.09818,-0.47286 -132.21538,-0.89621 z m 5.06996,-196.88989 c 2.94319,-1.30188 6.5199,-3.45647 7.94838,-4.78799 6.00593,-5.59823 11.01585,-20.85048 7.72147,-23.50688 -2.09476,-1.68901 -16.92675,-4.88848 -18.99062,-4.09652 -0.93839,0.36012 -2.18715,2.39632 -2.7748,4.52489 -1.6831,6.09551 -4.06108,8.00934 -9.95164,8.00934 -4.10023,0 -5.67521,-0.57284 -7.80341,-2.83822 -2.62182,-2.79082 -2.66636,-3.17521 -2.66636,-23.00819 0,-19.83298 0.0451,-20.21737 2.66636,-23.00819 5.14981,-5.48171 17.68081,-2.42561 17.68081,4.31205 0,2.7573 2.60147,6.05862 4.75288,6.03164 2.92735,-0.0367 15.5569,-3.4393 16.89849,-4.55269 2.04726,-1.69908 1.79726,-5.40662 -0.83973,-12.45459 -3.13171,-8.3701 -6.33941,-11.80018 -14.43165,-15.43172 -5.78904,-2.59799 -8.42824,-3.10806 -16.26872,-3.1442 -7.93968,-0.0366 -10.35462,0.41543 -15.92787,2.98159 -8.18991,3.77097 -9.9853,5.38823 -13.62183,12.27069 -2.8452,5.38478 -2.91339,6.00285 -3.27689,29.69588 -0.40738,26.56542 0.37153,32.76093 5.02037,39.93057 3.09629,4.77517 10.2509,9.34462 17.46975,11.15745 6.75141,1.69543 20.26138,0.62829 26.39501,-2.08491 z m 76.20962,-1.36245 c 6.81191,-3.42261 7.49469,-4.11842 11.10758,-11.31964 l 3.84947,-7.67285 v -25.43345 -25.43345 l -3.85849,-7.57902 c -3.61883,-7.10835 -4.32614,-7.8171 -11.38837,-11.41251 -6.98502,-3.55604 -8.26348,-3.83349 -17.66585,-3.83349 -9.37664,0 -10.70657,0.28644 -17.75747,3.82448 -7.19543,3.61057 -7.83708,4.24879 -11.47119,11.41132 l -3.84947,7.58685 v 25.43289 25.43289 l 3.84947,7.6746 c 3.16668,6.31333 4.72736,8.15564 8.79878,10.38651 12.2953,6.73708 26.16525,7.07488 38.38554,0.93487 z m -25.34048,-20.59501 c -2.53404,-2.04976 -2.60476,-2.5884 -2.9378,-22.38371 l -0.34128,-20.2834 2.91371,-3.4627 c 2.44035,-2.9002 3.68592,-3.46271 7.66748,-3.46271 3.98156,0 5.22702,0.56251 7.66747,3.46271 l 2.91361,3.4627 -0.34117,20.2834 c -0.33304,19.79531 -0.40376,20.33395 -2.93781,22.38371 -1.65076,1.33531 -4.31041,2.1003 -7.3021,2.1003 -2.99169,0 -5.65135,-0.76499 -7.30211,-2.1003 z m 180.24043,20.7034 c 6.63329,-3.38023 7.7019,-4.40579 10.7024,-10.27146 l 3.3333,-6.51631 0.33117,-26.30553 0.33116,-26.30553 -3.22519,-6.89205 c -1.93177,-4.12826 -4.74122,-8.04842 -7.00581,-9.77567 -8.32562,-6.35034 -21.41105,-8.65859 -32.79238,-5.78456 -9.48959,2.39634 -15.17492,6.50377 -19.23039,13.89333 l -3.29954,6.01209 v 27.49618 27.49618 l 3.65908,6.7453 c 5.69842,10.50457 15.2992,14.88896 31.28218,14.2857 7.1775,-0.27089 9.7243,-0.92346 15.91402,-4.07767 z M 379.62968,319.6343 c -2.11864,-2.69343 -2.27954,-4.32697 -2.27954,-23.14678 0,-20.03231 0.0286,-20.27772 2.69957,-22.94847 3.68834,-3.68836 10.30227,-3.70898 14.56165,-0.0454 l 3.08595,2.6542 v 20.35349 c 0,20.02708 -0.0429,20.39902 -2.66636,23.1922 -2.14118,2.27959 -3.69604,2.83872 -7.89404,2.83872 -4.33758,0 -5.61593,-0.49344 -7.50723,-2.89794 z m -45.72351,20.39034 c 5.98878,-2.3999 6.87878,-3.19672 9.62366,-8.61587 4.86617,-9.60721 3.39765,-21.9576 -3.32098,-27.93048 l -2.25678,-2.00633 2.88743,-6.24253 c 4.30865,-9.31503 4.12354,-20.16066 -0.51231,-30.02262 -3.09299,-6.5797 -3.99795,-7.56351 -9.37785,-10.19566 -7.87292,-3.85186 -15.94052,-5.05476 -33.95283,-5.06246 -10.59076,-0.004 -15.48552,0.4125 -16.88925,1.43896 -1.85083,1.35332 -1.96576,4.27381 -1.80573,45.88725 0.12758,33.17043 0.50582,44.67534 1.49139,45.36223 0.72634,0.50616 11.71414,0.72042 24.41738,0.47613 21.24728,-0.4086 23.62515,-0.65592 29.69587,-3.08862 z M 301.73564,323.5013 c -1.43376,-1.46938 -1.86138,-8.31986 -0.7072,-11.32765 0.52914,-1.379 2.4322,-1.73973 9.17822,-1.73973 9.38181,0 12.15112,1.53847 12.15112,6.75043 0,5.35527 -2.36545,6.90927 -11.16521,7.33497 -5.57084,0.2695 -8.5093,-0.0469 -9.45693,-1.01802 z m 1.92473,-32.71862 c -2.50776,-0.71765 -2.77865,-1.39607 -3.07957,-7.71148 -0.43158,-9.05883 0.46711,-10.03208 9.26335,-10.03208 8.61764,0 11.41378,2.12563 11.41378,8.67693 0,6.19766 -2.65393,8.8688 -9.3487,9.40943 -3.02458,0.24424 -6.73657,0.09 -8.24886,-0.3428 z m 187.04629,51.50812 c 1.83982,-0.98466 2.12743,-2.36718 2.12743,-10.22858 0,-5.60357 -0.50626,-9.59626 -1.31982,-10.40986 -0.90605,-0.90599 -6.35469,-1.31981 -17.37758,-1.31981 -11.02289,0 -16.47164,-0.41383 -17.37759,-1.31982 -0.96632,-0.96632 -1.31981,-9.93005 -1.31981,-33.46678 0,-27.75805 -0.23603,-32.38292 -1.7283,-33.87529 -1.25801,-1.25799 -3.93042,-1.72834 -9.8201,-1.72834 -5.88968,0 -8.56209,0.47035 -9.8201,1.72834 -1.51262,1.51265 -1.7283,7.12996 -1.7283,45.01517 0,37.88522 0.21568,43.50252 1.7283,45.01517 1.47523,1.47517 5.59394,1.72834 28.11848,1.72834 16.08801,0 27.22056,-0.44446 28.51739,-1.13854 z"
   id="path911"
   inkscape:connector-curvature="0" /></svg>