<?xml version="1.0" encoding="UTF-8" standalone="no"?>
<svg
   xmlns:dc="http://purl.org/dc/elements/1.1/"
   xmlns:cc="http://creativecommons.org/ns#"
   xmlns:rdf="http://www.w3.org/1999/02/22-rdf-syntax-ns#"
   xmlns:svg="http://www.w3.org/2000/svg"
   xmlns="http://www.w3.org/2000/svg"
   xmlns:sodipodi="http://sodipodi.sourceforge.net/DTD/sodipodi-0.dtd"
   xmlns:inkscape="http://www.inkscape.org/namespaces/inkscape"
   version="1.1"
   id="Layer_1"
   x="0px"
   y="0px"
   width="600px"
   height="600px"
   viewBox="0 0 600 600"
   enable-background="new 0 0 600 600"
   xml:space="preserve"
   sodipodi:docname="cobol.svg"
   inkscape:version="0.92.4 (5da689c313, 2019-01-14)"><metadata
   id="metadata829"><rdf:RDF><cc:Work
       rdf:about=""><dc:format>image/svg+xml</dc:format><dc:type
         rdf:resource="http://purl.org/dc/dcmitype/StillImage" /><dc:title></dc:title></cc:Work></rdf:RDF></metadata><defs
   id="defs827" /><sodipodi:namedview
   pagecolor="#ffffff"
   bordercolor="#666666"
   borderopacity="1"
   objecttolerance="10"
   gridtolerance="10"
   guidetolerance="10"
   inkscape:pageopacity="0"
   inkscape:pageshadow="2"
   inkscape:window-width="1920"
   inkscape:window-height="1017"
   id="namedview825"
   showgrid="false"
   inkscape:zoom="0.70833333"
   inkscape:cx="675.36388"
   inkscape:cy="356.50067"
   inkscape:window-x="-8"
   inkscape:window-y="-8"
   inkscape:window-maximized="1"
   inkscape:current-layer="Layer_1" />  
<path
   style="fill:#ffffff;stroke-width:3.77952756;stroke-miterlimit:4;stroke-dasharray:none;stroke:#ffffff;stroke-opacity:1;fill-opacity:1"
   d="m 168.34982,542.51519 c -8.11498,-1.59161 -13.26937,-6.84267 -20.98744,-21.38096 -2.79319,-5.26144 -15.56684,-27.41901 -18.48849,-32.07067 -3.05634,-4.86613 -11.64655,-20.06643 -11.64655,-20.60848 0,-0.22136 -1.42601,-2.55368 -3.1689,-5.18295 -1.7429,-2.62927 -4.92925,-8.03222 -7.08076,-12.00657 -4.42092,-8.16642 -18.428082,-32.4538 -23.081394,-40.02142 -1.691883,-2.75147 -4.567701,-7.75414 -6.39071,-11.11706 -1.823008,-3.36291 -7.88901,-13.79819 -13.480013,-23.18951 -5.591014,-9.39132 -10.165462,-17.21785 -10.165462,-17.39229 0,-0.17445 -5.260715,-9.48846 -11.690478,-20.69781 -6.429763,-11.20936 -12.180051,-22.14286 -12.778416,-24.29668 -0.598376,-2.15382 -1.078866,-7.66805 -1.06776,-12.25384 0.0248,-10.25235 1.860118,-14.97766 13.81705,-35.57459 4.791864,-8.25441 13.462559,-23.26244 19.268232,-33.35118 13.272437,-23.06401 23.848951,-41.38172 36.587782,-63.36725 5.491309,-9.47729 12.825529,-22.23412 16.298259,-28.34849 3.47273,-6.11438 6.77558,-11.86746 7.33968,-12.78463 0.5641,-0.91715 5.64262,-9.67183 11.28559,-19.45485 25.18683,-43.665468 25.65757,-44.279507 35.35469,-46.118525 8.75468,-1.660289 261.99627,-1.538213 268.90952,0.129625 5.9324,1.431176 11.83956,6.432854 15.20113,12.870843 1.2101,2.317529 4.09553,7.364287 6.41188,11.215002 7.13604,11.862616 24.18139,41.535305 24.18139,42.095235 0,0.29129 1.5008,2.71098 3.33511,5.37706 1.83432,2.66608 3.33512,5.11134 3.33512,5.43391 0,0.58773 9.63927,17.3452 14.77969,25.69385 1.50592,2.44576 4.63048,7.9487 6.9435,12.22877 2.313,4.28007 5.76975,10.28329 7.68144,13.34048 1.91179,3.05718 6.41376,10.81134 10.00447,17.23144 3.59058,6.4201 8.44907,14.78732 10.79643,18.59382 2.34737,3.80651 4.26807,7.13677 4.26807,7.4006 0,0.26382 3.07642,5.65396 6.83654,11.97809 3.76012,6.32412 7.68867,12.99921 8.73024,14.83353 1.04144,1.83431 4.45504,7.79316 7.58583,13.24189 7.8701,13.69737 9.39492,18.80968 8.91855,29.90299 -0.39966,9.30866 -2.63586,15.24373 -11.38876,30.22771 -1.42877,2.44576 -8.24574,14.20205 -15.14889,26.12509 -6.90314,11.92305 -16.0288,27.68148 -20.27929,35.01874 -12.47835,21.54042 -24.39273,42.19303 -29.16661,50.55814 -2.44575,4.28555 -7.14939,12.42263 -10.45238,18.08244 -3.30309,5.6598 -6.86911,11.82333 -7.92468,13.69674 -4.48161,7.95408 -19.56168,34.08568 -25.29998,43.84131 -3.4166,5.80866 -7.69723,12.16679 -9.51254,14.12917 -6.7953,7.34616 0.32907,7.00663 -144.05842,6.86541 -71.8879,-0.0704 -132.46344,-0.47268 -134.61227,-0.89413 z m 272.05249,-35.3864 c 5.56453,-9.63016 34.25333,-59.28173 63.753,-110.33682 29.49957,-51.05511 53.63492,-93.32772 53.63415,-93.93916 -8.9e-4,-0.61144 -9.9908,-18.37095 -22.19999,-39.46557 C 503.41102,207.79027 442.38292,102.13557 435.89701,90.794878 l -5.5632,-9.727423 H 302.2586 174.18337 l -7.14513,12.506696 c -7.41685,12.982309 -41.49697,72.013169 -91.295163,158.134239 -15.908078,27.51146 -28.923032,50.52377 -28.922109,51.13848 9.22e-4,0.6147 28.689618,50.76921 63.752642,111.45447 l 63.75096,110.33682 H 302.30474 430.285 Z M 146.07672,346.43388 c -10.35272,-2.93769 -17.15091,-9.45489 -19.94806,-19.12354 -0.86476,-2.98915 -1.16797,-13.19283 -0.92499,-31.12777 0.33649,-24.83787 0.52721,-26.98812 2.76098,-31.12777 3.21531,-5.95863 7.57488,-9.92113 14.27607,-12.97579 4.5397,-2.06936 7.49431,-2.53379 16.11974,-2.53379 11.98303,0 18.8481,2.3236 25.29401,8.56113 4.08494,3.95291 8.05717,13.4415 8.05717,19.24643 0,4.48004 -1.24513,5.19522 -12.72897,7.3112 -8.04065,1.48155 -10.61686,0.49679 -10.61686,-4.05826 0,-4.33375 -3.46578,-7.37567 -9.13092,-8.01421 -4.47425,-0.50432 -5.52904,-0.20389 -8.016,2.28306 l -2.86379,2.86378 v 20.66763 c 0,20.46113 0.0272,20.69489 2.72875,23.39636 1.94546,1.94547 3.94865,2.72873 6.97872,2.72873 5.55069,0 8.93134,-2.48521 9.8193,-7.21842 1.18915,-6.33873 2.62826,-6.79941 13.61322,-4.35784 l 9.66069,2.14724 -0.11196,6.10414 c -0.18729,10.2102 -6.89164,19.91613 -16.56362,23.97929 -5.7982,2.43579 -21.74838,3.13685 -28.40348,1.2484 z m 73.59221,-0.61965 c -10.37182,-3.69425 -15.41365,-8.98742 -18.51807,-19.4412 -2.01203,-6.77517 -2.33223,-45.27697 -0.44958,-54.05551 1.86303,-8.68697 7.05598,-15.50187 14.83342,-19.46648 6.05159,-3.08483 7.51536,-3.36012 17.86592,-3.36012 10.35056,0 11.81431,0.27529 17.8659,3.36012 7.95011,4.05263 13.04145,10.89141 14.94893,20.0797 0.8177,3.93877 1.13981,14.53662 0.88667,29.1712 -0.36518,21.11102 -0.60619,23.45018 -2.95597,28.69074 -4.97707,11.09998 -13.72263,16.14068 -29.07798,16.75976 -7.21536,0.29092 -10.8562,-0.12004 -15.39924,-1.73821 z m 19.15817,-22.34466 c 4.40811,-1.67596 5.38933,-7.15589 4.95889,-27.69424 l -0.38002,-18.13186 -3.11918,-2.68129 c -4.12343,-3.54455 -9.64819,-3.5449 -13.77235,-8.8e-4 l -3.11918,2.68043 -0.36417,18.16406 c -0.39731,19.8168 0.53266,25.4398 4.52583,27.36522 3.19035,1.53833 7.69546,1.65767 11.27018,0.29856 z m 136.84868,22.46807 c -8.04375,-2.87272 -11.88025,-5.99878 -15.59746,-12.70902 l -3.2783,-5.91828 v -28.90436 c 0,-27.71464 0.10116,-29.09391 2.46298,-33.50965 6.8819,-12.86777 24.00918,-18.84896 41.29421,-14.42075 9.74266,2.49598 15.02826,6.51058 19.06287,14.47886 l 3.32644,6.56987 v 26.36362 c 0,28.42764 -0.59943,32.29605 -6.12694,39.54306 -1.51159,1.98172 -5.601,4.99879 -9.08754,6.70463 -8.29887,4.06029 -23.36216,4.90705 -32.05626,1.80202 z m 21.19612,-24.1353 c 2.69867,-2.6986 2.72879,-2.95362 2.72879,-23.09846 0,-22.49346 -0.52182,-24.51672 -6.67167,-25.86743 -5.39812,-1.18564 -9.83961,0.34868 -11.76019,4.06263 -1.40497,2.71697 -1.65433,6.96663 -1.37028,23.35377 0.33828,19.51331 0.41522,20.08744 2.97169,22.15532 3.8544,3.11766 10.67105,2.8248 14.10166,-0.60583 z m -117.05756,22.60451 c -1.06453,-1.08892 -1.38963,-11.754 -1.38963,-45.58794 0,-39.96019 0.17868,-44.34519 1.87624,-46.04274 1.66659,-1.6666 4.18224,-1.81653 22.51207,-1.34176 27.81265,0.7204 34.36149,3.21117 39.93125,15.18732 2.38894,5.13664 2.89466,7.85505 2.91456,15.66701 0.02,7.95802 -0.43046,10.3704 -2.85164,15.26267 l -2.87565,5.81072 2.74102,2.5246 c 3.9579,3.64541 5.79311,8.77252 5.7652,16.10729 -0.0267,6.88205 -2.61039,13.99133 -6.26613,17.23788 -5.30117,4.70797 -11.02879,5.67176 -36.5101,6.14355 -18.87701,0.34951 -24.77464,0.1285 -25.84719,-0.9686 z m 42.22396,-19.77362 c 0.44713,-0.40013 1.1246,-2.28561 1.50548,-4.18999 0.52995,-2.65008 0.14363,-4.01136 -1.64678,-5.80171 -1.92425,-1.92432 -3.69531,-2.33923 -9.98501,-2.33923 -9.0435,0 -10.4258,1.1096 -9.93142,7.97238 0.31283,4.34326 0.66413,4.86381 3.68096,5.45344 3.8265,0.74788 15.16457,-0.0101 16.37677,-1.09489 z m -1.51148,-33.83722 c 4.18691,-5.045 2.11703,-14.50721 -3.41571,-15.61376 -5.96886,-1.19377 -11.78853,-0.73612 -13.59361,1.06902 -1.76694,1.76692 -2.43908,10.71986 -1.07213,14.28184 0.89437,2.33073 16.18089,2.55299 18.08145,0.2629 z m 115.98252,53.52344 c -1.91659,-1.91659 -1.91659,-89.91034 0,-91.82692 0.81799,-0.818 4.81735,-1.33405 10.33886,-1.33405 5.5214,0 9.52088,0.51605 10.33887,1.33405 0.97763,0.97765 1.33405,10.14804 1.33405,34.32676 0,25.96994 0.31227,33.25193 1.46734,34.21051 0.88436,0.73402 8.28165,1.34013 18.62107,1.52575 l 17.15374,0.30796 0.32206,10.46831 c 0.23456,7.62537 -0.0678,10.71534 -1.11171,11.37796 -2.40862,1.52812 -56.90978,1.16425 -58.46428,-0.39033 z"
   id="path898"
   inkscape:connector-curvature="0" /></svg>