<?xml version="1.0" encoding="UTF-8" standalone="no"?>
<svg
   version="1.1"
   id="Layer_1"
   x="0px"
   y="0px"
   width="600px"
   height="600px"
   viewBox="0 0 600 600"
   enable-background="new 0 0 600 600"
   xml:space="preserve"
   sodipodi:docname="coolify.svg"
   inkscape:version="1.3.2 (091e20e, 2023-11-25, custom)"
   xmlns:inkscape="http://www.inkscape.org/namespaces/inkscape"
   xmlns:sodipodi="http://sodipodi.sourceforge.net/DTD/sodipodi-0.dtd"
   xmlns="http://www.w3.org/2000/svg"
   xmlns:svg="http://www.w3.org/2000/svg"><defs
   id="defs1"><pattern
     id="EMFhbasepattern"
     patternUnits="userSpaceOnUse"
     width="6"
     height="6"
     x="0"
     y="0" /></defs><sodipodi:namedview
   id="namedview1"
   pagecolor="#ffffff"
   bordercolor="#000000"
   borderopacity="0.25"
   inkscape:showpageshadow="2"
   inkscape:pageopacity="0.0"
   inkscape:pagecheckerboard="0"
   inkscape:deskcolor="#d1d1d1"
   inkscape:zoom="0.47906484"
   inkscape:cx="215.00221"
   inkscape:cy="510.36933"
   inkscape:window-width="3840"
   inkscape:window-height="2066"
   inkscape:window-x="-11"
   inkscape:window-y="-11"
   inkscape:window-maximized="1"
   inkscape:current-layer="g5" />  
<g
   id="g1"
   transform="matrix(0.39238967,0,0,0.39238967,653.50563,226.04184)"><g
     style="fill:none"
     id="g5"
     transform="matrix(8.5429944,0,0,8.5429944,-1559.151,-471.69565)"><path
       style="fill:#ffffff;stroke-width:0.573505"
       d="m 52.431271,124.56735 -0.04714,-2.69457 -2.780116,-0.047 -2.780116,-0.047 v -2.73311 -2.73311 h -2.737343 -2.737339 v -3.25059 -3.2506 h -3.2506 -3.250596 v -2.73734 -2.73735 h -2.737345 -2.737344 v -2.7331 -2.733114 l -2.780116,-0.047 -2.780116,-0.047 V 72.429498 46.082563 l 8.766502,-0.04433 8.766503,-0.04433 0.04433,-8.766502 0.04433,-8.766499 34.730055,-0.04677 c 19.101533,-0.02573 34.90328,-0.005 35.115,0.04603 0.37923,0.09143 0.38493,0.133254 0.38493,2.822542 v 2.729741 l 2.69457,0.04711 2.69459,0.04711 0.047,2.780115 0.047,2.780115 h 2.73311 2.7331 v 8.454666 c 0,4.650067 -0.0468,8.576443 -0.10384,8.725284 -0.0942,0.245546 -3.34346,0.270618 -35.072224,0.270618 h -34.96835 v -2.737344 -2.737343 h -2.82712 -2.827127 l 0.04703,2.780115 0.04703,2.780114 2.694572,0.04711 2.694572,0.04711 v 20.696341 20.69634 l 29.640311,0.0432 29.640296,0.0432 0.047,2.780124 0.047,2.78011 h 2.7331 2.7331 v 2.82289 2.82288 h 2.73735 2.73734 v 8.63974 8.63975 H 87.546263 52.478385 Z M 46.823925,48.901105 v -2.741688 l -2.694572,0.04711 -2.694572,0.04711 -0.04766,2.47285 c -0.02621,1.360068 -0.0094,2.572626 0.03739,2.694574 0.06462,0.168404 0.724055,0.221722 2.742253,0.221722 h 2.657174 z"
       id="path5" /></g></g></svg>
