<?xml version="1.0" encoding="UTF-8" standalone="no"?>
<svg
   xmlns:dc="http://purl.org/dc/elements/1.1/"
   xmlns:cc="http://creativecommons.org/ns#"
   xmlns:rdf="http://www.w3.org/1999/02/22-rdf-syntax-ns#"
   xmlns:svg="http://www.w3.org/2000/svg"
   xmlns="http://www.w3.org/2000/svg"
   xmlns:sodipodi="http://sodipodi.sourceforge.net/DTD/sodipodi-0.dtd"
   xmlns:inkscape="http://www.inkscape.org/namespaces/inkscape"
   version="1.1"
   id="Layer_1"
   x="0px"
   y="0px"
   width="600px"
   height="600px"
   viewBox="0 0 600 600"
   enable-background="new 0 0 600 600"
   xml:space="preserve"
   sodipodi:docname="csharp.svg"
   inkscape:version="0.92.4 (5da689c313, 2019-01-14)"><metadata
   id="metadata4532"><rdf:RDF><cc:Work
       rdf:about=""><dc:format>image/svg+xml</dc:format><dc:type
         rdf:resource="http://purl.org/dc/dcmitype/StillImage" /><dc:title></dc:title></cc:Work></rdf:RDF></metadata><defs
   id="defs4530" /><sodipodi:namedview
   pagecolor="#ffffff"
   bordercolor="#666666"
   borderopacity="1"
   objecttolerance="10"
   gridtolerance="10"
   guidetolerance="10"
   inkscape:pageopacity="0"
   inkscape:pageshadow="2"
   inkscape:window-width="1920"
   inkscape:window-height="1017"
   id="namedview4528"
   showgrid="false"
   inkscape:zoom="1.0017346"
   inkscape:cx="547.71686"
   inkscape:cy="246.17282"
   inkscape:window-x="-8"
   inkscape:window-y="-8"
   inkscape:window-maximized="1"
   inkscape:current-layer="Layer_1" />  
<path
   style="fill:#ffffff;stroke-width:1.44220948"
   d="m 296.42138,553.61419 c -10.1244,-1.63528 -10.6187,-1.8795 -59.1306,-29.21112 -26.8631,-15.13467 -47.3502,-26.63485 -82.9271,-46.55001 C 84.827078,438.92797 82.995078,437.66019 76.934078,424.26973 l -3.3341,-7.36594 V 302.96924 189.03468 l 3.2778,-6.58241 c 6.4284,-12.9094 13.0759,-17.61642 68.111502,-48.22954 8.3288,-4.63279 19.6862,-10.98019 25.2387,-14.10531 5.5525,-3.12514 15.612,-8.75596 22.3543,-12.51294 6.7424,-3.757 23.6162,-13.209525 37.4974,-21.005634 61.407,-34.487773 62.6512,-35.022862 77.4062,-33.288706 9.0802,1.06722 12.8581,2.868541 50.9504,24.293587 15.4677,8.699797 39.156,22.002571 52.6407,29.561683 13.4847,7.55912 29.3851,16.49717 35.3341,19.86233 5.9492,3.36516 23.2166,13.05071 38.3721,21.52346 29.5428,16.51611 37.0278,22.40649 42.5085,33.45231 l 3.4887,7.03117 V 303.69034 418.346 l -3.9183,7.42945 c -2.1551,4.0862 -6.6981,9.83225 -10.0955,12.769 -5.734,4.95664 -12.7307,9.10661 -59.5389,35.31545 -9.5185,5.32965 -28.0149,15.72737 -41.103,23.10608 -13.088,7.37869 -29.3129,16.48505 -36.0552,20.23634 -6.7423,3.75131 -16.8017,9.37579 -22.3542,12.49888 -39.071,21.97604 -40.4487,22.60926 -51.9195,23.86421 -3.1729,0.34713 -7.3914,0.36908 -9.3744,0.0488 z m 31.1774,-122.27557 c 28.2492,-5.40498 54.4762,-20.70377 74.4065,-43.40318 4.257,-4.84871 4.3204,-5.11268 1.699,-7.09724 -1.4974,-1.13369 -3.1414,-2.08186 -3.6531,-2.1071 -0.5117,-0.0252 -9.7088,-5.23782 -20.4381,-11.58354 -10.7293,-6.34572 -19.8924,-11.53767 -20.3626,-11.53767 -0.4701,0 -4.5774,3.03361 -9.1272,6.74136 -4.5497,3.70775 -12.4908,8.70569 -17.6467,11.10654 -8.4689,3.94355 -11.0724,4.42091 -26.9562,4.94226 -15.1057,0.49583 -18.8852,0.14336 -26.8373,-2.50298 -22.3431,-7.43529 -40.3946,-24.91097 -48.2482,-46.70892 -5.4045,-15.00055 -5.4489,-36.24346 -0.1067,-51.04802 18.211,-50.46829 80.6803,-66.8515 122.3678,-32.09221 l 6.518,5.4348 20.3496,-11.75421 c 11.1924,-6.46478 21.8269,-12.76623 23.6325,-14.00318 l 3.2829,-2.24899 -10.6807,-10.73568 c -26.5379,-26.67451 -56.6819,-39.34437 -93.6078,-39.34437 -36.1893,0 -66.9806,12.67485 -92.2999,37.99407 -29.2998,29.29967 -43.6231,72.34689 -36.9026,110.90617 5.4786,31.433 15.8323,51.56127 37.6291,73.15324 19.5493,19.36532 40.5868,30.97993 64.7434,35.74391 13.7593,2.71353 38.4555,2.78205 52.2386,0.14494 z m 105.8325,-84.38199 v -11.53768 h 10.8166 10.8166 v 11.53768 11.53768 h 10.8165 10.8166 v -11.53768 -11.53768 h 10.8166 10.8166 v -10.09547 -10.09547 h -10.8166 -10.8166 v -11.53767 -11.53768 h 10.8166 10.8166 v -10.81657 -10.81657 h -10.8166 -10.8166 v -10.81657 -10.81657 h -10.8166 -10.8165 v 10.81657 10.81657 h -10.8166 -10.8166 v -10.81657 -10.81657 h -10.8166 c -5.9491,0 -10.8529,0.48674 -10.8973,1.08166 -0.045,0.5949 -0.1878,5.46237 -0.3184,10.81657 l -0.2375,9.73491 h -10.4982 -10.4983 v 10.81657 10.81657 h 10.6946 10.6944 l -0.2739,11.17713 -0.2738,11.17713 -10.4206,0.42373 -10.4207,0.42374 v 10.03228 10.03228 h 9.9538 9.954 l 0.9677,8.33815 c 0.5322,4.586 0.8435,8.96671 0.6919,9.73492 -0.8793,4.45343 0.3147,5.00229 10.8823,5.00229 h 10.8166 z m 0,-43.26629 v -11.53768 h 10.8166 10.8166 v 11.53768 11.53767 h -10.8166 -10.8166 z"
   id="path4547"
   inkscape:connector-curvature="0" /></svg>