<?xml version="1.0" encoding="UTF-8" standalone="no"?>
<svg
   version="1.1"
   id="Layer_1"
   x="0px"
   y="0px"
   width="600px"
   height="600px"
   viewBox="0 0 600 600"
   enable-background="new 0 0 600 600"
   xml:space="preserve"
   sodipodi:docname="dockercompose.svg"
   inkscape:version="1.3.2 (091e20e, 2023-11-25, custom)"
   xmlns:inkscape="http://www.inkscape.org/namespaces/inkscape"
   xmlns:sodipodi="http://sodipodi.sourceforge.net/DTD/sodipodi-0.dtd"
   xmlns="http://www.w3.org/2000/svg"
   xmlns:svg="http://www.w3.org/2000/svg"><defs
   id="defs1" /><sodipodi:namedview
   id="namedview1"
   pagecolor="#ffffff"
   bordercolor="#000000"
   borderopacity="0.25"
   inkscape:showpageshadow="2"
   inkscape:pageopacity="0.0"
   inkscape:pagecheckerboard="0"
   inkscape:deskcolor="#d1d1d1"
   inkscape:zoom="0.47906484"
   inkscape:cx="461.31542"
   inkscape:cy="531.24332"
   inkscape:window-width="1920"
   inkscape:window-height="1009"
   inkscape:window-x="1073"
   inkscape:window-y="2152"
   inkscape:window-maximized="1"
   inkscape:current-layer="g5" />  
<g
   id="g1"
   transform="matrix(0.39238967,0,0,0.39238967,653.50563,226.04184)"><g
     style="fill:none"
     id="g5"
     transform="matrix(8.5429944,0,0,8.5429944,-1559.151,-471.69565)"><path
       style="fill:#ffffff;stroke-width:0.865013"
       d="m 97.419909,164.05515 c 0,-0.14497 -0.317737,-0.40624 -0.706084,-0.5806 -0.388349,-0.17436 -0.895852,-0.5052 -1.127797,-0.73519 -0.231936,-0.23 -0.901222,-0.62973 -1.487294,-0.88831 -0.586072,-0.25857 -1.065583,-0.55006 -1.065583,-0.64775 0,-0.0977 -0.63229,-0.49752 -1.405083,-0.88852 -0.772794,-0.391 -1.465868,-0.86933 -1.540173,-1.06295 -0.0743,-0.19362 -0.312909,-0.35203 -0.530252,-0.35203 -0.217343,0 -0.395164,-0.10334 -0.395164,-0.22963 0,-0.1263 -0.493507,-0.46396 -1.096689,-0.75036 -0.603182,-0.28639 -1.494993,-0.87978 -1.981813,-1.31864 -0.486812,-0.43884 -1.025966,-0.79791 -1.198103,-0.79791 -0.172138,0 -0.381938,-0.17969 -0.466207,-0.39931 -0.08425,-0.21961 -0.490947,-0.51703 -0.903705,-0.66091 -0.798978,-0.27854 -2.868953,-2.53518 -2.868953,-3.12769 0,-0.19452 -0.109355,-0.46399 -0.242999,-0.59882 -0.536196,-0.54093 -1.047721,-7.65759 -0.628864,-8.74912 0.08818,-0.22978 0.56961,-0.5888 1.069847,-0.79781 0.888334,-0.37117 0.898662,-0.39202 0.443371,-0.89512 -0.25639,-0.28331 -0.516551,-0.46471 -0.57814,-0.40312 -0.206124,0.20612 -1.512128,-0.74372 -2.367133,-1.7216 -0.465342,-0.53222 -1.013985,-0.96767 -1.219209,-0.96767 -0.437255,0 -2.153856,-1.60076 -2.153856,-2.00852 0,-0.42736 -1.064147,-0.67968 -1.294517,-0.30694 -0.108844,0.17612 -0.09967,0.66274 0.02041,1.08137 0.127702,0.44525 0.109926,1.26092 -0.04282,1.9653 -0.143618,0.66227 -0.259495,1.43572 -0.257505,1.71877 0.0095,1.35588 -3.53471,6.44079 -4.500687,6.45711 -0.14803,0.003 -0.581418,0.29409 -0.963079,0.64799 -1.30828,1.21311 -5.018155,2.70958 -7.283242,2.93789 -1.770707,0.17848 -6.161987,0.20094 -6.838185,0.035 -0.35481,-0.0871 -1.208561,-0.26998 -1.897223,-0.40644 -0.688663,-0.13646 -1.675685,-0.4733 -2.193378,-0.74854 -0.517701,-0.27524 -1.696048,-0.82494 -2.618558,-1.22156 -0.92251,-0.39661 -1.793413,-0.81298 -1.935336,-0.92526 -0.141922,-0.11228 -0.54834,-0.44448 -0.903151,-0.73823 -0.354811,-0.29374 -1.0219,-0.69183 -1.482415,-0.88464 -0.460516,-0.19281 -1.262131,-0.76316 -1.781381,-1.26745 -0.51925,-0.50429 -1.090132,-0.91688 -1.268636,-0.91688 -0.178496,0 -0.617671,-0.34837 -0.975934,-0.77414 -0.358262,-0.42577 -0.745978,-0.77414 -0.861578,-0.77414 -0.115609,-1e-5 -0.534474,-0.40643 -0.930823,-0.90316 -0.39634,-0.49673 -0.844105,-0.90314 -0.995041,-0.90314 -0.150928,0 -0.509588,-0.29898 -0.797014,-0.66438 -0.287435,-0.36542 -0.804644,-0.77162 -1.14936,-0.90268 -0.344707,-0.13106 -0.554343,-0.35545 -0.465844,-0.49864 0.0885,-0.14319 -0.04965,-0.33443 -0.307027,-0.42496 -0.257367,-0.0905 -0.643647,-0.38139 -0.858413,-0.64634 -0.214757,-0.26495 -0.622463,-0.52641 -0.905997,-0.58101 -0.283534,-0.0546 -1.375309,-0.51771 -2.426153,-1.02913 -1.911617,-0.93033 -3.050259,-1.14997 -3.521042,-0.67918 -0.137866,0.13785 -0.538479,0.29386 -0.890254,0.34667 -0.351775,0.0528 -0.80742,0.3921 -1.01254,0.75398 -0.590207,1.04126 0.05804,2.6062 1.765231,4.26115 0.768607,0.74511 1.481862,1.35474 1.585014,1.35474 0.256866,0 2.297336,2.05963 2.537878,2.56171 0.338566,0.70668 -0.266527,3.63136 -0.751298,3.63136 -0.136456,0 -0.248094,0.13479 -0.248094,0.29954 0,0.16474 -0.369274,0.62922 -0.820612,1.03217 -0.781859,0.69804 -0.93878,0.73264 -3.32298,0.73264 -1.936253,0 -2.576838,-0.0897 -2.831524,-0.39659 -0.18103,-0.21813 -0.522312,-0.36387 -0.758417,-0.32387 -0.650766,0.11025 -3.870447,-2.58554 -3.88446,-3.25239 -0.0035,-0.15669 -0.409713,-0.73315 -0.90316,-1.28104 -0.493438,-0.54789 -0.897165,-1.20136 -0.897165,-1.45216 0,-0.2508 -0.155399,-0.58497 -0.345322,-0.7426 -0.436295,-0.36208 -0.9036,-2.53645 -0.977957,-4.55042 -0.06029,-1.63258 0.841709,-5.10326 1.496437,-5.75798 0.188608,-0.18861 0.342926,-0.51246 0.342926,-0.71967 0,-0.20719 0.174188,-0.44357 0.387067,-0.52526 0.212888,-0.0817 0.387067,-0.36052 0.387067,-0.61963 0,-0.25909 0.223208,-0.54193 0.496016,-0.62851 0.272816,-0.0866 0.90771,-0.61312 1.410879,-1.17007 1.240652,-1.37326 2.601897,-2.18934 4.431303,-2.65662 1.564462,-0.39961 5.725571,-0.66252 6.182202,-0.39061 0.426564,0.25401 1.930103,0.52068 1.930103,0.34232 0,-0.36758 -0.808709,-0.94717 -1.142751,-0.81899 -0.195449,0.075 -0.569853,-0.0261 -0.832012,-0.22477 -0.262168,-0.19863 -0.729638,-0.36483 -1.038837,-0.36935 -0.30919,-0.004 -0.736342,-0.18238 -0.94923,-0.39526 -0.212889,-0.21289 -0.507546,-0.38707 -0.654789,-0.38707 -0.413052,0 -2.09154,-0.84644 -2.09154,-1.05474 0,-0.10175 -0.348366,-0.30644 -0.774134,-0.45486 -0.425777,-0.14843 -0.774135,-0.45297 -0.774135,-0.67675 0,-0.22378 -0.301543,-0.52152 -0.670082,-0.66164 -0.368547,-0.14012 -0.730451,-0.4856 -0.804228,-0.76775 -0.07379,-0.28214 -0.270256,-0.51297 -0.436598,-0.51297 -0.538219,0 -1.917629,-2.65436 -2.480856,-4.77384 -0.460195,-1.73173 -0.52764,-2.54249 -0.418588,-5.03186 0.07154,-1.63213 0.187016,-3.14169 0.256693,-3.35458 0.06972,-0.21289 0.200812,-0.85155 0.291405,-1.41924 0.176748,-1.10761 0.279235,-1.4707 1.310978,-4.644812 0.760286,-2.33898 1.794062,-4.66609 2.178318,-4.90358 0.142027,-0.0878 0.486821,-0.66138 0.766211,-1.27468 0.279391,-0.6133 0.66721,-1.1762 0.86183,-1.25088 0.19461,-0.0747 0.563054,-0.5819 0.81876,-1.12714 0.255706,-0.54525 0.622359,-1.08423 0.814781,-1.19772 0.192422,-0.1135 0.349863,-0.469 0.349863,-0.78999 0,-0.321 0.232239,-0.83292 0.516093,-1.13759 1.100279,-1.18101 0.389645,-3.88469 -1.486014,-5.65366 -1.371244,-1.29325 -5.468324,-3.16159 -7.703508,-3.512923 -2.677673,-0.420898 -5.252253,-3.377027 -5.258455,-6.037754 -0.0017,-0.594808 -0.09283,-1.137275 -0.203209,-1.20549 -0.481267,-0.297443 0.184602,-4.295748 0.970674,-5.828507 0.529621,-1.032704 1.605334,-2.060097 2.623497,-2.505665 0.433518,-0.189706 0.745122,-0.577508 0.850861,-1.058922 0.142675,-0.649599 0.379931,-0.82972 1.638377,-1.243854 0.809349,-0.266346 1.819908,-0.668758 2.245685,-0.894259 0.425768,-0.2255 1.354731,-0.558209 2.064353,-0.739369 1.341539,-0.342476 2.471747,-0.698999 3.354579,-1.058187 0.478378,-0.194637 0.930987,-0.320185 3.935185,-1.09156 0.603173,-0.15488 1.096689,-0.383417 1.096689,-0.507857 0,-0.525331 6.282958,0.928487 7.160644,1.656897 0.184316,0.152969 0.405094,0.208148 0.490617,0.122624 0.08555,-0.08555 0.489139,0.01704 0.896923,0.227896 0.407776,0.210873 0.74142,0.31887 0.74142,0.239989 0,-0.205449 2.950229,1.45349 3.053529,1.717024 0.04732,0.120696 0.238285,0.219445 0.424401,0.219445 0.259989,0 0.284961,0.224203 0.107815,0.967673 -0.126819,0.532216 -0.224929,2.535283 -0.218026,4.451268 0.01998,5.548382 0.03988,5.348832 -0.593745,5.945993 -0.568322,0.53559 -2.407434,1.537301 -2.822441,1.537301 -0.115271,0 -0.438864,0.22928 -0.719102,0.509518 -0.280247,0.280247 -0.831813,0.588425 -1.225714,0.684848 -0.393901,0.09642 -0.774247,0.24453 -0.845213,0.32912 -0.21557,0.256969 -1.120269,0.800042 -1.870313,1.122709 -0.776375,0.33399 -0.766669,0.926471 0.03002,1.832165 0.231581,0.263267 0.384135,0.52617 0.339007,0.584239 -0.04515,0.05804 0.05406,0.761038 0.220336,1.562161 0.587638,2.830657 -0.22838,7.048147 -1.613369,8.338457 -0.29721,0.2769 -0.460628,0.66237 -0.375191,0.88502 0.0865,0.22533 -0.05034,0.53576 -0.319233,0.72406 -0.47638,0.33367 -0.539967,0.45636 -0.539967,1.04188 0,0.17886 -0.290298,0.63826 -0.645109,1.02092 -0.354811,0.38265 -0.645109,0.93416 -0.645109,1.22559 0,0.29144 -0.232239,0.72873 -0.516092,0.97178 -0.283846,0.24303 -0.516084,0.75614 -0.516084,1.14024 0,0.38409 -0.15636,0.85471 -0.347467,1.04581 -0.191099,0.1911 -0.438319,0.80903 -0.54937,1.37317 -0.111059,0.56413 -0.259979,1.316 -0.330954,1.67081 -0.293611,1.467972 -0.185303,5.869732 0.162536,6.605492 1.181314,2.49879 1.692752,3.20021 2.333398,3.20021 0.227714,0 0.559058,0.23224 0.736325,0.51609 0.177267,0.28385 0.495496,0.51609 0.707182,0.51609 0.211686,0 0.384879,0.10476 0.384879,0.2328 0,0.23327 1.232617,0.78066 2.184693,0.97021 0.27907,0.0555 0.774723,0.27616 1.101438,0.49023 0.68554,0.44919 3.149883,0.74229 6.170957,0.73395 2.488658,-0.007 6.714591,-0.96342 8.161913,-1.84746 0.536316,-0.32759 1.320122,-0.66462 1.741798,-0.74895 0.421676,-0.0843 0.766678,-0.25494 0.766678,-0.37913 0,-0.12418 0.232247,-0.22579 0.516092,-0.22579 0.283846,0 0.516093,-0.11612 0.516093,-0.25804 0,-0.14193 0.110133,-0.25805 0.244747,-0.25805 0.134613,0 0.557985,-0.2903 0.940839,-0.64511 0.382846,-0.35481 0.820197,-0.64511 0.971885,-0.64511 0.151689,0 0.512122,-0.22658 0.800959,-0.50352 2.667629,-2.55766 3.898525,-3.97299 4.533972,-5.21329 0.657712,-1.28376 0.738444,-1.68685 0.671847,-3.354582 -0.05112,-1.2805 -0.264461,-2.31413 -0.657479,-3.18572 -0.319977,-0.70963 -0.622394,-1.4868 -0.672037,-1.72706 -0.04965,-0.24026 -0.562691,-1.0345 -1.140104,-1.76497 -0.577405,-0.73048 -1.049831,-1.48347 -1.049831,-1.67331 0,-0.18984 -0.290299,-0.57352 -0.645109,-0.85262 -0.354811,-0.27909 -0.64511,-0.63952 -0.64511,-0.80096 0,-0.16143 -0.174187,-0.36035 -0.387067,-0.44204 -0.212888,-0.0817 -0.387067,-0.29005 -0.387067,-0.46301 0,-0.38967 -1.145726,-1.49511 -1.344048,-1.29678 -0.07949,0.0795 -0.265057,-0.20114 -0.412343,-0.62365 -0.147294,-0.42251 -0.567137,-0.96433 -0.932994,-1.20405 -0.365857,-0.23972 -0.665194,-0.57531 -0.665194,-0.74576 0,-0.17045 -0.406427,-0.66973 -0.90316,-1.10951 -0.496734,-0.43977 -0.903151,-0.88122 -0.903151,-0.98099 0,-0.0998 -0.464486,-0.64588 -1.032185,-1.21358 -0.567699,-0.567699 -1.032176,-1.192696 -1.032176,-1.388881 0,-0.196194 -0.122651,-0.356714 -0.272557,-0.356714 -0.149898,0 -0.503697,-0.522537 -0.78621,-1.161202 -0.282505,-0.638656 -0.606028,-1.161201 -0.71893,-1.161201 -0.298723,0 -2.092976,-3.923317 -2.092976,-4.576523 0,-0.304648 -0.103282,-0.617748 -0.229531,-0.695764 -0.12624,-0.07802 -0.287435,-0.520331 -0.358201,-0.982896 -0.07076,-0.462575 -0.31381,-1.886117 -0.540088,-3.163438 -0.466553,-2.633566 -0.518056,-5.80484 -0.140383,-8.644495 0.141568,-1.064433 0.32534,-2.515933 0.408372,-3.225563 0.08304,-0.709622 0.252895,-1.418828 0.377474,-1.57601 0.327667,-0.413467 1.241769,-3.270915 1.113012,-3.479254 -0.05986,-0.09689 0.06401,-0.319665 0.275342,-0.495046 0.211332,-0.17539 0.38423,-0.461078 0.38423,-0.634868 0,-0.173798 0.232239,-0.583762 0.516093,-0.911048 0.283845,-0.327278 0.516084,-0.733626 0.516084,-0.902987 0,-0.530235 0.845221,-2.049068 1.336531,-2.401708 0.258379,-0.185458 0.470913,-0.533816 0.472288,-0.774134 0.0026,-0.495047 1.547715,-2.53139 2.343112,-3.088502 0.288992,-0.202421 0.632159,-0.648707 0.762577,-0.991737 0.130418,-0.343038 0.500479,-0.724768 0.822359,-0.8483 0.321871,-0.123533 1.012178,-0.702053 1.534014,-1.285599 0.521827,-0.583546 1.131462,-1.06099 1.354731,-1.06099 0.223277,0 0.40595,-0.11067 0.40595,-0.245941 0,-0.135262 0.406418,-0.438795 0.90316,-0.674511 0.496733,-0.235715 0.903151,-0.530166 0.903151,-0.654338 0,-0.124173 0.928963,-0.692832 2.064361,-1.263706 1.13539,-0.570865 2.064353,-0.960579 2.064353,-0.866042 0,0.09455 0.203208,-8.65e-4 0.45158,-0.212646 0.490886,-0.418017 5.319516,-2.021353 6.081012,-2.019182 0.257696,7.36e-4 0.665757,-0.104208 0.906802,-0.233216 1.095953,-0.58653 13.412116,-1.191788 13.919844,-0.68406 0.07949,0.07949 0.560571,0.143946 1.069138,0.143289 1.216554,-0.0017 4.958988,0.729993 6.666151,1.303098 1.270331,0.42646 1.35473,0.427403 1.35473,0.01514 0,-0.241823 -0.107391,-0.549992 -0.238648,-0.684813 -0.291007,-0.298931 -0.793528,-3.810268 -0.793528,-5.544714 0,-1.487744 0.625257,-3.513664 1.316212,-4.264711 0.269555,-0.292997 0.490099,-0.692451 0.490099,-0.887685 0,-0.413744 1.8843,-2.197348 2.871965,-2.718484 0.925849,-0.488507 2.840593,-1.14269 3.358013,-1.147274 0.76435,-0.0069 0.78829,-0.771246 0.0331,-1.058361 -1.114409,-0.423692 -4.510982,-2.814855 -5.432056,-3.824125 -1.032565,-1.131437 -1.649354,-2.288763 -1.32622,-2.488469 0.130418,-0.08062 0.239392,-0.691266 0.24216,-1.357032 0.0087,-1.984313 0.701802,-6.60584999 1.285392,-8.565441 0.432489,-1.45221 0.676855,-1.879595 1.185205,-2.072873 0.352209,-0.133913 1.055508,-0.525556 1.562881,-0.870324 0.681846,-0.463327 1.141618,-0.591297 1.762459,-0.490549 0.461979,0.075 1.464949,-0.03945 2.228809,-0.254219 1.86105,-0.523306 7.96382,-1.048499 9.68488,-0.833465 0.75952,0.09489 1.53145,0.32303 1.71539,0.506966 0.84982,0.849823 1.44824,0.741922 2.65089,-0.47798 0.63916,-0.648344 1.4191,-1.235956 1.7332,-1.305823 2.53755,-0.564412 5.18148,-0.918487 5.31591,-0.711896 0.0869,0.133566 0.76629,0.387084 1.50974,0.563374 0.76724,0.181929 1.60408,0.586729 1.93533,0.936168 0.32098,0.338601 0.73163,0.617637 0.91255,0.620093 0.18092,0.0026 0.43931,0.294753 0.57421,0.649573 0.1349,0.354811 0.36061,0.645109 0.50157,0.645109 0.28808,0 2.05732,2.363483 2.51114,3.35457901 0.16247,0.354811 0.5653,1.225715 0.8952,1.93533599 0.80893,1.740069 0.95945,4.750702 0.35007,7.001923 -0.24454,0.903411 -0.52451,1.642564 -0.62217,1.642564 -0.0977,0 -0.3209,0.396444 -0.49612,0.880972 -0.1752,0.484537 -0.7709,1.289648 -1.32378,1.789132 -1.17819,1.064433 -1.59917,1.76793 -1.79932,3.006879 -0.11861,0.734188 -0.33671,0.996296 -1.16577,1.401 -0.94406,0.460836 -7.09475,2.368794 -8.26944,2.565204 -2.23267,0.373305 -2.72497,0.494917 -2.85497,0.705262 -0.0815,0.131889 -0.25783,0.172051 -0.39181,0.08924 -0.13398,-0.08278 -0.85171,0.02163 -1.59495,0.232066 -0.74324,0.21044 -2.2428,0.437982 -3.33235,0.505643 -1.08956,0.06764 -2.13465,0.249902 -2.32241,0.404956 -0.18776,0.155053 -0.71261,0.579108 -1.16634,0.942345 -1.63945,1.312466 -2.80267,5.048135 -2.10129,6.748283 0.16507,0.400112 0.28064,0.816728 0.25684,0.925815 -0.0238,0.109078 0.24411,0.329267 0.59536,0.489311 0.35124,0.160036 0.57428,0.395077 0.49564,0.522312 -0.19629,0.317598 1.63663,2.510492 2.38239,2.850277 0.33293,0.151698 0.67897,0.519466 0.76897,0.817256 0.173,0.572456 4.20717,4.799176 4.58056,4.799176 0.12032,0 0.74089,0.580726 1.37904,1.290513 0.63816,0.709777 1.26574,1.225333 1.39464,1.145674 0.12889,-0.07967 0.34137,0.136612 0.47215,0.480601 0.13079,0.343998 0.42194,0.696119 0.64702,0.782482 0.22507,0.08642 0.37912,0.263474 0.34233,0.393563 -0.0368,0.13009 0.67421,1.026831 1.58003,1.992756 0.90581,0.965934 1.8073,2.14005 2.00331,2.609146 0.196,0.469105 0.47778,0.852911 0.62618,0.852911 0.14839,0 0.20618,0.102963 0.12839,0.228813 -0.0778,0.125843 0.0315,0.372302 0.24282,0.547683 0.21132,0.175382 0.38423,0.478837 0.38423,0.674347 0,0.19551 0.10258,0.355477 0.22795,0.355477 0.12537,0 0.29618,0.203208 0.37957,0.451571 0.0834,0.248371 0.25307,0.625759 0.37706,0.838647 0.21831,0.374836 0.58053,1.066258 1.0477,1.999849 0.26515,0.52988 1.81937,5.118573 1.98839,5.870512 0.59248,2.636013 0.52935,10.518553 -0.0964,12.042403 -0.1555,0.378633 -0.26819,0.901179 -0.25042,1.161193 0.0306,0.447748 -0.23535,1.143555 -1.37502,3.597561 -0.27086,0.583244 -0.49248,1.22363 -0.49248,1.423067 0,0.31893 -0.28,0.905521 -1.40117,2.93543 -0.61769,1.11833 -1.32076,2.0802 -1.75539,2.40154 -0.25083,0.18546 -0.45607,0.50479 -0.45607,0.70963 0,0.20484 -0.11612,0.37244 -0.25804,0.37244 -0.14192,0 -0.25804,0.17009 -0.25804,0.37798 0,0.2079 -0.23224,0.50228 -0.51609,0.65419 -0.28385,0.15191 -0.51609,0.44532 -0.51609,0.652 0,0.2067 -0.23224,0.52085 -0.51609,0.69811 -0.28385,0.17727 -0.51609,0.40521 -0.51609,0.50655 0,0.10133 -0.26127,0.45946 -0.5806,0.79582 -0.31933,0.33637 -1.26847,1.38673 -2.10919,2.33414 -0.84073,0.94739 -1.65425,1.72254 -1.80784,1.72254 -0.15358,0 -0.43343,0.34836 -0.6219,0.77413 -0.18847,0.42578 -0.49376,0.77414 -0.67843,0.77414 -0.18466,0 -0.54353,0.3171 -0.79748,0.70468 -0.49882,0.76128 -1.40318,1.59529 -1.74488,1.60913 -0.11656,0.004 -1.1384,0.93756 -2.27074,2.07295 -1.13235,1.13539 -2.1594,2.064362 -2.28234,2.064362 -0.12292,0 -0.59138,0.46447 -1.041,1.03217 -0.44963,0.5677 -0.96099,1.03218 -1.13635,1.03218 -0.17538,0 -0.57127,0.2903 -0.87977,0.64511 -0.30851,0.35482 -0.66284,0.64512 -0.78741,0.64512 -0.12457,0 -0.49914,0.39789 -0.83236,0.88421 -0.33324,0.48633 -1.0735,1.09596 -1.645029,1.35474 -1.126979,0.51028 -1.567755,1.37367 -0.701289,1.37367 0.842339,0 5.554568,1.29278 6.166658,1.69179 0.31434,0.20491 0.73178,0.37257 0.92768,0.37257 0.19588,0 0.56632,0.23224 0.8232,0.51608 0.25688,0.28386 0.6075,0.5161 0.77915,0.5161 0.17166,0 0.70524,0.3465 1.18573,0.77 0.48049,0.42351 1.01876,0.77187 1.19616,0.77414 0.17741,0.003 0.32256,0.12024 0.32256,0.26217 0,0.14192 0.0871,0.23156 0.19354,0.1992 0.23658,-0.072 3.41908,2.9641 3.41908,3.26173 0,0.11691 0.35092,0.61225 0.77982,1.10074 0.4289,0.48849 0.7291,0.97022 0.6671,1.07052 -0.062,0.1003 0.20611,0.57298 0.59576,1.0504 0.69593,0.8527 0.7518,0.87032 3.15917,0.99624 1.64489,0.0861 2.64131,0.0262 3.03039,-0.18206 0.31883,-0.17064 1.03309,-0.35535 1.58724,-0.41048 0.55416,-0.0551 1.35836,-0.28164 1.78711,-0.50336 0.42875,-0.22171 0.77955,-0.33431 0.77955,-0.25021 0,0.0841 0.78382,-0.27412 1.74181,-0.79604 0.95798,-0.52192 2.05826,-1.11737 2.44506,-1.32321 0.3868,-0.20584 0.9405,-0.68651 1.23045,-1.06816 0.28995,-0.38164 0.87621,-1.07108 1.3028,-1.5321 0.69256,-0.74844 1.41136,-2.08473 1.22198,-2.27169 -0.0394,-0.0389 -0.53622,0.16115 -1.10391,0.44464 -0.5677,0.2835 -1.60378,0.69028 -2.3024,0.90394 -0.69863,0.21368 -1.52894,0.55802 -1.84517,0.76522 -0.93316,0.61143 -3.92119,0.75058 -5.14204,0.23946 -0.5677,-0.23768 -1.09023,-0.44305 -1.1612,-0.4564 -0.0709,-0.0133 -0.74127,-0.3555 -1.48957,-0.76034 -0.7483,-0.40485 -1.53212,-0.73609 -1.74181,-0.73609 -0.20968,0 -0.38124,-0.11164 -0.38124,-0.2481 0,-0.13645 -0.49286,-0.38081 -1.09525,-0.54301 -1.39595,-0.3759 -3.10115,-1.23526 -3.37188,-1.69932 -0.11517,-0.1974 -0.29611,-0.30532 -0.40209,-0.23982 -0.10599,0.0655 -0.50488,-0.13526 -0.88644,-0.44615 -0.64537,-0.52584 -0.71163,-0.77209 -0.95043,-3.53276 -0.14119,-1.63213 -0.2577,-4.15366 -0.25892,-5.603392 -0.003,-2.92291 0.008,-2.94098 1.86862,-3.27688 0.72858,-0.13151 0.96767,-0.2993 0.96767,-0.67907 0,-0.27742 0.10161,-0.50439 0.22579,-0.50439 0.12418,0 0.29039,-0.31934 0.36935,-0.70963 0.079,-0.39029 0.41281,-0.9972 0.74188,-1.34868 0.32908,-0.35148 0.5994,-0.69984 0.60073,-0.77413 0.005,-0.27879 2.37268,-2.5865 2.65374,-2.5865 0.16127,0 0.41749,-0.23224 0.5694,-0.5161 0.15871,-0.29653 0.5403,-0.51608 0.89701,-0.51608 0.34144,0 0.69366,-0.11788 0.7827,-0.26195 0.0891,-0.14408 0.5894,-0.4438 1.11192,-0.66605 0.84035,-0.35744 1.2798,-0.49615 2.24024,-0.70713 0.14193,-0.0311 0.37417,-0.12922 0.51609,-0.21788 0.44945,-0.2808 7.16853,0.24814 8.5488,0.67298 1.53142,0.47135 3.70832,1.63145 3.70832,1.97622 0,0.1298 0.17418,0.23599 0.38707,0.23599 0.21288,0 0.38706,0.11611 0.38706,0.25804 0,0.14193 0.12362,0.25805 0.27471,0.25805 0.15109,0 0.57691,0.35915 0.94628,0.79811 0.95677,1.13707 2.30973,1.92227 4.41302,2.56112 1.21964,0.37045 1.87803,0.71157 1.97734,1.02447 0.0819,0.258 0.12386,2.83178 0.0933,5.719522 -0.0373,3.51918 0.0407,5.42884 0.23652,5.7915 0.17945,0.33237 0.19985,0.63334 0.0529,0.78032 -0.13601,0.136 -0.14943,0.57062 -0.031,1.00719 0.13127,0.48432 0.0914,1.05387 -0.10809,1.54209 -0.17392,0.42577 -0.37932,1.47085 -0.45644,2.3224 -0.14354,1.58509 -0.35931,2.79715 -0.62012,3.4836 -0.0809,0.21288 -0.18112,0.55807 -0.22272,0.76706 -0.0416,0.20901 -0.25631,0.51211 -0.47711,0.67356 -0.22082,0.16146 -0.40147,0.52961 -0.40147,0.81811 0,0.2885 -0.15768,0.58505 -0.35038,0.659 -0.19271,0.0739 -0.42018,0.48345 -0.50549,0.91001 -0.0935,0.4675 -0.36431,0.84196 -0.6818,0.94272 -0.28968,0.0919 -0.5267,0.29353 -0.5267,0.44797 0,0.47218 -1.29268,2.00682 -1.69041,2.00682 -0.20567,0 -0.37394,0.11612 -0.37394,0.25805 0,0.14192 -0.16627,0.25804 -0.3695,0.25804 -0.20321,0 -0.61548,0.34546 -0.91613,0.76768 -0.34104,0.47896 -0.92996,0.8709 -1.56584,1.04212 -0.56055,0.15095 -1.0192,0.42556 -1.0192,0.61026 0,0.18471 -0.49351,0.49655 -1.09669,0.693 -0.60317,0.19644 -1.49028,0.62145 -1.97134,0.94446 -0.48107,0.32301 -1.12553,0.58728 -1.43215,0.58728 -0.30662,0 -0.67786,0.12037 -0.82498,0.26748 -0.14712,0.14713 -0.59473,0.32683 -0.99468,0.39935 -0.39996,0.0725 -0.92621,0.23838 -1.16944,0.36855 -0.24323,0.13018 -0.50302,0.17591 -0.5773,0.10162 -0.0743,-0.0743 -0.56637,0.0452 -1.09352,0.26542 -0.52716,0.22025 -1.04067,0.34966 -1.14115,0.28755 -0.10048,-0.0621 -0.93002,0.0554 -1.84342,0.261 -0.91339,0.20564 -2.73175,0.36762 -4.04078,0.35993 -2.54574,-0.015 -3.42593,0.25161 -3.42593,1.03753 0,0.27048 -0.10719,0.55802 -0.23819,0.63899 -0.13101,0.081 -0.31226,0.4844 -0.40277,0.89652 -0.0905,0.41212 -0.44767,1.07848 -0.79368,1.4808 -0.346,0.40232 -0.62923,0.89393 -0.62941,1.09249 -1.7e-4,0.19854 -0.40673,0.75571 -0.90347,1.23813 -0.49673,0.48242 -0.90316,0.91432 -0.90316,0.95978 0,0.19304 -2.41031,2.47296 -2.61439,2.47296 -0.12325,0 -0.22409,0.0955 -0.22409,0.2122 0,0.21131 -1.95662,1.58619 -2.28105,1.60286 -0.0937,0.005 -0.63486,0.23312 -1.20256,0.50734 -0.5677,0.27422 -1.29344,0.50251 -1.61277,0.50733 -0.31934,0.005 -0.58061,0.12487 -0.58061,0.2668 0,0.14193 0.0871,0.24429 0.19354,0.22749 0.71153,-0.11235 1.35473,0.086 1.35473,0.41762 0,0.21289 0.16603,0.38707 0.36896,0.38707 0.20294,0 1.74153,0.6925 3.4191,1.5389 l 3.05013,1.5389 -0.016,2.5843 c -0.009,1.42138 -0.0959,2.66421 -0.19353,2.76185 -0.0977,0.0976 -0.17753,1.03463 -0.17753,2.08218 0,1.72819 -0.0632,1.96328 -0.6828,2.53744 -0.37554,0.34804 -0.84365,0.63279 -1.04027,0.63279 -0.19662,0 -0.42025,0.16355 -0.49695,0.36344 -0.0767,0.1999 -0.50852,0.51194 -0.95957,0.69342 -0.45106,0.1815 -1.22396,0.65661 -1.71754,1.05581 -0.49359,0.39921 -1.10322,0.72583 -1.35474,0.72583 -0.25151,0 -0.45729,0.0977 -0.45729,0.21703 0,0.20213 -1.2569,0.99413 -3.55919,2.24272 -0.53184,0.28843 -1.25176,0.72389 -1.59981,0.96767 -0.691929,0.48464 -3.098429,0.62418 -3.098429,0.17966 z M 54.97417,134.12331 c 0.08915,-0.14424 0.282556,-0.1878 0.429798,-0.0968 0.320609,0.19815 2.298659,-0.38503 2.664135,-0.78545 0.141932,-0.1555 0.736351,-0.65603 1.320944,-1.11229 0.828509,-0.64664 1.109517,-1.07254 1.274311,-1.93135 0.388598,-2.02522 0.46503,-3.45749 0.286007,-5.3595 -0.06012,-0.63866 -0.196418,-2.1192 -0.302884,-3.29007 -0.106474,-1.17088 -0.233121,-2.12886 -0.28144,-2.12886 -0.10907,0 -1.767187,0.91749 -2.837951,1.57032 -0.439478,0.26796 -0.868239,0.418 -0.952803,0.33344 -0.0846,-0.0846 -0.497693,0.0911 -0.918072,0.39048 -0.420371,0.29933 -0.86343,0.54424 -0.984575,0.54424 -0.121145,0 -0.788407,0.30245 -1.482805,0.6721 -0.694397,0.36966 -1.506315,0.70739 -1.80426,0.75051 -0.297945,0.0431 -1.12232,0.20849 -1.831941,0.36748 -7.350774,1.64689 -11.659237,1.9348 -16.591747,1.10867 -1.564099,-0.26196 -2.029086,0.0163 -0.738833,0.44209 0.476475,0.15726 1.75473,0.86333 2.840571,1.56907 1.085842,0.70574 2.148571,1.28315 2.361623,1.28315 0.213044,0 0.387362,0.11612 0.387362,0.25805 0,0.14192 0.09946,0.25804 0.22101,0.25804 0.121561,0 1.195673,0.56116 2.386916,1.24701 3.045528,1.75347 3.095967,1.78067 4.101233,2.21236 2.354512,1.01107 3.828148,1.53862 4.773823,1.709 1.612158,0.29047 5.497786,0.28247 5.679578,-0.0117 z m 41.886664,-0.59319 c 0.189247,-0.15161 0.537605,-0.29555 0.774134,-0.31985 0.478612,-0.0491 3.638352,-1.40071 4.042672,-1.7292 0.14193,-0.11531 0.49029,-0.37766 0.77413,-0.58301 0.93782,-0.67847 0.27355,-0.86296 -4.598914,-1.27726 -0.684381,-0.0582 -1.381107,-0.21607 -1.548262,-0.35082 -0.286535,-0.23098 -2.430184,-0.70502 -2.795124,-0.6181 -0.09282,0.0221 -0.310254,-0.13027 -0.48317,-0.33862 -0.172916,-0.20835 -0.477997,-0.37881 -0.677962,-0.37881 -0.199957,0 -0.430405,-0.17418 -0.512096,-0.38707 -0.08166,-0.21289 -0.360053,-0.38707 -0.61858,-0.38707 -0.258534,0 -0.644235,-0.17418 -0.857123,-0.38707 -0.21288,-0.21288 -0.504891,-0.38706 -0.648907,-0.38706 -0.144016,0 -0.41358,-0.21558 -0.59903,-0.47907 -0.185458,-0.26349 -0.598459,-0.56162 -0.917787,-0.66251 -0.319336,-0.10088 -0.580605,-0.26982 -0.580605,-0.37542 0,-0.1056 -0.203209,-0.41711 -0.45158,-0.69224 -0.651077,-0.72123 -1.891038,-2.66808 -2.018334,-3.16896 -0.05977,-0.23529 -0.329881,-1.26897 -0.600197,-2.29706 -0.270308,-1.02808 -0.575043,-2.58932 -0.677193,-3.46941 -0.167285,-1.44131 -0.220171,-1.55034 -0.532804,-1.09826 -0.1909,0.27604 -0.44985,0.6236 -0.575441,0.77236 -0.400536,0.47438 -0.772552,2.51837 -0.960536,5.27749 -0.165443,2.42833 -0.150642,2.81319 0.128272,3.33434 0.137892,0.25766 0.179681,0.53953 0.09284,0.62636 -0.196245,0.19624 1.731461,4.03869 2.026163,4.03869 0.117823,0 0.214229,0.1565 0.214229,0.34779 0,0.45765 2.814154,3.26483 3.272922,3.26483 0.195744,0 0.42274,0.17419 0.504432,0.38707 0.08166,0.21288 0.285731,0.38706 0.453431,0.38706 0.167691,0 0.764896,0.23808 1.32712,0.52906 0.562232,0.29098 1.582506,0.57063 2.267284,0.62145 0.684779,0.0508 1.319041,0.16638 1.409469,0.25681 0.238121,0.23812 2.960281,-0.13096 3.366545,-0.45644 z M 69.917669,118.68323 c -0.01125,-0.30496 0.07577,-0.55448 0.19353,-0.55448 0.117719,0 0.21403,-0.21903 0.21403,-0.48673 0,-1.36928 1.835539,-5.68522 2.660069,-6.25469 0.130435,-0.0901 0.101613,-0.2428 -0.06531,-0.34596 -0.608173,-0.37587 -1.983293,1.76025 -3.148145,4.89036 -0.55936,1.50306 -0.654823,3.59144 -0.156247,3.41811 0.177406,-0.0617 0.313342,-0.36164 0.302071,-0.66661 z m 33.308241,-2.36079 c -0.40792,-0.42578 -0.83024,-0.77414 -0.9385,-0.77414 -0.26938,0 -2.653259,-1.60668 -2.760139,-1.86027 -0.0473,-0.11225 -0.279547,-0.2048 -0.516094,-0.20567 -0.236538,-8.7e-4 -0.766678,-0.17714 -1.178086,-0.39169 -0.411409,-0.21455 -0.798476,-0.33963 -0.860143,-0.27795 -0.137771,0.13777 0.886941,1.18732 1.159221,1.18732 0.107893,0 0.521914,0.30204 0.920044,0.67121 0.809098,0.75024 3.939367,2.42532 4.532237,2.42532 0.25913,0 0.14308,-0.25056 -0.35854,-0.77413 z M 86.582034,92.034448 c 1.168814,-0.47374 2.798272,-2.0418 2.944157,-2.83322 0.06271,-0.34023 0.131542,-0.61859 0.152943,-0.61859 0.101215,0 0.327684,-1.14748 0.432887,-2.19338 0.13809,-1.37297 -0.73828,-3.29296 -1.730475,-3.79117 -0.555745,-0.27906 -0.646641,-0.23718 -0.980215,0.45158 -0.320306,0.66134 -0.507322,0.75915 -1.451656,0.75915 -1.160319,0 -2.06623,-0.67478 -2.247848,-1.67433 -0.190995,-1.05115 -1.779383,-0.6955 -3.054818,0.68398 -1.349532,1.45964 -1.524394,1.77515 -1.821898,3.28734 -0.279685,1.42158 -0.254046,1.70133 0.299658,3.26975 0.433388,1.22762 0.772473,1.77865 1.192895,1.9385 0.323065,0.12283 0.587387,0.31831 0.587387,0.43439 0,0.76342 4.001722,0.96502 5.676983,0.286 z m -13.712552,-2.12121 c 1.750828,-0.81117 1.933891,-0.98853 2.782918,-2.69621 0.496976,-0.99959 0.727303,-1.85102 0.716767,-2.64967 -0.01661,-1.25654 -0.836389,-3.24129 -1.638792,-3.967452 -0.461398,-0.417559 -0.50714,-0.400605 -0.952284,0.352962 -0.414073,0.70097 -0.601556,0.79065 -1.637677,0.78339 -1.228084,-0.009 -1.792851,-0.29578 -2.267258,-1.152839 -0.223113,-0.40307 -0.196151,-0.614739 0.123238,-0.967664 0.447255,-0.494216 0.11278,-0.60954 -0.642341,-0.22146 -0.694389,0.35686 -1.720354,0.735234 -1.904741,0.702459 -0.38397,-0.06825 -1.297043,1.046314 -1.898226,2.317114 -0.973278,2.05734 -0.905478,4.04485 0.193849,5.6824 1.613655,2.40371 4.351221,3.10187 7.124547,1.81697 z"
       id="path5" /></g></g></svg>
