<?xml version="1.0" encoding="UTF-8" standalone="no"?>
<svg
   version="1.1"
   id="Layer_1"
   x="0px"
   y="0px"
   width="600px"
   height="600px"
   viewBox="0 0 600 600"
   enable-background="new 0 0 600 600"
   xml:space="preserve"
   sodipodi:docname="docker.svg"
   inkscape:version="1.3.2 (091e20e, 2023-11-25, custom)"
   xmlns:inkscape="http://www.inkscape.org/namespaces/inkscape"
   xmlns:sodipodi="http://sodipodi.sourceforge.net/DTD/sodipodi-0.dtd"
   xmlns="http://www.w3.org/2000/svg"
   xmlns:svg="http://www.w3.org/2000/svg"><defs
   id="defs1"><pattern
     id="EMFhbasepattern"
     patternUnits="userSpaceOnUse"
     width="6"
     height="6"
     x="0"
     y="0" /></defs><sodipodi:namedview
   id="namedview1"
   pagecolor="#ffffff"
   bordercolor="#000000"
   borderopacity="0.25"
   inkscape:showpageshadow="2"
   inkscape:pageopacity="0.0"
   inkscape:pagecheckerboard="0"
   inkscape:deskcolor="#d1d1d1"
   inkscape:zoom="0.47906484"
   inkscape:cx="217.08961"
   inkscape:cy="510.36932"
   inkscape:window-width="1920"
   inkscape:window-height="1009"
   inkscape:window-x="1073"
   inkscape:window-y="2152"
   inkscape:window-maximized="1"
   inkscape:current-layer="g5" />  
<g
   id="g1"
   transform="matrix(0.39238967,0,0,0.39238967,653.50563,226.04184)"><g
     style="fill:none"
     id="g5"
     transform="matrix(8.5429944,0,0,8.5429944,-1559.151,-471.69565)"><path
       style="fill:#ffffff;stroke-width:0.35965"
       d="M 45.584885,134.95376 C 29.890467,133.92734 17.618159,128.48511 9.0613843,118.75722 2.0810515,110.82153 -2.1883139,100.46626 -3.4181252,88.488375 c -0.2384837,-2.322718 -0.321757,-6.65348 -0.167176,-8.694243 0.1142499,-1.50831 0.3694466,-3.521496 0.5066853,-3.997107 0.05107,-0.17698 3.04616807,-0.188414 57.7134489,-0.220307 l 57.659577,-0.03363 1.3417,-0.226942 c 1.62319,-0.274553 3.16152,-0.657497 4.5783,-1.139694 1.12723,-0.383653 3.04258,-1.236001 3.04258,-1.353977 0,-0.03905 -0.28751,-0.625039 -0.63893,-1.302198 -1.72965,-3.332963 -2.50651,-6.648103 -2.50064,-10.671004 0.006,-4.041009 0.71445,-7.697596 2.18523,-11.27733 0.66319,-1.614118 1.30783,-2.760725 3.02539,-5.381164 l 1.35072,-2.060757 1.87004,1.26269 c 2.17248,1.466896 3.40411,2.476983 5.11982,4.198856 3.6001,3.613041 5.82109,7.479153 6.81462,11.862333 0.1472,0.649387 0.26807,1.316785 0.2686,1.483109 7.2e-4,0.23839 0.0407,0.2901 0.18882,0.24427 0.45983,-0.142324 2.49257,-0.389468 4.11092,-0.499816 4.8177,-0.328489 10.64549,0.54797 13.64067,2.051464 0.49419,0.248072 3.95086,2.499162 4.36806,2.844624 0.0696,0.05767 -2.33294,4.885628 -2.89132,5.810061 -2.15601,3.569379 -5.06119,6.233456 -8.68498,7.964201 -3.38004,1.614328 -6.7916,2.332293 -11.64525,2.450754 l -2.47044,0.0603 -0.31037,0.763519 c -0.47053,1.157532 -1.93948,4.359705 -2.66448,5.808328 -9.69729,19.376285 -25.07306,33.241565 -44.983326,40.564265 -9.358132,3.44178 -19.270965,5.37638 -30.554945,5.96314 -2.416062,0.12564 -9.299577,0.12053 -11.270314,-0.008 z M 9.0905303,64.65971 v -7.835555 h 8.4795717 8.479569 v 7.835555 7.835551 H 17.570102 9.0905303 Z m 20.0718947,0 v -7.835555 h 8.479572 8.479572 v 7.835555 7.835551 h -8.479572 -8.479572 z m 20.179231,0 v -7.835555 h 8.479569 8.479572 v 7.835555 7.835551 h -8.479572 -8.479569 z m 20.071894,0 v -7.835555 h 8.479569 8.479572 v 7.835555 7.835551 H 77.893119 69.41355 Z m 20.179232,0 v -7.835555 h 8.479569 8.479569 v 7.835555 7.835551 H 98.072351 89.592782 Z M 29.162425,45.822184 v -7.781885 h 8.479572 8.479572 v 7.781885 7.781884 h -8.479572 -8.479572 z m 20.179231,0 v -7.781885 h 8.479569 8.479572 v 7.781885 7.781884 h -8.479572 -8.479569 z m 20.071894,0 v -7.781885 h 8.479569 8.479572 v 7.781885 7.781884 H 77.893119 69.41355 Z m 0,-18.783859 V 19.25644 h 8.479569 8.479572 v 7.781885 7.781884 H 77.893119 69.41355 Z"
       id="path5" /></g></g></svg>
