<?xml version="1.0" encoding="UTF-8" standalone="no"?>
<svg
   version="1.1"
   id="Layer_1"
   x="0px"
   y="0px"
   width="600px"
   height="600px"
   viewBox="0 0 600 600"
   enable-background="new 0 0 600 600"
   xml:space="preserve"
   sodipodi:docname="docusaurus.svg"
   inkscape:version="1.3.2 (091e20e, 2023-11-25, custom)"
   xmlns:inkscape="http://www.inkscape.org/namespaces/inkscape"
   xmlns:sodipodi="http://sodipodi.sourceforge.net/DTD/sodipodi-0.dtd"
   xmlns="http://www.w3.org/2000/svg"
   xmlns:svg="http://www.w3.org/2000/svg"><defs
   id="defs1" /><sodipodi:namedview
   id="namedview1"
   pagecolor="#ffffff"
   bordercolor="#000000"
   borderopacity="0.25"
   inkscape:showpageshadow="2"
   inkscape:pageopacity="0.0"
   inkscape:pagecheckerboard="0"
   inkscape:deskcolor="#d1d1d1"
   inkscape:zoom="0.6775"
   inkscape:cx="769.7417"
   inkscape:cy="647.23247"
   inkscape:window-width="2560"
   inkscape:window-height="1369"
   inkscape:window-x="-8"
   inkscape:window-y="-8"
   inkscape:window-maximized="1"
   inkscape:current-layer="g1" />  
<g
   id="g1"
   transform="matrix(0.39238967,0,0,0.39238967,653.50563,226.04184)"><path
     style="fill:#ffffff;fill-opacity:1;stroke-width:0.868816"
     d="m -476.89302,745.88602 c -0.22151,-0.35838 1.41703,-0.53733 3.6412,-0.39764 6.8943,0.43297 7.75523,0.80743 2.14038,0.93094 -2.95835,0.065 -5.56006,-0.17491 -5.78158,-0.5333 z m 14.41846,0.0187 c 1.79194,-0.18744 4.72419,-0.18744 6.51612,0 1.79194,0.18745 0.32581,0.3408 -3.25805,0.3408 -3.58387,0 -5.05,-0.15335 -3.25807,-0.3408 z m 17.33238,-0.0134 c 4.157,-0.15892 11.19441,-0.15966 15.63868,-0.002 4.44427,0.158 1.04309,0.28802 -7.55819,0.28893 -8.60128,8.6e-4 -12.2375,-0.12836 -8.08049,-0.28728 z m 27.43461,-0.85984 c 2.04349,-0.18353 5.17123,-0.18095 6.95053,0.006 1.7793,0.18669 0.10735,0.33685 -3.71544,0.3337 -3.82279,-0.004 -5.27858,-0.1559 -3.23509,-0.33944 z m 11.70604,-0.83044 c 0.83624,-0.21852 2.20463,-0.21852 3.04086,0 0.83624,0.21854 0.15204,0.39734 -1.52043,0.39734 -1.67247,0 -2.35666,-0.1788 -1.52043,-0.39734 z m 6.09826,-0.872 c 0.84532,-0.22028 2.01822,-0.20579 2.60645,0.0323 0.58821,0.238 -0.10343,0.41822 -1.53697,0.40052 -1.43355,-0.0178 -1.91481,-0.21242 -1.06948,-0.4327 z m 4.76194,-0.84213 c 0.59731,-0.24102 1.57473,-0.24102 2.17204,0 0.59731,0.24102 0.1086,0.43822 -1.08601,0.43822 -1.19463,0 -1.68334,-0.1972 -1.08603,-0.43822 z m 4.39839,-0.88692 c 0.62717,-0.25097 1.37653,-0.22011 1.66522,0.0685 0.28871,0.28872 -0.22444,0.49405 -1.14032,0.45632 -1.01211,-0.0417 -1.21799,-0.24755 -0.5249,-0.5249 z m 3.47526,-0.86882 c 0.62718,-0.25096 1.37653,-0.22011 1.66523,0.0686 0.2887,0.28871 -0.22444,0.49404 -1.14032,0.45631 -1.01212,-0.0417 -1.21799,-0.24755 -0.52491,-0.52489 z m 88.85071,-85.05726 c 0.0417,-1.01212 0.24757,-1.21799 0.52492,-0.52491 0.25097,0.62718 0.2201,1.37654 -0.0686,1.66523 -0.28869,0.28871 -0.49404,-0.22445 -0.45631,-1.14032 z m 2.02761,-6.44371 c 0.066,-0.93984 1.17947,-1.32302 3.99333,-1.37419 l 3.90185,-0.071 -3.63749,0.33354 c -2.00063,0.18342 -3.79762,0.80182 -3.99333,1.37419 -0.19571,0.57235 -0.31467,0.4542 -0.26436,-0.26257 z m 9.85002,-2.31304 c 0.59731,-0.24102 1.57473,-0.24102 2.17204,0 0.5973,0.24102 0.1086,0.43823 -1.08602,0.43823 -1.19463,0 -1.68333,-0.19721 -1.08602,-0.43823 z m 4.39838,-0.88692 c 0.62718,-0.25097 1.37653,-0.22011 1.66523,0.0685 0.2887,0.28871 -0.22444,0.49404 -1.14032,0.45631 -1.01211,-0.0417 -1.21799,-0.24755 -0.52491,-0.52489 z m 21.08308,-20.76488 c 0.0417,-1.01213 0.24756,-1.21799 0.5249,-0.52492 0.25098,0.62718 0.22011,1.37654 -0.0686,1.66524 -0.28869,0.2887 -0.49404,-0.22445 -0.45632,-1.14032 z m 0.9374,-3.83728 c 0,-1.19461 0.1972,-1.68333 0.43822,-1.08601 0.24102,0.59731 0.24102,1.57472 0,2.17204 -0.24102,0.59731 -0.43822,0.10859 -0.43822,-1.08603 z m 0.98013,-6.51611 c 0.007,-2.38925 0.17525,-3.26355 0.37496,-1.94289 0.1997,1.32065 0.19436,3.27548 -0.0119,4.34407 -0.20623,1.0686 -0.36962,-0.0119 -0.36309,-2.40118 z m -0.98013,-6.51612 c 0,-1.19463 0.1972,-1.68333 0.43822,-1.08603 0.24102,0.59732 0.24102,1.57473 0,2.17204 -0.24102,0.59732 -0.43822,0.10861 -0.43822,-1.08601 z m -0.9374,-3.98207 c 0.0417,-1.01213 0.24756,-1.21799 0.5249,-0.52492 0.25098,0.62719 0.22011,1.37653 -0.0686,1.66524 -0.28869,0.28869 -0.49404,-0.22445 -0.45632,-1.14032 z m -21.08308,-20.93828 c 0.62718,-0.25097 1.37653,-0.22011 1.66523,0.0686 0.2887,0.28872 -0.22444,0.49404 -1.14032,0.45632 -1.01211,-0.0417 -1.21799,-0.24755 -0.52491,-0.5249 z m -4.39838,-0.85071 c 0.59731,-0.24103 1.57473,-0.24103 2.17204,0 0.5973,0.24102 0.1086,0.43822 -1.08602,0.43822 -1.19463,0 -1.68333,-0.1972 -1.08602,-0.43822 z m -9.66196,-0.98066 c -0.23361,-0.37799 1.01397,-0.55094 2.77238,-0.38433 5.37258,0.50904 6.00617,0.865 1.72796,0.97079 -2.24158,0.0554 -4.26673,-0.20847 -4.50034,-0.58646 z m 18.70451,-25.37723 c 0,-1.19463 0.19719,-1.68334 0.43821,-1.08603 0.24103,0.59732 0.24103,1.57473 0,2.17204 -0.24102,0.59732 -0.43821,0.1086 -0.43821,-1.08601 z m 0.96827,-6.08171 c 0,-2.15033 0.16943,-3.03 0.37651,-1.95485 0.20709,1.07517 0.20709,2.83452 0,3.90968 -0.20708,1.07516 -0.37651,0.19548 -0.37651,-1.95483 z m -0.93609,-6.51613 c 0.0178,-1.43354 0.21243,-1.91482 0.43271,-1.06949 0.22029,0.84534 0.2058,2.01824 -0.0322,2.60645 -0.23799,0.58822 -0.41822,-0.10341 -0.40052,-1.53696 z m -22.05267,-25.35474 c 0.62718,-0.25098 1.37654,-0.22012 1.66523,0.0685 0.2887,0.28871 -0.22443,0.49404 -1.14032,0.45632 -1.01212,-0.0417 -1.21799,-0.24755 -0.52491,-0.5249 z m -16.97967,-0.87741 c 0.84533,-0.22028 2.01823,-0.20579 2.60645,0.0323 0.58822,0.238 -0.10342,0.41823 -1.53697,0.40052 -1.43354,-0.0177 -1.91481,-0.21242 -1.06948,-0.4327 z m 6.06517,-0.88902 c 1.31408,-0.19907 3.4644,-0.19907 4.77849,0 1.31408,0.19906 0.23892,0.36194 -2.38924,0.36194 -2.62817,0 -3.70334,-0.16288 -2.38925,-0.36194 z m -14.7855,-8.93469 c 0,-1.67246 0.17879,-2.35666 0.39733,-1.52042 0.21853,0.83623 0.21853,2.20462 0,3.04086 -0.21854,0.83623 -0.39733,0.15203 -0.39733,-1.52044 z m 0.83662,-5.6473 c 0.0177,-1.43354 0.21243,-1.91481 0.43271,-1.06948 0.22028,0.84533 0.20579,2.01823 -0.0322,2.60645 -0.23798,0.58821 -0.41822,-0.10342 -0.40051,-1.53697 z m -0.83662,-5.64731 c 0,-1.67246 0.17879,-2.35666 0.39733,-1.52042 0.21853,0.83624 0.21853,2.20462 0,3.04086 -0.21854,0.83623 -0.39733,0.15204 -0.39733,-1.52044 z m -29.07957,-26.67895 c 1.08073,-0.20781 2.6446,-0.19992 3.47527,0.0176 0.83066,0.21746 -0.0536,0.38749 -1.96498,0.37785 -1.91139,-0.01 -2.59102,-0.18757 -1.51029,-0.39538 z m 27.36951,-107.74213 c 1.32066,-0.19971 3.2755,-0.19436 4.34408,0.0118 1.06859,0.20622 -0.0119,0.36962 -2.40119,0.3631 -2.38924,-0.007 -3.26354,-0.17526 -1.94289,-0.37495 z m -26.94523,-7.81819 c 1.31408,-0.19907 3.4644,-0.19907 4.77849,0 1.31408,0.19906 0.23892,0.36194 -2.38925,0.36194 -2.62817,0 -3.70332,-0.16288 -2.38924,-0.36194 z m 8.25375,-0.82193 c 0.59731,-0.24101 1.57473,-0.24101 2.17203,0 0.59732,0.24102 0.10861,0.43823 -1.08601,0.43823 -1.19463,0 -1.68333,-0.19721 -1.08602,-0.43823 z m 36.77606,-3.40667 c 0.0417,-1.01212 0.24756,-1.21799 0.52491,-0.52491 0.25098,0.62718 0.22011,1.37654 -0.0686,1.66523 -0.2887,0.28871 -0.49404,-0.22445 -0.45632,-1.14032 z m 0.9696,-4.27168 c 0.0178,-1.43354 0.21242,-1.91481 0.4327,-1.06948 0.22029,0.84533 0.20581,2.01823 -0.0322,2.60645 -0.23799,0.58821 -0.41822,-0.10342 -0.40052,-1.53697 z m -0.9696,-4.41648 c 0.0417,-1.01212 0.24756,-1.21799 0.52491,-0.5249 0.25098,0.62717 0.22011,1.37653 -0.0686,1.66522 -0.2887,0.28871 -0.49404,-0.22445 -0.45632,-1.14032 z m 7.11568,-2.70172 c 0.84532,-0.22028 2.01823,-0.20579 2.60645,0.0323 0.58821,0.238 -0.10342,0.41822 -1.53697,0.40052 -1.43355,-0.0178 -1.91481,-0.21242 -1.06948,-0.4327 z m -3.87191,-0.86023 c 0.62718,-0.25097 1.37653,-0.22012 1.66524,0.0685 0.28869,0.28871 -0.22445,0.49404 -1.14032,0.45632 -1.01213,-0.0417 -1.218,-0.24756 -0.52492,-0.5249 z m 8.68816,0 c 0.62718,-0.25097 1.37653,-0.22012 1.66523,0.0685 0.2887,0.28871 -0.22444,0.49404 -1.14032,0.45632 -1.01212,-0.0417 -1.21799,-0.24756 -0.52491,-0.5249 z m -13.73815,-1.14413 c 0,-0.47785 0.41404,-0.86882 0.92009,-0.86882 0.50605,0 0.67846,0.39097 0.38313,0.86882 -0.29531,0.47784 -0.70936,0.86882 -0.92008,0.86882 -0.21073,0 -0.38314,-0.39098 -0.38314,-0.86882 z m 26.32484,-14.76987 c 0,-2.62817 0.16286,-3.70333 0.36193,-2.38924 0.19907,1.31408 0.19907,3.46439 0,4.77848 -0.19907,1.31409 -0.36193,0.23892 -0.36193,-2.38924 z m -7.41797,-16.25317 c 1.08074,-0.20781 2.64461,-0.19992 3.47527,0.0176 0.83066,0.21745 -0.0536,0.38749 -1.96497,0.37784 -1.9114,-0.01 -2.59103,-0.18756 -1.5103,-0.39538 z m 16.11498,-16.32743 c 0.005,-2.86709 0.16708,-3.93524 0.36045,-2.37368 0.19336,1.56156 0.18936,3.90737 -0.009,5.2129 -0.19824,1.30552 -0.35645,0.0279 -0.35158,-2.83922 z m -16.11498,-16.68757 c 1.08074,-0.20781 2.64461,-0.19992 3.47527,0.0176 0.83066,0.21746 -0.0536,0.38749 -1.96497,0.37785 -1.9114,-0.01 -2.59103,-0.18757 -1.5103,-0.39539 z m 7.41797,-15.89303 c 0,-2.62816 0.16286,-3.70332 0.36193,-2.38924 0.19907,1.31409 0.19907,3.4644 0,4.77849 -0.19907,1.31409 -0.36193,0.23892 -0.36193,-2.38925 z m -26.32484,-14.82114 c 0,-0.50605 0.39096,-0.67846 0.86881,-0.38313 0.47785,0.29533 0.86882,0.70937 0.86882,0.92009 0,0.21072 -0.39097,0.38314 -0.86882,0.38314 -0.47785,0 -0.86881,-0.41405 -0.86881,-0.9201 z m 5.04999,-1.41104 c 0.62718,-0.25097 1.37653,-0.22011 1.66524,0.0686 0.28869,0.28871 -0.22445,0.49404 -1.14032,0.45632 -1.01213,-0.0417 -1.218,-0.24755 -0.52492,-0.5249 z m 8.68816,0 c 0.62718,-0.25097 1.37653,-0.22011 1.66523,0.0686 0.2887,0.28871 -0.22444,0.49404 -1.14032,0.45632 -1.01212,-0.0417 -1.21799,-0.24755 -0.52491,-0.5249 z m -4.81625,-0.8774 c 0.84532,-0.22028 2.01823,-0.20579 2.60645,0.0323 0.58821,0.238 -0.10342,0.41822 -1.53697,0.40052 -1.43355,-0.0178 -1.91481,-0.21242 -1.06948,-0.4327 z m -7.11568,-2.51117 c 0.0417,-1.01213 0.24756,-1.218 0.52491,-0.52491 0.25098,0.62718 0.22011,1.37653 -0.0686,1.66523 -0.2887,0.2887 -0.49404,-0.22445 -0.45632,-1.14032 z m 0.9696,-4.27168 c 0.0178,-1.43355 0.21242,-1.91482 0.4327,-1.06949 0.22029,0.84533 0.20581,2.01824 -0.0322,2.60645 -0.23799,0.58822 -0.41822,-0.10342 -0.40052,-1.53696 z m -0.9696,-4.41648 c 0.0417,-1.01212 0.24756,-1.21799 0.52491,-0.52491 0.25098,0.62718 0.22011,1.37653 -0.0686,1.66523 -0.2887,0.2887 -0.49404,-0.22445 -0.45632,-1.14032 z m -36.77606,-3.54385 c 0.59731,-0.24102 1.57473,-0.24102 2.17203,0 0.59732,0.24101 0.10861,0.43821 -1.08601,0.43821 -1.19463,0 -1.68333,-0.1972 -1.08602,-0.43821 z m -8.25375,-0.91572 c 1.31408,-0.19907 3.4644,-0.19907 4.77849,0 1.31408,0.19908 0.23892,0.36195 -2.38925,0.36195 -2.62817,0 -3.70332,-0.16287 -2.38924,-0.36195 z m 26.94523,-7.82049 c 1.32066,-0.19971 3.2755,-0.19436 4.34408,0.0119 1.06859,0.20622 -0.0119,0.36961 -2.40119,0.36309 -2.38924,-0.007 -3.26354,-0.17525 -1.94289,-0.37495 z M -424.68107,36.086553 c 1.55301,-0.192729 4.0943,-0.192729 5.64731,0 1.55301,0.19273 0.28236,0.35041 -2.82366,0.35041 -3.10601,0 -4.37666,-0.15768 -2.82365,-0.35041 z M -553.25569,31.75649 c 1.08074,-0.207815 2.64461,-0.199925 3.47527,0.01754 0.83066,0.217458 -0.0536,0.387488 -1.96497,0.377845 -1.91139,-0.0096 -2.59102,-0.187564 -1.5103,-0.395379 z m -6.09184,-0.829736 c 0.59731,-0.241021 1.57473,-0.241021 2.17204,0 0.59731,0.24102 0.10861,0.438219 -1.08602,0.438219 -1.19462,0 -1.68332,-0.197199 -1.08602,-0.438219 z m 13.95536,-0.0181 c 0.62718,-0.250975 1.37653,-0.220109 1.66523,0.06859 0.2887,0.2887 -0.22444,0.494043 -1.14032,0.456319 -1.01212,-0.04169 -1.21799,-0.247561 -0.52491,-0.52491 z m -142.08916,-4.35266 c 0.84533,-0.220282 2.01823,-0.205796 2.60645,0.03219 0.58822,0.237988 -0.10343,0.41822 -1.53697,0.400513 -1.43355,-0.01771 -1.91481,-0.212423 -1.06948,-0.432706 z m 8.68816,0 c 0.84532,-0.220282 2.01823,-0.205796 2.60645,0.03219 0.58821,0.237988 -0.10343,0.41822 -1.53697,0.400513 -1.43355,-0.01771 -1.91481,-0.212423 -1.06948,-0.432706 z m -134.683,-4.340899 c 0.83623,-0.218532 2.20462,-0.218532 3.04085,0 0.83624,0.21853 0.15204,0.397329 -1.52042,0.397329 -1.67247,0 -2.35667,-0.178799 -1.52043,-0.397329 z m 389.66392,-0.01426 c 1.07515,-0.207085 2.83452,-0.207085 3.90967,0 1.07516,0.207085 0.19548,0.376518 -1.95484,0.376518 -2.15031,0 -3.02999,-0.169433 -1.95483,-0.376518 z m -381.35587,-0.849164 c 0.62718,-0.250975 1.37653,-0.220109 1.66524,0.06859 0.28869,0.2887 -0.22445,0.494043 -1.14032,0.456318 -1.01213,-0.04169 -1.21801,-0.24756 -0.52492,-0.524908 z m 252.35325,-3.483844 c 0.84532,-0.220283 2.01823,-0.205797 2.60645,0.03219 0.58821,0.23799 -0.10342,0.418221 -1.53697,0.400515 -1.43355,-0.01771 -1.91481,-0.212424 -1.06948,-0.432707 z m -267.76044,-2.511176 c 0.0417,-1.012121 0.24756,-1.217992 0.52491,-0.52491 0.25098,0.627177 0.2201,1.376531 -0.0686,1.665231 -0.28869,0.2887 -0.49404,-0.224443 -0.45631,-1.140321 z m 133.51184,-2.675038 c 0.59732,-0.241021 1.57474,-0.241021 2.17204,0 0.59732,0.24102 0.10861,0.438218 -1.08601,0.438218 -1.19463,0 -1.68333,-0.197198 -1.08603,-0.438218 z M -813.03163,8.2984541 c 1.08073,-0.207815 2.6446,-0.199926 3.47525,0.01753 0.83068,0.217459 -0.0536,0.387489 -1.96496,0.377846 -1.91139,-0.0096 -2.59102,-0.187564 -1.51029,-0.395379 z m 6.99469,-0.847837 c 0.62719,-0.250975 1.37654,-0.220109 1.66524,0.0686 0.28869,0.288699 -0.22444,0.494043 -1.14032,0.456319 -1.01213,-0.04169 -1.218,-0.247561 -0.52492,-0.52491 z m 53.81229,-26.0463751 c 0.5973,-0.241021 1.57473,-0.241021 2.17204,0 0.5973,0.24102 0.1086,0.438217 -1.08602,0.438217 -1.19463,0 -1.68333,-0.197197 -1.08602,-0.438217 z m 8.74246,-0.0181 c 0.62718,-0.250976 1.37653,-0.22011 1.66523,0.06859 0.2887,0.2887 -0.22444,0.494044 -1.14032,0.456319 -1.01212,-0.04169 -1.218,-0.247561 -0.52491,-0.524909 z m 5.21289,-13.032239 c 0.62718,-0.250975 1.37654,-0.220109 1.66524,0.06859 0.28869,0.2887 -0.22444,0.494043 -1.14033,0.456318 -1.01212,-0.04169 -1.21799,-0.24756 -0.52491,-0.52491 z m -16.12739,-0.874212 c 0.83623,-0.218531 2.20462,-0.218531 3.04086,0 0.83623,0.218531 0.15203,0.39733 -1.52044,0.39733 -1.67246,0 -2.35666,-0.178799 -1.52042,-0.39733 z m 10.42578,0 c 0.83624,-0.218531 2.20463,-0.218531 3.04086,0 0.83624,0.218531 0.15205,0.39733 -1.52042,0.39733 -1.67247,0 -2.35666,-0.178799 -1.52044,-0.39733 z m 119.91314,-4.347264 c 0.84532,-0.220283 2.01823,-0.205796 2.60645,0.03219 0.58822,0.237989 -0.10343,0.41822 -1.53697,0.400515 -1.43355,-0.01771 -1.91481,-0.212425 -1.06948,-0.432708 z m 11.71247,0.02668 c 0.59731,-0.241021 1.57473,-0.241021 2.17204,0 0.59732,0.241019 0.1086,0.438217 -1.08601,0.438217 -1.19463,0 -1.68334,-0.197198 -1.08603,-0.438217 z m 118.21326,-4.36218 c 0.62719,-0.250976 1.37654,-0.22011 1.66524,0.06859 0.28869,0.2887 -0.22444,0.494043 -1.14032,0.456318 -1.01213,-0.04169 -1.218,-0.24756 -0.52492,-0.52491 z m 13.03224,0 c 0.62718,-0.250976 1.37654,-0.22011 1.66523,0.06859 0.28871,0.2887 -0.22444,0.494043 -1.14032,0.456318 -1.01211,-0.04169 -1.21799,-0.24756 -0.52491,-0.52491 z m -5.68506,-0.877397 c 0.84532,-0.220283 2.01823,-0.205797 2.60645,0.03219 0.58821,0.23799 -0.10343,0.418221 -1.53697,0.400515 -1.43355,-0.01771 -1.91481,-0.212425 -1.06948,-0.432707 z m 122.97521,-3.466683 c 0.62717,-0.250975 1.37653,-0.220109 1.66523,0.06859 0.2887,0.2887 -0.22444,0.494044 -1.14033,0.45632 -1.01211,-0.04169 -1.21799,-0.247561 -0.5249,-0.52491 z"
     id="path5" /><path
     style="fill:#ffffff;fill-opacity:1;stroke-width:0.868816"
     d="m -348.87688,722.75157 c 0,-0.18041 0.68419,-0.86459 1.52043,-1.52042 1.37799,-1.0807 1.40872,-1.04997 0.32802,0.32802 -1.13499,1.44724 -1.84845,1.90747 -1.84845,1.1924 z m 3.47526,-2.60644 c 0,-0.18041 0.6842,-0.8646 1.52043,-1.52043 1.37799,-1.08069 1.40872,-1.04997 0.32803,0.32803 -1.13499,1.44723 -1.84846,1.90746 -1.84846,1.1924 z m 4.77849,-4.01605 c 0.8649,-0.9557 1.76802,-1.73764 2.00695,-1.73764 0.23892,0 -0.27323,0.78194 -1.13813,1.73764 -0.86489,0.95569 -1.76802,1.73763 -2.00694,1.73763 -0.23893,0 0.27323,-0.78194 1.13812,-1.73763 z m 9.99139,-9.12257 c 4.04062,-4.06171 7.54205,-7.38493 7.78098,-7.38493 0.23892,0 -2.87155,3.32322 -6.91217,7.38493 -4.04062,4.06171 -7.54205,7.38493 -7.78098,7.38493 -0.23892,0 2.87155,-3.32322 6.91217,-7.38493 z m 9.12256,-9.99138 c 0.8649,-0.9557 1.76802,-1.73763 2.00695,-1.73763 0.23892,0 -0.27324,0.78193 -1.13814,1.73763 -0.86489,0.9557 -1.76801,1.73763 -2.00694,1.73763 -0.23892,0 0.27324,-0.78193 1.13813,-1.73763 z m 2.17204,-2.93448 c 0,-0.18041 0.68419,-0.8646 1.52043,-1.52043 1.37799,-1.08069 1.40872,-1.04996 0.32803,0.32803 -1.135,1.44723 -1.84846,1.90747 -1.84846,1.1924 z m 2.60644,-3.47526 c 0,-0.18041 0.6842,-0.8646 1.52044,-1.52043 1.37799,-1.08069 1.40872,-1.04997 0.32802,0.32803 -1.13499,1.44723 -1.84846,1.90746 -1.84846,1.1924 z m 47.35048,-52.66974 c 2.3533,-2.38925 4.47424,-4.34408 4.71317,-4.34408 0.23891,0 -1.49105,1.95483 -3.84436,4.34408 -2.35331,2.38924 -4.47424,4.34408 -4.71316,4.34408 -0.23893,0 1.49104,-1.95484 3.84435,-4.34408 z m -0.0327,-46.26444 -4.31142,-4.56129 4.56128,4.31142 c 2.5087,2.37127 4.56128,4.42385 4.56128,4.56129 0,0.6483 -0.8049,-0.073 -4.81114,-4.31142 z m -22.99097,-14.01188 c 0,-0.18042 0.68419,-0.86461 1.52043,-1.52044 1.37799,-1.08069 1.40873,-1.04996 0.32803,0.32803 -1.135,1.44724 -1.84846,1.90747 -1.84846,1.19241 z m 6.08171,-5.31928 c 1.62103,-1.67247 3.14281,-3.04086 3.38173,-3.04086 0.23892,0 -0.89189,1.36839 -2.51291,3.04086 -1.62102,1.67247 -3.1428,3.04086 -3.38172,3.04086 -0.23892,0 0.89189,-1.36839 2.5129,-3.04086 z m -0.47528,-45.83004 -3.43439,-3.69247 3.69247,3.43439 c 3.43396,3.19394 4.09171,3.95055 3.43438,3.95055 -0.14194,0 -1.80355,-1.66161 -3.69246,-3.69247 z m -43.94515,-3.90967 c -1.08069,-1.378 -1.04996,-1.40873 0.32803,-0.32803 0.83624,0.65583 1.52043,1.34002 1.52043,1.52042 0,0.71508 -0.71346,0.25484 -1.84846,-1.19239 z m -3.8535,-43.8752 -2.55179,-2.82365 2.82364,2.55179 c 2.63205,2.37862 3.22301,3.09551 2.5518,3.09551 -0.14952,0 -1.42016,-1.27064 -2.82365,-2.82365 z m -1.73763,-121.63423 -2.5518,-2.82364 2.82365,2.55178 c 2.63205,2.37863 3.22301,3.09552 2.5518,3.09552 -0.14952,0 -1.42016,-1.27065 -2.82365,-2.82366 z m 23.07827,-0.2172 c 1.12229,-1.19462 2.23601,-2.17204 2.47494,-2.17204 0.23892,0 -0.48383,0.97742 -1.60612,2.17204 -1.12229,1.19462 -2.236,2.17204 -2.47493,2.17204 -0.23893,0 0.48383,-0.97742 1.60611,-2.17204 z m 21.72039,-21.55785 c 0,-0.14952 1.27065,-1.42017 2.82366,-2.82365 l 2.82365,-2.55179 -2.55179,2.82365 c -2.37863,2.63204 -3.09552,3.223 -3.09552,2.55179 z m 2.11739,-25.141 -2.55179,-2.82366 2.82365,2.55179 c 2.63204,2.37863 3.22301,3.09552 2.5518,3.09552 -0.14952,0 -1.42017,-1.27065 -2.82366,-2.82365 z m -4.32514,-3.31587 c -0.31498,-0.50964 -0.38635,-1.11295 -0.15861,-1.34069 0.22774,-0.22774 0.6456,0.18924 0.92855,0.92662 0.58747,1.53094 0.0868,1.80023 -0.76994,0.41407 z m 13.06796,-6.02391 c 0.8649,-0.95569 1.76802,-1.73762 2.00695,-1.73762 0.23891,0 -0.27324,0.78193 -1.13814,1.73762 -0.86489,0.9557 -1.76801,1.73763 -2.00694,1.73763 -0.23893,0 0.27324,-0.78193 1.13813,-1.73763 z m -0.0825,-23.67522 -1.65509,-1.95484 1.95483,1.65508 c 1.83707,1.55537 2.35036,2.25459 1.65509,2.25459 -0.16486,0 -1.04454,-0.87968 -1.95483,-1.95483 z m -13.3841,-4.94442 c 0,-0.44965 0.38648,-1.05641 0.85886,-1.34835 0.49251,-0.30438 0.63816,0.0444 0.34145,0.81754 -0.57758,1.50516 -1.20031,1.78054 -1.20031,0.53081 z m 2.60644,-2.06077 c 0,-0.14952 1.27065,-1.42017 2.82365,-2.82365 l 2.82366,-2.55179 -2.55179,2.82365 c -2.37863,2.63205 -3.09552,3.223 -3.09552,2.55179 z m 2.11739,-25.141 -2.55179,-2.82366 2.82364,2.5518 c 2.63205,2.37863 3.22302,3.09551 2.55181,3.09551 -0.14953,0 -1.42017,-1.27064 -2.82366,-2.82365 z m -49.03344,-21.77505 c 0,-0.14953 1.27064,-1.42017 2.82365,-2.82366 l 2.82365,-2.55179 -2.55179,2.82366 c -2.37863,2.63203 -3.09551,3.223 -3.09551,2.55179 z m 25.1299,-2.11739 -2.10628,-2.38924 2.38924,2.10627 c 1.31408,1.15847 2.38925,2.23362 2.38925,2.38925 0,0.6814 -0.70357,0.12683 -2.67221,-2.10628 z M -400.57142,26.289269 c 0.86489,-0.955698 1.76802,-1.737633 2.00695,-1.737633 0.23891,0 -0.27324,0.781935 -1.13814,1.737633 -0.86489,0.955697 -1.76801,1.737631 -2.00694,1.737631 -0.23893,0 0.27324,-0.781934 1.13813,-1.737631 z m -128.58476,-5.212896 c 0.8649,-0.955697 1.76803,-1.737632 2.00695,-1.737632 0.23892,0 -0.27323,0.781935 -1.13813,1.737632 -0.86489,0.955697 -1.76801,1.737632 -2.00694,1.737632 -0.23893,0 0.27323,-0.781935 1.13812,-1.737632 z m 116.85574,-2.065657 c 0,-0.180415 0.68419,-0.864607 1.52043,-1.520429 1.37799,-1.080694 1.40872,-1.049964 0.32803,0.328026 -1.135,1.447229 -1.84846,1.907467 -1.84846,1.192403 z m -245.87489,-2.550282 c 0,-0.149523 1.27064,-1.420166 2.82364,-2.823653 l 2.82366,-2.55179 -2.55179,2.823651 c -2.37863,2.632039 -3.09551,3.223005 -3.09551,2.551792 z m -52.64591,-2.551792 -1.65508,-1.954836 1.95483,1.655084 c 1.07516,0.910296 1.95484,1.789972 1.95484,1.954836 0,0.695272 -0.69922,0.181979 -2.25459,-1.655084 z m 169.06723,0.814159 c 0,-0.149522 1.27065,-1.420165 2.82366,-2.823651 l 2.82365,-2.5517909 -2.55179,2.8236509 c -2.37863,2.63204 -3.09552,3.223005 -3.09552,2.551791 z m -23.56884,-2.117383 c -1.08069,-1.377989 -1.04997,-1.40872 0.32802,-0.328026 1.44723,1.134996 1.90746,1.848454 1.1924,1.848454 -0.18041,0 -0.8646,-0.684193 -1.52042,-1.520428 z M -666.8635,5.8720951 c 1.62104,-1.672471 3.14281,-3.040856 3.38174,-3.040856 0.23891,0 -0.89189,1.368385 -2.51292,3.040856 -1.62102,1.67247 -3.14279,3.040855 -3.38171,3.040855 -0.23893,0 0.89188,-1.368385 2.51289,-3.040855 z m -128.15034,-4.778487 c 1.86644,-1.91139599 3.58899,-3.475264 3.82792,-3.475264 0.23893,0 -1.09267,1.56386801 -2.9591,3.475264 -1.86642,1.911395 -3.58898,3.475264 -3.8279,3.475264 -0.23893,0 1.09266,-1.563869 2.95908,-3.475264 z m 26.49889,-9.991383 c 1.62103,-1.6724701 3.1428,-3.0408551 3.38173,-3.0408551 0.23892,0 -0.89189,1.368385 -2.51291,3.0408551 -1.62103,1.672471 -3.1428,3.040856 -3.38172,3.040856 -0.23893,0 0.89188,-1.368385 2.5129,-3.040856 z m 134.66646,-6.9505261 c 1.12229,-1.194622 2.23601,-2.17204 2.47493,-2.17204 0.23893,0 -0.48382,0.977418 -1.60612,2.17204 -1.12228,1.194622 -2.236,2.172039 -2.47492,2.172039 -0.23892,0 0.48383,-0.977417 1.60611,-2.172039 z m -143.78903,-3.040856 c 1.86643,-1.911395 3.589,-3.475263 3.82791,-3.475263 0.23893,0 -1.09266,1.563868 -2.95909,3.475263 -1.86643,1.911395 -3.58898,3.475263 -3.82791,3.475263 -0.23892,0 1.09266,-1.563868 2.95909,-3.475263 z m 301.80271,-4.126875 c -1.0807,-1.37799 -1.04997,-1.408721 0.32802,-0.328026 1.44722,1.134995 1.90747,1.848453 1.1924,1.848453 -0.18041,0 -0.86461,-0.684192 -1.52042,-1.520427 z m -169.30828,-0.489064 c 0,-0.149523 1.27063,-1.420166 2.82365,-2.823652 l 2.82364,-2.551792 -2.55179,2.823652 c -2.37862,2.632039 -3.0955,3.223005 -3.0955,2.551792 z m 278.02108,-4.400246 c 0,-0.180414 0.68419,-0.864606 1.52042,-1.520427 1.378,-1.080695 1.40873,-1.049964 0.32803,0.328025 -1.13499,1.447229 -1.84845,1.907467 -1.84845,1.192402 z m -98.65148,-4.233257 -3.43439,-3.692467 3.69246,3.434383 c 2.03087,1.888911 3.69248,3.550522 3.69248,3.692468 0,0.657326 -0.75661,-4.26e-4 -3.95055,-3.434384 z"
     id="path4" /><path
     style="fill:#ffffff;fill-opacity:1;stroke-width:0.868816"
     d="m -547.99862,30.908663 c 0.62718,-0.250975 1.37653,-0.220109 1.66523,0.0686 0.2887,0.2887 -0.22444,0.494044 -1.14032,0.456318 -1.01212,-0.04169 -1.21799,-0.24756 -0.52491,-0.524909 z m 103.50522,-5.271006 -2.99409,-3.25806 3.25807,2.994084 c 3.03253,2.786829 3.65753,3.522035 2.99408,3.522035 -0.14518,0 -1.61131,-1.466126 -3.25806,-3.258059 z m -238.64385,0.918346 c 0.84532,-0.220283 2.01823,-0.205796 2.60645,0.03219 0.58821,0.237989 -0.10343,0.41822 -1.53697,0.400514 -1.43355,-0.01771 -1.91481,-0.212424 -1.06948,-0.432707 z m 149.63699,-2.004367 c 0.8649,-0.955697 1.76803,-1.737631 2.00695,-1.737631 0.23893,0 -0.27323,0.781934 -1.13813,1.737631 -0.86489,0.955698 -1.76801,1.737633 -2.00694,1.737633 -0.23892,0 0.27323,-0.781935 1.13812,-1.737633 z m -41.37957,-2.389243 c -1.08069,-1.37799 -1.04996,-1.40872 0.32803,-0.328026 1.44722,1.134995 1.90746,1.848454 1.1924,1.848454 -0.18042,0 -0.86461,-0.684193 -1.52043,-1.520428 z m -232.89474,-0.810704 c 0.62719,-0.250975 1.37653,-0.22011 1.66524,0.06859 0.28869,0.288699 -0.22444,0.494043 -1.14032,0.456318 -1.01213,-0.04169 -1.218,-0.24756 -0.52492,-0.52491 z m 229.41948,-2.66456 c -1.0807,-1.377989 -1.04997,-1.40872 0.32802,-0.328025 1.44723,1.134995 1.90747,1.848453 1.19241,1.848453 -0.18042,0 -0.86462,-0.684192 -1.52043,-1.520428 z m 51.37095,-0.54523 c 0,-0.180413 0.6842,-0.864606 1.52043,-1.520427 1.378,-1.080695 1.40872,-1.049964 0.32803,0.328026 -1.13499,1.447228 -1.84846,1.907466 -1.84846,1.192401 z m 91.11485,-2.061217 c -1.08069,-1.37799 -1.04996,-1.408721 0.32802,-0.328026 1.44724,1.134995 1.90747,1.848454 1.19241,1.848454 -0.18042,0 -0.86461,-0.684193 -1.52043,-1.520428 z m -355.23488,-0.54523 c 0,-0.180414 0.6842,-0.864606 1.52044,-1.520428 1.37799,-1.080695 1.40872,-1.049964 0.32803,0.328026 -1.135,1.447228 -1.84847,1.907467 -1.84847,1.192402 z m 108.38478,-1.985006 c 0.59732,-0.24102 1.57473,-0.24102 2.17204,0 0.59732,0.24102 0.10861,0.438218 -1.08601,0.438218 -1.19463,0 -1.68334,-0.197198 -1.08603,-0.438218 z m -104.0407,-1.434092 c 0,-0.149523 1.27065,-1.420166 2.82366,-2.8236519 l 2.82365,-2.551791 -2.55179,2.823652 c -2.37863,2.6320389 -3.09552,3.2230039 -3.09552,2.5517909 z m 87.68466,-5.5926469 -2.10629,-2.389243 2.38924,2.106281 c 2.23311,1.968639 2.78768,2.672205 2.10629,2.672205 -0.15563,0 -1.23079,-1.075159 -2.38924,-2.389243 z m -81.60294,-1.414046 c 0,-0.180413 0.68419,-0.864606 1.52042,-1.520427 1.378,-1.080696 1.40873,-1.049964 0.32803,0.328026 -1.13499,1.447227 -1.84845,1.907467 -1.84845,1.192401 z m -6.08172,-13.032238 c 0,-0.180414 0.6842,-0.864607 1.52044,-1.520428 1.37799,-1.0806941 1.40871,-1.0499631 0.32803,0.328026 -1.135,1.447228 -1.84847,1.907467 -1.84847,1.192402 z m 56.8249,-3.3644411 -1.65509,-1.954837 1.95484,1.655085 c 1.07516,0.910295 1.95483,1.7899711 1.95483,1.9548351 0,0.695273 -0.69921,0.18198 -2.25458,-1.6550831 z m 91.74262,-0.110822 c 0,-0.180414 0.68419,-0.864606 1.52043,-1.520428 1.37799,-1.080695 1.40873,-1.049964 0.32803,0.328026 -1.135,1.447228 -1.84846,1.907467 -1.84846,1.192402 z m 36.37945,-4.667665 c -1.08069,-1.377991 -1.04997,-1.408721 0.32802,-0.328026 1.44723,1.134995 1.90747,1.848453 1.19241,1.848453 -0.18042,0 -0.86461,-0.684192 -1.52043,-1.520427 z m -117.29014,-2.606448 c -1.08069,-1.37799 -1.04997,-1.408721 0.32802,-0.328026 1.44723,1.134995 1.90746,1.848454 1.1924,1.848454 -0.18042,0 -0.8646,-0.684193 -1.52042,-1.520428 z m -29.19518,-0.819285 c 0.84532,-0.220283 2.01823,-0.205797 2.60645,0.0322 0.58822,0.237989 -0.10343,0.41822 -1.53697,0.400515 -1.43355,-0.01771 -1.91481,-0.212425 -1.06948,-0.432708 z m 244.77233,0.33022 c 0,-0.149521 1.27065,-1.420165 2.82366,-2.823651 l 2.82365,-2.551791 -2.55179,2.823651 c -2.37863,2.63204 -3.09552,3.223005 -3.09552,2.551791 z m -219.87616,-3.855014 -2.1063,-2.389244 2.38925,2.106282 c 2.23311,1.968639 2.78767,2.672205 2.10629,2.672205 -0.15564,0 -1.23079,-1.075159 -2.38924,-2.389243 z m -49.45676,0.323586 c 0,-0.180414 0.6842,-0.864606 1.52043,-1.520428 1.37799,-1.080695 1.40872,-1.049964 0.32803,0.328025 -1.13499,1.447229 -1.84846,1.907468 -1.84846,1.192403 z m 157.03847,-1.11619 c 0.59731,-0.241021 1.57473,-0.241021 2.17204,0 0.59731,0.24102 0.1086,0.438218 -1.08602,0.438218 -1.19462,0 -1.68333,-0.197198 -1.08602,-0.438218 z m 22.6956,-1.813844 c -1.08069,-1.37799 -1.04996,-1.408721 0.32802,-0.328026 1.44723,1.134995 1.90747,1.848453 1.19241,1.848453 -0.18043,0 -0.86461,-0.684192 -1.52043,-1.520427 z m 79.17306,-1.414046 c 0,-0.180414 0.68419,-0.864606 1.52043,-1.520428 1.37799,-1.080694 1.40873,-1.049964 0.32803,0.328026 -1.135,1.447229 -1.84846,1.907467 -1.84846,1.192402 z m 27.58491,-1.116189 c 0.59731,-0.241021 1.57472,-0.241021 2.17204,0 0.59731,0.24102 0.1086,0.438218 -1.08602,0.438218 -1.19462,0 -1.68334,-0.197198 -1.08602,-0.438218 z m -152.6944,-0.621442 c 0,-0.180414 0.68419,-0.864607 1.52043,-1.520428 1.37799,-1.080695 1.40873,-1.049964 0.32804,0.328026 -1.13501,1.447228 -1.84847,1.907467 -1.84847,1.192402 z m 131.1912,-4.450462 c 1.12229,-1.194621 2.23601,-2.17204 2.47494,-2.17204 0.23892,0 -0.48383,0.977419 -1.60612,2.17204 -1.12229,1.194622 -2.236,2.17204 -2.47493,2.17204 -0.23892,0 0.48383,-0.977418 1.60611,-2.17204 z m -241.31361,0.704327 c 0.83624,-0.218531 2.20462,-0.218531 3.04085,0 0.83624,0.218531 0.15205,0.39733 -1.52042,0.39733 -1.67247,0 -2.35666,-0.178799 -1.52043,-0.39733 z m 369.46395,-2.007551 c 0.8649,-0.955697 1.76803,-1.737631 2.00695,-1.737631 0.23893,0 -0.27323,0.781934 -1.13813,1.737631 -0.86489,0.955698 -1.76801,1.737632 -2.00694,1.737632 -0.23892,0 0.27323,-0.781934 1.13812,-1.737632 z m 22.45265,-4.778487 c 0.004,-3.82279 0.1559,-5.278583 0.33943,-3.235094 0.18354,2.043488 0.18095,5.171225 -0.006,6.950527 -0.18669,1.779301 -0.33686,0.107357 -0.33371,-3.715433 z m -262.84314,2.447355 c 0.62719,-0.250975 1.37653,-0.220109 1.66524,0.0686 0.28869,0.288699 -0.22444,0.494043 -1.14032,0.456318 -1.01213,-0.04169 -1.218,-0.24756 -0.52492,-0.52491 z m 4.28978,0.0181 c 0.59731,-0.241021 1.57473,-0.241021 2.17204,0 0.59731,0.24102 0.1086,0.438218 -1.08602,0.438218 -1.19462,0 -1.68333,-0.197198 -1.08602,-0.438218 z m 240.01039,-1.490258 c 0,-0.180414 0.68419,-0.864607 1.52042,-1.520428 1.378,-1.080695 1.40873,-1.049964 0.32803,0.328026 -1.13499,1.447228 -1.84845,1.907467 -1.84845,1.192402 z m -115.76972,-2.853822 c 0.59731,-0.241021 1.57473,-0.241021 2.17204,0 0.59731,0.24102 0.1086,0.438218 -1.08602,0.438218 -1.19462,0 -1.68333,-0.197198 -1.08602,-0.438218 z"
     id="path3" /><path
     style="fill:#ffffff;fill-opacity:1;stroke-width:0.868816"
     d="m -1409.7011,744.74363 c -22.2503,-1.6432 -42.7126,-8.65406 -61.4986,-21.07084 -29.349,-19.3985 -48.8293,-48.15174 -56.3948,-83.23952 -1.2317,-5.71287 -1.5688,-11.19601 -1.5688,-25.52125 0,-20.00663 0.858,-26.08421 5.7641,-40.83434 2.8738,-8.63966 9.3838,-22.42644 10.7434,-22.752 0.4778,-0.11442 3.0012,3.00313 5.6074,6.9279 6.8001,10.24079 24.3438,27.53028 35.2646,34.7538 19.6362,12.98831 40.0721,20.05786 61.2139,21.17628 5.4953,0.29071 9.7959,0.3325 9.5569,0.0928 -0.2389,-0.23963 -6.1034,-3.67159 -13.0322,-7.62656 -6.9288,-3.95497 -14.0787,-8.35239 -15.8888,-9.77203 -9.4589,-7.41889 -9.4589,-21.66682 0,-29.09688 1.8101,-1.42176 9.2532,-5.99414 16.5404,-10.16082 7.2872,-4.1667 13.2494,-7.70792 13.2494,-7.86939 0,-0.16147 -5.9622,-3.70269 -13.2494,-7.86939 -7.2872,-4.16669 -14.7303,-8.73906 -16.5404,-10.16083 -9.4591,-7.43016 -9.4591,-21.6706 0,-29.10076 1.8101,-1.42177 9.2532,-5.99414 16.5404,-10.16082 7.2872,-4.1667 13.2494,-7.70793 13.2494,-7.86939 0,-0.16147 -5.9622,-3.7027 -13.2494,-7.86938 -7.2872,-4.1667 -14.7303,-8.73907 -16.5404,-10.16084 -9.4591,-7.43017 -9.4591,-21.6706 0,-29.10077 1.8101,-1.42176 9.2532,-5.99413 16.5404,-10.16082 7.2872,-4.16669 13.2494,-7.70792 13.2494,-7.86938 0,-0.16148 -5.9622,-3.7027 -13.2494,-7.86938 -15.8612,-9.0692 -19.2401,-11.61266 -21.7059,-16.3393 -3.9599,-7.59061 -1.7245,-17.51012 5.1655,-22.9223 1.8101,-1.42177 9.2532,-5.99415 16.5404,-10.16083 7.2872,-4.16669 13.2494,-7.70792 13.2494,-7.86938 0,-0.16148 -5.9622,-3.7027 -13.2494,-7.86938 -7.2872,-4.16669 -14.7303,-8.73908 -16.5404,-10.16084 -9.4591,-7.43017 -9.4591,-21.6706 0,-29.10076 1.8101,-1.42177 9.2532,-5.99415 16.5404,-10.16083 7.2872,-4.16669 13.2494,-7.70792 13.2494,-7.86939 0,-0.16147 -5.9622,-3.70269 -13.2494,-7.86937 -7.2872,-4.16669 -14.7303,-8.73908 -16.5404,-10.16084 -9.4591,-7.43017 -9.4591,-21.6706 0,-29.10076 1.8101,-1.42177 9.2532,-5.99415 16.5404,-10.16083 7.2872,-4.16669 13.2494,-7.70792 13.2494,-7.86939 0,-0.16147 -5.9622,-3.70269 -13.2494,-7.86937 -7.2872,-4.1667 -14.7303,-8.73908 -16.5404,-10.16084 -9.4591,-7.43017 -9.4591,-21.67059 0,-29.10076 1.8101,-1.42177 9.2532,-5.99415 16.5404,-10.16083 7.2872,-4.16669 13.2494,-7.70792 13.2494,-7.86939 0,-0.16146 -5.9622,-3.70269 -13.2494,-7.86938 -7.2872,-4.16669 -14.7303,-8.73906 -16.5404,-10.16084 -9.4591,-7.43015 -9.4591,-21.67059 0,-29.10075 1.8101,-1.42177 9.2532,-5.99415 16.5404,-10.16084 7.2872,-4.166687 13.2494,-7.707907 13.2494,-7.869377 0,-0.16147 -5.9622,-3.7027 -13.2494,-7.86938 -15.8612,-9.06919 -19.2401,-11.61265 -21.7059,-16.3393 -2.5244,-4.83882 -2.5244,-11.90501 0,-16.74384 2.4658,-4.72665 5.8447,-7.2701 21.7059,-16.33929 7.2872,-4.166691 13.2494,-7.707912 13.2494,-7.869384 0,-0.161471 -5.9622,-3.702693 -13.2494,-7.869383 -7.2872,-4.166689 -14.7303,-8.739064 -16.5404,-10.160832 -9.4591,-7.4301609 -9.4591,-21.6706 0,-29.100762 1.8101,-1.421768 9.2532,-5.994143 16.5404,-10.160832 7.2872,-4.166689 13.2494,-7.707911 13.2494,-7.869382 0,-0.161472 -5.9622,-3.702693 -13.2494,-7.869382 -7.2872,-4.166689 -14.7303,-8.739065 -16.5404,-10.160833 -9.4591,-7.430165 -9.4591,-21.670596 0,-29.100762 1.8101,-1.421765 9.2532,-5.994143 16.5404,-10.160828 7.2872,-4.166693 13.2494,-7.707913 13.2494,-7.869383 0,-0.16147 -5.9622,-3.7027 -13.2494,-7.86938 -7.2872,-4.16669 -14.7303,-8.73907 -16.5404,-10.16084 -9.4591,-7.43017 -9.4591,-21.67059 0,-29.10075 1.8101,-1.42177 9.2532,-5.99415 16.5404,-10.16083 7.2872,-4.16669 13.2494,-7.81463 13.2494,-8.10653 0,-0.29189 -6.7858,-7.39536 -15.0797,-15.78548 -14.1247,-14.28871 -15.1483,-15.54509 -16.1653,-19.83952 -1.8738,-7.9133 0.8483,-15.53564 7.0942,-19.86406 3.1018,-2.14956 16.1025,-6.23868 32.6218,-10.26063 3.4645,-0.84347 6.2989,-1.94352 6.2989,-2.44457 0,-0.50104 -2.0186,-8.37601 -4.4858,-17.49994 -5.2508,-19.41734 -5.5309,-23.46961 -2.0628,-29.84172 1.801,-3.30899 3.4638,-4.96713 6.8045,-6.78537 6.4173,-3.49273 10.8255,-3.15164 31.0766,2.40471 l 16.997,4.66347 4.1741,-16.10422 c 5.1694,-19.94399 7.0798,-24.24584 12.3036,-27.706 4.9366,-3.26979 9.5433,-4.0722 15.3663,-2.67649 4.2265,1.01306 5.6034,2.13876 20.1747,16.49587 l 15.6387,15.40862 6.9506,-12.19641 c 10.3041,-18.08108 11.3434,-19.55901 15.6947,-22.31852 7.3112,-4.63661 14.3737,-4.2867 21.3236,1.05645 2.7787,2.13622 5.7254,6.41689 12.4303,18.05685 l 8.7884,15.25683 6.9374,-12.15142 c 10.2157,-17.89367 11.3127,-19.44814 15.6815,-22.21871 7.3112,-4.63661 14.3737,-4.2867 21.3236,1.05645 2.7787,2.13622 5.7254,6.41689 12.4303,18.05685 l 8.7884,15.25683 6.9374,-12.15142 c 10.2157,-17.89367 11.3127,-19.44814 15.6815,-22.21871 7.3119,-4.63707 14.3904,-4.2861 21.3061,1.05645 2.7262,2.10607 5.7402,6.46052 12.1609,17.56988 l 8.5366,14.76987 299.56324,0.46679 c 269.96219,0.42065 300.33594,0.60471 307.38261,1.86259 28.95097,5.16796 52.14529,17.09315 71.95305,36.99409 20.29398,20.38948 31.73169,42.75279 36.76554,71.88496 1.02554,5.9351 1.46021,17.13587 1.80384,46.48165 l 0.45272,38.66231 -214.91528,13.355304 c -257.50672,16.002042 -246.76824,15.280716 -254.15835,17.072224 -8.72231,2.114455 -20.68066,8.192638 -27.64218,14.04996 -7.96599,6.702464 -13.52265,13.718225 -17.80079,22.475021 -5.52999,11.319116 -6.54691,16.210258 -6.49181,31.2236821 0.0419,11.406557 0.32237,13.9219549 2.24864,20.1646309 6.93774,22.483901 25.7827,40.313261 48.96366,46.324891 8.66774,2.24785 -4.89164,1.31852 254.78959,17.46255 l 214.82405,13.35531 -0.22653,32.580587 -0.22654,32.5806 -205.04054,0.46097 c -228.99503,0.51483 -206.58977,-0.13543 -227.14149,6.59233 -20.28606,6.6408 -34.46642,15.50392 -50.47976,31.55128 -6.20579,6.21898 -13.04423,14.09631 -15.88896,18.30286 l -4.99417,7.38494 61.06738,0.50484 c 43.48974,0.35953 62.16323,0.80584 64.87451,1.55056 2.09392,0.57515 3.88214,0.93443 3.97383,0.79839 4.42802,-6.57045 8.9426,-9.36991 15.11046,-9.36991 4.95673,0 8.73573,1.72554 12.0528,5.50347 4.76918,5.4318 5.67554,12.01465 2.49356,18.11034 -1.56475,2.99757 -0.89119,3.60727 1.93751,1.75383 1.49934,-0.98241 4.03043,-1.47521 7.57684,-1.47521 4.44487,0 5.91859,0.4111 8.91302,2.48623 9.07295,6.28756 9.35558,21.17211 0.51077,26.89903 -1.60723,1.04067 -2.92707,2.1356 -2.93299,2.43319 -0.006,0.29758 1.9276,0.72733 4.2967,0.95497 4.81205,0.46237 9.75356,3.62927 12.09984,7.75449 l 1.40343,2.46749 c -3.74153,-1.36512 -7.36183,-0.12934 0.4344,0.88665 l -0.0118,4.12345 c -0.007,2.2679 -0.24721,5.00158 -0.53485,6.07486 l -0.52297,1.95141 c -2.00619,-0.19925 -2.65148,-1.85056 -0.78013,0.87568 l -2.29259,2.72457 c -2.70644,3.21643 -6.77445,5.09476 -11.03397,5.09476 -3.65701,0 -3.93175,0.986 -0.74587,2.67684 1.27759,0.67807 3.42791,2.97099 4.77848,5.0954 4.65817,7.32713 2.46431,17.69965 -4.75394,22.47644 -2.85874,1.89184 -4.52675,2.33192 -8.83832,2.33192 -3.53622,0 -6.06792,-0.49362 -7.566,-1.4752 -2.8287,-1.85344 -3.50226,-1.24374 -1.93751,1.75383 3.17123,6.07508 2.12779,12.95917 -2.7892,18.40169 -3.64613,4.03582 -7.72786,5.55721 -13.43749,5.00859 -4.70923,-0.45249 -9.22631,-3.11461 -11.74712,-6.92309 -1.2988,-1.96227 -2.08869,-2.37591 -3.75642,-1.9672 -7.02022,1.72049 -22.90982,2.14251 -80.64292,2.14184 l -64.50958,-7.3e-4 v 64.72787 64.72788 h 18.47561 18.47561 l 5.2787,-4.9957 c 7.02145,-6.64499 13.82148,-9.38265 22.93127,-9.23203 9.16461,0.15152 15.195,2.63362 22.10656,9.09905 3.70036,3.46151 6.19675,5.12868 7.67958,5.12868 1.97289,0 2.25699,-0.43623 2.78514,-4.27635 1.4196,-10.32172 8.73448,-20.00771 18.68886,-24.74684 5.01614,-2.38811 6.52123,-2.68859 13.46664,-2.68859 6.94543,0 8.45052,0.30048 13.46665,2.68859 11.13295,5.30023 17.93056,15.2727 18.86907,27.68201 0.56991,7.5354 1.84198,8.46334 4.48907,3.27462 2.28549,-4.47994 9.63444,-11.16801 14.64478,-13.32781 19.02008,-8.19897 39.9737,1.93119 45.03156,21.77079 2.09515,8.21825 0.73847,17.93314 -3.31743,23.75544 -1.69347,2.43102 -1.55577,4.96485 0.26983,4.96485 0.53855,0 2.06673,-0.77441 3.39597,-1.72092 3.09018,-2.20039 11.36123,-4.36078 16.69527,-4.36078 11.52796,0 23.15562,7.67839 28.70845,18.95781 2.58019,5.2411 2.83668,6.4815 2.81315,13.60451 -0.0203,6.15623 -0.431,8.72693 -1.91421,11.98309 -3.13948,6.89221 -7.29541,11.89086 -12.61714,15.17561 -2.77362,1.71197 -4.90205,3.53862 -4.72986,4.05922 0.17219,0.52058 3.10773,1.19898 6.52341,1.50754 12.19114,1.10128 22.2545,8.06293 27.44708,18.98735 2.38267,5.01276 2.68427,6.5259 2.68427,13.46664 0,6.94076 -0.3016,8.45389 -2.68427,13.46665 -5.18297,10.90422 -15.25377,17.88206 -27.40356,18.98736 l -6.1668,0.561 -2.42255,7.38493 c -13.98594,42.63493 -50.59448,76.45425 -93.59275,86.46189 -17.38891,4.04718 -3.8669,3.90325 -354.08566,3.76922 -180.7218,-0.0691 -332.6903,-0.42891 -337.7077,-0.79944 z m 147.6905,-832.143498 c 1.653,-0.886531 4.1324,-3.004079 5.5095,-4.705655 2.1161,-2.61444 2.6297,-4.282863 3.3155,-10.768737 1.5963,-15.09876 5.6455,-24.30922 14.6413,-33.30503 9.6116,-9.61172 20.7434,-14.22626 34.3181,-14.22626 13.5749,0 24.7066,4.61454 34.3182,14.22626 8.9959,8.99581 13.0449,18.20627 14.6414,33.30503 0.6857,6.485874 1.1994,8.154297 3.3154,10.768737 3.9398,4.867767 7.6061,6.475633 13.9399,6.113501 4.4302,-0.253286 5.9713,-0.772724 8.5968,-2.897701 4.9483,-4.005041 6.4226,-7.5104 6.4226,-15.270607 0,-34.19119 -24.1227,-65.38237 -58.8218,-76.05754 -7.0336,-2.16388 -8.8196,-2.35125 -22.4125,-2.35125 -13.6526,0 -15.3613,0.18121 -22.5892,2.39575 -27.2696,8.3551 -47.5027,28.65291 -55.7216,55.89981 -1.9101,6.33241 -2.3211,9.4522 -2.3972,18.19822 -0.091,10.510141 -0.081,10.569602 2.5365,13.80959 1.4454,1.789701 3.9805,3.979351 5.6336,4.865882 3.9292,2.107225 10.8244,2.107225 14.7535,0 z m 653.37369,-90.824412 c 9.02072,-5.96963 9.16356,-19.54579 0.27694,-26.32394 -2.81655,-2.14829 -3.94077,-2.43957 -9.41542,-2.43957 -5.47466,0 -6.59888,0.29128 -9.41542,2.43957 -7.62541,5.81619 -8.79949,17.27057 -2.49767,24.36742 4.71726,5.31239 14.5935,6.23028 21.05157,1.95652 z m 125.33452,-5.79214 c 4.08361,-1.13401 9.19713,-5.53269 10.74866,-9.24604 2.66159,-6.37007 0.9428,-13.63171 -4.32033,-18.2528 -2.72445,-2.3921 -7.78462,-4.58542 -10.57895,-4.58542 -2.79434,0 -7.8545,2.19332 -10.57896,4.58542 -9.34437,8.20447 -6.37085,22.92064 5.48531,27.14725 4.11705,1.46769 5.09177,1.50476 9.24427,0.35159 z m 6.8149,929.29032 c 0.28811,-0.28812 4.19421,-1.07982 8.68022,-1.75934 47.95602,-7.26413 88.60736,-41.55404 103.62958,-87.41282 6.45896,-19.71742 6.04962,-13.02961 6.3806,-104.24616 l 0.29815,-82.1704 4.71051,0.63923 c 22.1543,3.0064 34.40827,27.00745 23.97252,46.9534 -3.4321,6.5598 -2.37996,7.58077 4.23752,4.11198 13.65845,-7.15957 28.76893,-4.52522 39.14137,6.82389 5.66809,6.2018 8.0377,12.52131 8.07568,21.53715 0.0496,11.77144 -4.97909,20.93105 -15.08714,27.48086 -5.2932,3.42986 -5.57707,5.09974 -0.86695,5.09974 9.17007,0 17.35838,3.24564 23.78962,9.42959 7.86984,7.56722 11.37556,18.43891 9.31812,28.89666 -1.41478,7.19122 -3.66458,11.55402 -8.61073,16.69798 -6.18899,6.43649 -15.07162,10.13696 -24.33276,10.13696 -3.20685,0 -3.28978,0.084 -4.41477,4.47353 -2.75252,10.73972 -11.68092,28.78919 -19.43695,39.2933 -12.86462,17.42275 -28.88146,30.74658 -48.54407,40.38203 -23.82129,11.67338 -32.52899,13.20846 -78.0229,13.75472 -18.39281,0.22084 -33.20574,0.1658 -32.91762,-0.1223 z M -331.1215,360.42497 c -1.46399,-0.63758 -4.0833,-2.81994 -5.82068,-4.84967 -2.76333,-3.22833 -3.46356,-3.61269 -5.59195,-3.06953 -1.3382,0.34151 -5.26759,0.89606 -8.73199,1.23234 l -6.29892,0.6114 v -65.24344 -65.24344 l 6.29892,0.61141 c 3.4644,0.33628 7.39379,0.89083 8.73199,1.23233 2.12858,0.54322 2.82869,0.15872 5.59456,-3.07257 5.21385,-6.09121 11.87179,-7.65214 18.9416,-4.44078 8.58492,3.89959 11.98512,13.56761 7.71341,21.93201 -1.47915,2.8963 -0.76132,3.61412 2.13498,2.13497 6.18908,-3.16077 12.76198,-2.30825 18.0586,2.34225 7.66472,6.72971 7.46034,17.44134 -0.46218,24.22272 -1.97358,1.68931 -3.58832,3.32719 -3.58832,3.63975 0,0.31254 1.38781,0.56826 3.084,0.56826 8.12446,0 15.16113,7.45993 15.16113,16.07309 0,8.61315 -7.03667,16.07309 -15.16113,16.07309 -1.69619,0 -3.084,0.25573 -3.084,0.56827 0,0.31255 1.61474,1.95043 3.58832,3.63974 7.92252,6.78138 8.1269,17.49302 0.46218,24.22272 -5.29662,4.6505 -11.86952,5.50302 -18.0586,2.34224 -2.8963,-1.47913 -3.61413,-0.76131 -2.13498,2.13499 3.04277,5.95802 2.339,12.56328 -1.87175,17.56749 -4.44704,5.28501 -12.90082,7.4114 -18.96519,4.77036 z M -430.26392,34.595589 c -1.99541,-0.623928 -4.99598,-1.979857 -6.66792,-3.013176 -3.5404,-2.188087 -12.46723,-11.59028 -13.81705,-14.552837 -0.50995,-1.119202 -1.25538,-2.034914 -1.65653,-2.034914 -0.40116,0 -0.72937,-0.369355 -0.72937,-0.820791 0,-0.451434 -2.24805,-4.9935269 -4.99569,-10.0935379 -2.74762,-5.100012 -6.16859,-11.479294 -7.60214,-14.1761801 -9.03911,-17.005008 -19.03612,-22.020045 -30.50124,-15.301042 -3.73039,2.186152 -9.8987,8.868799 -9.8987,10.724089 0,0.548096 -0.36461,0.996538 -0.81026,0.996538 -0.44564,0 -1.0848,0.879676 -1.42033,1.954836 -0.33553,1.075159 -0.87588,2.1503191 -1.2008,2.3892431 -0.75922,0.558295 -9.60084,16.089161 -9.60084,16.864482 0,0.321845 -0.39763,1.057383 -0.88363,1.634526 -0.486,0.577142 -2.79027,3.6161969 -5.12059,6.7534569 -2.33034,3.137259 -5.15819,6.321861 -6.2841,7.076895 -1.12593,0.755034 -2.82908,2.116235 -3.78478,3.02489 -4.18539,3.979391 -14.41581,6.118996 -22.1548,4.633495 -9.47945,-1.819583 -19.12395,-8.691538 -24.79449,-17.666706 -1.41526,-2.240039 -2.86644,-4.0734969 -3.22483,-4.0743509 -0.35838,-8.55e-4 -0.6516,-0.402105 -0.6516,-0.891665 0,-1.103483 -7.07354,-12.468245 -8.00802,-12.86614 -0.37408,-0.159283 -0.68015,-0.669444 -0.68015,-1.133692 0,-1.722717 -6.89989,-10.9296751 -9.9136,-13.2283491 -6.52373,-4.975888 -10.95562,-5.829855 -18.55046,-3.574428 -6.5575,1.947366 -12.48527,7.906317 -22.18916,22.30585911 -4.60628,6.83524399 -9.47681,13.60061789 -10.82338,15.03416389 -10.0569,10.706473 -23.15818,14.244894 -36.95952,9.982099 -9.17434,-2.833669 -14.81707,-7.693905 -25.40962,-21.8860219 -13.99228,-18.7471521 -17.88969,-21.7127581 -28.63144,-21.7861771 -4.39258,-0.03003 -7.24233,0.473051 -10.26055,1.811324 -4.23595,1.87822 -12.5961,9.6959071 -19.25972,18.01004011 -3.69637,4.61191199 -10.66792,11.76427089 -14.56559,14.94331789 -2.9612,2.415249 -10.82476,5.095483 -17.26169,5.883527 -8.07827,0.988983 -12.78327,-2.963907 -10.22112,-8.587232 1.15817,-2.541896 3.84946,-3.7033539 10.04053,-4.3331179 8.31572,-0.845885 12.44897,-4.227019 28.19918,-23.0678641 6.37689,-7.628219 14.10538,-13.364441 21.17645,-15.717542 7.78673,-2.591258 19.35588,-2.197698 26.48797,0.901069 2.62817,1.141892 5.19953,2.482266 5.71415,2.978608 0.51461,0.496342 2.27396,2.079654 3.90967,3.51847 1.6357,1.438818 4.52537,4.566555 6.42146,6.950528 1.8961,2.383973 4.04641,4.999919 4.77849,5.813214 2.53047,2.8112321 3.50308,4.0973601 3.50308,4.6323151 0,1.066061 7.83549,10.690244 10.61846,13.042454 6.74022,5.6969429 17.62997,7.6646139 24.13417,4.3608059 3.52884,-1.792469 12.16342,-9.9319689 12.16342,-11.46599389 0,-0.573814 0.30571,-1.17362 0.67935,-1.332903 0.37363,-0.159284 3.35734,-4.19927701 6.63047,-8.97776501 3.27312,-4.7784871 7.33569,-10.4003701 9.02794,-12.4930731 4.10178,-5.072442 12.18894,-10.923234 17.56797,-12.709864 5.13649,-1.706067 15.06197,-1.89563 19.71553,-0.376538 6.77756,2.212442 15.08531,8.634608 19.35928,14.965363 1.19462,1.769517 2.46526,3.219976 2.82365,3.223241 0.35838,0.0033 0.65161,0.383105 0.65161,0.84409 0,1.894222 14.48903,23.8965671 18.04507,27.402376 6.79957,6.703507 14.33247,8.855855 21.46322,6.132597 5.70289,-2.177955 11.11511,-8.7498629 19.78588,-24.0254669 11.68203,-20.5806651 17.42707,-27.2471631 27.47016,-31.8761581 3.57197,-1.64637 6.21993,-2.171476 11.33137,-2.247077 5.88577,-0.08705 7.34745,0.234788 12.42985,2.736844 6.27359,3.088476 12.90785,9.572837 16.94375,16.560907 1.28439,2.22388 2.5495,4.238901 2.81137,4.477825 0.26187,0.238924 3.17879,5.712463 6.48203,12.1634221 8.75627,17.1001939 12.66446,22.3089959 20.02209,26.6853019 2.21039,1.314725 9.10965,1.422903 12.34313,0.193533 5.57943,-2.121295 11.18754,-9.846707 20.36144,-28.0487619 9.55637,-18.9609331 13.34046,-25.0860451 18.98563,-30.7310831 3.93481,-3.934733 10.63118,-7.485134 15.89671,-8.428416 l 3.25806,-0.583658 v 6.417966 6.417964 l -3.3666,1.008657 c -4.05127,1.213792 -10.85465,7.812645 -14.16841,13.742492 -1.29195,2.311891 -5.72321,10.8498801 -9.84723,18.97330811 -8.7984,17.33091289 -13.09016,23.73360589 -19.30419,28.79914889 -7.23842,5.900605 -17.2486,7.877534 -26.01245,5.13724 z"
     id="path2"
     sodipodi:nodetypes="ssssssssssssssssssssssssssssssssssssssssssssssssssssssssssssssssssssssccssssssscscsscsssscsssscsssscssssscsssssssscccsssscssssssssssssscccsccssssssssssssscccccsssssssssssssssssssssssssscsssssssssssssssssssscssssssssssssssssssscsssssssssssssssssssscccsssssssssssssssssssssssssssssssssssssssssssssssssssssssssssssssssssssssssssssssssssssssscccsssss" /></g></svg>
