<?xml version="1.0" encoding="UTF-8" standalone="no"?>
<!-- Created with Inkscape (http://www.inkscape.org/) -->

<svg
   xmlns:dc="http://purl.org/dc/elements/1.1/"
   xmlns:cc="http://creativecommons.org/ns#"
   xmlns:rdf="http://www.w3.org/1999/02/22-rdf-syntax-ns#"
   xmlns:svg="http://www.w3.org/2000/svg"
   xmlns="http://www.w3.org/2000/svg"
   xmlns:sodipodi="http://sodipodi.sourceforge.net/DTD/sodipodi-0.dtd"
   xmlns:inkscape="http://www.inkscape.org/namespaces/inkscape"
   width="42"
   height="42"
   viewBox="0 0 41.999999 41.999999"
   id="svg4565"
   version="1.1"
   inkscape:version="0.91 r13725"
   sodipodi:docname="email.svg">
  <defs
     id="defs4567" />
  <sodipodi:namedview
     id="base"
     pagecolor="#ffffff"
     bordercolor="#666666"
     borderopacity="1.0"
     inkscape:pageopacity="0.0"
     inkscape:pageshadow="2"
     inkscape:zoom="7.9195959"
     inkscape:cx="38.938756"
     inkscape:cy="29.12596"
     inkscape:document-units="px"
     inkscape:current-layer="layer1"
     showgrid="false"
     units="px"
     inkscape:showpageshadow="false"
     inkscape:window-width="1920"
     inkscape:window-height="1017"
     inkscape:window-x="-8"
     inkscape:window-y="-8"
     inkscape:window-maximized="1" />
  <metadata
     id="metadata4570">
    <rdf:RDF>
      <cc:Work
         rdf:about="">
        <dc:format>image/svg+xml</dc:format>
        <dc:type
           rdf:resource="http://purl.org/dc/dcmitype/StillImage" />
        <dc:title></dc:title>
      </cc:Work>
    </rdf:RDF>
  </metadata>
  <g
     inkscape:label="Layer 1"
     inkscape:groupmode="layer"
     id="layer1"
     transform="translate(0,-1010.3622)">
    <path
       style="fill:#ffffff;stroke:#ffffff;stroke-width:1.29999995;stroke-linecap:square;stroke-linejoin:bevel;stroke-miterlimit:4.30000019;stroke-dasharray:none;stroke-dashoffset:0;stroke-opacity:1"
       d="m 2.5192387,1051.0865 c -0.33531,-0.171 -0.77538,-0.5367 -0.97791,-0.8127 -0.3607499,-0.4917 -0.3692299,-0.7063 -0.4169999,-10.5433 -0.0424,-8.7186 -0.0129,-10.1164 0.2234799,-10.6107 0.14973,-0.3131 1.27003,-1.4895 2.48956,-2.6141 l 2.21732,-2.0447 0.004,-3.1617 c 0.007,-4.978 -0.0459,-4.9283 5.1704493,-4.9283 l 3.39987,0 2.30409,-2.178 c 3.92951,-3.7146 4.35196,-3.7168 8.24799,-0.043 l 2.35582,2.2213 3.40382,0 c 5.22042,0 5.16747,-0.051 5.17554,4.9282 l 0.005,3.1617 2.21206,2.0448 c 1.21664,1.1245 2.336422,2.3009 2.488412,2.614 0.24177,0.4982 0.27024,1.8253 0.22757,10.6108 -0.0478,9.837 -0.0562,10.0516 -0.41699,10.5432 -0.20254,0.276 -0.642592,0.6418 -0.977912,0.8127 -0.56852,0.2899 -1.82188,0.3109 -18.56763,0.3109 -16.7457493,0 -17.9991193,-0.021 -18.5676293,-0.3109 z m 35.8992493,-1.3524 c -2.19792,-2.0918 -16.47694,-14.3998 -16.86129,-14.5337 -0.32953,-0.1149 -0.66029,-0.113 -0.97229,0.01 -0.38435,0.1461 -14.8570193,12.6276 -16.7413793,14.438 l -0.52998,0.5092 17.7726993,0 17.7727,0 -0.44046,-0.4192 z m -28.7109297,-6.8694 c 3.7160597,-3.2513 6.7765997,-5.9622 6.8012097,-6.0243 0.0389,-0.098 -13.8587293,-7.1342 -14.0916593,-7.1342 -0.0486,0 -0.0883,4.4129 -0.0883,9.8066 0,9.3246 0.0154,9.7933 0.31115,9.535 0.17114,-0.1495 3.35156,-2.9319 7.0676096,-6.1831 z m 30.0699697,-13.1074 c -0.10542,-0.1054 -14.16454,6.9518 -14.11257,7.0841 0.0247,0.063 3.20518,2.882 7.06791,6.2654 l 7.02316,6.1515 0.046,-9.7153 c 0.0253,-5.3434 0.0143,-9.747 -0.0245,-9.7857 z m -20.05333,4.4979 c 0.88625,-0.4583 2.14086,-0.3655 3.06143,0.2265 0.43475,0.2796 0.97987,0.7148 1.21136,0.9671 l 0.42089,0.4588 5.22431,-2.6104 5.2243,-2.6103 0,-6.3223 c 0,-4.6802 -0.0554,-6.3777 -0.21336,-6.5356 -0.30884,-0.3088 -26.8236793,-0.3088 -27.1325193,0 -0.15796,0.1579 -0.21337,1.8554 -0.21337,6.5356 l 0,6.3223 5.2006993,2.6003 5.2007,2.6002 0.73532,-0.6752 c 0.40443,-0.3714 0.98054,-0.8021 1.28024,-0.957 z m -0.33524,-2.47 c -1.72494,-0.4861 -3.17961,-1.8418 -3.64015,-3.3926 -0.84039,-2.8299 0.1366,-5.8301 2.47381,-7.5965 3.00438,-2.2708 7.36482,-1.1798 8.26653,2.0681 0.79833,2.8756 -0.61175,5.7751 -2.80857,5.7751 -0.45525,0 -1.00067,-0.1227 -1.21611,-0.2736 -0.35161,-0.2463 -0.44348,-0.2463 -0.91973,0 -1.21875,0.6303 -2.66813,0.1149 -2.96124,-1.0529 -0.22739,-0.906 0.0174,-2.3493 0.52976,-3.1235 0.62589,-0.9458 1.8035,-1.5105 2.74747,-1.3176 0.3567,0.073 0.86065,0.1151 1.11988,0.094 0.25922,-0.021 0.52156,0.043 0.58299,0.1418 0.0614,0.099 -0.0537,0.9922 -0.25581,1.9839 -0.40757,2 -0.35784,2.4814 0.25631,2.4814 0.94324,0 2.04466,-1.5329 2.05281,-2.857 0.007,-1.1437 -0.48334,-2.3997 -1.17348,-3.0056 -0.85169,-0.7478 -1.36864,-0.9271 -2.66312,-0.9237 -3.99537,0.011 -6.66234,5.1502 -4.33771,8.3592 0.6532,0.9017 2.09274,1.6275 3.22801,1.6275 0.46608,0 1.30373,-0.1707 1.86144,-0.3794 0.95567,-0.3575 1.02697,-0.3616 1.23907,-0.072 0.33519,0.4584 0.14037,0.7333 -0.80928,1.1418 -1.11237,0.4786 -2.55486,0.6083 -3.57288,0.3215 z m 1.57968,-4.4642 c 0.56703,-0.2932 0.84627,-0.7762 1.0815,-1.8707 0.29447,-1.3702 -0.43473,-1.8818 -1.49425,-1.0483 -0.88906,0.6993 -1.22619,2.0292 -0.70355,2.7754 0.32441,0.4631 0.46372,0.4811 1.1163,0.1436 z m -14.9060093,0.7723 0,-1.9685 -1.33031,1.2128 c -0.73167,0.6671 -1.33175,1.2554 -1.33351,1.3073 -0.002,0.071 2.37698,1.3487 2.61937,1.4063 0.0244,0.01 0.0444,-0.8753 0.0444,-1.9579 z m 32.7122993,0.5515 c -0.002,-0.052 -0.60184,-0.6401 -1.33351,-1.3072 l -1.33031,-1.2128 0,1.967 0,1.967 1.33351,-0.6598 c 0.73343,-0.3629 1.33207,-0.7023 1.33031,-0.7542 z m -13.3546,-12.5684 c -0.13421,-0.1621 -1.0225,-1.0022 -1.97397,-1.8669 -2.3632,-2.1478 -2.36572,-2.1477 -4.94293,0.2185 -1.07278,0.985 -1.9505,1.8251 -1.9505,1.8669 0,0.042 2.05007,0.076 4.55571,0.076 4.22118,0 4.53779,-0.022 4.31169,-0.2946 z"
       id="path4259"
       inkscape:connector-curvature="0" />
  </g>
</svg>
