<?xml version="1.0" encoding="UTF-8" standalone="no"?>
<svg
   version="1.1"
   id="Layer_1"
   x="0px"
   y="0px"
   width="600px"
   height="600px"
   viewBox="0 0 600 600"
   enable-background="new 0 0 600 600"
   xml:space="preserve"
   sodipodi:docname="expo.svg"
   inkscape:version="1.3.2 (091e20e, 2023-11-25, custom)"
   xmlns:inkscape="http://www.inkscape.org/namespaces/inkscape"
   xmlns:sodipodi="http://sodipodi.sourceforge.net/DTD/sodipodi-0.dtd"
   xmlns="http://www.w3.org/2000/svg"
   xmlns:svg="http://www.w3.org/2000/svg"><defs
   id="defs1"><pattern
     id="EMFhbasepattern"
     patternUnits="userSpaceOnUse"
     width="6"
     height="6"
     x="0"
     y="0" /></defs><sodipodi:namedview
   id="namedview1"
   pagecolor="#ffffff"
   bordercolor="#000000"
   borderopacity="0.25"
   inkscape:showpageshadow="2"
   inkscape:pageopacity="0.0"
   inkscape:pagecheckerboard="0"
   inkscape:deskcolor="#d1d1d1"
   inkscape:zoom="0.47906484"
   inkscape:cx="212.91481"
   inkscape:cy="510.36933"
   inkscape:window-width="3840"
   inkscape:window-height="2066"
   inkscape:window-x="-11"
   inkscape:window-y="-11"
   inkscape:window-maximized="1"
   inkscape:current-layer="g1" />  
<g
   id="g1"
   transform="matrix(0.39238967,0,0,0.39238967,653.50563,226.04184)"><path
     style="fill:#ffffff;stroke-width:0.52994"
     d="m -734.94754,720.89272 c -5.91132,-3.67805 -28.34056,-18.124 -49.84267,-32.10207 L -823.885,663.37589 -915.43009,444.61418 c -50.34974,-120.31898 -92.09291,-218.63351 -92.76271,-218.47686 -1.6236,0.37986 -274.6578,162.381 -276.3027,163.94056 -3.5801,3.39421 -10.0684,0.55194 -42.6341,-18.67625 -27.9296,-16.49089 -33.9251,-20.56448 -35.0605,-23.82134 -1.2602,-3.61514 1.6844,-9.97707 36.8946,-79.71009 21.0452,-41.67973 82.1567,-162.68895 135.8032,-268.909393 l 97.5392,-193.127967 128.33514,-74.28 c 155.76868,-90.15839 146.32881,-84.88066 150.08407,-83.91008 2.96072,0.76529 81.67866,44.59711 83.75894,46.63881 2.19511,2.15442 86.17932,261.232476 85.78282,264.626529 -0.32198,2.755631 -3.22584,5.45859 -13.24256,12.326247 -23.90348,16.38866 -43.64656,38.981752 -56.68387,64.866463 -12.94427,25.699921 -18.30551,48.708806 -18.09455,77.656411 0.46959,64.44003 35.36815,121.76544 91.90465,150.9654 25.61312,13.22863 48.53477,18.52803 80.14029,18.52803 16.98294,0 20.35855,0.34966 22.81716,2.36343 2.16326,1.77191 13.86334,35.80652 46.74347,135.97314 24.12187,73.48532 43.85794,134.40224 43.85794,135.37087 0,0.96868 -1.67132,3.53486 -3.71403,5.70264 -6.78863,7.20432 -268.69557,164.91936 -273.87059,164.91936 -0.036,0 -4.90195,-3.00932 -10.81332,-6.68737 z m -8.7492,-30.79026 c -0.0149,-0.55707 -61.00485,-186.67912 -135.53319,-413.60456 l -135.50597,-412.59163 -32.7956,-18.60927 c -18.0375,-10.23511 -32.9256,-18.43964 -33.0845,-18.23233 -0.1588,0.20727 -51.8021,102.478124 -114.7628,227.268515 -62.9607,124.790395 -121.3474,240.312135 -129.7483,256.714895 l -15.2742,29.82328 23.6151,13.91675 c 13.0951,7.71725 24.0939,13.38316 24.69,12.71894 0.5913,-0.65883 51.0789,-69.26534 112.1948,-152.45894 61.1157,-83.19359 112.0643,-152.020781 113.2189,-152.949289 3.1919,-2.566712 7.8118,-2.026173 11.543,1.350552 2.3942,2.166713 38.328,86.808317 125.21812,294.949967 l 121.86039,291.9113 31.18279,20.29983 c 17.1505,11.16494 31.63859,20.34604 32.19566,20.40237 0.55712,0.0564 1.00074,-0.35325 0.9858,-0.91038 z m -104.86094,-936.26564 c 49.46582,-28.59779 89.95907,-52.38972 89.98499,-52.87101 0.0259,-0.48124 -11.65201,-7.42144 -25.9509,-15.42259 -14.2989,-8.00118 -26.98932,-15.15336 -28.20092,-15.89374 -1.73736,-1.06174 -28.49896,13.87855 -126.64104,70.70004 -73.57515,42.59802 -123.94205,72.54217 -123.22475,73.25955 0.6673,0.6673 13.4766,8.08514 28.4652,16.48406 l 27.2517,15.2708 34.18889,-19.76555 c 18.80385,-10.87103 74.66097,-43.16372 124.12683,-71.76156 z m 266.27824,463.96268 c -47.57399,-8.71465 -83.961,-50.02448 -86.70233,-98.43244 -2.85675,-50.44648 29.35184,-95.119527 78.69118,-109.143966 15.27859,-4.3428591 40.11889,-4.3836651 55.00905,-0.09041 45.50924,13.12174 76.46123,51.336089 78.89138,97.402036 1.66417,31.54537 -9.57761,60.19414 -32.20261,82.06556 -25.29933,24.45679 -58.90209,34.57107 -93.68667,28.19922 z m -6.07746,-49.31351 c 15.63032,-3.7648 41.16167,-16.63117 53.67329,-27.04825 19.05182,-15.86243 33.50689,-37.37625 41.09489,-61.162293 5.07879,-15.920619 5.17227,-15.635458 -9.81778,-29.956823 -17.19083,-16.424009 -36.59024,-23.885035 -61.90606,-23.808988 -22.44492,0.06741 -41.00189,7.088743 -57.00125,21.567342 -33.69116,30.488723 -38.79066,82.225552 -11.58095,117.494332 l 5.63714,7.30677 14.21056,-0.81351 c 7.81582,-0.44743 19.37635,-2.05776 25.69016,-3.57858 z"
     id="path1" /></g></svg>
