<?xml version="1.0" encoding="UTF-8" standalone="no"?>
<svg
   version="1.1"
   id="Layer_1"
   x="0px"
   y="0px"
   width="600px"
   height="600px"
   viewBox="0 0 600 600"
   enable-background="new 0 0 600 600"
   xml:space="preserve"
   sodipodi:docname="fastapi.svg"
   inkscape:version="1.3.2 (091e20e, 2023-11-25, custom)"
   xmlns:inkscape="http://www.inkscape.org/namespaces/inkscape"
   xmlns:sodipodi="http://sodipodi.sourceforge.net/DTD/sodipodi-0.dtd"
   xmlns="http://www.w3.org/2000/svg"
   xmlns:svg="http://www.w3.org/2000/svg"><defs
   id="defs1"><pattern
     id="EMFhbasepattern"
     patternUnits="userSpaceOnUse"
     width="6"
     height="6"
     x="0"
     y="0" /></defs><sodipodi:namedview
   id="namedview1"
   pagecolor="#ffffff"
   bordercolor="#000000"
   borderopacity="0.25"
   inkscape:showpageshadow="2"
   inkscape:pageopacity="0.0"
   inkscape:pagecheckerboard="0"
   inkscape:deskcolor="#d1d1d1"
   inkscape:zoom="0.47906484"
   inkscape:cx="217.08961"
   inkscape:cy="510.36933"
   inkscape:window-width="3840"
   inkscape:window-height="2066"
   inkscape:window-x="-11"
   inkscape:window-y="-11"
   inkscape:window-maximized="1"
   inkscape:current-layer="g5"
   showgrid="false" />  
<g
   id="g1"
   transform="matrix(0.39238967,0,0,0.39238967,653.50563,226.04184)"><g
     style="fill:none"
     id="g5"
     transform="matrix(8.5429944,0,0,8.5429944,-1559.151,-471.69565)"><path
       style="fill:#ffffff;stroke-width:0.496078"
       d="m 72.530666,136.16601 c -9.234387,-0.69212 -18.158673,-3.5157 -26.045654,-8.24064 -6.5369,-3.91614 -12.421917,-9.22854 -16.986979,-15.33414 C 21.369203,101.71924 17.399897,89.046268 17.743877,75.063248 17.832154,71.474663 18.06735,69.308725 18.7504,65.794009 21.231586,53.026837 27.966664,41.33678 37.860719,32.624265 53.405201,18.936104 75.372039,14.420267 95.155972,20.845782 c 21.808748,7.083141 37.586708,26.224374 40.409218,49.022945 0.57059,4.608851 0.62133,9.450794 0.14437,13.777749 -2.81434,25.531724 -21.91224,46.385424 -47.156441,51.491844 -5.167257,1.04523 -10.890503,1.41233 -16.022453,1.02769 z M 102.63777,66.886984 c 0.005,-0.06105 -4.453357,-0.110992 -9.906352,-0.110992 h -9.914533 l -0.03755,-18.47511 -0.03755,-18.475109 -14.724674,28.687061 c -8.098569,15.777881 -14.746872,28.753263 -14.774003,28.834178 -0.03239,0.09656 3.489331,0.147117 10.248077,0.147117 h 10.297408 l 0.0082,18.535331 0.0082,18.53533 L 88.21732,95.781379 C 96.144059,79.950508 102.63329,66.948027 102.6378,66.886984 Z"
       id="path1" /></g></g></svg>
