<?xml version="1.0" encoding="UTF-8" standalone="no"?>
<svg
   xmlns:dc="http://purl.org/dc/elements/1.1/"
   xmlns:cc="http://creativecommons.org/ns#"
   xmlns:rdf="http://www.w3.org/1999/02/22-rdf-syntax-ns#"
   xmlns:svg="http://www.w3.org/2000/svg"
   xmlns="http://www.w3.org/2000/svg"
   xmlns:sodipodi="http://sodipodi.sourceforge.net/DTD/sodipodi-0.dtd"
   xmlns:inkscape="http://www.inkscape.org/namespaces/inkscape"
   preserveAspectRatio="xMinYMin meet"
   version="1.1"
   id="svg2"
   inkscape:version="0.91 r13725"
   sodipodi:docname="getInTouch.svg"
   width="150"
   height="200">
  <metadata
     id="metadata36">
    <rdf:RDF>
      <cc:Work
         rdf:about="">
        <dc:format>image/svg+xml</dc:format>
        <dc:type
           rdf:resource="http://purl.org/dc/dcmitype/StillImage" />
        <dc:title></dc:title>
      </cc:Work>
    </rdf:RDF>
  </metadata>
  <defs
     id="defs34">
    <marker
       inkscape:stockid="Arrow1Lstart"
       orient="auto"
       refY="0"
       refX="0"
       id="Arrow1Lstart"
       style="overflow:visible"
       inkscape:isstock="true">
      <path
         id="path4271"
         d="M 0,0 5,-5 -12.5,0 5,5 0,0 Z"
         style="fill:#ffffff;fill-opacity:1;fill-rule:evenodd;stroke:#ffffff;stroke-width:1pt;stroke-opacity:1"
         transform="matrix(0.8,0,0,0.8,10,0)"
         inkscape:connector-curvature="0" />
    </marker>
  </defs>
  <sodipodi:namedview
     pagecolor="#ffffff"
     bordercolor="#666666"
     borderopacity="1"
     objecttolerance="10"
     gridtolerance="10"
     guidetolerance="10"
     inkscape:pageopacity="0"
     inkscape:pageshadow="2"
     inkscape:window-width="1920"
     inkscape:window-height="1017"
     id="namedview32"
     showgrid="false"
     inkscape:zoom="1.668772"
     inkscape:cx="21.141257"
     inkscape:cy="-9.557545"
     inkscape:window-x="-8"
     inkscape:window-y="-8"
     inkscape:window-maximized="1"
     inkscape:current-layer="svg2"
     inkscape:showpageshadow="false" />
  <path
     style="fill:#ffffff;fill-opacity:1"
     d="m 16.570985,97.960767 c -5.073772,-2.5354 -9.3471608,-8.18482 -10.5362208,-13.92891 -1.817757,-8.78115 2.843599,-18.21079 10.8906918,-22.03122 6.266676,-2.97516 11.676677,-2.99878 17.758888,-0.0776 4.998238,2.40062 8.577295,6.45499 10.397661,11.77853 1.264537,3.69807 1.264537,8.99951 0,12.69758 -1.765818,5.16402 -5.337929,9.29782 -10.068491,11.65173 -3.653546,1.81798 -3.80484,1.69907 -4.037074,-3.17295 -0.107344,-2.2518 -0.40666,-4.4628 -0.665174,-4.91334 -0.442809,-0.77172 -0.335375,-0.85659 1.85494,-1.46557 4.344844,-1.20797 6.616336,-4.37768 6.616336,-9.23265 0,-1.54804 -0.276498,-2.75232 -0.926879,-4.03698 -0.687565,-1.35812 -0.880347,-2.25697 -0.746633,-3.48131 0.09914,-0.90778 -0.0079,-2.13756 -0.237799,-2.73284 -0.3598,-0.93153 -0.568463,-1.04612 -1.497613,-0.82235 -0.593777,0.14299 -1.869947,0.63806 -2.835955,1.10014 -1.54842,0.74068 -2.045194,0.79693 -4.195787,0.47516 -1.513485,-0.22646 -3.365313,-0.22646 -4.87881,0 -2.150593,0.32177 -2.647354,0.26552 -4.195774,-0.47516 -0.966008,-0.46208 -2.24219,-0.95715 -2.835956,-1.10014 -0.929162,-0.22377 -1.137826,-0.10914 -1.497626,0.82235 -0.229919,0.59528 -0.334621,1.84553 -0.232661,2.77833 0.142638,1.305 -0.02844,2.06982 -0.741934,3.31759 -0.693949,1.21352 -0.928499,2.21799 -0.932006,3.99148 -0.01011,5.01561 2.211009,8.17291 6.609323,9.39574 l 2.322658,0.64577 -0.619752,1.2101 c -0.777205,1.51755 -1.179719,1.78212 -2.722563,1.78959 -0.679776,0.003 -1.33842,0.22552 -1.463636,0.49386 -0.145437,0.31163 -0.182834,0.28281 -0.103523,-0.0798 0.176371,-0.80631 -1.775529,-2.4295 -2.208694,-1.83675 -0.207798,0.28437 -0.247926,0.19544 -0.107794,-0.239 0.272924,-0.84632 -0.915572,-2.11893 -2.304415,-2.4675 -1.548533,-0.38866 -1.587368,0.0747 -0.144055,1.71852 0.727771,0.82888 1.626607,2.07028 1.997411,2.75868 0.844377,1.56755 3.0352,2.54502 5.087294,2.26977 l 1.496053,-0.20066 -0.116021,2.20959 c -0.145652,2.77391 -0.695513,2.93053 -4.178388,1.19012 z m 44.231435,-5.76566 c -3.085217,-0.88338 -4.455716,-1.89708 -5.729886,-4.23814 -3.024217,-5.55649 -1.718171,-15.54948 2.385525,-18.25237 2.467612,-1.62528 5.650969,-2.23396 8.936821,-1.70878 3.940442,0.62981 4.22904,0.8961 3.638599,3.35733 l -0.471985,1.96746 -1.436064,-0.33367 c -4.250313,-0.98757 -7.52883,-0.0281 -8.697656,2.54538 -0.90721,1.99746 -1.009519,7.41009 -0.177697,9.40093 0.804632,1.92575 2.674916,2.96561 5.097453,2.83409 l 1.951524,-0.106 0.116204,-2.4394 0.116198,-2.43941 -1.774995,0 -1.774999,0 0,-2.15988 0,-2.15988 4.19578,0.11082 4.19578,0.11083 0.107659,5.93655 c 0.12443,6.86134 0.270775,6.58444 -4.067048,7.69539 -2.936422,0.75205 -3.604092,0.73981 -6.611213,-0.12121 z m 26.214568,0.032 c -3.0255,-1.04447 -3.51364,-2.01269 -3.68156,-7.30229 l -0.14097,-4.44087 -1.22706,-0.11921 c -1.15149,-0.11184 -1.22705,-0.21536 -1.22705,-1.68044 0,-1.42457 0.11103,-1.59391 1.26849,-1.93467 1.24217,-0.36569 1.26849,-0.42036 1.26849,-2.63456 l 0,-2.26111 2.53698,0 2.53699,0 0,2.14667 0,2.14669 1.75637,0 1.75637,0 0,2.14668 0,2.14667 -1.75637,0 -1.75637,0 0,3.69418 c 0,4.02664 0.26528,4.50223 2.51132,4.50223 0.92441,0 1.00142,0.13305 1.00142,1.73007 0,1.78814 -0.0196,1.80805 -2.34183,2.37881 -0.322,0.0791 -1.44935,-0.15434 -2.50522,-0.51885 z m 29.436282,-0.007 c -2.78939,-1.05985 -3.12112,-2.0958 -3.12185,-9.74949 l -6.2e-4,-6.36109 2.43941,0.11621 2.43941,0.1162 0.10802,5.74882 c 0.10134,5.40189 0.15792,5.77557 0.93574,6.19184 0.61831,0.33091 1.20566,0.32981 2.32109,-0.005 l 1.4933,-0.44741 0.10791,-5.74444 0.1079,-5.74445 2.34183,0 2.34182,0 0,7.8061 0,7.8061 -1.52148,0.12459 c -0.88833,0.0727 -1.6418,-0.0701 -1.81061,-0.3432 -0.21716,-0.35137 -0.90155,-0.26096 -2.75007,0.3633 -2.91055,0.98291 -3.15006,0.98825 -5.43183,0.12128 z m 20.70874,0.0888 c -0.95358,-0.29909 -1.9108,-0.72082 -2.12715,-0.93718 -0.56827,-0.56826 -1.01786,-0.48341 -1.01786,0.19209 0,0.43367 -0.45537,0.58546 -1.75637,0.58546 l -1.75639,0 0,-11.70915 0,-11.70917 2.34184,0 2.34183,0 0,3.93407 0,3.93406 1.26849,-0.32374 c 0.69767,-0.17806 2.26705,-0.32374 3.48751,-0.32374 1.92928,0 2.37708,0.15148 3.42948,1.16008 1.69879,1.62807 2.52232,4.66164 2.20178,8.1105 -0.4024,4.32977 -1.62231,6.30171 -4.49336,7.26333 -1.57632,0.52797 -1.68968,0.52286 -3.9198,-0.17661 z m 2.16325,-3.97108 c 0.83639,-0.55847 1.32692,-2.01633 1.32692,-3.94359 0,-3.79011 -1.26073,-5.1822 -3.9606,-4.37329 l -1.50367,0.4505 0,3.65971 c 0,3.63717 0.007,3.66212 1.07334,4.05173 1.30982,0.47839 2.49021,0.53807 3.06401,0.15494 z m -123.961026,3.4212 c 0,-0.21467 0.07745,-0.39031 0.172121,-0.39031 0.09464,0 0.280669,0.17564 0.413337,0.39031 0.132668,0.21466 0.05519,0.3903 -0.172122,0.3903 -0.227333,0 -0.413336,-0.17564 -0.413336,-0.3903 z m 58.719745,-0.10959 c -0.105501,-0.27495 -0.143901,-3.83161 -0.08532,-7.90368 l 0.106501,-7.40378 2.439408,-0.1162 2.43941,-0.11621 0,8.01988 0,8.01988 -2.35408,0 c -1.553402,0 -2.419333,-0.17003 -2.545916,-0.49989 z m 20.121889,-11.20925 0,-11.70917 2.53699,0 2.53698,0 0,4.48852 0,4.48851 3.304812,0 3.30482,0 0.11035,-4.39094 0.11036,-4.39094 2.43941,-0.1162 2.4394,-0.1162 0,11.72779 0,11.72777 -2.53698,0 -2.53698,0 0,-5.07396 0,-5.07397 -3.3176,0 -3.317592,0 0,5.07397 0,5.07396 -2.53698,0 -2.53699,0 0,-11.70914 z m -19.267464,-6.27299 c -1.229134,-0.96684 -1.407912,-3.0241 -0.345364,-3.97416 1.787998,-1.59872 4.781238,-0.4258 4.781238,1.87355 0,1.16771 -1.59349,2.90954 -2.66176,2.90954 -0.41014,0 -1.20849,-0.36401 -1.774114,-0.80893 z"
     id="path4186"
     inkscape:connector-curvature="0" />
  <g
     class="scaling-icon"
     style="fill:#ffffff;fill-opacity:1"
     id="g4"
     transform="matrix(1.037037,0,0,1.037037,28.979183,18.606728)">
    <defs
       id="defs6" />
    <g
       id="g4275"
       transform="translate(158.43279,35.475654)"
       style="fill:#ffffff;fill-opacity:1;stroke:none">
      <path
         inkscape:connector-curvature="0"
         id="path4188"
         d="m -78.971494,-7.0755789 c -1.151319,-0.9056273 -1.126431,-0.5419778 -1.126431,-16.4593731 0,-13.833065 0.02131,-14.708645 0.374847,-15.379974 0.784775,-1.490332 0.04098,-1.426225 16.550991,-1.42658 16.681642,-3.58e-4 15.878209,-0.07375 16.60043,1.516418 0.356593,0.785129 0.378453,1.664477 0.382687,15.395472 0.0048,15.9075034 0.03471,15.4939906 -1.178657,16.3579685 l -0.616467,0.438966 -15.212177,0 -15.212167,0 -0.563056,-0.4428974 z m 8.884157,-12.3257161 0,-8.069765 -2.553718,0 -2.553727,0 0,8.069765 0,8.069764 2.553727,0 2.553718,0 0,-8.069764 z m 8.002492,3.21769 c 0.07271,-5.244747 0.121674,-5.496922 1.276454,-6.575771 0.404769,-0.378158 0.820212,-0.518689 1.727354,-0.584306 1.396835,-0.101038 1.926913,0.125963 2.421958,1.037198 0.307376,0.56578 0.367412,1.380296 0.42875,5.816432 l 0.07136,5.158521 2.551664,0 2.551673,0 -0.08013,-6.07786 c -0.09064,-6.869455 -0.194776,-7.444476 -1.60406,-8.853754 -0.981209,-0.981211 -2.374708,-1.412266 -4.564833,-1.412052 -1.39156,1.36e-4 -1.84193,0.09173 -2.890755,0.587914 -0.683312,0.323263 -1.441771,0.841226 -1.685465,1.151028 l -0.44307,0.563276 0,-1.049041 0,-1.04904 -2.451571,0 -2.451572,0 0,8.069765 0,8.069764 2.537518,0 2.537518,0 0.06731,-4.852074 z m -8.909364,-14.155328 c 0.907682,-0.560976 1.608747,-2.020723 1.447547,-3.014059 -0.232923,-1.435378 -1.413999,-2.502297 -2.925951,-2.643161 -1.079817,-0.100603 -2.007335,0.363007 -2.759786,1.37946 -0.933033,1.260377 -0.477852,3.44409 0.891984,4.279251 0.908685,0.554004 2.448504,0.553318 3.346206,-0.0015 z"
         style="opacity:1;fill:#ffffff;fill-opacity:1;stroke:none;stroke-width:5;stroke-linecap:round;stroke-linejoin:round;stroke-miterlimit:4;stroke-dasharray:none;stroke-dashoffset:0;stroke-opacity:1" />
      <path
         inkscape:connector-curvature="0"
         id="path4190"
         d="m -96.339604,-11.469657 c -4.047846,-0.898823 -6.218276,-4.577 -5.601116,-9.492088 0.50586,-4.028698 3.20684,-6.561999 7.031201,-6.594694 1.948457,-0.01665 2.946652,0.296314 4.010511,1.257447 l 0.790488,0.714157 0,-4.92692 0,-4.92692 2.451574,0 2.451574,0 0,11.951423 0,11.951422 -2.145128,0 -2.145127,0 0,-0.899157 0,-0.899157 -0.622722,0.581709 c -0.957236,0.894194 -2.605964,1.425081 -4.339164,1.397205 -0.810423,-0.01304 -1.657364,-0.06453 -1.882091,-0.114427 z m 4.878838,-4.221884 c 1.159733,-0.884572 1.450594,-1.606927 1.452629,-3.607606 0.0015,-1.475048 -0.07514,-1.873773 -0.508979,-2.647965 -1.673539,-2.986464 -5.636849,-2.503878 -6.619792,0.806047 -0.733533,2.470075 -0.0375,4.808026 1.716644,5.766186 1.07381,0.586543 2.974643,0.434523 3.959498,-0.316662 z"
         style="opacity:1;fill:#ffffff;fill-opacity:1;stroke:none;stroke-width:5;stroke-linecap:round;stroke-linejoin:round;stroke-miterlimit:4;stroke-dasharray:none;stroke-dashoffset:0;stroke-opacity:1" />
      <path
         inkscape:connector-curvature="0"
         id="path4192"
         d="m -114.85508,-11.651231 c -2.09763,-0.645881 -3.98312,-2.472577 -4.786,-4.63677 -0.3043,-0.820241 -0.39707,-1.595384 -0.39707,-3.317593 0,-2.033471 0.0544,-2.363896 0.57218,-3.473063 1.08814,-2.3311 2.95207,-3.736233 5.73529,-4.323569 3.78318,-0.798356 7.16009,0.739814 8.76127,3.99073 0.62537,1.269698 0.66219,1.469669 0.66219,3.596665 l 0,2.252215 -5.7733,0.10215 -5.7733,0.102149 0.38055,0.715042 c 0.20929,0.393273 0.76979,0.990845 1.24553,1.327936 0.77492,0.549071 1.01737,0.611225 2.32829,0.59687 1.54683,-0.01694 3.00724,-0.534745 3.71552,-1.317379 0.34085,-0.376638 0.39314,-0.354916 1.85573,0.770922 l 1.505,1.158478 -0.52299,0.54589 c -0.75753,0.790688 -2.27606,1.55971 -3.77973,1.914145 -1.62859,0.383883 -4.47455,0.38149 -5.72916,-0.0048 z m 6.36265,-10.089386 c -0.57457,-2.003424 -3.07647,-3.060884 -5.17117,-2.185663 -0.64008,0.267442 -1.98215,1.595643 -1.98215,1.961661 0,0.09926 -0.0558,0.3259 -0.124,0.503636 -0.11033,0.287514 0.29368,0.323156 3.66309,0.323156 l 3.78711,0 -0.17288,-0.60279 z"
         style="opacity:1;fill:#ffffff;fill-opacity:1;stroke:none;stroke-width:5;stroke-linecap:round;stroke-linejoin:round;stroke-miterlimit:4;stroke-dasharray:none;stroke-dashoffset:0;stroke-opacity:1" />
      <path
         inkscape:connector-curvature="0"
         id="path4194"
         d="m -136.07553,-23.487252 0,-11.951423 2.44899,0 2.449,0 0.0537,7.273641 0.0536,7.273641 2.47989,-2.932312 c 1.36393,-1.612771 2.66121,-3.095875 2.88283,-3.295784 0.35203,-0.317541 0.75499,-0.356266 3.1889,-0.306447 l 2.78596,0.05703 -3.45764,3.779509 c -3.37699,3.691355 -3.44919,3.789041 -3.09552,4.188107 1.07236,1.209976 6.29033,7.392557 6.42276,7.610094 0.12136,0.199353 -0.4483,0.255371 -2.59693,0.255371 l -2.7524,0 -2.92892,-3.670044 -2.92893,-3.670047 -0.0557,3.670047 -0.0557,3.670044 -2.44697,0 -2.44696,0 0,-11.951422 z"
         style="opacity:1;fill:#ffffff;fill-opacity:1;stroke:none;stroke-width:5;stroke-linecap:round;stroke-linejoin:round;stroke-miterlimit:4;stroke-dasharray:none;stroke-dashoffset:0;stroke-opacity:1" />
      <path
         inkscape:connector-curvature="0"
         id="path4196"
         d="m -155.07523,-19.503445 0,-7.967615 2.04298,0 2.04298,0 0,1.123638 c 0,1.224455 0.1847,1.393616 0.68611,0.628368 0.17849,-0.272398 0.94134,-0.798929 1.69523,-1.170069 1.24677,-0.61378 1.53894,-0.674799 3.23107,-0.674799 1.65503,0 1.99478,0.06713 3.07818,0.60825 1.43702,0.717738 2.39936,1.876318 2.74698,3.307131 0.13301,0.547486 0.28712,3.430646 0.34986,6.545596 l 0.11215,5.567115 -2.46101,0 -2.46101,0 -0.0668,-5.056371 c -0.0558,-4.223878 -0.12221,-5.157359 -0.40339,-5.669746 -0.62117,-1.131918 -1.11769,-1.422793 -2.42869,-1.422793 -1.36514,0 -2.07467,0.398981 -2.75075,1.546779 -0.37274,0.632813 -0.41423,1.12844 -0.47282,5.647909 l -0.0642,4.954222 -2.43842,0 -2.43843,0 0,-7.967615 z"
         style="opacity:1;fill:#ffffff;fill-opacity:1;stroke:none;stroke-width:5;stroke-linecap:round;stroke-linejoin:round;stroke-miterlimit:4;stroke-dasharray:none;stroke-dashoffset:0;stroke-opacity:1" />
      <path
         inkscape:connector-curvature="0"
         id="path4198"
         d="m -163.04284,-19.509928 0,-7.974099 2.40049,0.05756 2.4005,0.05756 0.0535,7.916541 0.0535,7.91654 -2.45397,0 -2.45397,0 0,-7.974098 z"
         style="opacity:1;fill:#ffffff;fill-opacity:1;stroke:none;stroke-width:5;stroke-linecap:round;stroke-linejoin:round;stroke-miterlimit:4;stroke-dasharray:none;stroke-dashoffset:0;stroke-opacity:1" />
      <path
         inkscape:connector-curvature="0"
         id="path4200"
         d="m -162.21732,-30.253416 c -1.68669,-1.41926 -1.57717,-3.462376 0.24517,-4.573469 2.35706,-1.437118 5.09101,1.436174 3.63643,3.821769 -0.82173,1.347681 -2.73336,1.717881 -3.8816,0.7517 z"
         style="opacity:1;fill:#ffffff;fill-opacity:1;stroke:none;stroke-width:5;stroke-linecap:round;stroke-linejoin:round;stroke-miterlimit:4;stroke-dasharray:none;stroke-dashoffset:0;stroke-opacity:1" />
      <path
         inkscape:connector-curvature="0"
         id="path4202"
         d="m -181.02105,-23.487252 0,-11.951423 2.34942,0 2.34943,0 0,9.499849 0,9.499849 5.00529,0 5.0053,0 0,2.451573 0,2.451574 -7.35472,0 -7.35472,0 0,-11.951422 z"
         style="opacity:1;fill:#ffffff;fill-opacity:1;stroke:none;stroke-width:5;stroke-linecap:round;stroke-linejoin:round;stroke-miterlimit:4;stroke-dasharray:none;stroke-dashoffset:0;stroke-opacity:1" />
    </g>
    <path
       style="fill:#ffffff;fill-opacity:1"
       d=""
       id="path4232"
       inkscape:connector-curvature="0" />
    <path
       style="fill:#ffffff;fill-opacity:1"
       d=""
       id="path4230"
       inkscape:connector-curvature="0" />
    <path
       style="fill:#ffffff;fill-opacity:1"
       d=""
       id="path4228"
       inkscape:connector-curvature="0" />
    <path
       style="fill:#ffffff;fill-opacity:1"
       d="m 88.446001,125.26984 c -0.983778,-0.27445 -2.759713,-0.94606 -3.946515,-1.49246 l -2.157834,-0.99344 -3.268135,0.84394 c -1.797468,0.46419 -3.412421,0.84397 -3.58879,0.84397 -0.176358,0 0.105202,-1.57323 0.625762,-3.49608 l 0.946417,-3.49606 -1.107283,-2.1139 c -1.500553,-2.8647 -2.219835,-5.79407 -2.235914,-9.10605 -0.02657,-5.47988 1.792389,-9.823775 5.788854,-13.824347 4.029444,-4.033585 8.033249,-5.688613 13.761758,-5.688613 5.056328,0 8.882109,1.365572 12.679559,4.525849 2.40762,2.003646 5.02478,5.852436 5.94386,8.741021 0.9537,2.9974 1.17348,7.68723 0.49542,10.57174 -1.5569,6.62315 -6.43684,12.01505 -12.879814,14.23108 -2.774139,0.95415 -8.430933,1.18608 -11.057345,0.45335 z m 14.766759,-8.68983 c 1.68113,-0.96132 2.45482,-2.06876 2.55228,-3.65333 l 0.08,-1.30086 -2.88344,-1.45305 -2.88345,-1.45304 -1.530933,1.74556 -1.530934,1.74557 -2.17633,-1.0714 c -1.5252,-0.75085 -2.805357,-1.73821 -4.27879,-3.30013 -2.661831,-2.82167 -2.827148,-3.41296 -1.437642,-5.14201 l 1.063775,-1.32373 -1.087611,-2.679065 c -0.598185,-1.47348 -1.227419,-2.862 -1.398297,-3.08558 -0.170885,-0.2236 -0.897475,-0.40653 -1.614644,-0.40653 -1.06202,0 -1.497725,0.20547 -2.348403,1.10746 -1.948816,2.06635 -2.246093,5.185935 -0.7728,8.109735 1.940184,3.85034 6.413028,8.66046 9.700925,10.43241 2.402791,1.29494 6.042357,2.43406 7.812514,2.44518 0.93246,0.005 1.92438,-0.25436 2.73376,-0.71719 z"
       id="path4267"
       inkscape:connector-curvature="0" />
  </g>
  <rect
     style="opacity:1;fill:none;fill-opacity:1;stroke:#ffffff;stroke-width:1;stroke-linecap:round;stroke-linejoin:round;stroke-miterlimit:4;stroke-dasharray:none;stroke-dashoffset:0;stroke-opacity:0"
     id="rect4152"
     width="196.93948"
     height="44.375725"
     x="3.6784775"
     y="8.3904562" />
  <rect
     style="opacity:1;fill:none;fill-opacity:1;stroke:#ffffff;stroke-width:1;stroke-linecap:round;stroke-linejoin:round;stroke-miterlimit:4;stroke-dasharray:none;stroke-dashoffset:0;stroke-opacity:0"
     id="rect4152-9"
     width="196.93948"
     height="44.375725"
     x="3.6784794"
     y="57.415066" />
  <rect
     style="opacity:1;fill:none;fill-opacity:1;stroke:#ffffff;stroke-width:1;stroke-linecap:round;stroke-linejoin:round;stroke-miterlimit:4;stroke-dasharray:none;stroke-dashoffset:0;stroke-opacity:0"
     id="rect4152-9-6"
     width="196.93948"
     height="44.375725"
     x="3.6784813"
     y="106.43967" />
  <path
     style="fill:#ffffff;fill-opacity:1"
     d="m 76.376709,132.56332 0,-6.85708 1.21007,0 c 1.11791,0 1.21008,0.0522 1.21008,0.68595 l 0,0.68595 0.96712,-0.73766 c 1.15262,-0.87914 2.96678,-0.99215 4.3449,-0.27066 2.66851,1.39706 3.28513,6.16242 1.11694,8.63185 -1.41319,1.60953 -3.67697,1.87884 -5.41149,0.64375 l -0.74857,-0.53303 0,2.304 0,2.30401 -1.34451,0 -1.34454,0 0,-6.85708 z m 6.14582,1.3647 c 0.93513,-0.48359 1.38352,-1.45719 1.38352,-3.00414 0,-2.1299 -0.96986,-3.3353 -2.68359,-3.3353 -2.44138,0 -3.28716,4.50723 -1.1598,6.18061 0.81402,0.64031 1.44945,0.68134 2.45987,0.15883 z m 4.94189,-1.29747 0.0719,-6.78985 1.2773,-0.0819 c 1.2318,-0.079 1.27729,-0.0558 1.27729,0.65192 l 0,0.73386 0.62921,-0.59111 c 1.95812,-1.83954 5.38356,-0.91313 6.5299,1.76602 0.59803,1.39769 0.47243,4.31863 -0.23922,5.56314 -0.90522,1.58303 -1.82518,2.1456 -3.53601,2.16231 -1.10226,0.0108 -1.65363,-0.13248 -2.27411,-0.59083 -0.4505,-0.33277 -0.88449,-0.60503 -0.96442,-0.60503 -0.08,0 -0.14535,1.02856 -0.14535,2.28569 l 0,2.28569 -1.34913,0 -1.34915,0 0.0718,-6.78985 z m 6.46983,1.13864 c 1.44013,-1.1328 1.61535,-4.09024 0.32484,-5.48271 -0.88507,-0.95502 -2.47309,-0.97132 -3.35327,-0.0344 -1.26504,1.34657 -0.96373,4.86154 0.48412,5.64783 0.99687,0.54137 1.73833,0.50327 2.54431,-0.13071 z m -56.71592,2.03795 c -1.830178,-0.79654 -2.307107,-2.97842 -0.975667,-4.46353 0.61926,-0.69074 1.045524,-0.87013 2.621823,-1.1034 2.298153,-0.34008 3.201281,-0.74526 3.308395,-1.48425 0.120174,-0.82911 -0.643698,-1.43628 -1.806949,-1.43628 -1.003173,0 -1.904803,0.61462 -1.904803,1.29847 0,0.19957 -0.503259,0.31496 -1.373678,0.31496 -1.361275,0 -1.372111,-0.007 -1.200472,-0.7395 0.441168,-1.88357 3.229843,-3.02597 6.071225,-2.48711 0.947293,0.17965 1.718074,0.52092 2.14953,0.95171 0.648166,0.64717 0.677559,0.82817 0.807111,4.96954 l 0.134456,4.29791 -1.2773,-4.3e-4 c -0.99369,-4.3e-4 -1.277299,-0.0965 -1.277299,-0.43264 0,-0.30829 -0.134855,-0.37495 -0.470584,-0.23259 -2.404837,1.01972 -3.447388,1.13843 -4.805788,0.54722 z m 3.912616,-1.62044 c 0.873911,-0.45192 1.094852,-0.89313 1.094852,-2.18637 l 0,-0.92235 -1.142846,0.17313 c -0.628567,0.0952 -1.536121,0.3325 -2.016787,0.52728 -0.712562,0.28874 -0.873941,0.50281 -0.873941,1.15932 0,0.52722 0.206317,0.9497 0.597642,1.22379 0.745905,0.52245 1.366568,0.52914 2.34108,0.0252 z m 14.235924,1.69098 c -1.14296,-0.30464 -2.270233,-1.39231 -2.529302,-2.44041 -0.179199,-0.72499 -0.158824,-0.73949 1.038313,-0.73949 1.002709,0 1.253019,0.10057 1.399589,0.56235 0.0982,0.3093 0.60072,0.73879 1.1168,0.95442 1.84421,0.77055 3.91646,-0.69734 2.54836,-1.80515 -0.30986,-0.25091 -1.42306,-0.66688 -2.47375,-0.92437 -2.45168,-0.6008 -3.484885,-1.42649 -3.484885,-2.7849 0,-1.99378 1.510985,-3.07297 4.302465,-3.07297 1.91416,0 3.1844,0.4848 3.8828,1.4819 0.78217,1.11671 0.55934,1.55513 -0.79038,1.55513 -0.66555,0 -1.21008,-0.11236 -1.21008,-0.24968 0,-0.53728 -0.88871,-1.09483 -1.74509,-1.09483 -1.30573,0 -1.75067,0.24411 -1.75067,0.96048 0,0.77574 0.45972,1.03617 2.77844,1.57392 0.99217,0.2301 2.09493,0.60903 2.45059,0.84206 1.34428,0.8808 1.38707,3.14339 0.0822,4.34875 -1.12024,1.03484 -3.52144,1.39096 -5.61545,0.83279 z m -46.2163769,-0.077 c 0,-0.0682 -0.786546,-3.13122 -1.747881,-6.80676 -0.961335,-3.67555 -1.747882,-6.76596 -1.747882,-6.86757 0,-0.10162 0.639583,-0.18476 1.421296,-0.18476 l 1.421294,0 1.060361,4.70584 c 0.5831999,2.58821 1.1372429,4.70583 1.2312059,4.70583 0.09396,0 0.698071,-2.11762 1.34246,-4.70583 l 1.171617,-4.70584 1.387691,0 1.387694,0 1.14609,4.63861 c 0.630347,2.55124 1.210054,4.75154 1.288234,4.88957 0.114733,0.20256 0.932808,-2.91935 2.33825,-8.92315 0.123485,-0.5275 0.31326,-0.60503 1.481035,-0.60503 0.894109,0 1.338241,0.11174 1.335916,0.33613 -0.0019,0.18487 -0.606846,2.57477 -1.344287,5.31088 -0.73744,2.7361 -1.53713,5.73103 -1.77709,6.65539 l -0.436285,1.68065 -1.425433,0 c -1.671687,0 -1.433235,0.45551 -2.954753,-5.64428 -0.534551,-2.14302 -1.011282,-3.93577 -1.059406,-3.9839 -0.04812,-0.0481 -0.614047,2.0985 -1.257609,4.77028 l -1.170112,4.85777 -1.546203,8e-5 c -0.8504109,3e-5 -1.5462029,-0.0557 -1.5462029,-0.12391 z m 15.5964859,-6.86756 0,-6.99153 1.210071,0 1.210072,0 0,2.55459 c 0,1.40503 0.102253,2.55461 0.227226,2.55461 0.124977,0 0.446712,-0.24253 0.714967,-0.53895 0.6599,-0.72918 2.195099,-1.10468 3.395794,-0.83058 2.161939,0.49354 2.466863,1.2285 2.604234,6.27705 l 0.107924,3.96633 -1.373835,0 -1.373831,0 0,-3.34865 c 0,-1.98644 -0.128145,-3.62991 -0.315006,-4.04003 -0.576844,-1.26603 -2.534446,-1.23526 -3.379036,0.0531 -0.371247,0.56632 -0.49455,1.43968 -0.568863,4.0293 l -0.09488,3.30626 -1.18242,0 -1.182421,0 0,-6.99152 z m 23.798081,6.67479 c -0.295795,-0.16521 -0.598313,-0.35264 -0.672255,-0.41651 -0.07399,-0.0638 -0.194961,-1.77036 -0.268913,-3.79223 l -0.134447,-3.67612 -0.889619,-0.0854 c -0.823374,-0.0791 -0.883449,-0.14916 -0.80672,-0.94117 0.07245,-0.74822 0.192712,-0.86633 0.956846,-0.93999 0.868484,-0.0837 0.87394,-0.0933 0.87394,-1.54621 l 0,-1.46194 1.210073,0 1.210079,0 0,1.47897 0,1.47898 1.075621,0 c 1.050004,0 1.075621,0.0224 1.075621,0.94117 0,0.91876 -0.02565,0.94117 -1.075621,0.94117 l -1.075621,0 0,2.80429 c 0,3.05542 0.243855,3.64942 1.498181,3.64942 0.567082,0 0.653061,0.12391 0.653061,0.94117 l 0,0.94116 -1.546206,-0.008 c -0.85041,-0.005 -1.788224,-0.14335 -2.08402,-0.30855 z m 14.40642,-1.75457 c 0.42808,-1.15319 1.60177,-4.27485 2.60822,-6.93701 l 1.82988,-4.84029 1.56854,0 1.56854,0 2.52006,6.72263 c 1.38603,3.69744 2.52078,6.81337 2.52166,6.9243 7.8e-4,0.11092 -0.65383,0.20167 -1.45494,0.20167 l -1.45657,0 -0.51483,-1.54619 -0.51484,-1.54621 -2.70899,-0.0764 -2.70898,-0.0764 -0.51728,1.55533 -0.51728,1.55533 -1.50076,0.0799 -1.50077,0.0799 0.77834,-2.09672 z m 7.77823,-3.50329 c 0,-0.58418 -1.7258,-4.90426 -1.88697,-4.72352 -0.10504,0.11779 -0.56821,1.273 -1.02925,2.5671 l -0.83827,2.35292 1.87724,0 c 1.03249,0 1.87725,-0.0884 1.87725,-0.1965 z"
     id="path4236"
     inkscape:connector-curvature="0" />
  <path
     style="fill:#ffffff;fill-opacity:1"
     d="m 16.582144,97.922457 c -5.07378,-2.5354 -9.3471704,-8.18482 -10.5362304,-13.92891 -1.81775,-8.78115 2.8436,-18.21079 10.8907004,-22.03122 6.26667,-2.97516 11.676674,-2.99878 17.758885,-0.0776 4.998238,2.40062 8.577295,6.45499 10.397661,11.77853 1.264537,3.69807 1.264537,8.99951 0,12.69758 -1.765818,5.16402 -5.337929,9.29782 -10.068491,11.65173 -3.653546,1.81798 -3.80484,1.69907 -4.037074,-3.17295 -0.107344,-2.2518 -0.40666,-4.4628 -0.665174,-4.91334 -0.442809,-0.77172 -0.335375,-0.85659 1.85494,-1.46557 4.344844,-1.20797 6.616336,-4.37768 6.616336,-9.23265 0,-1.54804 -0.276498,-2.75232 -0.926879,-4.03698 -0.687565,-1.35813 -0.880347,-2.25697 -0.746633,-3.48131 0.09914,-0.90778 -0.0079,-2.13756 -0.237799,-2.73284 -0.3598,-0.93153 -0.568463,-1.04612 -1.497613,-0.82235 -0.593777,0.14299 -1.869947,0.63805 -2.835955,1.10014 -1.54842,0.74067 -2.045194,0.79693 -4.195787,0.47516 -1.513485,-0.22646 -3.365317,-0.22646 -4.878807,0 -2.1506,0.32177 -2.64736,0.26552 -4.19578,-0.47516 -0.96601,-0.46209 -2.24219,-0.95715 -2.83595,-1.10014 -0.92917,-0.22377 -1.13783,-0.10914 -1.49763,0.82235 -0.22992,0.59528 -0.33462,1.84553 -0.23266,2.77833 0.14264,1.305 -0.0284,2.06981 -0.74193,3.31759 -0.69395,1.21352 -0.9285,2.21799 -0.93201,3.99148 -0.0101,5.01561 2.21101,8.17291 6.60932,9.39574 l 2.32266,0.64577 -0.61975,1.2101 c -0.77721,1.51755 -1.17972,1.78212 -2.72256,1.78959 -0.67978,0.003 -1.33842,0.22552 -1.46364,0.49386 -0.14544,0.31163 -0.18283,0.28281 -0.10352,-0.0798 0.17637,-0.80631 -1.77553,-2.4295 -2.2087,-1.83675 -0.2078,0.28437 -0.24792,0.19544 -0.10779,-0.239 0.27292,-0.84632 -0.91557,-2.11893 -2.30442,-2.4675 -1.54853,-0.38866 -1.58736,0.0747 -0.14405,1.71852 0.72777,0.82888 1.62661,2.07028 1.99741,2.75868 0.84438,1.56755 3.0352,2.54502 5.08729,2.26977 l 1.49606,-0.20066 -0.11602,2.20959 c -0.14566,2.77391 -0.69552,2.93053 -4.17839,1.19012 z m -1.20676,-6.20174 c 0,-0.21467 0.0774,-0.39031 0.17213,-0.39031 0.0946,0 0.28066,0.17564 0.41333,0.39031 0.13267,0.21466 0.0552,0.3903 -0.17212,0.3903 -0.22733,0 -0.41334,-0.17564 -0.41334,-0.3903 z"
     id="path4186-8"
     inkscape:connector-curvature="0"
     sodipodi:nodetypes="cssssssssssssccssssccsscscscccccsscscsccsscss" />
  <g
     id="g4229"
     transform="translate(2411.9672,129.09446)"
     style="fill:#ffffff">
    <path
       style="fill:#ffffff;fill-opacity:1"
       d="m -1481.4077,-223.14277 c 1.9001,-0.28732 4.7126,-0.27963 6.25,0.017 1.5374,0.2967 -0.017,0.53178 -3.4547,0.5224 -3.4375,-0.01 -4.6954,-0.25215 -2.7953,-0.53946 z m 22.5088,-2.35823 c 0.4154,-0.41537 1.4935,-0.45977 2.3959,-0.0986 0.9971,0.39903 0.7009,0.69523 -0.7552,0.7552 -1.3177,0.0542 -2.056,-0.24116 -1.6407,-0.65652 z m 6.25,-1.25 c 0.4154,-0.41537 1.4935,-0.45977 2.3959,-0.0986 0.9971,0.39903 0.7009,0.69523 -0.7552,0.7552 -1.3177,0.0542 -2.056,-0.24116 -1.6407,-0.65652 z m -29.4289,-17.64695 c 2.2191,-0.27614 6.1566,-0.28068 8.75,-0.01 2.5935,0.2706 0.7779,0.49652 -4.0346,0.50207 -4.8125,0.005 -6.9344,-0.21585 -4.7154,-0.49199 z m -10.5711,-1.10305 c 0.4154,-0.41536 1.4935,-0.45977 2.3959,-0.0986 0.9971,0.39903 0.701,0.69523 -0.7552,0.7552 -1.3177,0.0542 -2.056,-0.24116 -1.6407,-0.65652 z m -41.1884,-11.74479 c 0,-4.46875 0.2269,-6.29688 0.5041,-4.0625 0.2773,2.23437 0.2773,5.89062 0,8.125 -0.2772,2.23437 -0.5041,0.40625 -0.5041,-4.0625 z m 114.8436,-1.875 c -0.025,-2.0625 0.2338,-3.05758 0.5762,-2.21129 0.3424,0.84629 0.3633,2.53379 0.046,3.75 -0.3169,1.21621 -0.5971,0.52379 -0.6225,-1.53871 z m -368.6552,-10.13021 c 0.4154,-0.41537 1.4935,-0.45977 2.3959,-0.0986 0.9971,0.39903 0.7009,0.69523 -0.7552,0.7552 -1.3177,0.0542 -2.056,-0.24116 -1.6407,-0.65652 z m 15.599,-0.0726 c 0.8594,-0.34676 2.2656,-0.34676 3.125,0 0.8594,0.34676 0.1562,0.63049 -1.5625,0.63049 -1.7188,0 -2.4219,-0.28373 -1.5625,-0.63049 z m 175.6422,-0.0691 c 1.9001,-0.28733 4.7126,-0.27964 6.25,0.017 1.5374,0.2967 -0.017,0.53177 -3.4547,0.5224 -3.4375,-0.01 -4.6954,-0.25215 -2.7953,-0.53947 z m 177.4603,-2.85304 c 0,-2.40625 0.2572,-3.39063 0.5717,-2.1875 0.3144,1.20312 0.3144,3.17187 0,4.375 -0.3145,1.20312 -0.5717,0.21875 -0.5717,-2.1875 z m -463.7382,0.3318 14.6769,-0.40858 0.3392,-67.77411 0.3391,-67.77411 -0.016,68.125 -0.016,68.125 -15,0.0577 -15,0.0577 14.6768,-0.40858 z m 178.0121,-0.0193 c -0.321,-0.51563 4.0052,-0.78599 9.6138,-0.60081 17.5224,0.57855 19.5053,1.10967 4.9586,1.32818 -7.6938,0.1155 -14.2514,-0.21175 -14.5724,-0.72737 z m 123.2746,0.18229 c 0.4154,-0.41537 1.4935,-0.45977 2.3959,-0.0986 0.9971,0.39903 0.7009,0.69523 -0.7552,0.7552 -1.3177,0.0542 -2.056,-0.24116 -1.6407,-0.65652 z m 190.8666,-0.15738 c 8.3744,-0.2758 13.4677,-0.97611 14.1576,-1.9466 0.7697,-1.08267 0.9321,-0.98003 0.5683,0.35919 -0.4117,1.51531 -3.1276,1.88874 -14.1577,1.9466 l -13.6483,0.0716 13.0801,-0.43077 z m 135.8782,0.0793 c -0.4583,-0.45832 -0.8247,-1.4427 -0.8142,-2.1875 0.011,-0.83871 0.3854,-0.77787 0.9813,0.15984 0.6165,0.97007 5.4372,1.66196 13.4184,1.92589 l 12.4562,0.41188 -12.6042,0.26162 c -6.9323,0.14388 -12.9791,-0.11338 -13.4375,-0.57173 z m 55,0 c -0.4583,-0.45832 -0.8247,-1.4427 -0.8142,-2.1875 0.011,-0.83609 0.3881,-0.7736 0.9835,0.16335 0.6324,0.9952 5.681,1.65673 14.6684,1.92201 l 13.704,0.40453 -13.8542,0.26547 c -7.6198,0.14602 -14.2291,-0.1095 -14.6875,-0.56786 z m 79.3953,-0.0829 c 11.3216,-0.35104 13.4505,-0.74078 13.9907,-2.56138 0.4761,-1.60461 0.5725,-1.51549 0.3815,0.35265 -0.2382,2.32863 -1.1973,2.50421 -13.9908,2.56138 l -13.735,0.0614 13.3536,-0.41404 z m 54.7714,0.10527 c 10.2548,-0.91574 24.7245,-0.99146 24.1861,-0.12656 -0.321,0.51562 -6.8786,0.84294 -14.5724,0.72738 -7.6938,-0.11563 -12.02,-0.38594 -9.6137,-0.60082 z m -833.46,-5.43906 c 0,-2.40625 0.2572,-3.39063 0.5717,-2.1875 0.3144,1.20312 0.3144,3.17187 0,4.375 -0.3145,1.20312 -0.5717,0.21875 -0.5717,-2.1875 z m 222.8026,-85.625 c 10e-5,-49.5 0.1551,-69.56799 0.3445,-44.59554 0.1893,24.97245 0.1893,65.47245 -2e-4,90 -0.1895,24.52755 -0.3444,4.09554 -0.3443,-45.40446 z m 270.9011,86.25 c -0.025,-2.0625 0.2338,-3.05758 0.5762,-2.21129 0.3424,0.84629 0.3633,2.53379 0.046,3.75 -0.3169,1.21621 -0.5971,0.52379 -0.6226,-1.53871 z m 335.3247,-46.25 c -4e-4,-26.8125 0.1649,-37.95913 0.3672,-24.77028 0.2023,13.18885 0.2026,35.12635 6e-4,48.75 -0.2019,13.62365 -0.3675,2.83278 -0.3678,-23.97972 z m -395.2559,46.01334 c 1.2031,-0.3144 3.1719,-0.3144 4.375,0 1.2031,0.31441 0.2187,0.57166 -2.1875,0.57166 -2.4063,0 -3.3906,-0.25725 -2.1875,-0.57166 z m 143.9437,-1.95084 -2.3812,-2.8125 2.8125,2.38124 c 1.5469,1.30967 2.8125,2.5753 2.8125,2.8125 0,1.00031 -1.006,0.26181 -3.2438,-2.38124 z m 54.4938,-0.3125 c 0.8559,-1.03125 1.8374,-1.875 2.1811,-1.875 0.3438,0 -0.075,0.84375 -0.9311,1.875 -0.8559,1.03125 -1.8374,1.875 -2.1811,1.875 -0.3438,0 0.075,-0.84375 0.9311,-1.875 z m 160.5586,-38.125 c 0,-22.34375 0.1695,-31.48438 0.3767,-20.3125 0.2071,11.17187 0.2071,29.45312 0,40.625 -0.2072,11.17187 -0.3767,2.03125 -0.3767,-20.3125 z m -150.2686,35 c 0,-2.40625 0.2572,-3.39063 0.5717,-2.1875 0.3144,1.20312 0.3144,3.17187 0,4.375 -0.3145,1.20312 -0.5717,0.21875 -0.5717,-2.1875 z m 121.5257,-41.875 c -4e-4,-25.4375 0.166,-36.02116 0.3697,-23.51925 0.2037,12.5019 0.204,33.3144 7e-4,46.25 -0.2034,12.93559 -0.37,2.70675 -0.3704,-22.73075 z m -680.6603,40.9375 -3.0304,-3.4375 3.4375,3.03039 c 3.2129,2.83236 4.0107,3.84461 3.0304,3.84461 -0.2239,0 -1.7708,-1.54688 -3.4375,-3.4375 z m 439.042,0.9375 c 0,-1.71875 0.2837,-2.42188 0.6305,-1.5625 0.3467,0.85937 0.3467,2.26562 0,3.125 -0.3468,0.85937 -0.6305,0.15625 -0.6305,-1.5625 z m -186.4474,-0.625 c 0.8559,-1.03125 1.8374,-1.875 2.1811,-1.875 0.3438,0 -0.075,0.84375 -0.9311,1.875 -0.8559,1.03125 -1.8374,1.875 -2.1811,1.875 -0.3438,0 0.075,-0.84375 0.9311,-1.875 z m -335.6691,-64.375 c 0,-35.40625 0.16,-49.89063 0.3557,-32.1875 0.1956,17.70312 0.1956,46.67187 0,64.375 -0.1957,17.70312 -0.3557,3.21875 -0.3557,-32.1875 z m 522.4567,32.5 c 0,-16.15625 0.1781,-22.76563 0.3959,-14.6875 0.2177,8.07812 0.2177,21.29687 0,29.375 -0.2178,8.07812 -0.3959,1.46875 -0.3959,-14.6875 z m 146.2652,-8.75 c 0,-20.28125 0.1719,-28.57813 0.382,-18.4375 0.2101,10.14062 0.2101,26.73437 0,36.875 -0.2101,10.14062 -0.382,1.84375 -0.382,-18.4375 z m -68.2122,26.5625 c -1.5549,-1.98258 -1.5107,-2.02679 0.4719,-0.47195 2.0822,1.63296 2.7444,2.65945 1.7156,2.65945 -0.2596,0 -1.244,-0.98438 -2.1875,-2.1875 z m 26.4094,0.3125 c 0.8559,-1.03125 1.8374,-1.875 2.1811,-1.875 0.3438,0 -0.075,0.84375 -0.9311,1.875 -0.8559,1.03125 -1.8374,1.875 -2.1811,1.875 -0.3438,0 0.075,-0.84375 0.9311,-1.875 z m -462.5,-0.55123 c 0,-0.64692 0.5561,-1.5199 1.2357,-1.93992 0.7086,-0.43793 0.9181,0.0639 0.4912,1.17622 -0.8309,2.16553 -1.7269,2.56174 -1.7269,0.7637 z m 289.0885,-2.07898 c 0.4154,-0.41537 1.4935,-0.45977 2.3959,-0.0986 0.9971,0.39903 0.7009,0.69523 -0.7552,0.7552 -1.3177,0.0542 -2.056,-0.24116 -1.6407,-0.65652 z m 113.6089,-1.74479 c 0,-1.71875 0.2837,-2.42188 0.6305,-1.5625 0.3467,0.85937 0.3467,2.26562 0,3.125 -0.3468,0.85937 -0.6305,0.15625 -0.6305,-1.5625 z m -197.5987,-0.52084 c -0.054,-1.3177 0.2411,-2.05599 0.6565,-1.64062 0.4154,0.41536 0.4598,1.49348 0.099,2.39583 -0.399,0.99717 -0.6952,0.70098 -0.7552,-0.75521 z m 63.9638,-0.37447 c 1.8906,-0.28642 4.9844,-0.28642 6.875,0 1.8906,0.2864 0.3437,0.52073 -3.4375,0.52073 -3.7813,0 -5.3281,-0.23433 -3.4375,-0.52073 z m -18.1488,-1.17462 c 0.8463,-0.34239 2.5338,-0.36323 3.75,-0.0464 1.2162,0.31692 0.5238,0.59707 -1.5387,0.62255 -2.0625,0.0255 -3.0576,-0.23382 -2.2113,-0.57624 z m 181.685,-0.95091 c -0.054,-1.3177 0.2411,-2.05599 0.6565,-1.64062 0.4154,0.41536 0.4598,1.49348 0.099,2.39583 -0.399,0.99717 -0.6952,0.70098 -0.7552,-0.75521 z m -348.0675,-5.88541 c -1.042,-5.21031 -0.032,-6.22018 1.0938,-1.09375 0.4746,2.16082 0.6023,4.18932 0.2839,4.50779 -0.3185,0.31846 -0.9384,-1.21787 -1.3777,-3.41404 z m 100.5675,-0.36459 c -0.054,-1.3177 0.2411,-2.05599 0.6565,-1.64062 0.4154,0.41536 0.4598,1.49348 0.099,2.39583 -0.399,0.99717 -0.6952,0.70098 -0.7552,-0.75521 z m -180.6433,-1.61275 c -0.6784,-1.7815 -0.5348,-1.92507 0.6997,-0.69975 0.8543,0.84793 1.2383,1.85655 0.8535,2.24141 -0.3849,0.38487 -1.0838,-0.30888 -1.5532,-1.54166 z m 225.8346,-1.61641 c 0,-2.40625 0.2572,-3.39063 0.5717,-2.1875 0.3144,1.20312 0.3144,3.17187 0,4.375 -0.3145,1.20312 -0.5717,0.21875 -0.5717,-2.1875 z m -326.3426,0 c 0,-1.71875 0.2837,-2.42188 0.6305,-1.5625 0.3467,0.85937 0.3467,2.26562 0,3.125 -0.3468,0.85937 -0.6305,0.15625 -0.6305,-1.5625 z m 93.2401,-0.82785 c 0.8594,-0.34676 2.2656,-0.34676 3.125,0 0.8594,0.34676 0.1562,0.63049 -1.5625,0.63049 -1.7188,0 -2.4219,-0.28373 -1.5625,-0.63049 z m 115.4112,-0.94299 c -0.054,-1.3177 0.2411,-2.05599 0.6565,-1.64062 0.4154,0.41536 0.4598,1.49348 0.099,2.39583 -0.399,0.99717 -0.6952,0.70098 -0.7552,-0.75521 z m 64.5888,0.94299 c 0.8594,-0.34676 2.2656,-0.34676 3.125,0 0.8594,0.34676 0.1562,0.63049 -1.5625,0.63049 -1.7188,0 -2.4219,-0.28373 -1.5625,-0.63049 z m -8.099,-1.17736 c 0.4154,-0.41537 1.4935,-0.45977 2.3959,-0.0986 0.9971,0.39903 0.7009,0.69523 -0.7552,0.7552 -1.3177,0.0542 -2.056,-0.24116 -1.6407,-0.65652 z m 233.5102,-1.01563 c -0.054,-1.3177 0.2411,-2.05599 0.6565,-1.64062 0.4154,0.41536 0.4598,1.49348 0.099,2.39583 -0.399,0.99717 -0.6952,0.70098 -0.7552,-0.75521 z m -499.9013,-4.47916 c 0,-1.71875 0.2837,-2.42188 0.6305,-1.5625 0.3467,0.85937 0.3467,2.26562 0,3.125 -0.3468,0.85937 -0.6305,0.15625 -0.6305,-1.5625 z m 28.7963,-0.625 c -0.025,-2.0625 0.2338,-3.05758 0.5762,-2.21129 0.3424,0.84629 0.3633,2.53379 0.046,3.75 -0.317,1.21621 -0.5971,0.52379 -0.6226,-1.53871 z m 151.2037,0.625 c 0,-1.71875 0.2837,-2.42188 0.6305,-1.5625 0.3467,0.85937 0.3467,2.26562 0,3.125 -0.3468,0.85937 -0.6305,0.15625 -0.6305,-1.5625 z m 28.8426,-5 c 0,-2.40625 0.2572,-3.39063 0.5717,-2.1875 0.3144,1.20312 0.3144,3.17187 0,4.375 -0.3145,1.20312 -0.5717,0.21875 -0.5717,-2.1875 z m 139.3598,2.83659 c 2.9011,-0.26215 7.9636,-0.26528 11.25,-0.007 3.2863,0.25833 0.9127,0.47283 -5.2748,0.47664 -6.1875,0.004 -8.8764,-0.20757 -5.9752,-0.46972 z m -12.4861,-1.15652 c 0.8463,-0.34239 2.5338,-0.36323 3.75,-0.0464 1.2162,0.31692 0.5238,0.59707 -1.5387,0.62255 -2.0625,0.0255 -3.0576,-0.23382 -2.2113,-0.57624 z m 236.9438,-6.05507 c 0.01,-3.4375 0.2522,-4.69539 0.5395,-2.79531 0.2873,1.90007 0.2796,4.71257 -0.017,6.25 -0.2967,1.53742 -0.5318,-0.0173 -0.5224,-3.45469 z m -37.8575,2.5 c 0.8559,-1.03125 1.8374,-1.875 2.1811,-1.875 0.3438,0 -0.075,0.84375 -0.9311,1.875 -0.8559,1.03125 -1.8374,1.875 -2.1811,1.875 -0.3438,0 0.075,-0.84375 0.9311,-1.875 z m -505.1647,-7.2125 c 0.5306,-0.52939 13.3003,-0.8097 28.3772,-0.62294 l 27.4125,0.33959 -28.3772,0.62292 c -15.6074,0.34262 -27.9431,0.1898 -27.4125,-0.33957 z m 286.3201,-1.85 -3.0304,-3.4375 3.4375,3.03039 c 1.8906,1.66672 3.4375,3.2136 3.4375,3.4375 0,0.98035 -1.0123,0.18247 -3.8446,-3.03039 z m -220.9243,1.27887 c 6.5499,-0.35086 8.4932,-0.90895 8.9907,-2.58198 0.4683,-1.57506 0.5681,-1.47924 0.3807,0.36561 -0.2264,2.22844 -1.203,2.50891 -8.9908,2.582 l -8.7367,0.082 8.3561,-0.44762 z m 151.8972,-0.0184 36.5034,-0.3606 0.4609,-7.16871 0.4609,-7.16871 -0.089,7.5 -0.089,7.5 -36.875,0.0294 -36.875,0.0292 36.5033,-0.3606 z m 264.1217,-4.698 c 1.6147,-1.71875 3.217,-3.125 3.5608,-3.125 0.3437,0 -0.6961,1.40625 -2.3108,3.125 -1.6147,1.71875 -3.217,3.125 -3.5608,3.125 -0.3437,0 0.6961,-1.40625 2.3108,-3.125 z m -407.2563,-6.25 c -0.025,-2.0625 0.2338,-3.05758 0.5762,-2.21129 0.3424,0.84629 0.3633,2.53379 0.046,3.75 -0.3169,1.21621 -0.5971,0.52379 -0.6225,-1.53871 z m 76.3215,-7.5 c -0.014,-2.75 0.2308,-4.02219 0.5436,-2.82708 0.3129,1.19512 0.3243,3.44512 0.025,5 -0.299,1.55489 -0.555,0.57708 -0.5689,-2.17292 z m 276.1322,1.875 c 0,-1.71875 0.2837,-2.42188 0.6305,-1.5625 0.3467,0.85937 0.3467,2.26562 0,3.125 -0.3468,0.85937 -0.6305,0.15625 -0.6305,-1.5625 z m -456.2037,-1.875 c -0.025,-2.0625 0.2338,-3.05758 0.5762,-2.21129 0.3424,0.84629 0.3633,2.53379 0.046,3.75 -0.3169,1.21621 -0.597,0.52379 -0.6225,-1.53871 z m 533.8448,1.11979 c 0.4154,-0.41537 1.4935,-0.45977 2.3959,-0.0986 0.9971,0.39903 0.7009,0.69523 -0.7552,0.7552 -1.3177,0.0542 -2.056,-0.24116 -1.6407,-0.65652 z m 12.5,-2.5 c 0.4154,-0.41537 1.4935,-0.45977 2.3959,-0.0986 0.9971,0.39903 0.7009,0.69523 -0.7552,0.7552 -1.3177,0.0542 -2.056,-0.24116 -1.6407,-0.65652 z m -504.401,-1.42478 c 5.6719,-0.23161 14.9531,-0.23161 20.625,0 5.6719,0.23163 1.0312,0.42113 -10.3125,0.42113 -11.3438,0 -15.9844,-0.1895 -10.3125,-0.42113 z m 169.9762,0.11013 c 0.8463,-0.3424 2.5338,-0.36324 3.75,-0.0464 1.2162,0.31693 0.5238,0.59708 -1.5387,0.62255 -2.0625,0.0255 -3.0576,-0.23382 -2.2113,-0.57624 z m 27.4443,-0.0984 15.233,-0.40525 0.573,-3.40075 c 0.533,-3.16417 0.5603,-3.13987 0.3919,0.34925 l -0.1809,3.75 -15.625,0.056 -15.625,0.056 15.233,-0.40525 z m 160.4907,-0.85259 c -0.054,-1.3177 0.2411,-2.05598 0.6565,-1.64062 0.4154,0.41536 0.4598,1.49349 0.099,2.39584 -0.399,0.99716 -0.6952,0.70097 -0.7552,-0.75522 z m 163.3388,0.88867 c 1.5469,-0.29795 4.0781,-0.29795 5.625,0 1.5469,0.29793 0.2812,0.54171 -2.8125,0.54171 -3.0938,0 -4.3594,-0.24378 -2.8125,-0.54171 z m 96.6612,-0.88868 c -0.054,-1.3177 0.2411,-2.05599 0.6565,-1.64062 0.4154,0.41536 0.4598,1.49348 0.099,2.39583 -0.399,0.99717 -0.6952,0.70098 -0.7552,-0.75521 z m -557.5,-1.25 c -0.054,-1.3177 0.2411,-2.05599 0.6565,-1.64062 0.4154,0.41536 0.4598,1.49348 0.099,2.39583 -0.399,0.99717 -0.6952,0.70098 -0.7552,-0.75521 z m 180,-1.25 c -0.054,-1.3177 0.2411,-2.05599 0.6565,-1.64062 0.4154,0.41536 0.4598,1.49348 0.099,2.39583 -0.399,0.99717 -0.6952,0.70098 -0.7552,-0.75521 z m 290.2165,-2.60416 c -0.014,-2.75 0.2308,-4.02219 0.5436,-2.82708 0.3129,1.19512 0.3243,3.44512 0.025,5 -0.299,1.55489 -0.555,0.57708 -0.5688,-2.17292 z m -571.3215,0 c -0.025,-2.0625 0.2338,-3.05758 0.5762,-2.21129 0.3424,0.84629 0.3633,2.53379 0.046,3.75 -0.3169,1.21621 -0.597,0.52379 -0.6225,-1.53871 z m 179.855,1.35416 c -0.054,-1.3177 0.2411,-2.05599 0.6565,-1.64062 0.4154,0.41536 0.4598,1.49348 0.099,2.39583 -0.399,0.99717 -0.6952,0.70098 -0.7552,-0.75521 z m 545,-1.25 c -0.054,-1.3177 0.2411,-2.05599 0.6565,-1.64062 0.4154,0.41536 0.4598,1.49348 0.099,2.39583 -0.399,0.99717 -0.6952,0.70098 -0.7552,-0.75521 z m -652.4013,-3.22916 c 0,-1.71875 0.2837,-2.42188 0.6305,-1.5625 0.3467,0.85937 0.3467,2.26562 0,3.125 -0.3468,0.85937 -0.6305,0.15625 -0.6305,-1.5625 z m 108.6513,-1.77084 c -0.054,-1.3177 0.2411,-2.05599 0.6565,-1.64062 0.4154,0.41536 0.4598,1.49348 0.099,2.39583 -0.399,0.99717 -0.6952,0.70098 -0.7552,-0.75521 z m 478.75,0 c -0.054,-1.3177 0.2411,-2.05599 0.6565,-1.64062 0.4154,0.41536 0.4598,1.49348 0.099,2.39583 -0.399,0.99717 -0.6952,0.70098 -0.7552,-0.75521 z m 66.25,-2.5 c -0.054,-1.3177 0.2411,-2.05599 0.6565,-1.64062 0.4154,0.41536 0.4598,1.49348 0.099,2.39583 -0.399,0.99717 -0.6952,0.70098 -0.7552,-0.75521 z m -214.7602,-0.23437 c 0.4154,-0.41537 1.4935,-0.45977 2.3959,-0.0986 0.9971,0.39903 0.701,0.69523 -0.7552,0.7552 -1.3177,0.0542 -2.056,-0.24116 -1.6407,-0.65652 z m 277.3589,-1.74479 c 0,-1.71875 0.2837,-2.42188 0.6304,-1.5625 0.3468,0.85937 0.3468,2.26562 0,3.125 -0.3467,0.85937 -0.6304,0.15625 -0.6304,-1.5625 z m -284.2599,0.42215 c 0.8594,-0.34676 2.2656,-0.34676 3.125,0 0.8594,0.34676 0.1562,0.63049 -1.5625,0.63049 -1.7188,0 -2.4219,-0.28373 -1.5625,-0.63049 z m -105.8388,-2.19299 c -0.054,-1.3177 0.2411,-2.05599 0.6565,-1.64062 0.4154,0.41536 0.4598,1.49348 0.099,2.39583 -0.399,0.99717 -0.6952,0.70098 -0.7552,-0.75521 z m 200.2165,-2.60416 c -0.014,-2.75 0.2308,-4.02219 0.5436,-2.82708 0.3129,1.19512 0.3243,3.44512 0.025,5 -0.299,1.55489 -0.555,0.57708 -0.5688,-2.17292 z m -120.0027,-3.98666 c 1.2031,-0.3144 3.1719,-0.3144 4.375,0 1.2031,0.31441 0.2187,0.57166 -2.1875,0.57166 -2.4063,0 -3.3906,-0.25725 -2.1875,-0.57166 z m -414.2219,-2.57584 c -1.5549,-1.98258 -1.5107,-2.02679 0.4719,-0.47195 1.2031,0.94356 2.1875,1.92794 2.1875,2.1875 0,1.0288 -1.0265,0.36664 -2.6594,-1.71555 z m 179.9999,0 c -1.5548,-1.98258 -1.5106,-2.02679 0.472,-0.47195 2.0822,1.63296 2.7443,2.65945 1.7155,2.65945 -0.2595,0 -1.2439,-0.98438 -2.1875,-2.1875 z m 432.972,-3.67416 c 1.2031,-0.3144 3.1719,-0.3144 4.375,0 1.2031,0.31441 0.2187,0.57166 -2.1875,0.57166 -2.4063,0 -3.3906,-0.25725 -2.1875,-0.57166 z m 64.3512,0.0417 c 0.8463,-0.3424 2.5338,-0.36324 3.75,-0.0464 1.2162,0.31693 0.5238,0.59708 -1.5387,0.62255 -2.0625,0.0255 -3.0576,-0.23382 -2.2113,-0.57624 z m -651.0731,-2.61759 c -1.5549,-1.98258 -1.5107,-2.02679 0.4719,-0.47195 1.2031,0.94356 2.1875,1.92794 2.1875,2.1875 0,1.0288 -1.0265,0.36664 -2.6594,-1.71555 z m 459.8231,1.36757 c 0.8463,-0.34239 2.5338,-0.36323 3.75,-0.0464 1.2162,0.31692 0.5238,0.59707 -1.5387,0.62255 -2.0625,0.0255 -3.0576,-0.23382 -2.2113,-0.57624 z m -237.7887,-6.68007 c 1.2444,-1.375 2.5437,-2.5 2.8875,-2.5 0.3437,0 -0.3931,1.125 -1.6375,2.5 -1.2444,1.375 -2.5437,2.5 -2.8875,2.5 -0.3437,0 0.3931,-1.125 1.6375,-2.5 z m 471.1986,1.16684 c -0.4532,-0.73324 -0.5559,-1.60125 -0.2282,-1.92892 0.3277,-0.32766 0.9288,0.27227 1.3359,1.33317 0.8453,2.20263 0.1248,2.59007 -1.1077,0.59575 z m -394.2249,-1.68768 c -0.054,-1.3177 0.2411,-2.05599 0.6565,-1.64062 0.4154,0.41536 0.4598,1.49348 0.099,2.39583 -0.399,0.99717 -0.6952,0.70098 -0.7552,-0.75521 z m 61.4413,-4.47916 c 0,-2.40625 0.2572,-3.39063 0.5717,-2.1875 0.3144,1.20312 0.3144,3.17187 0,4.375 -0.3145,1.20312 -0.5717,0.21875 -0.5717,-2.1875 z m 205.0252,-1.875 c -0.014,-2.75 0.2308,-4.02219 0.5436,-2.82708 0.3129,1.19512 0.3243,3.44512 0.025,5 -0.299,1.55489 -0.555,0.57708 -0.5688,-2.17292 z m -635.3152,1.25 c 0.8559,-1.03125 1.8374,-1.875 2.1811,-1.875 0.3438,0 -0.075,0.84375 -0.9311,1.875 -0.8559,1.03125 -1.8374,1.875 -2.1811,1.875 -0.3438,0 0.075,-0.84375 0.9311,-1.875 z m 498.75,0.088 c 0,-0.34375 1.125,-1.22709 2.5,-1.96296 1.375,-0.73588 2.5,-1.05672 2.5,-0.71297 0,0.34375 -1.125,1.22709 -2.5,1.96297 -1.375,0.73587 -2.5,1.05671 -2.5,0.71296 z m 110.0987,-4.9838 c -0.054,-1.3177 0.2411,-2.05599 0.6565,-1.64062 0.4154,0.41536 0.4598,1.49348 0.099,2.39583 -0.399,0.99716 -0.6952,0.70098 -0.7552,-0.75521 z m -226.6612,-1.55705 c 0.8594,-0.34676 2.2656,-0.34676 3.125,0 0.8594,0.34676 0.1562,0.63049 -1.5625,0.63049 -1.7188,0 -2.4219,-0.28373 -1.5625,-0.63049 z m -336.849,-1.17736 c 0.4154,-0.41537 1.4935,-0.45977 2.3959,-0.0986 0.9971,0.39903 0.7009,0.69523 -0.7552,0.7552 -1.3177,0.0542 -2.056,-0.24116 -1.6407,-0.65652 z m 366.25,0 c 0.4154,-0.41537 1.4935,-0.45977 2.3959,-0.0986 0.9971,0.39903 0.7009,0.69523 -0.7552,0.7552 -1.3177,0.0542 -2.056,-0.24116 -1.6407,-0.65652 z m 102.5,0 c 0.4154,-0.41537 1.4935,-0.45977 2.3959,-0.0986 0.9971,0.39903 0.7009,0.69523 -0.7552,0.7552 -1.3177,0.0542 -2.056,-0.24116 -1.6407,-0.65652 z m 35.599,-0.0726 c 0.8594,-0.34676 2.2656,-0.34676 3.125,0 0.8594,0.34676 0.1562,0.63049 -1.5625,0.63049 -1.7188,0 -2.4219,-0.28373 -1.5625,-0.63049 z m 78.151,0.0726 c 0.4154,-0.41537 1.4935,-0.45977 2.3959,-0.0986 0.9971,0.39903 0.7009,0.69523 -0.7552,0.7552 -1.3177,0.0542 -2.056,-0.24116 -1.6407,-0.65652 z m -686.4898,-3.51563 c -0.054,-1.3177 0.2411,-2.05599 0.6565,-1.64062 0.4154,0.41536 0.4598,1.49348 0.099,2.39583 -0.399,0.99717 -0.6952,0.70098 -0.7552,-0.75521 z m 86.4638,0.90918 c 1.2031,-0.3144 3.1719,-0.3144 4.375,0 1.2031,0.31441 0.2187,0.57166 -2.1875,0.57166 -2.4063,0 -3.3906,-0.25725 -2.1875,-0.57166 z m 179.9854,0.002 c 1.1951,-0.31287 3.4451,-0.32421 5,-0.0253 1.5549,0.29899 0.5771,0.55497 -2.1729,0.56885 -2.75,0.0139 -4.0222,-0.23077 -2.8271,-0.54363 z m 119.3896,-0.0234 c 1.5469,-0.29795 4.0781,-0.29795 5.625,0 1.5469,0.29794 0.2812,0.54171 -2.8125,0.54171 -3.0938,0 -4.3594,-0.24377 -2.8125,-0.54171 z m 133.75,0.0544 c 0.8594,-0.34677 2.2656,-0.34677 3.125,0 0.8594,0.34676 0.1562,0.63048 -1.5625,0.63048 -1.7188,0 -2.4219,-0.28372 -1.5625,-0.63048 z m 70.6104,-0.031 c 1.1951,-0.31287 3.4451,-0.32422 5,-0.0253 1.5549,0.29898 0.5771,0.55497 -2.1729,0.56885 -2.75,0.0139 -4.0222,-0.23077 -2.8271,-0.54363 z m 135.6396,0.031 c 0.8594,-0.34677 2.2656,-0.34677 3.125,0 0.8594,0.34676 0.1562,0.63048 -1.5625,0.63048 -1.7188,0 -2.4219,-0.28372 -1.5625,-0.63048 z m 63.151,0.0726 c 0.4154,-0.41536 1.4935,-0.45976 2.3959,-0.0986 0.9971,0.39902 0.7009,0.69522 -0.7552,0.7552 -1.3177,0.0542 -2.056,-0.24116 -1.6407,-0.65653 z m -819.9512,-9.86946 c -0.01,-4.125 0.2206,-5.9632 0.5059,-4.08489 0.2852,1.87832 0.2909,5.25332 0.013,7.5 -0.2782,2.24669 -0.5115,0.70989 -0.5186,-3.41511 z m 31.1527,0.625 c 0,-2.40625 0.2572,-3.39063 0.5717,-2.1875 0.3144,1.20312 0.3144,3.17187 0,4.375 -0.3145,1.20312 -0.5717,0.21875 -0.5717,-2.1875 z m -71.0081,-10.41699 c -0.3519,-0.91684 -0.4487,-6.40121 -0.2152,-12.1875 l 0.4244,-10.52051 0.2545,11.52909 0.2544,11.52907 18.4375,0.38201 18.4375,0.38202 -18.4767,0.27641 c -14.4427,0.21605 -18.6164,-0.0876 -19.1164,-1.39059 z m 82.2806,0.73785 c 5.3281,-0.23431 14.0469,-0.23431 19.375,0 5.3281,0.23431 0.9687,0.42603 -9.6875,0.42603 -10.6563,0 -15.0156,-0.19172 -9.6875,-0.42603 z m 425.625,0.10125 c 0.8594,-0.34676 2.2656,-0.34676 3.125,0 0.8594,0.34676 0.1562,0.63049 -1.5625,0.63049 -1.7188,0 -2.4219,-0.28373 -1.5625,-0.63049 z m -396.8002,-9.79711 c -0.01,-4.125 0.2206,-5.9632 0.5059,-4.08489 0.2852,1.87831 0.2909,5.25331 0.013,7.5 -0.2782,2.24669 -0.5115,0.70989 -0.5186,-3.41511 z m -0.3873,-12.27853 c 0,-1.89021 -4.7545,-2.09967 -54.6875,-2.40931 l -54.6875,-0.33912 54.7267,-0.29903 c 48.3535,-0.26419 54.813,-0.0744 55.467,1.6299 0.4071,1.0609 0.3894,2.27965 -0.039,2.70833 -0.4287,0.42868 -0.7794,-0.15217 -0.7794,-1.29077 z m 128.4096,-2.99863 c 2.2191,-0.27614 6.1566,-0.28068 8.75,-0.01 2.5935,0.2706 0.7779,0.49652 -4.0346,0.50207 -4.8125,0.005 -6.9344,-0.21585 -4.7154,-0.49199 z m 14.4289,0.14695 c 0.4154,-0.41537 1.4935,-0.45977 2.3959,-0.0986 0.9971,0.39903 0.7009,0.69523 -0.7552,0.7552 -1.3177,0.0542 -2.056,-0.24116 -1.6407,-0.65652 z"
       id="path4233"
       inkscape:connector-curvature="0" />
    <path
       style="fill:#ffffff;fill-opacity:1"
       d="m -2312.482,56.579387 c -1.3293,-0.244272 -2.4218,-0.939504 -2.8909,-1.839496 -0.4008,-0.768905 -0.3753,-2.245739 0.051,-2.97361 0.1737,-0.29655 0.4219,-0.572797 0.5514,-0.613887 0.1294,-0.04112 0.3357,-0.185618 0.4584,-0.321178 0.2153,-0.237907 0.2077,-0.262255 -0.2179,-0.70037 -0.5823,-0.599555 -0.8077,-1.52376 -0.5872,-2.408012 0.1218,-0.488917 0.308,-0.7645 0.9093,-1.346152 l 0.7561,-0.731376 -0.4557,-0.467757 c -0.7491,-0.768973 -1.028,-1.543105 -1.0324,-2.866025 0,-0.984661 0.042,-1.228528 0.3383,-1.830258 1.0088,-2.048211 3.4236,-2.99291 5.9608,-2.33203 0.6793,0.176921 0.7578,0.175343 0.9732,-0.0196 0.1289,-0.11661 0.2343,-0.313574 0.2343,-0.437698 0,-0.437733 0.5173,-1.107164 1.0578,-1.36881 0.6421,-0.310836 1.8593,-0.357806 2.0894,-0.08067 0.1497,0.180379 0.1661,1.730041 0.02,1.927917 -0.042,0.056 -0.2825,0.105907 -0.536,0.110864 -0.5218,0.01014 -1.0179,0.290804 -1.3146,0.743521 -0.1914,0.292156 -0.1779,0.354438 0.2765,1.273798 0.4237,0.857438 0.4784,1.075594 0.4836,1.931556 0.014,2.246798 -1.0086,3.651931 -3.1387,4.315345 -0.3277,0.102076 -1.0045,0.13271 -2.0147,0.09115 l -1.521,-0.06264 -0.352,0.352004 c -0.4378,0.437789 -0.4654,0.982093 -0.068,1.342029 0.3273,0.296437 1.4672,0.495282 3.5027,0.611013 2.1726,0.123517 3.4427,0.468986 4.0513,1.102004 0.7284,0.757683 1.0148,2.551144 0.6264,3.923446 -0.2128,0.752207 -1.1383,1.750253 -1.9597,2.113636 -1.5257,0.674885 -4.2859,0.922672 -6.2522,0.561294 z m 4.3266,-2.089481 c 0.2623,-0.07571 0.6741,-0.310892 0.9152,-0.52257 0.3949,-0.346766 0.4383,-0.449946 0.4383,-1.042403 0,-0.555108 -0.054,-0.707704 -0.3471,-0.979546 -0.5484,-0.508724 -1.0589,-0.608805 -3.1054,-0.608805 l -1.9001,0 -0.4162,0.403436 c -0.3729,0.361457 -0.4162,0.476738 -0.4162,1.10793 0,1.054728 0.4217,1.480676 1.7671,1.784617 0.5585,0.126186 2.4362,0.03876 3.0644,-0.142659 z m -1.171,-9.811865 c 0.6422,-0.320773 0.9982,-1.115332 1.0039,-2.240297 0.011,-1.124796 -0.1469,-1.664908 -0.6155,-2.177924 -0.3415,-0.373839 -0.4396,-0.409679 -1.1216,-0.409679 -0.8895,0 -1.319,0.272011 -1.6781,1.062987 -0.2746,0.604457 -0.3187,1.988082 -0.088,2.758135 0.3066,1.022912 1.5025,1.504708 2.4993,1.006778 z m -32.3766,7.361006 c -0.9999,-0.232882 -1.4417,-0.470406 -2.2518,-1.210783 -1.1099,-1.014462 -1.5081,-2.031357 -1.8519,-4.730004 -0.1322,-1.038651 0.057,-2.971379 0.4094,-4.16542 0.6025,-2.045226 1.9383,-3.413449 3.759,-3.850224 0.7118,-0.170757 2.1554,-0.11154 2.9239,0.119855 1.8652,0.561643 3.0778,2.5568 3.3676,5.540798 0.1629,1.676986 0.1722,1.660063 -0.9117,1.664119 -0.4953,0.0023 -2.1785,0.01611 -3.7405,0.03155 l -2.84,0.02817 -0.037,0.715951 c -0.046,0.873628 0.264,2.150952 0.6742,2.779553 0.3976,0.609447 1.3008,1.028105 2.0452,0.948022 0.8144,-0.08766 1.5899,-0.781794 1.937,-1.733827 0.3104,-0.851241 0.2395,-0.827502 1.7556,-0.587511 0.871,0.137881 0.9496,0.175275 0.9838,0.468051 0.023,0.189224 -0.2082,0.801905 -0.5681,1.511479 -0.5224,1.030212 -0.6991,1.258756 -1.2931,1.672468 -1.1834,0.824258 -2.8993,1.138136 -4.3609,0.797725 z m 3.3468,-8.8462 c 0.4017,-0.484139 -0.2242,-2.286524 -0.9486,-2.730813 -0.5295,-0.324841 -1.7548,-0.316774 -2.2992,0.0151 -0.5537,0.337651 -1.0457,1.337218 -1.0457,2.124656 0,0.337865 0.038,0.652159 0.084,0.698432 0.046,0.04631 0.9766,0.08416 2.0672,0.08416 1.6191,0 2.0123,-0.03515 2.1421,-0.191578 z m 14.7664,8.823903 c -1.9076,-0.507293 -3.0974,-1.733072 -3.6809,-3.792122 -0.2293,-0.809002 -0.282,-1.3255 -0.2879,-2.820608 -0.011,-2.084107 0.1727,-3.219618 0.7006,-4.396297 0.9033,-2.014073 2.4814,-3.045513 4.6654,-3.049457 1.6113,-0.0034 2.8252,0.578566 3.7317,1.787614 0.8769,1.169536 1.1533,2.081065 1.2659,4.175008 l 0.08,1.483132 -3.6636,0 c -3.1206,0 -3.6872,0.02839 -3.8225,0.191465 -0.1972,0.237558 -0.086,1.589861 0.2102,2.551606 0.3699,1.201511 1.4947,1.946845 2.6542,1.758681 0.68,-0.110301 1.5124,-0.971378 1.7591,-1.819476 0.2183,-0.751069 0.1458,-0.728851 1.6643,-0.509287 l 1.0609,0.153385 -0.062,0.446182 c -0.1459,1.056137 -0.9772,2.351127 -2.0713,3.226378 -0.7712,0.616984 -2.9798,0.939425 -4.2043,0.613796 z m 3.5642,-9.326554 c -0.042,-0.802253 -0.5948,-1.919692 -1.1024,-2.229278 -0.5665,-0.345503 -1.7943,-0.318193 -2.3329,0.05194 -0.6161,0.423232 -1.0124,1.263804 -1.0124,2.146783 l 0,0.730654 2.2404,-0.03448 2.2405,-0.03448 -0.034,-0.631125 z m 27.3569,9.358641 c -0.9844,-0.265555 -1.7864,-0.961733 -2.2342,-1.939251 -0.4554,-0.994238 -0.477,-2.764456 -0.046,-3.82199 0.3026,-0.743509 0.9389,-1.493598 1.6538,-1.949245 0.6835,-0.43567 2.4342,-0.855951 3.8499,-0.92417 0.6941,-0.03346 1.3396,-0.122897 1.4341,-0.198744 0.2273,-0.182227 0.099,-1.313603 -0.2338,-2.066441 -0.1945,-0.439794 -0.3604,-0.602902 -0.8198,-0.806152 -1.1152,-0.493277 -2.1988,-0.04676 -2.7593,1.137065 -0.2214,0.467769 -0.3453,0.587286 -0.6439,0.62139 -0.5704,0.06512 -2.3619,-0.376092 -2.2898,-0.563952 0.033,-0.08619 0.1214,-0.383946 0.1961,-0.661658 0.074,-0.277723 0.3584,-0.786255 0.6301,-1.130068 1.3645,-1.726267 4.3202,-2.285465 6.8576,-1.297413 0.5419,0.211036 1.564,1.305558 1.7358,1.858774 0.1003,0.321179 0.1873,2.250009 0.2543,5.601942 0.056,2.811652 0.141,5.296705 0.1883,5.522331 l 0.086,0.410231 -1.3262,0 c -1.4737,0 -1.4794,-0.0034 -1.4794,-0.88645 0,-0.620387 -0.2179,-0.759666 -0.5572,-0.356195 -1.1189,1.330085 -2.8593,1.891424 -4.4957,1.449996 z m 2.9809,-2.340479 c 0.8209,-0.372769 1.4772,-1.463529 1.6851,-2.800239 0.2536,-1.630568 0.3042,-1.567587 -1.2566,-1.565086 l -1.3228,0.0023 -0.6501,0.474022 c -0.7713,0.562398 -1.0541,1.154844 -1.0534,2.206564 0,1.546192 1.1953,2.319671 2.5978,1.68262 z m -62.8074,-5.688369 c 0,-7.603689 -0.011,-7.825124 -0.2442,-7.952145 -0.1351,-0.07233 -1.0371,-0.13067 -2.0196,-0.13067 l -1.7754,0 0,-1.199134 0,-1.199133 5.5539,0 c 5.2005,0 5.5547,0.01408 5.5659,0.220894 0.011,0.121489 0.021,0.661072 0.032,1.199077 l 0.019,0.978183 -1.9174,5.6e-5 c -1.3966,4.5e-5 -1.944,0.04281 -2.015,0.157643 -0.1347,0.21801 -0.1503,1.084034 -0.1608,8.899029 l -0.011,6.847697 -1.5147,0 -1.5147,0 0,-7.821497 z m 19.5227,7.737346 c -0.1168,-0.116835 -0.107,-18.063725 0.011,-18.135043 0.052,-0.03177 0.6911,-0.07774 1.4201,-0.102076 l 1.3253,-0.04439 0.033,9.182847 0.033,9.182848 -1.3682,0 c -0.7526,0 -1.4062,-0.03786 -1.4524,-0.08416 z m 30.3665,-6.70043 0.033,-6.784569 1.1992,0 1.1991,0 0.038,0.946534 c 0.02,0.520599 0.084,0.993224 0.1414,1.050279 0.057,0.05701 0.2771,-0.1778 0.4888,-0.521895 0.7226,-1.174527 1.6689,-1.790486 2.7506,-1.790486 l 0.5575,0 0,1.434302 0,1.434302 -0.7945,0.06377 c -0.9912,0.07954 -1.5029,0.338721 -1.9861,1.005763 -0.7413,1.023295 -0.797,1.408401 -0.8357,5.78115 -0.019,2.186847 -0.037,4.018683 -0.039,4.070746 0,0.05205 -0.6298,0.09464 -1.3941,0.09464 l -1.3896,0 0.033,-6.784581 z m 20.6179,6.577443 c -0.098,-0.255178 -0.089,-12.746515 0.011,-13.141129 0.068,-0.270603 0.1296,-0.283999 1.3194,-0.283999 l 1.2486,0 0,0.479655 c 0,0.814152 0.2069,0.849417 0.9579,0.163175 1.5726,-1.437265 4.3507,-1.139735 5.1534,0.55192 0.1164,0.2454 0.2905,0.446171 0.3868,0.446171 0.096,0 0.3359,-0.239551 0.5326,-0.532327 0.5485,-0.81663 1.3306,-1.237507 2.4584,-1.322796 1.6757,-0.126739 2.977,0.491328 3.5134,1.668784 0.4023,0.883306 0.516,2.687459 0.4768,7.570476 l -0.036,4.544092 -1.42,0.03571 -1.4201,0.03572 0,-4.904401 c 0,-4.157724 -0.03,-4.994353 -0.2013,-5.495145 -0.49,-1.438076 -2.0854,-1.611493 -2.9062,-0.315906 -0.5687,0.897401 -0.682,1.961233 -0.6769,6.352437 l 0,4.133862 c 0,0.196783 -0.1551,0.220894 -1.3919,0.220894 l -1.3885,0 0,-4.891207 c 0,-4.271315 -0.033,-4.970828 -0.221,-5.519413 -0.2753,-0.803426 -0.8767,-1.252831 -1.5574,-1.163801 -0.8116,0.106132 -1.1505,0.356849 -1.5571,1.151666 l -0.3826,0.748129 -0.042,4.837308 -0.042,4.837318 -1.3646,0 c -1.1487,0 -1.3772,-0.03279 -1.4441,-0.207137 z"
       id="path4231"
       inkscape:connector-curvature="0"
       sodipodi:nodetypes="ccccccccccccccssccccccsccccscccccccscsccscccccsccccccccscccccccccsccccccccscscccccccsccsccccsccccccccsccccccscccccccsccccccccsscccccccccccccscccscccscccccccccccccscccccccccscccscccscccccscsccscscccccscccsscsccccccscc" />
    <path
       style="fill:#ffffff;fill-opacity:1"
       d="m -2377.1322,60.92888 c -0.3149,-0.10884 -0.8947,-0.44975 -1.2884,-0.75757 -0.3937,-0.30782 -1.3209,-0.98816 -2.0603,-1.51187 -0.7394,-0.52371 -1.4807,-1.08863 -1.6474,-1.25538 -0.1666,-0.16674 -0.371,-0.30317 -0.4541,-0.30317 -0.083,0 -0.3249,-0.18305 -0.5373,-0.40678 -0.4231,-0.44577 -2.2159,-1.81507 -2.7184,-2.07617 -0.3125,-0.1624 -0.3231,-0.15659 -1.0643,0.57984 -0.4117,0.40914 -1.2458,1.16513 -1.8534,1.67999 -0.6077,0.51485 -1.3113,1.12859 -1.5636,1.36385 -0.2522,0.23525 -0.5197,0.42774 -0.5943,0.42774 -0.075,0 -0.1525,0.0383 -0.173,0.085 -0.021,0.0468 -0.2928,0.21602 -0.6051,0.37612 -0.5427,0.27831 -0.5781,0.28262 -0.8061,0.0981 -0.1754,-0.14206 -0.5828,-1.28463 -1.5421,-4.32532 -0.7171,-2.27275 -1.5184,-4.810637 -1.7807,-5.639757 l -0.4769,-1.50749 -2.3987,-0.86485 c -3.5766,-1.28949 -6.9003,-2.50109 -7.3563,-2.68159 -0.5125,-0.20289 -0.2333,-1.04422 0.5415,-1.6318 0.5403,-0.40972 0.597,-0.43362 9.7936,-4.13045 4.5598,-1.83292 11.4163,-4.59138 15.2366,-6.12991 7.8702,-3.16949 9.2149,-3.66015 10.2511,-3.74064 1.2585,-0.0977 1.6802,0.36901 1.6802,1.86009 0,1.01844 -0.5283,3.92559 -1.2318,6.77804 -0.061,0.24648 -0.3886,1.73372 -0.7285,3.305 -0.3398,1.57127 -0.6677,3.05852 -0.7286,3.305 -0.061,0.24647 -0.2875,1.27998 -0.5037,2.29669 -0.2163,1.0167 -0.4429,2.05022 -0.5038,2.29669 -0.061,0.24647 -0.3901,1.73372 -0.7316,3.304997 -0.6456,2.97057 -0.7969,3.6551 -1.1698,5.29298 -0.1227,0.53883 -0.3283,1.49672 -0.4569,2.12865 -0.2722,1.33797 -0.437,1.57034 -1.289,1.81803 -0.6976,0.20279 -0.5413,0.20708 -1.2389,-0.0341 z"
       id="path4231-0"
       inkscape:connector-curvature="0"
       sodipodi:nodetypes="csscscccccsccccsccccsscscccccsccccc" />
  </g>
</svg>
