<?xml version="1.0" encoding="UTF-8" standalone="no"?>
<svg
   version="1.1"
   id="Layer_1"
   x="0px"
   y="0px"
   width="600px"
   height="600px"
   viewBox="0 0 600 600"
   enable-background="new 0 0 600 600"
   xml:space="preserve"
   sodipodi:docname="http.svg"
   inkscape:version="1.3.2 (091e20e, 2023-11-25, custom)"
   xmlns:inkscape="http://www.inkscape.org/namespaces/inkscape"
   xmlns:sodipodi="http://sodipodi.sourceforge.net/DTD/sodipodi-0.dtd"
   xmlns="http://www.w3.org/2000/svg"
   xmlns:svg="http://www.w3.org/2000/svg"><defs
   id="defs1" /><sodipodi:namedview
   id="namedview1"
   pagecolor="#ffffff"
   bordercolor="#000000"
   borderopacity="0.25"
   inkscape:showpageshadow="2"
   inkscape:pageopacity="0.0"
   inkscape:pagecheckerboard="0"
   inkscape:deskcolor="#d1d1d1"
   inkscape:zoom="0.6775"
   inkscape:cx="769.7417"
   inkscape:cy="647.23247"
   inkscape:window-width="2560"
   inkscape:window-height="1369"
   inkscape:window-x="-8"
   inkscape:window-y="-8"
   inkscape:window-maximized="1"
   inkscape:current-layer="g1" />  
<g
   id="g1"
   transform="matrix(0.39238967,0,0,0.39238967,653.50563,226.04184)"><path
     style="fill:#ffffff"
     d="m -1204.7512,212.14422 0.6661,-102.5766 11.7418,-0.7619 11.7418,-0.7619 1.6377,11.9487 c 0.9008,6.5718 1.6378,26.1238 1.6378,43.449 v 31.5004 h 45.8111 45.8112 l 0.6987,-42.6871 0.6987,-42.6872 h 12.7425 12.7424 v 101.9395 101.9395 h -12.7424 -12.7425 l -0.6946,-46.5099 -0.6946,-46.5099 h -45.428 -45.428 l -1.6615,27.1556 c -0.9138,14.9355 -1.6615,36.1517 -1.6615,47.147 v 19.9914 h -12.7714 -12.7713 z m 240.89316,11.4682 -0.66931,-91.1084 -30.58185,-1.2742 -30.5818,-1.2743 v -10.1939 -10.194 h 75.18033 75.18037 v 10.194 10.1939 l -30.58185,1.2743 -30.58184,1.2742 -0.66932,91.1084 -0.66931,91.1084 h -12.67805 -12.67806 z m 163.10318,0 -0.66931,-91.1084 -30.58185,-1.2742 -30.58185,-1.2743 v -10.1939 -10.194 h 75.18038 75.18037 v 10.194 10.1939 l -30.58185,1.2743 -30.58185,1.2742 -0.66931,91.1084 -0.66931,91.1084 h -12.67805 -12.67806 z m 122.20032,89.5269 c -0.9991,-0.999 -1.8165,-46.2108 -1.8165,-100.4706 0,-84.1963 0.5553,-99.1151 3.7893,-101.799 5.9753,-4.9592 73.5136,-2.2649 86.682,3.4579 22.7803,9.8999 35.1541,29.3244 35.1541,55.1849 0,42.1565 -28.1879,66.2052 -77.6003,66.2052 h -19.859 l -0.7035,38.8645 -0.7035,38.8644 -11.5631,0.7546 c -6.3596,0.415 -12.3804,-0.063 -13.3795,-1.0619 z m 76.5728,-105.4412 c 14.0238,-8.5504 18.8563,-19.0271 17.8755,-38.754 -0.6918,-13.9144 -2.0153,-18.3424 -7.144,-23.902 -9.3539,-10.1396 -20.4929,-13.8123 -41.8919,-13.8123 h -19.1955 v 40.7758 40.7758 l 21.025,-0.01 c 16.4822,-0.01 22.8196,-1.1037 29.3309,-5.0737 z"
     id="path1" /></g></svg>
