<?xml version="1.0" encoding="UTF-8" standalone="no"?>
<svg
   version="1.1"
   id="Layer_1"
   x="0px"
   y="0px"
   width="600px"
   height="600px"
   viewBox="0 0 600 600"
   enable-background="new 0 0 600 600"
   xml:space="preserve"
   sodipodi:docname="karate.svg"
   inkscape:version="1.3.2 (091e20e, 2023-11-25, custom)"
   xmlns:inkscape="http://www.inkscape.org/namespaces/inkscape"
   xmlns:sodipodi="http://sodipodi.sourceforge.net/DTD/sodipodi-0.dtd"
   xmlns="http://www.w3.org/2000/svg"
   xmlns:svg="http://www.w3.org/2000/svg"><defs
   id="defs1" /><sodipodi:namedview
   id="namedview1"
   pagecolor="#ffffff"
   bordercolor="#000000"
   borderopacity="0.25"
   inkscape:showpageshadow="2"
   inkscape:pageopacity="0.0"
   inkscape:pagecheckerboard="0"
   inkscape:deskcolor="#d1d1d1"
   inkscape:zoom="0.47906484"
   inkscape:cx="461.31542"
   inkscape:cy="531.24332"
   inkscape:window-width="1920"
   inkscape:window-height="1009"
   inkscape:window-x="1073"
   inkscape:window-y="2152"
   inkscape:window-maximized="1"
   inkscape:current-layer="g5" />  
<g
   id="g1"
   transform="matrix(0.39238967,0,0,0.39238967,653.50563,226.04184)"><g
     style="fill:none"
     id="g5"
     transform="matrix(8.5429944,0,0,8.5429944,-1559.151,-471.69565)"><path
       style="fill:#ffffff;stroke-width:0.541845"
       d="m 142.36794,161.85458 c -0.0461,-0.0746 -1.51335,-0.13327 -3.2606,-0.13048 -6.32478,0.0101 -8.13134,-0.26415 -8.83735,-1.34165 -0.22412,-0.34207 -0.2407,-0.5087 -0.0928,-0.93293 0.30099,-0.86341 5.71734,-8.94784 6.17774,-9.22088 0.39668,-0.23526 0.41937,-0.23251 0.34757,0.042 -0.0596,0.22776 0.15378,0.41237 0.94955,0.8217 0.5645,0.29038 1.06273,0.53405 1.10718,0.54152 0.0444,0.007 0.24448,0.10447 0.4445,0.21558 0.20004,0.1111 0.3637,0.15418 0.3637,0.0957 0,-0.0585 0.0976,-0.0253 0.21692,0.0737 0.1193,0.099 0.26478,0.13217 0.32327,0.0737 0.0585,-0.0585 0.10636,-0.0137 0.10636,0.0995 0,0.11659 0.10515,0.16552 0.24246,0.11283 0.13336,-0.0512 0.24246,-0.0105 0.24246,0.0905 0,0.10093 0.0479,0.13565 0.10636,0.0772 0.0585,-0.0585 0.20397,-0.0254 0.32328,0.0737 0.1193,0.099 0.21692,0.12585 0.21692,0.0596 0,-0.0662 0.1091,-0.0298 0.24246,0.0808 0.13335,0.11067 0.24246,0.14704 0.24246,0.0808 0,-0.0662 0.1091,-0.0299 0.24246,0.0808 0.13335,0.11067 0.24245,0.14704 0.24245,0.0808 0,-0.0662 0.10911,-0.0299 0.24246,0.0808 0.13336,0.11067 0.24246,0.14704 0.24246,0.0808 0,-0.0662 0.10911,-0.0299 0.24246,0.0808 0.13336,0.11067 0.24246,0.14704 0.24246,0.0808 0,-0.0662 0.10911,-0.0299 0.24246,0.0808 0.13335,0.11067 0.24246,0.14704 0.24246,0.0808 0,-0.0662 0.10911,-0.0299 0.24246,0.0808 0.13335,0.11067 0.24246,0.14704 0.24246,0.0808 0,-0.0662 0.1091,-0.0299 0.24246,0.0808 0.13335,0.11067 0.24246,0.14704 0.24246,0.0808 0,-0.0662 0.1091,-0.0299 0.24246,0.0808 0.13335,0.11067 0.24246,0.14704 0.24246,0.0808 0,-0.0662 0.1091,-0.0299 0.24246,0.0808 0.13335,0.11068 0.24245,0.14705 0.24245,0.0808 0,-0.0662 0.10911,-0.0299 0.24246,0.0808 0.13335,0.11067 0.24246,0.14704 0.24246,0.0808 0,-0.0662 0.10911,-0.0298 0.24246,0.0808 0.13335,0.11067 0.24246,0.14704 0.24246,0.0808 0,-0.0662 0.10911,-0.0299 0.24246,0.0808 0.13335,0.11068 0.24246,0.14704 0.24246,0.0808 0,-0.0662 0.10911,-0.0299 0.24245,0.0808 0.13336,0.11068 0.24246,0.14705 0.24246,0.0808 0,-0.0662 0.10911,-0.0299 0.24246,0.0808 0.13336,0.11068 0.24246,0.14704 0.24246,0.0808 0,-0.0662 0.10911,-0.0299 0.24246,0.0808 0.13335,0.11067 0.24246,0.14704 0.24246,0.0808 0,-0.0662 0.10911,-0.0298 0.24246,0.0808 0.13335,0.11068 0.24246,0.15921 0.24246,0.10786 0,-0.0514 0.47408,0.0851 1.05352,0.30317 2.89673,1.09033 4.58985,2.11782 4.59886,2.79089 0.003,0.20673 0.0771,0.32866 0.16664,0.27333 0.0889,-0.0549 0.16164,-0.0229 0.16164,0.0713 0,0.0942 -0.0648,0.17118 -0.14412,0.17118 -0.0793,0 -0.19021,0.18368 -0.24656,0.40817 -0.12436,0.4955 -1.17618,1.69314 -1.48699,1.69314 -0.123,0 -0.22364,0.077 -0.22364,0.17118 0,0.0942 -0.0677,0.12933 -0.15047,0.0782 -0.0828,-0.0512 -0.1969,-0.0179 -0.25363,0.0739 -0.0567,0.0918 -0.16585,0.12817 -0.24246,0.0808 -0.0766,-0.0474 -0.18303,-0.0153 -0.23647,0.0711 -0.0534,0.0865 -0.20487,0.11589 -0.3365,0.0654 -0.13164,-0.0505 -0.3466,-0.003 -0.47769,0.10596 -0.13109,0.10879 -0.35091,0.15461 -0.48849,0.10182 -0.13758,-0.0528 -0.59311,-0.0281 -1.0123,0.055 -0.98645,0.19542 -7.3078,0.29846 -7.41753,0.12091 z m -139.5474597,-0.452 c -3.00299051,-0.10949 -3.65859561,-0.2613 -3.81470651,-0.8833 -0.11112149,-0.44274 -0.012896,-1.705 0.1536672,-1.97449 0.068229,-0.11039 0.080832,-0.20072 0.028013,-0.20072 -0.05283,0 -0.00607,-0.16366 0.1039149,-0.36369 0.1099783,-0.20003 0.2161365,-0.46093 0.2359084,-0.57979 0.1152017,-0.69264 1.1338482,-1.73045 3.14556621,-3.20472 0.2624316,-0.19233 0.7254055,-0.55602 1.0288277,-0.8082 0.3034223,-0.25219 1.1930555,-0.96768 1.9769695,-1.58999 1.508485,-1.19753 3.7690614,-3.28816 3.7690614,-3.48573 0,-0.0985 -2.3054953,-2.17431 -3.6691832,-3.30364 l -0.3909839,-0.32379 0.6767262,-1.05015 c 0.3721986,-0.57757 0.7251563,-1.08651 0.7843474,-1.13096 0.059191,-0.0444 0.3227011,-0.42619 0.5855717,-0.84832 0.2628704,-0.42212 0.5324978,-0.76762 0.5991772,-0.76779 0.066674,-1.5e-4 0.121227,-0.10939 0.121227,-0.24274 0,-0.13336 0.061212,-0.24246 0.1360301,-0.24246 0.1268675,0 2.2885624,-2.963 2.2885624,-3.1369 0,-0.0436 0.181843,-0.27545 0.404097,-0.51526 0.222254,-0.23982 0.404097,-0.4944 0.404097,-0.56574 0,-0.0713 0.181849,-0.32592 0.404103,-0.56574 0.222254,-0.23982 0.404097,-0.4944 0.404097,-0.56574 0,-0.0713 0.181843,-0.32592 0.404097,-0.56574 0.222254,-0.23981 0.404102,-0.51707 0.404102,-0.61612 0,-0.0991 0.163659,-0.36281 0.363686,-0.58611 0.200028,-0.22331 0.614528,-0.76809 0.921104,-1.21064 0.306581,-0.44255 0.59753,-0.84101 0.646556,-0.88545 0.04904,-0.0444 0.341574,-0.44452 0.650095,-0.88903 0.308526,-0.4445 0.618467,-0.88093 0.688755,-0.96983 0.07029,-0.0889 1.927255,-2.60979 4.126592,-5.60198 5.530496,-7.52422 9.602893,-12.85945 12.071831,-15.81524 4.053416,-4.85271 11.546135,-14.430015 11.570827,-14.790006 0.0061,-0.0889 0.118322,-0.325297 0.249389,-0.52533 0.131062,-0.200027 0.197692,-0.363686 0.148065,-0.363686 -0.04963,0 5.42e-4,-0.163659 0.111771,-0.363692 0.111106,-0.200027 0.207164,-0.400054 0.213466,-0.444507 0.0063,-0.04443 0.102359,-0.244481 0.213465,-0.444508 0.111105,-0.200028 0.161404,-0.363686 0.111777,-0.363686 -0.04963,0 0.02893,-0.181843 0.174539,-0.404103 0.145626,-0.222254 0.211135,-0.404097 0.145577,-0.404097 -0.06556,0 -0.02866,-0.109106 0.08202,-0.242459 0.110672,-0.133353 0.153391,-0.242459 0.09493,-0.242459 -0.05846,0 -0.01539,-0.163659 0.09571,-0.363687 0.1111,-0.200027 0.207163,-0.40006 0.213459,-0.444507 0.0063,-0.04443 0.10236,-0.244481 0.213466,-0.444508 0.111105,-0.200033 0.154176,-0.363692 0.09571,-0.363692 -0.05846,0 -0.0253,-0.09761 0.07373,-0.216922 0.09902,-0.119303 0.132167,-0.264783 0.07368,-0.323275 -0.0585,-0.0585 -0.0094,-0.106359 0.10916,-0.106359 0.118534,0 0.167657,-0.04785 0.10916,-0.106359 -0.0585,-0.0585 -0.02536,-0.203972 0.07367,-0.323275 0.09902,-0.119309 0.125844,-0.216922 0.05962,-0.216922 -0.06622,0 -0.02986,-0.109106 0.08082,-0.24246 0.110672,-0.133353 0.153386,-0.242459 0.09492,-0.242459 -0.05846,0 -0.01539,-0.163659 0.09571,-0.363692 0.111106,-0.200027 0.213677,-0.418239 0.227944,-0.484918 0.01425,-0.06667 0.04362,-0.17578 0.06528,-0.242459 0.02162,-0.06667 0.03305,-0.168807 0.02536,-0.226952 -0.0077,-0.05815 0.08816,-0.190491 0.212983,-0.294086 0.171564,-0.142386 0.311766,-0.142977 0.574415,-0.0022 0.191103,0.102279 0.389088,0.144326 0.439967,0.09344 0.05088,-0.05088 0.190128,-0.01149 0.309437,0.08751 0.119309,0.09902 0.216922,0.125849 0.216922,0.05963 0,-0.06622 0.101449,-0.0362 0.225445,0.06669 0.123996,0.102908 0.287655,0.175937 0.363686,0.162294 0.07604,-0.01365 0.1928,-0.0071 0.259474,0.01452 0.06668,0.02162 0.193969,0.05753 0.28287,0.07975 0.0889,0.02222 0.179822,0.05507 0.202048,0.07298 0.02222,0.01794 0.185886,0.06605 0.363692,0.106961 0.546673,0.125783 0.808194,0.19832 0.808194,0.224161 0,0.0136 0.12729,0.05553 0.28287,0.09319 0.15558,0.03766 0.41016,0.09925 0.56574,0.136903 0.155575,0.03766 0.282865,0.07942 0.282865,0.09283 0,0.01338 0.181848,0.05619 0.404102,0.09507 0.222254,0.0389 0.513203,0.117195 0.646556,0.17404 0.296005,0.12618 0.451325,0.172085 0.963866,0.284886 0.879052,0.193466 4.951818,1.24601 5.178433,1.338286 0.133348,0.0543 0.327892,0.08534 0.432317,0.06896 0.104424,-0.01636 0.234044,0.04172 0.288044,0.129084 0.05402,0.08738 0.197606,0.120718 0.31912,0.07409 0.121514,-0.04665 0.269687,-0.0059 0.329273,0.09052 0.05958,0.09641 0.176046,0.133451 0.258807,0.0823 0.08276,-0.05115 0.241392,-0.03619 0.352519,0.03322 0.111127,0.06942 0.274786,0.142196 0.363692,0.161724 0.0889,0.01951 0.335136,0.07385 0.547198,0.120707 0.536448,0.118544 0.591391,0.212294 0.315803,0.538859 -1.93781,2.296268 -2.724347,3.274189 -2.63342,3.274189 0.06071,0 -0.0088,0.181843 -0.154393,0.404097 -0.145626,0.222254 -0.224172,0.404097 -0.174544,0.404097 0.04963,0 2.54e-4,0.163659 -0.109729,0.363692 -0.109979,0.200027 -0.213563,0.436423 -0.230187,0.525324 -0.01663,0.08891 -0.55557,1.470919 -1.19765,3.071149 -0.642081,1.60023 -1.200945,2.993833 -1.241919,3.096892 -0.07818,0.19665 4.030073,0.17918 8.13095,-0.03457 l 1.959002,-0.10211 0.114486,-0.99519 c 0.06297,-0.54735 0.141221,-1.249765 0.173894,-1.560925 0.349273,-3.326271 0.484989,-4.270555 0.652826,-4.542117 0.23606,-0.381952 5.30595,-4.024769 5.601472,-4.024769 0.532801,0 3.332806,1.766566 4.301781,2.714063 0.155396,0.151944 0.54385,0.502864 0.86324,0.779823 0.501738,0.435069 0.58069,0.599936 0.580565,1.212291 -1.35e-4,0.639761 0.04254,1.259794 0.287801,4.18399 0.04102,0.48896 0.0817,1.161785 0.09042,1.495166 l 0.01588,0.606146 3.741964,-0.01197 c 2.058084,-0.0066 4.050404,-0.06114 4.427381,-0.121232 l 0.685412,-0.109247 -1.067813,-2.26295 c -0.587295,-1.244623 -1.432486,-3.026696 -1.878202,-3.960165 -0.821865,-1.72124 -1.859541,-3.910965 -2.07454,-4.377737 -0.07015,-0.152302 -0.04232,-0.261234 0.06871,-0.269026 0.102625,-0.0072 0.768493,-0.09174 1.479707,-0.187852 0.711215,-0.09611 1.765911,-0.207299 2.343772,-0.247087 1.22439,-0.0843 3.893182,-0.497283 4.634967,-0.717245 0.282236,-0.08369 0.553245,-0.112081 0.602239,-0.06309 0.04898,0.04898 0.199946,-0.0027 0.335445,-0.115381 0.135505,-0.112459 0.246366,-0.144645 0.246366,-0.07153 0,0.07312 0.0816,0.05137 0.181339,-0.04839 0.09973,-0.09973 0.281575,-0.142868 0.404097,-0.09585 0.122517,0.04703 0.222764,5.42e-4 0.222764,-0.102988 0,-0.10366 0.07592,-0.141551 0.168719,-0.0842 0.0928,0.05735 0.27464,0.01636 0.404097,-0.09107 0.129458,-0.107443 0.235378,-0.141167 0.235378,-0.07494 0,0.06622 0.09762,0.03939 0.216922,-0.05963 0.119309,-0.09901 0.268738,-0.128211 0.332069,-0.06488 0.06333,0.06333 0.165745,0.03755 0.227586,-0.05733 0.06184,-0.09487 0.319786,-0.223273 0.573212,-0.285352 0.414436,-0.101514 0.569782,-0.0022 1.544827,0.985361 0.596235,0.604022 1.6618,1.752868 2.367925,2.552983 0.70612,0.800115 1.32367,1.491119 1.37234,1.535572 0.0487,0.04443 1.97179,2.226581 4.27361,4.84918 3.59027,4.090618 5.70483,6.396058 7.92476,8.640148 0.26796,0.27087 1.61283,1.54718 2.9886,2.83625 9.06548,8.49418 10.60615,10.17103 12.3637,13.45648 0.2259,0.42229 0.37145,0.76779 0.32346,0.76779 -0.048,0 0.0171,0.16366 0.14475,0.36369 0.22386,0.3509 0.81192,2.12608 0.99604,3.00678 0.12657,0.60539 0.20545,0.91297 0.23414,0.91297 0.0258,0 0.0984,0.26153 0.22417,0.8082 0.0409,0.1778 0.089,0.34146 0.10695,0.36369 0.0179,0.0222 0.0508,0.11315 0.073,0.20205 0.0222,0.0889 0.0586,0.19801 0.0808,0.24246 0.0222,0.0444 0.0558,0.13537 0.0746,0.20205 0.0653,0.23162 0.28553,0.77192 0.60951,1.49516 0.17921,0.40006 0.34004,0.80012 0.35739,0.88902 0.0173,0.0889 0.37202,0.88145 0.78815,1.76123 0.41613,0.87978 0.7566,1.65921 0.7566,1.73206 0,0.0729 0.26126,0.60777 0.58057,1.18869 0.31932,0.58092 0.53397,1.05622 0.47701,1.05622 -0.057,0 0.16084,0.47279 0.484,1.05065 0.32316,0.57786 0.53799,1.05066 0.4774,1.05066 -0.0606,0 0.11102,0.39191 0.38135,0.87091 0.27033,0.479 0.44699,0.91543 0.39259,0.96984 -0.0544,0.0544 -0.002,0.0989 0.11659,0.0989 0.11854,0 0.16799,0.0475 0.1099,0.10561 -0.0581,0.0581 0.0379,0.33788 0.21338,0.62176 0.17544,0.28388 0.27146,0.56367 0.21338,0.62176 -0.0581,0.0581 -0.009,0.10562 0.1099,0.10562 0.11854,0 0.16799,0.0475 0.1099,0.10562 -0.0581,0.0581 0.0448,0.34904 0.22871,0.64655 0.18387,0.29752 0.28608,0.54094 0.22713,0.54094 -0.059,0 0.0502,0.25458 0.24246,0.56574 0.1923,0.31116 0.29843,0.56574 0.23584,0.56574 -0.0626,0 -0.0353,0.0945 0.0606,0.21011 0.0959,0.11556 0.43616,0.8961 0.75612,1.73453 0.66703,1.74792 0.63217,1.99839 -0.34693,2.49243 -0.34364,0.1734 -0.73391,0.39811 -0.86726,0.49936 -0.72875,0.55327 -2.40877,1.03704 -3.96017,1.14036 -2.78265,0.1853 -3.19402,0.21834 -5.98066,0.48046 -0.94264,0.0887 -2.09496,0.19592 -3.23278,0.30092 -2.05211,0.18935 -2.85405,0.19968 -4.28345,0.0552 -0.84456,-0.0854 -1.89926,-0.18146 -2.34377,-0.21348 -0.44451,-0.032 -1.20826,-0.10005 -1.69721,-0.15119 -1.51144,-0.15807 -2.64589,-0.26448 -3.15197,-0.29566 -0.26671,-0.0164 -0.604,-0.10262 -0.74953,-0.19153 -0.32057,-0.19582 -5.34503,-10.0155 -5.19925,-10.16128 0.0566,-0.0566 0.0136,-0.10282 -0.0953,-0.10282 -0.10896,0 -0.15316,-0.0727 -0.0982,-0.16163 0.055,-0.0889 0.0229,-0.16165 -0.0713,-0.16165 -0.0941,0 -0.15341,-0.0546 -0.13168,-0.12122 0.0217,-0.0667 -1.85128,-3.92711 -4.16222,-8.57874 l -4.20171,-8.4575 -9.94082,-6.31298 c -5.467457,-3.47213 -10.052022,-6.40939 -10.187933,-6.52723 -0.171792,-0.14897 -0.541271,-0.18928 -1.212297,-0.13229 -0.984515,0.0836 -2.979247,0.16465 -7.230127,0.29366 -2.184924,0.0663 -2.422865,0.10329 -2.82869,0.4395 -0.3559,0.29485 -4.22199,4.48452 -8.686704,9.41375 -1.747634,1.92946 -3.321682,3.60213 -4.157386,4.41785 -0.508532,0.49638 -0.87917,0.97602 -0.823637,1.06588 0.05553,0.0898 0.02384,0.11569 -0.07046,0.0574 -0.209483,-0.12947 -1.534038,1.41272 -1.369594,1.59463 0.06442,0.0713 0.03956,0.0855 -0.05532,0.0316 -0.156815,-0.0891 -3.752774,3.42688 -5.356146,5.23702 -0.61688,0.69643 -4.007498,3.98986 -13.636502,13.24562 l -3.961682,3.80812 -2.984151,0.36255 c -2.76453,0.33586 -3.706793,0.35327 -5.408738,0.0999 -0.355607,-0.0529 -0.882958,-0.12842 -1.171886,-0.16772 -0.970546,-0.13204 -1.734277,-0.24236 -2.222544,-0.32103 -0.266707,-0.043 -0.739499,-0.11167 -1.050653,-0.15264 -0.31116,-0.041 -0.856689,-0.11269 -1.212297,-0.15937 -0.355607,-0.0467 -0.864773,-0.11646 -1.131474,-0.15508 -0.550802,-0.0797 -1.705495,-0.24263 -2.424593,-0.34206 -0.266707,-0.0369 -0.827386,-0.0935 -1.245956,-0.12579 l -0.7610426,-0.0587 0.3493866,0.5004 c 0.192166,0.27521 1.436794,1.99151 2.765842,3.814 1.329047,1.82248 2.670584,3.66521 2.981186,4.09495 0.537624,0.74382 0.806904,1.56243 0.513967,1.56243 -0.07508,0 -0.186227,0.16366 -0.246989,0.36368 -0.06076,0.20003 -0.283873,0.59524 -0.49581,0.87824 -0.211937,0.283 -0.385338,0.55688 -0.385338,0.60863 0,0.0517 -0.265163,0.49345 -0.589245,0.98156 l -0.589251,0.88747 -4.3003404,-0.0365 c -2.3651903,-0.0201 -5.5732582,-0.0829 -7.1290355,-0.13965 z M 50.180823,129.02632 c 0,-0.0336 0.12729,-0.16086 0.28287,-0.28287 0.256368,-0.20107 0.262085,-0.19535 0.06103,0.061 -0.211163,0.26925 -0.343898,0.35488 -0.343898,0.22185 z m 35.68918,-49.325919 c -0.02622,-0.02617 -3.539108,-0.09408 -7.806385,-0.15086 -4.267282,-0.05678 -9.195138,-0.168948 -10.950802,-0.24926 -1.755658,-0.08031 -3.911355,-0.102203 -4.790433,-0.04866 l -1.598329,0.09737 -1.998415,-1.242087 C 57.626506,77.423759 56.583515,76.776818 56.407876,76.669262 56.232243,76.561706 55.686708,76.222299 55.195585,75.91503 54.704457,75.607755 54.048045,75.218082 53.73689,75.049086 53.425736,74.88009 52.952939,74.584481 52.686232,74.392181 52.41953,74.19988 52.001286,73.940808 51.756805,73.816465 c -0.684366,-0.34807 -0.644578,-0.530428 0.741797,-3.399718 0.1921,-0.397573 0.331089,-0.779444 0.308862,-0.848605 -0.02222,-0.06916 0.03235,-0.125751 0.121227,-0.125751 0.08891,0 0.145317,-0.05455 0.125367,-0.121227 -0.01994,-0.06668 0.162949,-0.524181 0.406443,-1.016674 l 0.442709,-0.895442 4.079055,-1.447896 c 2.243476,-0.796344 4.133604,-1.457183 4.200284,-1.468535 0.06667,-0.01132 0.157595,-0.0388 0.202048,-0.06104 0.04443,-0.02222 0.153559,-0.0586 0.242459,-0.08082 0.0889,-0.02222 0.198007,-0.05859 0.24246,-0.08082 0.04443,-0.02222 0.153559,-0.0586 0.242459,-0.08082 0.0889,-0.02222 0.198006,-0.0586 0.242459,-0.08082 0.04443,-0.02222 0.135369,-0.05061 0.202049,-0.06309 0.06667,-0.01246 0.193964,-0.06656 0.28287,-0.120208 0.1482,-0.08942 1.291649,-0.493832 1.575983,-0.55739 0.06667,-0.0149 0.157595,-0.0453 0.202048,-0.06751 0.04443,-0.02222 0.153559,-0.05859 0.242459,-0.08082 0.0889,-0.02222 0.198007,-0.0586 0.24246,-0.08082 0.04443,-0.02222 0.153558,-0.0586 0.242459,-0.08082 0.0889,-0.02222 0.198006,-0.05859 0.242459,-0.08082 0.04443,-0.02222 0.153559,-0.05859 0.242459,-0.08082 0.0889,-0.02222 0.198007,-0.0586 0.24246,-0.08082 0.04443,-0.02222 0.135374,-0.05578 0.202048,-0.07457 0.06667,-0.0188 0.266707,-0.08942 0.444508,-0.15694 0.728998,-0.276861 0.813255,-0.307725 0.929426,-0.340468 0.06668,-0.0188 0.157601,-0.05234 0.202049,-0.07457 0.04443,-0.02222 0.153559,-0.0586 0.242459,-0.08082 0.0889,-0.02222 0.198012,-0.0586 0.242459,-0.08082 0.04443,-0.02222 0.153559,-0.0586 0.24246,-0.08082 0.0889,-0.02221 0.198006,-0.05859 0.242459,-0.08082 0.04443,-0.02222 0.153559,-0.05859 0.242459,-0.08082 0.0889,-0.02222 0.179822,-0.05507 0.202049,-0.07298 0.02222,-0.01794 0.149516,-0.05616 0.28287,-0.08498 0.133353,-0.02883 0.460671,-0.14445 0.727378,-0.256954 0.266707,-0.112508 0.539471,-0.219745 0.606145,-0.238308 0.06668,-0.01859 0.157601,-0.05191 0.202049,-0.07416 0.04443,-0.02222 0.153559,-0.0586 0.242459,-0.08082 0.08891,-0.02222 0.198012,-0.05859 0.242459,-0.08082 0.04443,-0.02222 0.153559,-0.05859 0.24246,-0.08082 0.08891,-0.02222 0.179827,-0.05491 0.202048,-0.07262 0.02222,-0.01772 0.2191,-0.06502 0.437496,-0.105107 0.218391,-0.0401 0.444741,-0.150004 0.502989,-0.244253 0.05825,-0.09425 0.152329,-0.165154 0.209066,-0.157558 0.05674,0.0076 0.139525,0.0049 0.183978,-0.0064 0.04443,-0.01111 0.153553,-0.03842 0.242459,-0.06062 0.0889,-0.02222 0.179822,-0.05491 0.202049,-0.07263 0.02222,-0.01772 0.222254,-0.06528 0.444507,-0.105698 0.222254,-0.04042 0.426985,-0.140029 0.45495,-0.221365 0.02796,-0.08134 0.15526,-0.107822 0.28287,-0.05886 0.12761,0.04898 0.232018,0.0085 0.232018,-0.0899 0,-0.09842 0.05455,-0.170318 0.121227,-0.15979 0.06668,0.01051 0.1576,0.0049 0.202048,-0.01203 0.04443,-0.01712 0.259511,-0.06395 0.477902,-0.104045 0.218396,-0.0401 0.436607,-0.125605 0.484918,-0.190036 0.04833,-0.06443 0.160576,-0.121205 0.249476,-0.126163 0.402109,-0.02243 1.050659,-0.283011 1.050659,-0.422146 0,-0.08451 0.05803,-0.117797 0.128948,-0.07396 0.07092,0.04384 0.234581,0.0129 0.363687,-0.0688 0.170074,-0.107594 0.07889,-0.152594 -0.330997,-0.163361 -0.311154,-0.0082 -1.184007,-0.04367 -1.939674,-0.07888 -2.022886,-0.09426 -7.602354,-0.253626 -10.74902,-0.307014 -2.405899,-0.0408 -6.96063,-0.146797 -13.820168,-0.321558 -1.836566,-0.04681 -2.124307,-0.09653 -3.160981,-0.546483 -1.864196,-0.809115 -4.562133,-2.396552 -6.860658,-4.036733 l -1.212297,-0.865071 -0.046,-0.91775 c -0.0253,-0.504761 -0.07738,-1.426916 -0.115755,-2.049225 -0.08765,-1.421508 -0.177465,-3.784477 -0.332394,-8.745388 l -0.121677,-3.896206 0.824596,-0.651801 c 0.453529,-0.358495 0.773933,-0.702475 0.712005,-0.764402 -0.06192,-0.06192 -0.03641,-0.08834 0.05667,-0.05871 0.23289,0.07414 1.21371,-0.76923 1.074478,-0.923894 -0.06174,-0.06859 -0.02715,-0.07599 0.07684,-0.01642 0.105351,0.06032 0.338014,-0.08103 0.525324,-0.319157 0.184927,-0.235096 0.336226,-0.366499 0.336226,-0.292017 0,0.07448 0.272765,-0.125204 0.606145,-0.443744 0.954725,-0.912233 2.473831,-1.96079 4.52869,-3.125918 1.043062,-0.591429 2.078322,-1.178562 2.300576,-1.304741 0.222254,-0.126179 1.227712,-0.673302 2.234345,-1.215818 1.80209,-0.971219 1.84437,-0.984608 2.747867,-0.870095 0.97597,0.123698 4.116243,0.233497 8.353035,0.29206 2.076491,0.02872 2.664473,-0.01262 2.983219,-0.209569 0.218347,-0.134925 0.40019,-0.220406 0.404097,-0.18996 0.0089,0.06959 0.835205,-0.259918 1.417455,-0.565264 0.242275,-0.127062 0.477739,-0.230153 0.523249,-0.229097 0.04552,0.0011 0.429179,-0.148671 0.852609,-0.332725 0.423424,-0.184059 0.842601,-0.3524 0.931501,-0.374095 0.08891,-0.02167 0.52533,-0.203544 0.969838,-0.404103 0.444507,-0.200558 0.880936,-0.379031 0.969837,-0.396608 0.0889,-0.01756 0.325302,-0.121942 0.525329,-0.231926 0.200028,-0.109978 0.363686,-0.159357 0.363686,-0.109729 0,0.04963 0.178013,-0.02639 0.39558,-0.168958 0.217566,-0.142554 0.417594,-0.24661 0.444507,-0.231238 0.06287,0.03592 0.9004,-0.300285 1.422868,-0.571164 0.222254,-0.115229 0.45722,-0.219577 0.522155,-0.231882 0.399112,-0.07563 1.740795,-0.720605 1.740795,-0.836842 0,-0.07704 -0.163659,-0.152117 -0.363686,-0.166817 -0.200033,-0.01468 -0.727378,-0.05686 -1.171886,-0.09369 -0.444513,-0.03679 -1.317365,-0.09857 -1.939674,-0.137223 -0.622314,-0.03863 -1.749747,-0.111116 -2.505409,-0.16103 -0.755668,-0.0499 -1.930799,-0.103422 -2.611405,-0.118908 -0.6806,-0.0155 -1.203659,-0.08271 -1.162343,-0.149392 0.04134,-0.06667 -0.247732,-0.121227 -0.642325,-0.121227 -0.823301,0 -0.948841,-0.126456 -2.968746,-2.990328 C 64.674059,15.816496 64.56206,15.604054 64.468104,14.756311 64.391433,14.064568 64.307052,13.481299 64.15993,12.626156 64.114036,12.359451 64.044111,11.923025 64.004529,11.65632 63.964974,11.389615 63.89221,10.91682 63.842891,10.605664 63.793583,10.294508 63.719638,9.8034754 63.678598,9.5144804 63.572418,8.7668722 63.461638,8.026917 63.357973,7.3728757 63.026916,5.2842174 62.942193,4.5892083 62.944182,3.9784484 c 0.0016,-0.5388408 1.375896,-3.73255135 1.657552,-3.85240525 0.06964,-0.0296335 0.126618,-0.12826062 0.126618,-0.21916971 0,-0.36640627 2.989212,-5.15167974 3.198694,-5.12062334 0.0632,0.00937 0.187652,-0.00336 0.276552,-0.02823 0.0889,-0.024898 0.488961,-0.062035 0.889016,-0.082531 0.40006,-0.020498 1.309281,-0.086095 2.020496,-0.1457752 0.711209,-0.05968 1.584061,-0.1329021 1.939669,-0.1627154 5.378243,-0.4509 7.548781,-0.5678425 10.749019,-0.5791308 2.604063,-0.00918 4.620435,0.1761413 5.091645,0.4679756 0.0889,0.05506 0.198006,0.1042716 0.242459,0.1093595 0.04443,0.00509 0.317212,0.1353604 0.606146,0.2894946 0.682134,0.3638943 0.695739,0.9785257 0.04985,2.2520256 -0.259256,0.5111845 -0.438314,0.9294264 -0.397898,0.9294264 0.04042,0 -0.05245,0.2363977 -0.206361,0.5253283 -0.153917,0.2889306 -0.264892,0.5798812 -0.24661,0.64655727 0.01826,0.066676 -0.0473,0.1212297 -0.145702,0.1212297 -0.09841,0 -0.138864,0.1044075 -0.0899,0.2320157 0.04898,0.1276088 0.0022,0.2610484 -0.103936,0.29653273 -0.146049,0.048831 -0.182228,1.5546611 -0.148802,6.1931498 0.02427,3.3707487 -0.03565,7.4015441 -0.133223,8.9573241 -0.09757,1.555779 -0.190177,3.101458 -0.205809,3.434838 -0.01561,0.333381 -0.08297,0.606146 -0.149641,0.606146 -0.06668,0 -0.121233,0.134204 -0.121233,0.298226 0,0.164027 -0.145474,0.429883 -0.323281,0.590789 -0.177801,0.160912 -0.323275,0.236017 -0.323275,0.166899 0,-0.06911 -0.09761,-0.04465 -0.216922,0.05437 -0.119309,0.09902 -0.263023,0.133923 -0.319374,0.07758 -0.05635,-0.05635 -0.213314,-0.01046 -0.348813,0.102013 -0.135505,0.11246 -0.246366,0.150286 -0.246366,0.08406 0,-0.06622 -0.10592,-0.03251 -0.235383,0.07494 -0.129457,0.107442 -0.306272,0.151532 -0.392929,0.09798 -0.08665,-0.05353 -0.203235,-0.02346 -0.259078,0.06691 -0.05584,0.09035 -0.228425,0.164276 -0.383529,0.164276 -0.424676,0 -1.976151,0.815965 -1.871976,0.984522 0.04996,0.08082 0.0259,0.146953 -0.05343,0.146953 -0.07933,0 -0.149516,0.09092 -0.155964,0.202049 -0.0064,0.111127 -0.09753,0.674846 -0.202401,1.252702 -0.104874,0.577861 -0.202644,1.341607 -0.217269,1.697215 -0.01463,0.355607 -0.07294,0.719299 -0.129609,0.808199 -0.05667,0.0889 -0.102127,0.65262 -0.101027,1.252702 0.0022,1.171972 -0.06583,1.087634 0.931431,1.155408 0.133353,0.009 0.33822,0.07832 0.455263,0.153895 0.117039,0.07558 0.255822,0.0944 0.308402,0.04183 0.05261,-0.05256 0.192296,-0.01539 0.310466,0.08272 0.118177,0.09807 0.322572,0.136989 0.454207,0.08647 0.131636,-0.0505 0.286246,-0.01593 0.343579,0.07682 0.05733,0.09276 0.241435,0.132784 0.409114,0.08894 0.167685,-0.04383 0.342749,-0.01842 0.389039,0.05645 0.04627,0.0749 0.210025,0.137721 0.363849,0.139607 0.15383,0.0016 0.497901,0.04665 0.764608,0.09954 1.102134,0.218439 1.307786,0.257663 1.616393,0.308261 0.177801,0.02915 0.323276,0.07157 0.323276,0.09426 0,0.0227 0.145474,0.06511 0.323281,0.09427 0.69737,0.114335 1.793511,0.330243 2.343771,0.461646 0.222254,0.05305 0.658677,0.137851 0.969837,0.188383 3.143534,0.510537 4.717816,1.017103 6.708033,2.158488 0.444508,0.254922 1.026414,0.578289 1.293114,0.718594 0.26671,0.140306 0.84861,0.472153 1.29312,0.737435 0.44451,0.265282 1.02641,0.592605 1.29311,0.727378 1.24325,0.628247 2.09304,1.183015 2.25137,1.469765 0.0953,0.17255 0.21391,0.350091 0.26364,0.394544 0.10006,0.08945 1.47678,2.363809 1.66334,2.747868 0.14374,0.295912 0.34862,0.627402 1.0989,1.778031 0.31883,0.48896 0.71959,1.143601 0.89059,1.454755 0.25139,0.457447 1.76859,2.866581 1.91095,3.034352 0.0205,0.02422 0.72067,-0.219149 1.55584,-0.540799 0.83518,-0.321655 1.59123,-0.598088 1.68013,-0.614305 0.0889,-0.0162 0.25256,-0.08628 0.3637,-0.15571 0.11112,-0.06942 0.20204,-0.083 0.20204,-0.03018 0,0.05283 0.16366,0.0049 0.36369,-0.105963 0.20003,-0.111105 0.41824,-0.213677 0.48492,-0.227943 0.0667,-0.01425 0.1576,-0.04411 0.20205,-0.06634 0.0444,-0.02222 0.13537,-0.05207 0.20205,-0.06634 0.0667,-0.01425 0.28489,-0.116838 0.48491,-0.227943 0.20003,-0.111106 0.3637,-0.154171 0.3637,-0.09571 0,0.05846 0.1091,0.01577 0.24246,-0.09492 0.13334,-0.110677 0.24245,-0.147582 0.24245,-0.08202 0,0.06556 0.18185,5.5e-5 0.4041,-0.145572 0.22226,-0.145626 0.4041,-0.217821 0.4041,-0.16044 0,0.05739 0.1091,0.01382 0.24246,-0.09688 0.13335,-0.110671 0.24246,-0.15339 0.24246,-0.09492 0,0.05846 0.16366,0.01539 0.36369,-0.09571 0.20003,-0.111105 0.41824,-0.213676 0.48491,-0.227938 0.0667,-0.01425 0.13942,-0.04042 0.16165,-0.05815 0.0222,-0.01772 0.22225,-0.06528 0.4445,-0.105697 0.22226,-0.04042 0.42577,-0.136399 0.45226,-0.213292 0.0265,-0.07689 0.20152,-0.0997 0.38897,-0.05066 0.26054,0.06814 0.30971,0.03554 0.20879,-0.138388 -0.0782,-0.134724 -0.072,-0.172599 0.0151,-0.09287 0.0809,0.07405 0.15964,0.292265 0.17491,0.484918 0.0153,0.192648 0.20797,1.44134 0.42823,2.774863 0.22026,1.333529 0.45153,2.824653 0.51393,3.313609 0.0624,0.48896 0.14373,1.107232 0.18073,1.373934 0.037,0.266707 0.10236,0.775873 0.14525,1.13148 0.0429,0.355602 0.11615,0.901137 0.16281,1.212292 0.0467,0.311159 0.0834,0.798067 0.0817,1.082026 -0.002,0.283959 0.0695,0.561183 0.15824,0.616056 0.0888,0.05487 0.11666,0.278096 0.062,0.496058 -0.0547,0.217958 -0.0173,0.49523 0.083,0.616165 0.10037,0.120929 0.13708,0.338198 0.0816,0.482816 -0.0555,0.144624 -0.0515,0.390236 0.009,0.545816 0.19973,0.515051 0.2623,2.626642 0.0778,2.626642 -0.0946,0 -0.12758,0.0719 -0.0733,0.159784 0.0566,0.09163 -0.008,0.118729 -0.15211,0.06353 -0.13796,-0.05294 -0.25086,-0.01804 -0.25086,0.0776 0,0.09562 -0.1091,0.131988 -0.24246,0.08082 -0.13334,-0.05115 -0.24245,-0.0082 -0.24245,0.09544 0,0.10366 -0.0721,0.143897 -0.16027,0.08942 -0.19439,-0.120143 -1.94105,0.410171 -1.94105,0.589338 0,0.06987 -0.10174,0.088 -0.2261,0.04026 -0.12437,-0.04774 -0.27486,-0.0079 -0.33445,0.08853 -0.0596,0.09642 -0.17103,0.136556 -0.24764,0.0892 -0.0766,-0.04736 -0.18303,-0.01533 -0.23647,0.07112 -0.0534,0.08647 -0.20394,0.116242 -0.33445,0.06616 -0.1305,-0.05007 -0.23728,-0.0062 -0.23728,0.09742 0,0.10366 -0.0759,0.141546 -0.16872,0.0842 -0.0928,-0.05735 -0.27464,-0.01636 -0.4041,0.09107 -0.12945,0.107437 -0.23537,0.141162 -0.23537,0.07494 0,-0.06622 -0.10912,-0.02986 -0.24246,0.08082 -0.13336,0.110677 -0.24246,0.147046 -0.24246,0.08082 0,-0.06622 -0.10911,-0.02985 -0.24245,0.08082 -0.13336,0.110672 -0.24246,0.14704 -0.24246,0.08082 0,-0.06622 -0.0976,-0.03939 -0.21692,0.05963 -0.11931,0.09901 -0.26303,0.133923 -0.31938,0.07758 -0.0563,-0.05635 -0.19513,-0.02552 -0.3084,0.06848 -0.11328,0.09401 -0.26051,0.177113 -0.32719,0.184672 -0.0667,0.0075 -0.13941,0.01929 -0.16165,0.02612 -0.0222,0.0068 -0.14951,0.04086 -0.28285,0.07571 -0.13336,0.03484 -1.7336,0.505714 -3.55608,1.046388 -4.15655,1.233131 -5.14229,1.469717 -5.26904,1.264634 -0.0538,-0.087 -0.19718,-0.12003 -0.31869,-0.0734 -0.12152,0.04665 -0.26466,0.01403 -0.3181,-0.07243 -0.0534,-0.08647 -0.15985,-0.118474 -0.23647,-0.07113 -0.0766,0.04736 -0.18572,0.011 -0.24246,-0.08082 -0.0567,-0.09181 -0.17406,-0.123096 -0.26071,-0.06954 -0.0866,0.05353 -0.26347,0.0095 -0.39292,-0.09798 -0.12946,-0.107442 -0.23538,-0.141166 -0.23538,-0.07494 0,0.06622 -0.12028,0.02059 -0.2673,-0.101439 -0.14702,-0.122013 -0.2925,-0.203658 -0.32328,-0.181431 -0.0308,0.02221 -0.0742,0.03484 -0.0964,0.02801 -0.0222,-0.0068 -0.1677,-0.04319 -0.32328,-0.08082 -0.15558,-0.03766 -0.41016,-0.09925 -0.56574,-0.136908 -0.15558,-0.03766 -0.30105,-0.08311 -0.32328,-0.101022 -0.0222,-0.01794 -0.11315,-0.05077 -0.20205,-0.07298 -0.0889,-0.02222 -0.198,-0.0586 -0.24246,-0.08082 -0.0444,-0.02222 -0.13537,-0.05061 -0.20205,-0.06309 -0.0667,-0.01246 -0.21699,-0.0834 -0.33403,-0.157617 -0.11704,-0.07422 -0.25582,-0.09192 -0.3084,-0.03934 -0.0526,0.05256 -0.19323,0.01458 -0.31253,-0.08442 -0.11931,-0.09902 -0.21692,-0.125848 -0.21692,-0.05962 0,0.06622 -0.10911,0.02985 -0.24246,-0.08082 -0.13335,-0.110672 -0.24246,-0.14704 -0.24246,-0.08082 0,0.06622 -0.10145,0.03619 -0.22545,-0.0667 -0.123992,-0.102907 -0.28765,-0.175937 -0.363687,-0.162293 -0.07603,0.01365 -0.192794,0.0071 -0.259474,-0.01452 -0.06667,-0.02162 -0.193964,-0.05753 -0.282864,-0.07975 -0.08891,-0.02222 -0.198012,-0.05859 -0.24246,-0.08082 -0.04443,-0.02222 -0.153558,-0.0586 -0.242459,-0.08082 -0.0889,-0.02222 -0.179827,-0.05507 -0.202048,-0.07298 -0.02222,-0.01794 -0.185886,-0.06605 -0.363692,-0.106955 -0.177801,-0.04091 -0.396018,-0.09195 -0.484919,-0.113408 -0.0889,-0.02146 -0.252559,-0.09582 -0.363686,-0.165246 -0.111127,-0.06942 -0.202048,-0.07665 -0.202048,-0.01609 0,0.06058 -0.109106,0.01962 -0.24246,-0.09107 -0.133353,-0.110672 -0.242459,-0.147041 -0.242459,-0.08082 0,0.06622 -0.10592,0.03251 -0.235377,-0.07494 -0.129463,-0.107442 -0.311306,-0.148422 -0.404103,-0.09107 -0.0928,0.05735 -0.168719,0.01945 -0.168719,-0.0842 0,-0.10366 -0.106776,-0.147496 -0.23728,-0.09742 -0.130508,0.05007 -0.283341,0.01653 -0.339633,-0.07455 -0.05629,-0.09108 -0.204092,-0.126554 -0.32845,-0.07883 -0.124365,0.04774 -0.226112,0.01631 -0.226112,-0.0698 0,-0.08611 -0.145475,-0.156566 -0.323281,-0.156566 -0.355028,0 -0.371874,0.08292 -0.410437,2.020496 -0.01241,0.622309 -0.06946,2.18617 -0.12684,3.475246 -0.05738,1.289071 -0.144792,3.252992 -0.194257,4.364262 -0.103324,2.321182 -0.220883,4.428784 -0.279023,5.002311 -0.02975,0.293718 -0.789343,1.021627 -2.949608,2.826663 -2.802226,2.341436 -2.937546,2.431913 -3.670007,2.453858 -0.418277,0.01252 -0.781963,0.0011 -0.808199,-0.02482 z M 84.529192,56.304085 c 1.177483,-0.910153 1.637948,-1.2699 3.009623,-2.351319 l 1.231586,-0.970975 0.104294,-0.942729 c 0.102533,-0.926804 0.155748,-1.270653 0.346022,-2.235847 0.05256,-0.266707 0.125313,-0.666762 0.161638,-0.889015 0.0363,-0.222254 0.106619,-0.603935 0.156214,-0.848177 0.265569,-1.307954 0.332481,-1.707418 0.491691,-2.93539 0.05656,-0.436277 0.16943,-0.968363 0.250809,-1.182408 0.08138,-0.214045 0.147084,-0.584467 0.146017,-0.82316 -0.0016,-0.397107 -0.03793,-0.372177 -0.425289,0.293393 -0.232836,0.40006 -0.425928,0.818299 -0.429092,0.929426 -0.0033,0.111127 -0.06637,0.202048 -0.140452,0.202048 -0.07408,0 -0.134697,0.07272 -0.134697,0.161595 0,0.08887 -0.552925,1.198127 -1.228725,2.464998 -0.675794,1.266876 -1.919225,3.649059 -2.763175,5.293743 -0.843956,1.644678 -1.832807,3.535862 -2.197457,4.202624 l -0.662996,1.212291 0.637897,-0.478194 c 0.350845,-0.263007 1.001584,-0.759315 1.446092,-1.102904 z M 125.5444,46.036825 c -1.13508,-1.363937 -3.32638,-4.663225 -3.2159,-4.841974 0.0994,-0.160906 2.12563,-0.952707 2.12563,-0.830656 0,0.02075 0.18184,-0.06289 0.40409,-0.185891 0.22226,-0.122998 0.45865,-0.235301 0.52533,-0.249568 0.0667,-0.01425 0.17578,-0.04362 0.24246,-0.06528 0.0667,-0.02162 0.17578,-0.03072 0.24245,-0.02021 0.0667,0.01051 0.12124,-0.05359 0.12124,-0.1425 0,-0.0889 0.0545,-0.150091 0.12122,-0.135976 0.13411,0.02839 0.63511,-0.140039 1.01025,-0.339617 0.30192,-0.160624 0.34817,-2.073505 0.10838,-4.482373 l -0.16368,-1.644358 1.27536,-1.588429 c 1.72545,-2.148989 1.7558,-2.171752 2.74445,-2.057878 0.4469,0.05148 1.75618,0.123638 2.90951,0.160365 2.14688,0.06836 3.34169,0.15429 4.19828,0.301926 0.2667,0.04595 0.66676,0.114872 0.88902,0.153126 0.22225,0.03825 0.42228,0.08471 0.44451,0.103227 0.0222,0.01853 0.095,0.04286 0.16163,0.05413 0.0667,0.01127 0.38589,0.176766 0.70936,0.36781 0.56138,0.331549 0.59318,0.397714 0.69909,1.454495 0.061,0.608936 0.13807,1.543581 0.17119,2.076989 0.0331,0.533408 0.10872,1.660846 0.16797,2.505409 0.13377,1.906681 0.15281,3.851259 0.0389,3.965236 -0.0473,0.04725 -0.2358,0.114758 -0.41903,0.150048 -0.18323,0.03527 -0.52039,0.186842 -0.74925,0.336797 -0.22886,0.14995 -0.4161,0.221972 -0.4161,0.160045 0,-0.06192 -0.25459,0.04476 -0.56574,0.237057 -0.31116,0.192301 -0.56574,0.301406 -0.56574,0.242454 0,-0.05895 -0.2364,0.0389 -0.52533,0.217485 -0.28893,0.178571 -0.56169,0.323254 -0.60615,0.321515 -0.13548,-0.0054 -1.83099,0.707476 -2.58623,1.087211 -0.22225,0.11175 -0.47683,0.219653 -0.56573,0.239788 -0.27473,0.06223 -0.94844,0.341335 -1.41435,0.585951 -0.24448,0.128358 -0.4445,0.186964 -0.4445,0.130238 0,-0.05673 -0.25459,0.0542 -0.56574,0.246502 -0.31116,0.192306 -0.56574,0.30567 -0.56574,0.251919 0,-0.05375 -0.18185,0.0214 -0.4041,0.167046 -0.22226,0.145626 -0.4041,0.21411 -0.4041,0.152182 0,-0.06193 -0.25458,0.04476 -0.56574,0.237052 -0.31115,0.192306 -0.56573,0.305665 -0.56573,0.251914 0,-0.05375 -0.18185,0.0214 -0.40411,0.167046 -0.22225,0.145626 -0.40409,0.21411 -0.40409,0.152182 0,-0.06192 -0.25458,0.04476 -0.56574,0.237057 -0.31116,0.192301 -0.56574,0.304783 -0.56574,0.249953 0,-0.05483 -0.16366,-0.0089 -0.36368,0.101976 -0.20004,0.110921 -0.41825,0.186215 -0.48492,0.167327 -0.0667,-0.01891 -0.12123,0.03842 -0.12123,0.127301 0,0.362705 -0.35292,0.111858 -1.09186,-0.776063 z m 6.18349,-5.196332 c 0,-0.01815 0.14548,-0.06647 0.32328,-0.107378 0.48364,-0.111284 0.79862,-0.195042 0.88902,-0.236417 0.0444,-0.02032 0.15356,-0.05386 0.24246,-0.07454 0.0889,-0.02064 0.19801,-0.05153 0.24246,-0.06856 0.0999,-0.03831 0.46192,-0.132167 0.88901,-0.230441 0.17781,-0.04091 0.34147,-0.08904 0.3637,-0.106955 0.0222,-0.01794 0.11314,-0.05077 0.20204,-0.07298 0.0889,-0.02222 0.21619,-0.05811 0.28287,-0.07975 0.0667,-0.02162 0.18344,-0.02818 0.25948,-0.01452 0.076,0.01365 0.23969,-0.05938 0.36368,-0.162288 0.124,-0.102908 0.22545,-0.13292 0.22545,-0.0667 0,0.06622 0.1091,0.02986 0.24246,-0.08082 0.13335,-0.110671 0.24246,-0.14704 0.24246,-0.08082 0,0.06622 0.0976,0.03939 0.21692,-0.05963 0.11931,-0.09902 0.26478,-0.132167 0.32328,-0.07367 0.0585,0.05849 0.10596,0.03966 0.10549,-0.04183 -4.7e-4,-0.08149 -1.34965,-1.021026 -2.99816,-2.087842 -1.64851,-1.066822 -3.08498,-2.012412 -3.19215,-2.101312 -0.84017,-0.696964 -0.82258,-0.696964 -0.69072,0 0.0673,0.355607 0.15562,1.010242 0.19631,1.454756 0.14282,1.559824 0.166,1.785887 0.28186,2.747868 0.19117,1.587451 0.2181,1.657321 0.62268,1.615068 0.20137,-0.02102 0.36612,-0.05309 0.36612,-0.07123 z"
       id="path5" /></g></g></svg>
