<?xml version="1.0" encoding="UTF-8" standalone="no"?>
<svg
   version="1.1"
   id="Layer_1"
   x="0px"
   y="0px"
   width="600px"
   height="600px"
   viewBox="0 0 600 600"
   enable-background="new 0 0 600 600"
   xml:space="preserve"
   sodipodi:docname="mongodb.svg"
   inkscape:version="1.3.2 (091e20e, 2023-11-25, custom)"
   xmlns:inkscape="http://www.inkscape.org/namespaces/inkscape"
   xmlns:sodipodi="http://sodipodi.sourceforge.net/DTD/sodipodi-0.dtd"
   xmlns="http://www.w3.org/2000/svg"
   xmlns:svg="http://www.w3.org/2000/svg"><defs
   id="defs1"><pattern
     id="EMFhbasepattern"
     patternUnits="userSpaceOnUse"
     width="6"
     height="6"
     x="0"
     y="0" /></defs><sodipodi:namedview
   id="namedview1"
   pagecolor="#ffffff"
   bordercolor="#000000"
   borderopacity="0.25"
   inkscape:showpageshadow="2"
   inkscape:pageopacity="0.0"
   inkscape:pagecheckerboard="0"
   inkscape:deskcolor="#d1d1d1"
   inkscape:zoom="0.47906484"
   inkscape:cx="217.08961"
   inkscape:cy="510.36932"
   inkscape:window-width="1920"
   inkscape:window-height="1009"
   inkscape:window-x="1073"
   inkscape:window-y="2152"
   inkscape:window-maximized="1"
   inkscape:current-layer="g5" />  
<g
   id="g1"
   transform="matrix(0.39238967,0,0,0.39238967,653.50563,226.04184)"><g
     style="fill:none"
     id="g5"
     transform="matrix(8.5429944,0,0,8.5429944,-1559.151,-471.69565)"><path
       style="fill:#ffffff"
       d="m 75.339396,149.90652 c -2.512862,-0.58942 -4.112338,-2.29461 -4.114836,-4.3868 -0.0011,-0.96055 0.214676,-1.29022 1.738159,-2.65512 1.675308,-1.50092 1.717719,-1.57484 1.149815,-2.00413 -0.32431,-0.24515 -0.668787,-0.44999 -0.765505,-0.45521 -0.291436,-0.0157 -0.887992,-1.52608 -0.713978,-1.80764 0.08902,-0.14403 0.694805,-0.56141 1.346199,-0.92751 0.651394,-0.36611 1.183318,-0.74161 1.182054,-0.83445 -0.0013,-0.0928 -0.519801,-0.46425 -1.152306,-0.82535 -0.652362,-0.37244 -1.361363,-1.10194 -1.638425,-1.6858 -0.63091,-1.32955 -0.625028,-3.84248 0.01214,-5.18521 0.637957,-1.34439 2.657083,-2.63414 4.831752,-3.08635 1.480429,-0.30785 1.932022,-0.2743 3.834534,0.28489 2.562268,0.75311 3.887258,0.80001 4.7875,0.16946 0.646203,-0.45262 0.663003,-0.43868 0.663003,0.55039 0,1.20316 -0.753437,2.00218 -1.887946,2.00218 -0.761147,0 -0.796872,0.0693 -0.796872,1.54654 0,3.49654 -2.455471,5.84741 -6.55984,6.28041 -0.774474,0.0817 -1.181094,0.95866 -0.677844,1.46191 0.151851,0.15186 1.54041,0.40648 3.085685,0.56584 3.779265,0.38974 4.863264,0.72932 5.770737,1.80779 1.739923,2.06778 0.61475,5.69249 -2.383532,7.67847 -2.489109,1.64872 -5.005675,2.14015 -7.710491,1.50569 z m 5.899119,-2.16593 c 1.862413,-0.77817 2.800327,-2.82803 1.988243,-4.34543 -0.474601,-0.8868 -2.498529,-1.50782 -4.914017,-1.50782 -1.926726,0 -2.3227,0.0961 -3.10432,0.75384 -1.812352,1.525 -1.398949,3.73252 0.913329,4.87707 1.484329,0.73473 3.66379,0.82943 5.116765,0.22234 z m -2.052678,-12.71256 c 1.84344,-0.70087 2.221479,-4.87401 0.595294,-6.57138 -0.646481,-0.67478 -1.118659,-0.88834 -1.964125,-0.88834 -1.527329,0 -2.006961,0.23161 -2.515281,1.21459 -1.045462,2.0217 -0.202736,5.09261 1.651755,6.01904 1.222846,0.61088 1.220835,0.61067 2.232357,0.22609 z m -39.227986,6.28584 c -1.592351,-0.31102 -3.483783,-1.49677 -4.284575,-2.68603 -1.087811,-1.61551 -1.452651,-3.12767 -1.331839,-5.5201 0.14912,-2.95301 1.180882,-4.64429 3.67299,-6.02083 4.123065,-2.27741 8.444597,-1.32523 10.454233,2.30343 0.780653,1.40957 0.89086,1.9038 0.89086,3.99507 0,1.9929 -0.128458,2.63251 -0.778858,3.87807 -1.533669,2.93708 -5.289713,4.7014 -8.622811,4.05039 z m 4.831417,-2.62435 c 1.448426,-1.44921 1.730895,-5.85967 0.524941,-8.19641 -1.408992,-2.73016 -4.331931,-3.74424 -6.217968,-2.15724 -2.272221,1.91195 -1.916039,7.81782 0.613804,10.17753 1.611791,1.50339 3.680968,1.57514 5.079223,0.17612 z m 49.168058,2.61841 c -3.004351,-0.6066 -4.899591,-2.57132 -5.556808,-5.76052 -1.024267,-4.97035 1.860709,-8.95981 6.969351,-9.6375 2.859372,-0.37931 5.756861,1.07146 7.146711,3.57836 1.79949,3.24576 0.76591,8.31572 -2.09345,10.2689 -1.948837,1.33122 -4.510349,1.94558 -6.465804,1.55076 z m 4.542237,-2.31569 c 1.067609,-0.96617 1.506907,-2.22004 1.494105,-4.26456 -0.01564,-2.49805 -0.47884,-4.20551 -1.455869,-5.36664 -2.153115,-2.55884 -5.3837,-2.31977 -6.555658,0.48512 -0.226226,0.54144 -0.410008,1.89487 -0.408405,3.00762 0.0044,3.06918 1.443127,5.73347 3.576995,6.62411 0.989619,0.41306 2.616471,0.17713 3.348832,-0.48565 z m -46.383667,1.73564 c -0.173516,-0.66353 0.273122,-1.22705 0.972538,-1.22705 1.058268,0 1.193252,-0.61461 1.193252,-5.43317 v -4.71723 l -1.342409,-0.65219 c -0.738325,-0.35871 -1.342409,-0.74325 -1.342409,-0.85454 0,-0.42522 0.822589,-0.78192 2.983131,-1.2936 1.230542,-0.29142 2.405149,-0.59546 2.61024,-0.67563 0.261687,-0.10229 0.372891,0.22203 0.372891,1.08753 v 1.2333 l 0.985575,-0.75174 c 3.176428,-2.42278 6.419185,-2.13346 8.096845,0.72239 0.530419,0.90292 0.632797,1.70447 0.761912,5.96525 l 0.149156,4.92216 1.133073,0.27987 c 0.982544,0.24268 1.121252,0.38139 1.044096,1.04409 l -0.08898,0.76423 H 65.915893 62.18698 v -0.72682 c 0,-0.56959 0.209728,-0.78116 0.969517,-0.97804 l 0.969518,-0.25123 -0.0011,-4.24243 c -9.7e-4,-3.69115 -0.0773,-4.36738 -0.587373,-5.20395 -0.322442,-0.52883 -0.934132,-1.04882 -1.359312,-1.15553 -1.243109,-0.312 -3.124753,0.0752 -3.898627,0.80218 -0.686985,0.64539 -0.715009,0.82742 -0.681166,4.42458 0.04771,5.07077 0.158548,5.51673 1.400859,5.63618 0.875093,0.0841 0.975671,0.18486 0.893635,0.89494 l -0.09244,0.80012 -3.766441,0.0832 c -3.517027,0.0777 -3.776486,0.0448 -3.918141,-0.49689 z m 55.021034,-0.0779 c 0.0962,-0.64679 0.31978,-0.82077 1.81063,-1.40919 l 0.82036,-0.32378 0.0746,-5.30146 c 0.12676,-9.01067 0.0354,-12.26732 -0.35741,-12.74062 -0.19942,-0.24029 -0.95569,-0.52583 -1.6806,-0.63453 -1.36673,-0.20496 -1.5165,-0.39488 -1.02928,-1.30526 0.26747,-0.49977 0.8112,-0.53533 7.38325,-0.48284 6.46998,0.0517 7.2512,0.11404 8.87443,0.70841 4.54331,1.66358 6.93046,5.62547 6.66583,11.06311 -0.20861,4.28667 -2.05984,7.35979 -5.55602,9.22324 -2.95612,1.57559 -4.58122,1.84366 -11.17676,1.84366 -5.891,0 -5.9238,-0.004 -5.82901,-0.64074 z m 13.18714,-1.57146 c 2.10013,-0.63204 3.3042,-1.71438 4.41313,-3.96693 0.89256,-1.81306 0.98477,-2.25162 0.98748,-4.69695 0.002,-1.48344 -0.18424,-3.3419 -0.41309,-4.12992 -0.49124,-1.6916 -2.56725,-4.14404 -4.22301,-4.98875 -1.54806,-0.78976 -4.93119,-1.31626 -6.24934,-0.97256 l -1.04409,0.27225 -0.0791,8.51903 c -0.0725,7.81012 -0.0347,8.57388 0.45464,9.17817 0.92681,1.14456 3.75921,1.5062 6.15337,0.78566 z m 11.68756,1.94526 c -0.3758,-0.60806 0.41248,-1.52294 1.31222,-1.52294 1.81111,0 1.81734,-0.0358 1.73044,-9.94255 l -0.0789,-8.99632 -1.49157,-0.32893 c -1.4598,-0.32192 -1.73925,-0.71699 -1.02449,-1.44834 0.37488,-0.38358 9.88738,-0.51603 11.8517,-0.16502 3.37407,0.60292 4.84842,1.9468 5.07023,4.62155 0.15484,1.86715 -0.38011,3.05664 -1.89395,4.2113 l -1.06196,0.80999 1.58369,0.85119 c 4.88767,2.62696 4.08222,8.64119 -1.50345,11.22621 -1.61869,0.74912 -1.93714,0.78461 -7.99184,0.89071 -4.24873,0.0745 -6.36996,0.007 -6.50211,-0.20685 z m 12.86288,-2.10267 c 1.55019,-0.70381 2.29479,-2.01602 2.29479,-4.04412 0,-1.87123 -0.67656,-3.17761 -2.10183,-4.05847 -0.87904,-0.54328 -1.66317,-0.71197 -3.77993,-0.81317 l -2.6708,-0.12769 0.15552,4.07555 c 0.19587,5.13317 0.37793,5.40671 3.66095,5.50046 0.65629,0.0187 1.75487,-0.22092 2.4413,-0.53256 z m -0.17292,-11.82999 c 0.75439,-0.72275 0.8639,-1.0424 0.8639,-2.52151 0,-2.79453 -1.60088,-4.16081 -4.87529,-4.16081 -1.56793,0 -1.61823,0.0261 -1.79946,0.93223 -0.26153,1.30764 -0.23313,6.37772 0.0373,6.65832 0.12305,0.12769 1.27806,0.1618 2.56669,0.0758 2.04155,-0.13624 2.45409,-0.26283 3.20687,-0.98403 z M 4.761715,140.40146 c 0,-0.39828 0.267458,-0.65483 0.820361,-0.78691 1.54088,-0.3681 1.566143,-0.45736 1.566143,-5.53375 v -4.75035 l -0.917275,-0.50818 c -1.458366,-0.80794 -1.930006,-1.19093 -1.722331,-1.3986 0.106386,-0.10639 1.415024,-0.4939 2.908083,-0.86113 l 2.714654,-0.66771 v 0.9859 c 0,1.17152 0.247935,1.21271 1.721228,0.28592 0.612011,-0.385 1.633363,-0.87093 2.269672,-1.07986 1.507967,-0.49513 3.227773,-0.0104 4.359589,1.22879 l 0.816242,0.89367 1.457475,-0.88158 c 2.867535,-1.73448 4.857387,-1.91572 6.536011,-0.59532 1.562706,1.22923 1.918016,2.60452 1.925269,7.45213 0.0069,4.59272 0.201529,5.30959 1.444847,5.32093 0.801126,0.007 1.282401,0.44976 1.075553,0.9888 -0.164356,0.4283 -0.709838,0.4982 -3.888174,0.4982 -3.375895,0 -3.696997,-0.0471 -3.696997,-0.54279 0,-0.32597 0.387279,-0.71325 0.969518,-0.96952 l 0.969517,-0.42673 0.08916,-3.57975 c 0.107425,-4.31309 -0.05809,-5.36569 -0.99031,-6.29791 -0.925435,-0.92543 -3.125959,-0.98312 -4.543064,-0.1191 l -0.969517,0.59113 v 4.16135 c 0,4.82183 0.180535,5.53396 1.46823,5.79149 0.662715,0.13255 0.918274,0.35178 0.918274,0.78774 0,0.54781 -0.190462,0.60409 -2.044431,0.60409 -5.062903,0 -7.29653,-0.74351 -4.497706,-1.49716 l 1.214002,-0.32689 -0.09533,-4.63197 -0.09533,-4.63197 -0.974223,-0.86974 c -1.180786,-1.05414 -2.164736,-1.10348 -3.959311,-0.19853 l -1.33104,0.6712 -0.08253,4.5837 c -0.05191,2.8828 0.0336,4.72364 0.230425,4.9608 0.172127,0.2074 0.712671,0.45703 1.201208,0.55474 0.634543,0.12691 0.888249,0.35019 0.888249,0.78173 0,0.57559 -0.182916,0.60409 -3.8780702,0.60409 -3.666762,0 -3.87807,-0.0322 -3.8780708,-0.59095 z m 74.145176,-22.25625 c -0.648383,-0.23742 -1.283971,-0.59713 -1.41242,-0.79934 -0.128448,-0.20222 -0.236389,-1.30735 -0.239868,-2.45586 -0.0071,-2.34644 -0.678372,-7.12817 -1.259838,-8.97443 -0.307797,-0.97731 -1.003279,-1.75145 -3.515981,-3.91362 C 63.789652,94.525001 57.25114,84.455611 54.161095,73.792521 c -1.387442,-4.78777 -1.764462,-7.7034 -1.783459,-13.79211 -0.02693,-8.63109 1.128679,-15.05741 4.184226,-23.26842 3.461018,-9.30061 8.189353,-16.58301 15.785703,-24.31252 3.614361,-3.6777199 4.302341,-4.5265899 4.593694,-5.6679499 0.18847,-0.73832 0.373698,-1.45718 0.411617,-1.59745 0.03792,-0.14027 0.802573,1.18795 1.699231,2.95161 1.349573,2.6544999 2.169625,3.7944999 4.762574,6.6206899 6.503557,7.08858 9.52792,11.36319 12.825538,18.12755 4.300561,8.82168 6.412391,16.73714 6.765071,25.35661 0.23163,5.66082 -0.24246,10.43066 -1.54181,15.51228 -2.498847,9.7727 -6.683785,17.35122 -13.384595,24.2382 -1.955696,2.01004 -4.210107,4.153579 -5.009802,4.763439 -0.818053,0.62385 -1.702683,1.63491 -2.022593,2.31165 -0.778104,1.64602 -1.310411,7.03707 -1.053966,10.67427 0.112789,1.59971 0.08991,2.8991 -0.05084,2.88754 -0.140752,-0.0116 -0.786408,-0.21528 -1.43479,-0.4527 z"
       id="path5" /></g></g></svg>
