<?xml version="1.0" encoding="UTF-8" standalone="no"?>
<svg
   version="1.1"
   id="Layer_1"
   x="0px"
   y="0px"
   width="600px"
   height="600px"
   viewBox="0 0 600 600"
   enable-background="new 0 0 600 600"
   xml:space="preserve"
   sodipodi:docname="nginx.svg"
   inkscape:version="1.3.2 (091e20e, 2023-11-25, custom)"
   xmlns:inkscape="http://www.inkscape.org/namespaces/inkscape"
   xmlns:sodipodi="http://sodipodi.sourceforge.net/DTD/sodipodi-0.dtd"
   xmlns="http://www.w3.org/2000/svg"
   xmlns:svg="http://www.w3.org/2000/svg"><defs
   id="defs1" /><sodipodi:namedview
   id="namedview1"
   pagecolor="#ffffff"
   bordercolor="#000000"
   borderopacity="0.25"
   inkscape:showpageshadow="2"
   inkscape:pageopacity="0.0"
   inkscape:pagecheckerboard="0"
   inkscape:deskcolor="#d1d1d1"
   inkscape:zoom="0.47906484"
   inkscape:cx="217.08961"
   inkscape:cy="510.36932"
   inkscape:window-width="1920"
   inkscape:window-height="1009"
   inkscape:window-x="1073"
   inkscape:window-y="2152"
   inkscape:window-maximized="1"
   inkscape:current-layer="g5" />  
<g
   id="g1"
   transform="matrix(0.39238967,0,0,0.39238967,653.50563,226.04184)"><g
     style="fill:none"
     id="g5"
     transform="matrix(8.5429944,0,0,8.5429944,-1559.151,-471.69565)"><path
       style="fill:#ffffff;stroke-width:0.138631"
       d="m 76.489678,160.36337 c -0.380879,-0.0865 -0.773771,-0.22142 -1.058896,-0.36347 -0.284921,-0.14195 -4.471663,-2.53718 -10.194163,-5.83207 -4.585652,-2.64032 -6.321122,-3.64249 -15.591072,-9.00347 -14.169595,-8.19453 -18.835962,-10.8821 -27.646236,-15.92279 -1.046297,-0.59862 -3.986683,-2.29745 -6.53419,-3.77517 -2.547506,-1.47772 -5.5902473,-3.23606 -6.7616449,-3.90743 -1.1714007,-0.67138 -2.2414754,-1.29545 -2.3779494,-1.38683 -0.136474,-0.0914 -0.3986422,-0.31649 -0.582595,-0.50026 -0.5006619,-0.50014 -0.769395,-1.01128 -0.903573,-1.71861 -0.058379,-0.30773 -0.064668,-4.24551 -0.064668,-40.466557 0,-35.711752 0.00693,-40.165296 0.062844,-40.486032 C 5.0052221,36.039093 5.5414746,35.234275 6.3812366,34.683876 6.532561,34.584698 10.108531,32.51342 14.327841,30.081041 36.766101,17.145677 42.083988,14.079467 45.385919,12.173468 55.607735,6.2730454 65.202848,0.72128536 71.812167,-3.1168501 c 1.990236,-1.1557584 3.75014,-2.1624679 3.910886,-2.2371254 0.895605,-0.4159757 1.949449,-0.4576234 2.758038,-0.1089925 0.253867,0.1094569 69.076299,39.816387 69.409539,40.045654 0.75902,0.522225 1.2803,1.261029 1.51499,2.147204 l 0.0931,0.351529 V 77.403157 117.7249 l -0.0933,0.35152 c -0.22957,0.86501 -0.72125,1.57981 -1.43686,2.08891 -0.13647,0.0971 -13.57292,7.881 -29.85877,17.29759 -16.28584,9.41658 -29.899083,17.29308 -30.25164,17.50332 -2.768675,1.651 -8.286188,4.78658 -8.961579,5.09283 -0.531086,0.2408 -0.936065,0.33105 -1.563431,0.3484 -0.408984,0.0114 -0.656629,-0.002 -0.843462,-0.0441 z m 32.976782,-41.76631 c 2.03305,-0.2401 3.7291,-0.83304 5.20819,-1.82079 2.23529,-1.49275 3.4513,-3.38517 3.8548,-5.99912 0.0741,-0.48002 0.0766,-1.58936 0.0766,-33.890942 V 43.491533 l -0.17231,-0.644035 c -0.48971,-1.830444 -1.33925,-3.287012 -2.66484,-4.569007 -1.31252,-1.269346 -2.92183,-2.078869 -4.75919,-2.393983 -1.48835,-0.255261 -3.49809,-0.103611 -4.97577,0.375443 -2.3114,0.749355 -4.2597,2.491309 -5.26512,4.70753 -0.37809,0.833413 -0.60503,1.611437 -0.784468,2.689479 -0.06348,0.381344 -0.07054,2.272148 -0.09062,24.271953 l -0.0218,23.858399 -0.145737,-0.1823 C 99.646053,91.504744 99.525352,91.348271 99.457982,91.257291 99.016904,90.66161 92.954355,83.35732 88.14787,77.63061 81.093417,69.225547 79.623654,67.468157 75.367908,62.349703 73.94952,60.643781 70.433024,56.428613 67.553474,52.982657 64.673929,49.536695 61.411933,45.62602 60.304603,44.292264 c -1.107331,-1.333755 -2.260457,-2.690977 -2.562499,-3.016048 -1.824296,-1.963393 -3.86008,-3.420803 -5.90472,-4.227169 -0.985508,-0.388656 -2.726749,-0.882571 -3.816129,-1.082469 -1.163412,-0.213471 -1.545269,-0.246605 -2.842126,-0.246586 -1.339625,1.8e-5 -1.86734,0.05536 -2.915573,0.305701 -4.044873,0.96604 -6.881398,3.704468 -7.6262,7.362452 -0.200411,0.984294 -0.190014,-0.886002 -0.190014,34.180433 0,26.669692 0.01012,32.993672 0.05341,33.311962 0.225669,1.65992 0.663372,2.70544 1.722668,4.11488 1.71832,2.2863 4.188818,3.53072 7.239448,3.64661 3.599237,0.13671 6.923989,-1.85668 8.617509,-5.16672 0.493135,-0.96384 0.7499,-1.76606 1.005335,-3.14092 0.03635,-0.19575 0.05424,-6.13003 0.07204,-23.935393 l 0.02372,-23.675108 0.116311,0.123073 c 0.06396,0.06769 0.148727,0.188839 0.188362,0.269224 0.03963,0.08037 3.309991,4.025705 7.26746,8.767391 3.957468,4.741691 8.738473,10.472947 10.624454,12.736135 1.885987,2.263187 6.287246,7.529829 9.780583,11.703645 3.493338,4.173823 7.428862,8.882163 8.745613,10.462973 1.316746,1.58082 2.546233,3.05101 2.732199,3.2671 0.185959,0.21608 0.734562,0.88604 1.219121,1.4888 1.076358,1.33892 1.495021,1.8173 2.156041,2.46353 2.757511,2.69582 6.443134,4.33391 10.458334,4.64822 0.63109,0.0494 2.37707,0.0162 2.99653,-0.0569 z"
       id="path5" /></g></g></svg>
