<?xml version="1.0" encoding="UTF-8" standalone="no"?>
<svg
   version="1.1"
   id="Layer_1"
   x="0px"
   y="0px"
   width="600px"
   height="600px"
   viewBox="0 0 600 600"
   enable-background="new 0 0 600 600"
   xml:space="preserve"
   sodipodi:docname="nodered.svg"
   inkscape:version="1.3.2 (091e20e, 2023-11-25, custom)"
   xmlns:inkscape="http://www.inkscape.org/namespaces/inkscape"
   xmlns:sodipodi="http://sodipodi.sourceforge.net/DTD/sodipodi-0.dtd"
   xmlns="http://www.w3.org/2000/svg"
   xmlns:svg="http://www.w3.org/2000/svg"><defs
   id="defs1" /><sodipodi:namedview
   id="namedview1"
   pagecolor="#ffffff"
   bordercolor="#000000"
   borderopacity="0.25"
   inkscape:showpageshadow="2"
   inkscape:pageopacity="0.0"
   inkscape:pagecheckerboard="0"
   inkscape:deskcolor="#d1d1d1"
   inkscape:zoom="0.95812968"
   inkscape:cx="377.81942"
   inkscape:cy="643.44108"
   inkscape:window-width="3840"
   inkscape:window-height="2066"
   inkscape:window-x="-11"
   inkscape:window-y="-11"
   inkscape:window-maximized="1"
   inkscape:current-layer="g5" />  
<g
   id="g1"
   transform="matrix(0.39238967,0,0,0.39238967,653.50563,226.04184)"><g
     style="fill:none"
     id="g5"
     transform="matrix(8.5429944,0,0,8.5429944,-1559.151,-471.69565)"><path
       style="fill:#ffffff"
       d="m 124.43849,118.91272 c -2.97819,-1.07168 -5.49815,-3.46041 -6.77508,-6.42227 -0.30156,-0.69947 -0.57979,-2.33512 -0.67237,-3.95265 l -0.15794,-2.75939 h -2.57142 c -3.19281,0 -9.30607,-0.7002 -12.8321,-1.46977 -8.761754,-1.91228 -14.733494,-5.101746 -23.153154,-12.365946 -7.24783,-6.25319 -11.04217,-8.6441 -17.00115,-10.71285 -5.09702,-1.76951 -12.50001,-2.96003 -20.47684,-3.29301 l -3.1784,-0.13268 -0.10304,3.92637 c -0.0978,3.72554 -0.15263,4.02705 -1.07253,5.89467 -1.14946,2.33365 -3.02264,4.1672 -5.39199,5.27791 l -1.69297,0.79363 -9.32228,0.0903 -9.32229,0.0903 v -3.59547 -3.59546 h 8.28284 c 11.7878,0 11.40645,0.30907 11.40471,-9.24305 -0.002,-9.2988 0.44009,-8.95405 -11.47436,-8.95405 h -8.21319 v -3.74461 -3.74462 l 9.32229,0.0903 9.32228,0.0903 1.78988,0.83513 c 3.38965,1.58156 5.89442,4.96687 6.3174,8.53824 0.17397,1.46894 0.18538,1.48263 1.10558,1.32688 4.12876,-0.69881 7.69657,-2.63051 9.79379,-5.30258 0.7125,-0.90779 2.36559,-3.54235 3.67355,-5.85456 3.84064,-6.78953 6.52244,-9.73012 10.74293,-11.77963 2.20738,-1.07192 5.89916,-2.05216 8.97662,-2.38345 l 1.82917,-0.19691 0.12579,-2.58505 c 0.21792,-4.47862 2.32128,-7.77699 6.16652,-9.67 l 1.96933,-0.9695 h 24.772534 24.77253 l 1.96933,0.9695 c 2.33473,1.14939 4.16779,3.0217 5.27894,5.39199 l 0.79364,1.69297 v 8.20361 8.20361 l -0.92077,1.93903 c -1.11367,2.34529 -3.2043,4.48397 -5.47178,5.59755 l -1.66191,0.81618 H 106.6226 81.862606 l -1.71172,-0.84033 c -2.28041,-1.11952 -4.30132,-3.19944 -5.40941,-5.56738 -0.73453,-1.56965 -0.92896,-2.42826 -1.03041,-4.55013 l -0.12505,-2.6154 h -0.8322 c -1.58345,0 -5.42184,0.87984 -6.95366,1.59393 -3.60241,1.67933 -5.22533,3.51701 -8.87356,10.04777 -1.20624,2.15932 -3.07583,5.02615 -4.15463,6.37074 l -1.96146,2.44469 4.041,0.78789 c 5.33058,1.03933 9.80361,2.52443 14.18364,4.70913 4.30715,2.14836 7.27412,4.24701 13.34594,9.4401 5.3872,4.60755 7.59681,6.19993 10.82739,7.80289 5.41891,2.68878 10.776714,3.85784 20.163694,4.39967 l 3.46814,0.200186 0.13196,-2.792846 c 0.1125,-2.38085 0.26789,-3.05851 1.05331,-4.59366 1.11373,-2.17684 3.11663,-4.09155 5.39946,-5.1617 l 1.69297,-0.79363 9.62059,-0.0899 9.6206,-0.0899 v 3.59506 3.59507 h -8.51674 c -9.41831,0 -9.77787,0.0621 -10.88569,1.87894 -0.5269,0.86415 -0.58242,1.53079 -0.58343,7.005446 -0.002,9.48915 -0.60501,9.01439 11.45444,9.01439 h 8.53142 v 3.87807 3.87807 l -9.17313,-0.0108 c -8.24254,-0.01 -9.33285,-0.0682 -10.74758,-0.57733 z m 5.75728,-61.036606 c 1.7353,-0.82345 1.9326,-1.68904 1.9326,-8.47887 0,-4.869 -0.0903,-6.21553 -0.47053,-7.0168 -0.95213,-2.00647 0.004,-1.93259 -25.01533,-1.93259 -24.860514,0 -24.058124,-0.0588 -25.219724,1.8465 -0.55216,0.90565 -0.60204,1.4942 -0.60204,7.10289 0,5.60648 0.05,6.1975 0.60138,7.1018 1.1502,1.88655 0.28051,1.82308 25.155384,1.83591 20.00333,0.0103 22.74168,-0.0429 23.61826,-0.45884 z"
       id="path1" /></g></g></svg>
