<?xml version="1.0" encoding="UTF-8" standalone="no"?>
<svg
   version="1.1"
   id="Layer_1"
   x="0px"
   y="0px"
   width="600px"
   height="600px"
   viewBox="0 0 600 600"
   enable-background="new 0 0 600 600"
   xml:space="preserve"
   sodipodi:docname="openapi.svg"
   inkscape:version="1.3.2 (091e20e, 2023-11-25, custom)"
   xmlns:inkscape="http://www.inkscape.org/namespaces/inkscape"
   xmlns:sodipodi="http://sodipodi.sourceforge.net/DTD/sodipodi-0.dtd"
   xmlns="http://www.w3.org/2000/svg"
   xmlns:svg="http://www.w3.org/2000/svg"><defs
   id="defs1" /><sodipodi:namedview
   id="namedview1"
   pagecolor="#ffffff"
   bordercolor="#000000"
   borderopacity="0.25"
   inkscape:showpageshadow="2"
   inkscape:pageopacity="0.0"
   inkscape:pagecheckerboard="0"
   inkscape:deskcolor="#d1d1d1"
   inkscape:zoom="0.6775"
   inkscape:cx="769.7417"
   inkscape:cy="647.23247"
   inkscape:window-width="2560"
   inkscape:window-height="1369"
   inkscape:window-x="-8"
   inkscape:window-y="-8"
   inkscape:window-maximized="1"
   inkscape:current-layer="g1" />  
<g
   id="g1"
   transform="matrix(0.39238967,0,0,0.39238967,653.50563,226.04184)"><path
     style="fill:#ffffff;stroke-width:1.458"
     d="m -1020.2588,744.16742 c -44.852,-5.62891 -125.517,-27.31099 -130.2804,-35.01828 -1.3119,-2.12299 22.3625,-63.98907 52.6099,-137.48022 44.4485,-107.9949 56.1008,-133.14908 60.7595,-131.1624 44.02301,18.77337 108.6166,15.43265 158.40252,-8.19222 9.03235,-4.28624 14.3429,-5.03799 16.97748,-2.40338 9.30557,9.30556 147.47813,244.13201 145.51601,247.30682 -3.39106,5.48689 -66.63927,34.43873 -98.51794,45.09672 -57.15866,19.10958 -149.26658,28.9059 -205.46707,21.85296 z m -187.6427,-61.06636 c -29.7533,-16.1965 -70.8683,-45.30623 -84.4282,-59.77602 l -8.2565,-8.81012 103.3868,-103.33732 103.3868,-103.33732 15.2707,10.57372 c 8.3988,5.81539 15.334,11.77773 15.4116,13.24945 0.3947,7.4899 -109.2157,266.70464 -112.7586,266.66002 -2.2798,-0.0291 -16.6854,-6.87884 -32.0126,-15.22241 z m 507.68285,-26.27829 c -3.06935,-4.73501 -37.36254,-61.27908 -76.2071,-125.65349 -45.46935,-75.35331 -69.35034,-118.33038 -67.04383,-120.65474 3.88729,-3.91706 207.78558,197.09222 207.78558,204.84165 0,3.49745 -23.8526,23.9605 -54.55797,46.80491 -2.88845,2.14895 -6.30988,0.31828 -9.97668,-5.33833 z m -634.65665,-74.94711 c -20.3061,-23.15714 -51.3797,-66.81511 -51.3797,-72.18785 0,-2.04863 52.2519,-35.14775 116.1155,-73.55355 63.8636,-38.40595 119.5417,-72.0002 123.7291,-74.65391 6.9597,-4.4106 8.7941,-3.24347 21.3652,13.59514 7.5635,10.13092 13.7519,19.7288 13.7519,21.32852 0,3.13572 -201.3444,205.39451 -204.3884,205.31666 -1.008,-0.0262 -9.6452,-8.95607 -19.1936,-19.84501 z m 612.86449,-83.00097 -103.04743,-103.32843 13.31203,-16.72064 c 24.29309,-30.5135 38.90751,-65.84934 44.19964,-106.8692 l 2.52224,-19.55019 145.46943,0.97176 145.4694,0.97176 -1.22429,27.86765 c -4.65551,105.9696 -52.35334,221.63111 -122.61115,297.31729 l -21.04242,22.66828 z m -693.30779,-41.46206 c -19.0786,-41.06301 -32.1045,-85.75733 -39.4907,-135.50172 -3.1679,-21.33406 -5.7597,-40.68393 -5.7597,-42.99967 0,-3.08236 39.5434,-3.95017 147.5969,-3.23895 l 147.597,0.97161 2.627,14.86287 c 1.4449,8.17443 5.2708,22.22986 8.5021,31.23404 3.2311,9.00433 5.4391,16.67269 4.9064,17.04083 -4.5246,3.12742 -236.911,142.84086 -242.9378,146.05706 -7.3759,3.93631 -8.8497,2.11804 -23.0412,-28.42607 z m 409.1276,-72.61373 c -38.5221,-12.5722 -68.7758,-39.34549 -86.0216,-76.12562 -8.472,-18.06814 -9.7736,-25.63925 -9.6581,-56.18147 0.1181,-31.13416 1.3941,-37.90221 10.8181,-57.36201 14.0924,-29.09996 37.6358,-52.02368 68.0441,-66.25348 21.342,-9.98702 28.86701,-11.57288 54.62345,-11.51165 18.3854,0.0438 36.30104,2.4318 46.59227,6.2105 l 16.72064,6.1395 149.32333,-149.226599 149.32334,-149.226621 -5.59,-13.25556 c -9.1406,-21.67524 -10.66648,-58.77059 -3.45725,-84.04796 23.70983,-83.13234 111.85634,-124.10976 189.15846,-87.93573 30.62268,14.33012 52.12313,35.9307 66.82007,67.1315 10.16374,21.57682 11.65003,28.72307 11.70907,56.29738 0.0569,26.73202 -1.4927,34.91432 -10.09098,53.26794 -20.03469,42.76523 -47.12774,66.49874 -89.97112,78.814618 -25.26726,7.263327 -62.30477,5.761735 -84.04791,-3.407498 l -13.25562,-5.58997 -149.22662,149.323418 -149.22661,149.323262 6.12689,16.72065 c 3.65392,9.97186 6.24637,28.79641 6.4229,46.63899 0.27135,27.42414 -0.87425,32.28613 -13.74162,58.32153 -15.67398,31.71416 -33.34186,49.27083 -65.33466,64.92335 -24.34314,11.90998 -70.68637,15.29254 -96.06053,7.01153 z m -453.0848,-163.39255 c 8.5365,-111.0586 53.5586,-219.0562772 122.5782,-294.038086 l 20.5215,-22.294165 102.4414,102.1563428 c 56.3427,56.1859862 102.4414,103.0366782 102.4414,104.1126782 0,1.07601 -7.4829,11.95576 -16.6287,24.17731 -19.4396,25.9775 -33.8787,62.27591 -37.4981,94.2668 l -2.5687,22.70458 h -146.8382 -146.8384 z m 691.89843,7.86241 c -0.77587,-2.55456 -3.33409,-12.89879 -5.68492,-22.98714 l -4.27424,-18.34253 107.89421,-107.894296 C -566.93458,-22.46293 -561.27448,-27.483264 -556.0668,-20.51489 c 12.21159,16.3399708 46.80385,87.226253 56.0922,114.943744 12.14944,36.255386 24.06561,96.187706 24.06561,121.037736 v 18.44679 h -145.02884 c -112.79359,0 -145.34239,-1.03227 -146.43954,-4.64462 z M -1198.1148,-7.1092952 -1301.6071,-110.65117 l 22.9937,-18.60512 c 23.5614,-19.0644 39.9832,-29.43064 42.2569,-26.67458 5.5911,6.77738 147.3573,246.245964 147.3573,248.912944 0,1.89774 -1.2653,3.45051 -2.8117,3.45051 -1.5464,0 -49.3831,-46.593791 -106.3039,-103.5418792 z m 54.9196,-32.6542808 c -40.1851,-66.434424 -73.2736,-123.468974 -73.5297,-126.743494 -0.3084,-3.94025 10.1831,-11.31279 31.0223,-21.80005 58.3899,-29.38441 127.6031,-47.60258 191.45371,-50.39392 l 26.00989,-1.1371 0.97134,145.06023 0.97134,145.060075 -31.21137,5.892374 c -17.16621,3.240839 -40.52911,10.158185 -51.91741,15.371995 l -20.7061,9.47963 z m 215.82888,97.470181 -18.57849,-4.402001 -0.97205,-145.642403 -0.97205,-145.642551 h 18.48986 c 24.88842,0 84.80141,11.90822 121.0809,24.06562 27.71056,9.28601 98.60324,43.88002 114.93456,56.08554 6.95605,5.19865 1.90208,10.90002 -100.29982,113.147483 -59.19374,59.22009 -109.30785,107.474406 -111.3647,107.231646 -2.05684,-0.242906 -12.10004,-2.422322 -22.31821,-4.843334 z"
     id="path1" /></g></svg>
