<?xml version="1.0" encoding="UTF-8" standalone="no"?>
<svg
   version="1.1"
   id="Layer_1"
   x="0px"
   y="0px"
   width="600px"
   height="600px"
   viewBox="0 0 600 600"
   enable-background="new 0 0 600 600"
   xml:space="preserve"
   sodipodi:docname="postman.svg"
   inkscape:version="1.3.2 (091e20e, 2023-11-25, custom)"
   xmlns:inkscape="http://www.inkscape.org/namespaces/inkscape"
   xmlns:sodipodi="http://sodipodi.sourceforge.net/DTD/sodipodi-0.dtd"
   xmlns="http://www.w3.org/2000/svg"
   xmlns:svg="http://www.w3.org/2000/svg"><defs
   id="defs1"><pattern
     id="EMFhbasepattern"
     patternUnits="userSpaceOnUse"
     width="6"
     height="6"
     x="0"
     y="0" /></defs><sodipodi:namedview
   id="namedview1"
   pagecolor="#ffffff"
   bordercolor="#000000"
   borderopacity="0.25"
   inkscape:showpageshadow="2"
   inkscape:pageopacity="0.0"
   inkscape:pagecheckerboard="0"
   inkscape:deskcolor="#d1d1d1"
   inkscape:zoom="0.47906484"
   inkscape:cx="216.04591"
   inkscape:cy="510.36933"
   inkscape:window-width="2560"
   inkscape:window-height="1369"
   inkscape:window-x="-8"
   inkscape:window-y="-8"
   inkscape:window-maximized="1"
   inkscape:current-layer="g5"
   showgrid="false" />  
<g
   id="g1"
   transform="matrix(0.39238967,0,0,0.39238967,653.50563,226.04184)"><g
     style="fill:none"
     id="g5"
     transform="matrix(8.5429944,0,0,8.5429944,-1559.151,-471.69565)"><g
       id="g2"
       transform="matrix(0.50819999,0,0,0.50819999,-41.147276,-54.481406)"
       style="fill:#ffffff"><path
         style="fill:#ffffff;fill-opacity:1"
         d="m 227.36487,394.23492 c 0.29025,-0.0756 0.69297,-0.0707 0.89494,0.0111 0.20197,0.0817 -0.0355,0.14359 -0.52772,0.13751 -0.49222,-0.006 -0.65747,-0.0729 -0.36722,-0.14857 z m 13.1201,0.001 c 0.28713,-0.075 0.75697,-0.075 1.0441,0 0.28712,0.075 0.0522,0.13643 -0.52205,0.13643 -0.57425,0 -0.80918,-0.0614 -0.52205,-0.13643 z m -25.78544,-1.19139 c 0.21535,-0.0862 0.47264,-0.0756 0.57177,0.0236 0.0991,0.0991 -0.0771,0.16963 -0.39154,0.15668 -0.34752,-0.0143 -0.4182,-0.085 -0.18023,-0.18023 z m 38.7807,0 c 0.21535,-0.0862 0.47264,-0.0756 0.57177,0.0236 0.0991,0.0991 -0.0771,0.16963 -0.39153,0.15668 -0.34752,-0.0143 -0.41821,-0.085 -0.18024,-0.18023 z m -110.19909,-33.87849 -0.56829,-0.67121 0.67121,0.56828 c 0.63076,0.53405 0.80701,0.77413 0.56828,0.77413 -0.0566,0 -0.35865,-0.30204 -0.6712,-0.6712 z m 181.4027,0.0746 c 0.29697,-0.32814 0.60706,-0.59662 0.6891,-0.59662 0.082,0 -0.0938,0.26848 -0.39079,0.59662 -0.29696,0.32815 -0.60706,0.59663 -0.68909,0.59663 -0.082,0 0.0938,-0.26848 0.39078,-0.59663 z m -189.45716,-8.12903 -0.56828,-0.6712 0.6712,0.56828 c 0.63077,0.53405 0.80701,0.77413 0.56829,0.77413 -0.0566,0 -0.35865,-0.30205 -0.67121,-0.67121 z m 197.51162,0.0746 c 0.29696,-0.32814 0.60705,-0.59663 0.68909,-0.59663 0.082,0 -0.0938,0.26849 -0.39078,0.59663 -0.29697,0.32815 -0.60706,0.59663 -0.6891,0.59663 -0.082,0 0.0938,-0.26848 0.39079,-0.59663 z m -200.19644,-3.05771 -0.56828,-0.6712 0.67121,0.56828 c 0.63076,0.53405 0.807,0.77413 0.56828,0.77413 -0.0566,0 -0.35865,-0.30205 -0.67121,-0.67121 z m 42.78034,-11.16679 c 0.21535,-0.0862 0.47264,-0.0756 0.57177,0.0236 0.0991,0.0991 -0.0771,0.16964 -0.39154,0.15668 -0.34751,-0.0143 -0.4182,-0.085 -0.18023,-0.18023 z m -3.5984,-0.2921 c 0.20509,-0.0827 0.54069,-0.0827 0.74578,0 0.20509,0.0828 0.0373,0.15047 -0.37289,0.15047 -0.41018,0 -0.57798,-0.0677 -0.37289,-0.15047 z m 7.19604,-0.32448 c -0.37106,-0.47314 -0.36051,-0.48369 0.11263,-0.11263 0.28713,0.22518 0.52205,0.46011 0.52205,0.52205 0,0.24552 -0.24497,0.0875 -0.63468,-0.40942 z m -11.9504,0.02 c 0.21534,-0.0862 0.47264,-0.0756 0.57176,0.0236 0.0991,0.0991 -0.0771,0.16963 -0.39153,0.15668 -0.34752,-0.0143 -0.41821,-0.085 -0.18023,-0.18023 z m -3.28145,-0.29832 c 0.21535,-0.0862 0.47264,-0.0756 0.57177,0.0236 0.0991,0.0991 -0.0771,0.16964 -0.39154,0.15668 -0.34751,-0.0143 -0.4182,-0.085 -0.18023,-0.18023 z m -4.77301,-0.29831 c 0.21535,-0.0862 0.47264,-0.0756 0.57177,0.0236 0.0991,0.0991 -0.0771,0.16963 -0.39154,0.15668 -0.34751,-0.0143 -0.4182,-0.085 -0.18023,-0.18023 z m 23.56674,0 c 0.21534,-0.0862 0.47264,-0.0756 0.57176,0.0236 0.0991,0.0991 -0.0771,0.16963 -0.39153,0.15668 -0.34752,-0.0143 -0.41821,-0.085 -0.18023,-0.18023 z m -1.47369,-0.91489 c -0.37106,-0.47314 -0.36051,-0.48369 0.11263,-0.11263 0.28713,0.22518 0.52205,0.4601 0.52205,0.52205 0,0.24552 -0.24497,0.0875 -0.63468,-0.40942 z m -2.21806,-2.23735 -0.87617,-0.96952 0.96952,0.87618 c 0.90372,0.81671 1.10663,1.06286 0.87617,1.06286 -0.0513,0 -0.48762,-0.43629 -0.96952,-0.96952 z m -20.71399,-1.26783 c 1.05699,-1.06647 1.98892,-1.93904 2.07095,-1.93904 0.082,0 -0.71565,0.87257 -1.77264,1.93904 -1.05699,1.06647 -1.98892,1.93903 -2.07096,1.93903 -0.082,0 0.71566,-0.87256 1.77265,-1.93903 z m 18.47283,-0.96952 -0.7232,-0.82036 0.82036,0.72321 c 0.4512,0.39776 0.82036,0.76692 0.82036,0.82036 0,0.23396 -0.24158,0.0435 -0.91752,-0.72321 z m -2.08167,-2.08819 -1.02804,-1.11867 1.11868,1.02803 c 0.61527,0.56542 1.11867,1.06883 1.11867,1.11868 0,0.2278 -0.25244,0.0132 -1.20931,-1.02804 z m -11.31984,-2.01361 c 1.5522,-1.55869 2.88931,-2.83398 2.97135,-2.83398 0.082,0 -1.12083,1.27529 -2.67304,2.83398 -1.5522,1.55868 -2.88931,2.83397 -2.97134,2.83397 -0.082,0 1.12082,-1.27529 2.67303,-2.83397 z m 7.41978,1.7153 c -0.37107,-0.47314 -0.36052,-0.4837 0.11263,-0.11263 0.28712,0.22518 0.52204,0.4601 0.52204,0.52205 0,0.24552 -0.24497,0.0875 -0.63467,-0.40942 z m 1.49156,-2.08819 c -0.37106,-0.47315 -0.36051,-0.4837 0.11263,-0.11263 0.28713,0.22518 0.52205,0.4601 0.52205,0.52204 0,0.24553 -0.24497,0.0875 -0.63468,-0.40941 z m -2.07272,-2.0882 -0.7232,-0.82036 0.82036,0.72321 c 0.4512,0.39776 0.82036,0.76692 0.82036,0.82036 0,0.23396 -0.24157,0.0435 -0.91752,-0.72321 z m -1.78294,-1.73415 c -0.33147,-0.39939 -0.1553,-0.68841 1.22741,-2.01361 l 1.61442,-1.54729 -1.46189,1.55135 c -1.24191,1.31791 -1.40417,1.62092 -1.07826,2.01362 0.211,0.25424 0.31652,0.46225 0.23449,0.46225 -0.082,0 -0.32332,-0.20984 -0.53617,-0.46632 z m 3.89371,-4.75416 c 0.55659,-0.57425 1.0791,-1.04409 1.16114,-1.04409 0.082,0 -0.30624,0.46984 -0.86282,1.04409 -0.55659,0.57426 -1.0791,1.0441 -1.16114,1.0441 -0.082,0 0.30624,-0.46984 0.86282,-1.0441 z m 3.28145,-3.28144 c 1.05699,-1.06647 1.98892,-1.93904 2.07095,-1.93904 0.082,0 -0.71565,0.87257 -1.77264,1.93904 -1.05699,1.06647 -1.98892,1.93904 -2.07096,1.93904 -0.082,0 0.71566,-0.87257 1.77265,-1.93904 z m 4.17638,-4.17638 c 1.05699,-1.06647 1.98892,-1.93904 2.07096,-1.93904 0.082,0 -0.71566,0.87257 -1.77265,1.93904 -1.05699,1.06647 -1.98892,1.93903 -2.07095,1.93903 -0.082,0 0.71565,-0.87256 1.77264,-1.93903 z m 3.28144,-3.28145 c 0.55659,-0.57425 1.0791,-1.04409 1.16114,-1.04409 0.082,0 -0.30624,0.46984 -0.86282,1.04409 -0.55659,0.57426 -1.0791,1.0441 -1.16114,1.0441 -0.082,0 0.30624,-0.46984 0.86282,-1.0441 z m 6.56289,-6.56289 c 2.86775,-2.87126 5.28121,-5.22047 5.36324,-5.22047 0.082,0 -2.19718,2.34921 -5.06492,5.22047 -2.86775,2.87127 -5.28121,5.22048 -5.36325,5.22048 -0.082,0 2.19719,-2.34921 5.06493,-5.22048 z m 6.56289,-6.56288 c 0.55659,-0.57426 1.0791,-1.0441 1.16113,-1.0441 0.082,0 -0.30623,0.46984 -0.86282,1.0441 -0.55658,0.57425 -1.07909,1.04409 -1.16113,1.04409 -0.082,0 0.30623,-0.46984 0.86282,-1.04409 z m 2.08819,-2.0882 c 0.38535,-0.41018 0.76775,-0.74578 0.84979,-0.74578 0.082,0 -0.16613,0.3356 -0.55147,0.74578 -0.38535,0.41019 -0.76775,0.74579 -0.84979,0.74579 -0.082,0 0.16613,-0.3356 0.55147,-0.74579 z m 2.08819,-2.08819 c 0.55659,-0.57425 1.0791,-1.04409 1.16114,-1.04409 0.082,0 -0.30624,0.46984 -0.86282,1.04409 -0.55659,0.57426 -1.0791,1.0441 -1.16114,1.0441 -0.082,0 0.30624,-0.46984 0.86282,-1.0441 z m 4.46937,-4.40012 c 1.71983,-1.76377 3.16292,-3.20686 3.20687,-3.20686 0.21544,0 -0.14836,0.38239 -3.12696,3.28677 l -3.20687,3.12696 z m 3.58509,-3.59852 c 0,-0.0513 0.43628,-0.48762 0.96951,-0.96952 l 0.96952,-0.87617 -0.87617,0.96952 c -0.81672,0.90372 -1.06286,1.10664 -1.06286,0.87617 z m 158.72612,-2.16886 c 0.0143,-0.34752 0.085,-0.41821 0.18023,-0.18023 0.0862,0.21534 0.0756,0.47264 -0.0236,0.57176 -0.0991,0.0991 -0.16964,-0.0771 -0.15668,-0.39153 z m -120.54205,0.0614 c 0,-0.0619 0.23493,-0.29686 0.52205,-0.52204 0.47314,-0.37107 0.48369,-0.36051 0.11263,0.11263 -0.38971,0.49691 -0.63468,0.65494 -0.63468,0.40941 z m 121.13867,-4.83439 c 0.0143,-0.34752 0.085,-0.41821 0.18023,-0.18023 0.0862,0.21534 0.0756,0.47264 -0.0236,0.57176 -0.0991,0.0991 -0.16963,-0.0771 -0.15668,-0.39153 z M 216.6945,272.72991 c 0.97416,-0.98444 1.83832,-1.78988 1.92036,-1.78988 0.082,0 -0.64789,0.80544 -1.62205,1.78988 -0.97416,0.98443 -1.83832,1.78987 -1.92035,1.78987 -0.082,0 0.64788,-0.80544 1.62204,-1.78987 z m 2.83398,-2.83398 c 0.38534,-0.41018 0.76774,-0.74578 0.84978,-0.74578 0.082,0 -0.16613,0.3356 -0.55147,0.74578 -0.38535,0.41018 -0.76775,0.74578 -0.84978,0.74578 -0.082,0 0.16612,-0.3356 0.55147,-0.74578 z m 1.78987,-1.78988 c 0.38535,-0.41018 0.76775,-0.74578 0.84979,-0.74578 0.082,0 -0.16613,0.3356 -0.55147,0.74578 -0.38535,0.41018 -0.76775,0.74579 -0.84979,0.74579 -0.082,0 0.16613,-0.33561 0.55147,-0.74579 z M 99.952026,267.06196 c 0,-0.41018 0.0677,-0.57798 0.150464,-0.37289 0.0828,0.20509 0.0828,0.54069 0,0.74578 -0.0828,0.20509 -0.150464,0.0373 -0.150464,-0.37289 z m 268.194524,-0.44747 c 0.006,-0.49222 0.0729,-0.65747 0.14858,-0.36722 0.0756,0.29025 0.0707,0.69298 -0.0111,0.89494 -0.0817,0.20197 -0.1436,-0.0355 -0.13752,-0.52772 z M 199.5415,264.82461 c 0.89119,-0.9024 1.68746,-1.64072 1.7695,-1.64072 0.082,0 -0.58,0.73832 -1.47119,1.64072 -0.89119,0.9024 -1.68746,1.64072 -1.7695,1.64072 -0.082,0 0.58,-0.73832 1.47119,-1.64072 z m 43.10624,0.14916 c 0.29697,-0.32815 0.60706,-0.59663 0.6891,-0.59663 0.082,0 -0.0938,0.26848 -0.39079,0.59663 -0.29696,0.32814 -0.60706,0.59662 -0.68909,0.59662 -0.082,0 0.0938,-0.26848 0.39078,-0.59662 z m -15.36312,-2.83398 c 1.05699,-1.06647 1.98892,-1.93903 2.07095,-1.93903 0.082,0 -0.71565,0.87256 -1.77264,1.93903 -1.05699,1.06647 -1.98892,1.93904 -2.07096,1.93904 -0.082,0 0.71566,-0.87257 1.77265,-1.93904 z m 17.89878,0.63315 c 0,-0.0619 0.23492,-0.29686 0.52205,-0.52204 0.47314,-0.37107 0.48369,-0.36052 0.11263,0.11263 -0.38971,0.49691 -0.63468,0.65494 -0.63468,0.40941 z m -42.36046,-1.22978 c 0.38535,-0.41018 0.76775,-0.74578 0.84978,-0.74578 0.082,0 -0.16612,0.3356 -0.55147,0.74578 -0.38534,0.41019 -0.76774,0.74579 -0.84978,0.74579 -0.082,0 0.16613,-0.3356 0.55147,-0.74579 z m 2.97067,-2.90855 c 1.23619,-1.31711 1.50403,-1.55394 1.50403,-1.32994 0,0.0479 -0.63765,0.68552 -1.41699,1.41699 l -1.41699,1.32994 z m 28.94883,-3.95265 c 2.86775,-2.87126 5.28121,-5.22048 5.36325,-5.22048 0.082,0 -2.19719,2.34922 -5.06493,5.22048 -2.86775,2.87127 -5.28121,5.22048 -5.36325,5.22048 -0.082,0 2.19719,-2.34921 5.06493,-5.22048 z m -25.95324,0.93147 c 0,-0.0619 0.23493,-0.29687 0.52205,-0.52205 0.47314,-0.37106 0.48369,-0.36051 0.11263,0.11263 -0.38971,0.49692 -0.63468,0.65494 -0.63468,0.40942 z M 99.974133,253.63787 c 0,-0.57425 0.06139,-0.80918 0.136427,-0.52205 0.075,0.28713 0.075,0.75697 0,1.0441 -0.075,0.28712 -0.136427,0.0522 -0.136427,-0.52205 z m 268.183477,-0.29832 c 0,-0.57425 0.0614,-0.80917 0.13642,-0.52204 0.075,0.28712 0.075,0.75697 0,1.04409 -0.075,0.28713 -0.13642,0.0522 -0.13642,-0.52205 z m -156.24839,-0.31816 c -0.10814,-0.17498 -0.13265,-0.38213 -0.0545,-0.46033 0.0782,-0.0782 0.22166,0.065 0.31882,0.31816 0.20171,0.52566 0.0298,0.61812 -0.26437,0.14217 z m 1.80215,-2.36665 c 0.29697,-0.32815 0.60706,-0.59663 0.6891,-0.59663 0.082,0 -0.0938,0.26848 -0.39079,0.59663 -0.29696,0.32814 -0.60706,0.59662 -0.68909,0.59662 -0.082,0 0.0938,-0.26848 0.39078,-0.59662 z m 2.23735,-2.23735 c 0.38534,-0.41018 0.76774,-0.74578 0.84978,-0.74578 0.082,0 -0.16612,0.3356 -0.55147,0.74578 -0.38534,0.41018 -0.76775,0.74578 -0.84978,0.74578 -0.082,0 0.16612,-0.3356 0.55147,-0.74578 z m 25.35661,-0.29831 c 0.55659,-0.57426 1.0791,-1.0441 1.16114,-1.0441 0.082,0 -0.30624,0.46984 -0.86283,1.0441 -0.55658,0.57425 -1.07909,1.04409 -1.16113,1.04409 -0.082,0 0.30623,-0.46984 0.86282,-1.04409 z m 2.08819,-2.0882 c 0.38535,-0.41018 0.76775,-0.74578 0.84979,-0.74578 0.082,0 -0.16613,0.3356 -0.55147,0.74578 -0.38535,0.41018 -0.76775,0.74579 -0.84979,0.74579 -0.082,0 0.16613,-0.33561 0.55147,-0.74579 z m 2.08819,-2.08819 c 0.55659,-0.57425 1.0791,-1.04409 1.16114,-1.04409 0.082,0 -0.30623,0.46984 -0.86282,1.04409 -0.55659,0.57425 -1.0791,1.0441 -1.16114,1.0441 -0.082,0 0.30624,-0.46985 0.86282,-1.0441 z m 2.38651,-2.3865 c 0.55659,-0.57426 1.0791,-1.0441 1.16113,-1.0441 0.082,0 -0.30623,0.46984 -0.86282,1.0441 -0.55659,0.57425 -1.0791,1.04409 -1.16113,1.04409 -0.082,0 0.30623,-0.46984 0.86282,-1.04409 z m -146.72294,-0.44747 c 0,-0.41018 0.0677,-0.57798 0.15046,-0.37289 0.0828,0.20509 0.0828,0.54069 0,0.74578 -0.0827,0.20509 -0.15046,0.0373 -0.15046,-0.37289 z m 150.00438,-2.83398 c 1.05699,-1.06647 1.98892,-1.93903 2.07096,-1.93903 0.082,0 -0.71565,0.87256 -1.77264,1.93903 -1.05699,1.06647 -1.98892,1.93904 -2.07096,1.93904 -0.082,0 0.71565,-0.87257 1.77264,-1.93904 z m -25.95324,1.22978 c 0,-0.0619 0.23493,-0.29687 0.52205,-0.52205 0.47314,-0.37106 0.48369,-0.36051 0.11263,0.11263 -0.38971,0.49692 -0.63468,0.65494 -0.63468,0.40942 z m 33.41107,-8.6876 c 2.86775,-2.87127 5.28121,-5.22048 5.36324,-5.22048 0.082,0 -2.19718,2.34921 -5.06493,5.22048 -2.86774,2.87126 -5.2812,5.22048 -5.36324,5.22048 -0.082,0 2.19718,-2.34922 5.06493,-5.22048 z m -27.59396,3.13228 c 0.29697,-0.32814 0.60706,-0.59662 0.6891,-0.59662 0.082,0 -0.0938,0.26848 -0.39079,0.59662 -0.29696,0.32815 -0.60706,0.59663 -0.68909,0.59663 -0.082,0 0.0938,-0.26848 0.39078,-0.59663 z m 52.65226,-8.50192 c 0.38535,-0.41018 0.76775,-0.74578 0.84978,-0.74578 0.082,0 -0.16612,0.3356 -0.55147,0.74578 -0.38534,0.41018 -0.76774,0.74578 -0.84978,0.74578 -0.082,0 0.16613,-0.3356 0.55147,-0.74578 z m -16.41255,-3.20687 c 1.71983,-1.76377 3.16292,-3.20686 3.20687,-3.20686 0.21544,0 -0.14836,0.38239 -3.12696,3.28677 l -3.20687,3.12696 z m 4.48003,-4.54927 c 0.55658,-0.57425 1.07909,-1.0441 1.16113,-1.0441 0.082,0 -0.30623,0.46985 -0.86282,1.0441 -0.55659,0.57425 -1.0791,1.0441 -1.16113,1.0441 -0.082,0 0.30623,-0.46985 0.86282,-1.0441 z m 24.67875,-0.96109 c 0.52958,-0.0659 1.46926,-0.067 2.08819,-0.002 0.61893,0.0646 0.18565,0.1185 -0.96286,0.11982 -1.14851,0.001 -1.6549,-0.0515 -1.12533,-0.11742 z M 273.6723,215.7521 c 0.29697,-0.32814 0.60706,-0.59662 0.6891,-0.59662 0.082,0 -0.0938,0.26848 -0.39078,0.59662 -0.29697,0.32815 -0.60706,0.59663 -0.6891,0.59663 -0.082,0 0.0938,-0.26848 0.39078,-0.59663 z m 4.70254,-2.30225 c 0.45345,-0.0686 1.12465,-0.0667 1.49156,0.004 0.36691,0.0708 -0.004,0.12691 -0.82446,0.12467 -0.82036,-0.002 -1.12056,-0.0602 -0.6671,-0.12874 z m -8.7857,-6.25429 c 0.21535,-0.0862 0.47264,-0.0756 0.57177,0.0236 0.0991,0.0991 -0.0771,0.16963 -0.39154,0.15668 -0.34752,-0.0143 -0.4182,-0.085 -0.18023,-0.18023 z m 1.49157,0 c 0.21534,-0.0862 0.47264,-0.0756 0.57176,0.0236 0.0991,0.0991 -0.0771,0.16963 -0.39153,0.15668 -0.34752,-0.0143 -0.41821,-0.085 -0.18023,-0.18023 z m 46.63988,-8.4473 c 0,-0.41018 0.0677,-0.57798 0.15046,-0.37289 0.0828,0.20509 0.0828,0.54069 0,0.74578 -0.0828,0.20509 -0.15046,0.0373 -0.15046,-0.37289 z m -19.88493,-1.49157 c 0.29697,-0.32814 0.60706,-0.59662 0.6891,-0.59662 0.082,0 -0.0938,0.26848 -0.39078,0.59662 -0.29697,0.32815 -0.60706,0.59663 -0.6891,0.59663 -0.082,0 0.0938,-0.26848 0.39078,-0.59663 z m 19.88493,-2.98313 c 0,-0.41018 0.0677,-0.57798 0.15046,-0.37289 0.0828,0.20509 0.0828,0.54069 0,0.74578 -0.0828,0.20509 -0.15046,0.0373 -0.15046,-0.37289 z m -16.00686,-0.89494 c 0.29697,-0.32814 0.60706,-0.59662 0.6891,-0.59662 0.082,0 -0.0938,0.26848 -0.39078,0.59662 -0.29697,0.32815 -0.60706,0.59663 -0.6891,0.59663 -0.082,0 0.0938,-0.26848 0.39078,-0.59663 z m 6.11542,-6.11542 c 0.38535,-0.41018 0.76775,-0.74578 0.84978,-0.74578 0.082,0 -0.16612,0.3356 -0.55147,0.74578 -0.38534,0.41018 -0.76774,0.74579 -0.84978,0.74579 -0.082,0 0.16613,-0.33561 0.55147,-0.74579 z m -12.8834,-11.09221 c 0.21535,-0.0862 0.47264,-0.0756 0.57177,0.0236 0.0991,0.0991 -0.0771,0.16964 -0.39153,0.15668 -0.34752,-0.0143 -0.41821,-0.085 -0.18024,-0.18023 z m 4.77301,0 c 0.21535,-0.0862 0.47264,-0.0756 0.57177,0.0236 0.0991,0.0991 -0.0771,0.16964 -0.39153,0.15668 -0.34752,-0.0143 -0.41821,-0.085 -0.18024,-0.18023 z m -164.46373,-6.95573 c 0.29696,-0.32814 0.60706,-0.59662 0.68909,-0.59662 0.082,0 -0.0938,0.26848 -0.39078,0.59662 -0.29697,0.32815 -0.60706,0.59663 -0.6891,0.59663 -0.082,0 0.0938,-0.26848 0.39079,-0.59663 z m 197.45492,-0.0746 -0.56828,-0.6712 0.6712,0.56828 c 0.63077,0.53405 0.80701,0.77413 0.56829,0.77413 -0.0566,0 -0.35865,-0.30204 -0.67121,-0.67121 z m -7.915,-7.90529 c -0.37107,-0.47315 -0.36051,-0.4837 0.11263,-0.11263 0.28712,0.22518 0.52204,0.4601 0.52204,0.52204 0,0.24553 -0.24497,0.0875 -0.63467,-0.40941 z M 248.40891,126.651 c 0.21535,-0.0862 0.47264,-0.0756 0.57177,0.0236 0.0991,0.0991 -0.0771,0.16963 -0.39154,0.15668 -0.34752,-0.0143 -0.4182,-0.085 -0.18023,-0.18023 z m -21.34235,-0.59957 c 0.29025,-0.0756 0.69297,-0.0707 0.89494,0.011 0.20197,0.0817 -0.0355,0.1436 -0.52773,0.13752 -0.49221,-0.006 -0.65746,-0.0729 -0.36721,-0.14857 z m 13.26925,0.009 c 0.20509,-0.0828 0.5407,-0.0828 0.74579,0 0.20509,0.0828 0.0373,0.15046 -0.3729,0.15046 -0.41018,0 -0.57798,-0.0677 -0.37289,-0.15046 z"
         id="path6" /><path
         style="fill:#ffffff;fill-opacity:1"
         d="m 228.85076,394.23601 c 0.28713,-0.075 0.75697,-0.075 1.0441,0 0.28712,0.075 0.0522,0.13643 -0.52205,0.13643 -0.57426,0 -0.80918,-0.0614 -0.52205,-0.13643 z m 2.53566,0.008 c 0.20509,-0.0827 0.54069,-0.0827 0.74578,0 0.20509,0.0828 0.0373,0.15047 -0.37289,0.15047 -0.41018,0 -0.57798,-0.0677 -0.37289,-0.15047 z m 7.30867,-0.008 c 0.28713,-0.075 0.75697,-0.075 1.0441,0 0.28712,0.075 0.0522,0.13643 -0.52205,0.13643 -0.57425,0 -0.80917,-0.0614 -0.52205,-0.13643 z m -18.32761,-0.59477 c 0.21535,-0.0862 0.47264,-0.0756 0.57177,0.0236 0.0991,0.0991 -0.0771,0.16964 -0.39154,0.15668 -0.34752,-0.0143 -0.4182,-0.085 -0.18023,-0.18023 z m -6.8612,-0.89494 c 0.21534,-0.0862 0.47264,-0.0756 0.57177,0.0236 0.0991,0.0991 -0.0771,0.16964 -0.39154,0.15668 -0.34752,-0.0143 -0.4182,-0.085 -0.18023,-0.18023 z m 103.57058,-27.05534 c 0,-0.0619 0.23492,-0.29687 0.52205,-0.52205 0.47314,-0.37106 0.48369,-0.36051 0.11263,0.11263 -0.38971,0.49692 -0.63468,0.65494 -0.63468,0.40942 z m -174.84953,-7.56893 c -0.37106,-0.47314 -0.36051,-0.48369 0.11263,-0.11263 0.28713,0.22518 0.52205,0.4601 0.52205,0.52205 0,0.24552 -0.24497,0.0875 -0.63468,-0.40942 z m -4.47469,-4.4747 c -0.37107,-0.47314 -0.36052,-0.48369 0.11263,-0.11263 0.28712,0.22518 0.52204,0.46011 0.52204,0.52205 0,0.24552 -0.24497,0.0875 -0.63467,-0.40942 z m 40.90694,-16.29785 c 0,-0.0629 0.26867,-0.18462 0.59704,-0.27049 0.32837,-0.0859 0.52181,-0.0344 0.42986,0.11437 -0.16056,0.2598 -1.0269,0.39152 -1.0269,0.15612 z m -4.23232,-0.38773 c 0.21535,-0.0862 0.47264,-0.0756 0.57177,0.0236 0.0991,0.0991 -0.0771,0.16964 -0.39154,0.15668 -0.34751,-0.0143 -0.4182,-0.085 -0.18023,-0.18023 z m -11.63421,-0.89494 c 0.21535,-0.0862 0.47264,-0.0756 0.57177,0.0236 0.0991,0.0991 -0.0771,0.16964 -0.39154,0.15668 -0.34751,-0.0143 -0.4182,-0.085 -0.18023,-0.18023 z m -4.77301,-0.29831 c 0.21535,-0.0862 0.47264,-0.0756 0.57177,0.0236 0.0991,0.0991 -0.0771,0.16963 -0.39154,0.15668 -0.34751,-0.0143 -0.4182,-0.085 -0.18023,-0.18023 z m 20.00486,-0.31827 c -0.37106,-0.47314 -0.36051,-0.48369 0.11263,-0.11262 0.28713,0.22518 0.52205,0.4601 0.52205,0.52204 0,0.24552 -0.24497,0.0875 -0.63468,-0.40942 z m 6.02787,-1.14353 c 0.0143,-0.34752 0.085,-0.4182 0.18023,-0.18023 0.0862,0.21535 0.0756,0.47264 -0.0236,0.57177 -0.0991,0.0991 -0.16964,-0.0771 -0.15668,-0.39154 z m -8.11606,-0.94466 c -0.37106,-0.47314 -0.36051,-0.48369 0.11263,-0.11263 0.28713,0.22518 0.52205,0.4601 0.52205,0.52205 0,0.24552 -0.24497,0.0875 -0.63468,-0.40942 z m -2.08819,-2.08819 c -0.37106,-0.47314 -0.36051,-0.48369 0.11263,-0.11263 0.28713,0.22518 0.52205,0.4601 0.52205,0.52205 0,0.24552 -0.24497,0.0875 -0.63468,-0.40942 z m -2.07272,-2.08819 -0.7232,-0.82036 0.82036,0.7232 c 0.4512,0.39777 0.82036,0.76693 0.82036,0.82036 0,0.23396 -0.24157,0.0435 -0.91752,-0.7232 z m -2.3865,-2.38651 -0.72321,-0.82036 0.82036,0.72321 c 0.4512,0.39776 0.82036,0.76692 0.82036,0.82036 0,0.23396 -0.24157,0.0435 -0.91751,-0.72321 z m -2.10367,-2.08819 c -0.37106,-0.47314 -0.36051,-0.48369 0.11263,-0.11263 0.28713,0.22518 0.52205,0.46011 0.52205,0.52205 0,0.24552 -0.24497,0.0875 -0.63468,-0.40942 z m 77.30115,-43.74092 c 0,-0.0619 0.23492,-0.29686 0.52204,-0.52204 0.47314,-0.37107 0.4837,-0.36052 0.11263,0.11262 -0.3897,0.49692 -0.63467,0.65495 -0.63467,0.40942 z m 122.0336,-0.3597 c 0.0143,-0.34751 0.085,-0.4182 0.18023,-0.18023 0.0862,0.21535 0.0756,0.47264 -0.0236,0.57177 -0.0991,0.0991 -0.16963,-0.0771 -0.15668,-0.39154 z m -135.49575,-4.82272 c -0.37106,-0.47315 -0.36051,-0.4837 0.11263,-0.11263 0.49692,0.3897 0.65494,0.63467 0.40942,0.63467 -0.0619,0 -0.29687,-0.23492 -0.52205,-0.52204 z m 24.64889,-5.74253 c 2.29261,-2.29701 4.23551,-4.17639 4.31754,-4.17639 0.082,0 -1.72662,1.87938 -4.01923,4.17639 -2.29262,2.29701 -4.23551,4.17638 -4.31755,4.17638 -0.082,0 1.72662,-1.87937 4.01924,-4.17638 z m -24.61083,1.67725 c 0,-0.0619 0.23492,-0.29687 0.52204,-0.52205 0.47314,-0.37106 0.4837,-0.36051 0.11263,0.11263 -0.3897,0.49691 -0.63467,0.65494 -0.63467,0.40942 z m 2.3865,-2.12472 c 0.38535,-0.41018 0.76775,-0.74578 0.84978,-0.74578 0.082,0 -0.16612,0.3356 -0.55147,0.74578 -0.38534,0.41018 -0.76774,0.74578 -0.84978,0.74578 -0.082,0 0.16613,-0.3356 0.55147,-0.74578 z m 4.92217,-1.0441 c 0.29696,-0.32814 0.60706,-0.59662 0.68909,-0.59662 0.082,0 -0.0938,0.26848 -0.39078,0.59662 -0.29697,0.32815 -0.60706,0.59663 -0.6891,0.59663 -0.082,0 0.0938,-0.26848 0.39079,-0.59663 z m -15.95975,-1.19325 c -0.26887,-0.17375 -0.30567,-0.291 -0.0922,-0.29374 0.19541,-0.003 0.43825,0.12967 0.53966,0.29374 0.22889,0.37036 0.12562,0.37036 -0.44747,0 z m 18.64456,-1.19325 c 0.29697,-0.32815 0.60706,-0.59663 0.6891,-0.59663 0.082,0 -0.0938,0.26848 -0.39078,0.59663 -0.29697,0.32814 -0.60706,0.59662 -0.6891,0.59662 -0.082,0 0.0938,-0.26848 0.39078,-0.59662 z M 99.986173,265.27208 c 0,-0.73833 0.05818,-1.04037 0.129277,-0.67121 0.0711,0.36917 0.0711,0.97325 0,1.34241 -0.0711,0.36917 -0.129277,0.0671 -0.129277,-0.6712 z m 268.191617,-0.89494 c 0,-0.9024 0.0559,-1.27156 0.12428,-0.82036 0.0684,0.4512 0.0684,1.18952 0,1.64072 -0.0684,0.4512 -0.12428,0.082 -0.12428,-0.82036 z m -149.88062,-1.41699 c -0.37106,-0.47314 -0.36051,-0.48369 0.11263,-0.11263 0.28713,0.22518 0.52205,0.4601 0.52205,0.52205 0,0.24552 -0.24497,0.0875 -0.63468,-0.40942 z m 4.81106,-0.22373 c 0.38535,-0.41018 0.76775,-0.74579 0.84979,-0.74579 0.082,0 -0.16613,0.33561 -0.55147,0.74579 -0.38535,0.41018 -0.76775,0.74578 -0.84979,0.74578 -0.082,0 0.16613,-0.3356 0.55147,-0.74578 z m -21.77685,0.33484 c 0,-0.0619 0.23492,-0.29687 0.52204,-0.52205 0.47315,-0.37106 0.4837,-0.36051 0.11263,0.11263 -0.3897,0.49691 -0.63467,0.65494 -0.63467,0.40942 z m 25.35661,-3.9146 c 1.05699,-1.06647 1.98892,-1.93903 2.07096,-1.93903 0.082,0 -0.71566,0.87256 -1.77265,1.93903 -1.05699,1.06647 -1.98892,1.93904 -2.07095,1.93904 -0.082,0 0.71565,-0.87257 1.77264,-1.93904 z m 141.42396,0.57177 c 0.0143,-0.34752 0.085,-0.41821 0.18023,-0.18023 0.0862,0.21534 0.0756,0.47264 -0.0236,0.57176 -0.0991,0.0991 -0.16964,-0.0771 -0.15668,-0.39153 z m -122.63024,-0.53524 c 0,-0.062 0.23493,-0.29687 0.52205,-0.52205 0.47314,-0.37106 0.48369,-0.36051 0.11263,0.11263 -0.38971,0.49691 -0.63468,0.65494 -0.63468,0.40942 z m -31.65924,-0.70773 c -0.37106,-0.47315 -0.36051,-0.4837 0.11263,-0.11263 0.28713,0.22518 0.52205,0.4601 0.52205,0.52204 0,0.24553 -0.24497,0.0875 -0.63468,-0.40941 z m 34.49322,-1.86446 c 0.29697,-0.32815 0.60706,-0.59663 0.68909,-0.59663 0.082,0 -0.0938,0.26848 -0.39078,0.59663 -0.29696,0.32814 -0.60706,0.59663 -0.68909,0.59663 -0.082,0 0.0938,-0.26849 0.39078,-0.59663 z m -36.58141,-0.22374 c -0.37106,-0.47314 -0.36051,-0.48369 0.11263,-0.11263 0.49692,0.38971 0.65494,0.63468 0.40942,0.63468 -0.0619,0 -0.29687,-0.23492 -0.52205,-0.52205 z m 17.93684,-0.22373 c 0.38534,-0.41018 0.76775,-0.74578 0.84978,-0.74578 0.082,0 -0.16612,0.3356 -0.55147,0.74578 -0.38534,0.41018 -0.76774,0.74578 -0.84978,0.74578 -0.082,0 0.16613,-0.3356 0.55147,-0.74578 z M 99.980153,255.5769 c 0.0033,-0.65629 0.0644,-0.88964 0.135757,-0.51857 0.0713,0.37108 0.0686,0.90804 -0.006,1.19326 -0.0747,0.28521 -0.133048,-0.0184 -0.129737,-0.67469 z m 268.189497,-0.14915 c 0,-0.73833 0.0582,-1.04037 0.12928,-0.67121 0.0711,0.36916 0.0711,0.97325 0,1.34241 -0.0711,0.36916 -0.12928,0.0671 -0.12928,-0.6712 z m -137.30528,-0.38036 c 0,-0.0451 1.04037,-1.08549 2.31193,-2.31193 l 2.31193,-2.22988 -2.22989,2.31193 c -2.07106,2.14726 -2.39397,2.44804 -2.39397,2.22988 z m 20.13614,-0.8129 c 0.29696,-0.32814 0.60706,-0.59662 0.68909,-0.59662 0.082,0 -0.0938,0.26848 -0.39078,0.59662 -0.29697,0.32815 -0.60706,0.59663 -0.6891,0.59663 -0.082,0 0.0938,-0.26848 0.39079,-0.59663 z m 4.92216,-1.00756 c 0,-0.0619 0.23492,-0.29687 0.52205,-0.52205 0.47314,-0.37107 0.48369,-0.36051 0.11263,0.11263 -0.38971,0.49691 -0.63468,0.65494 -0.63468,0.40942 z m -2.83397,-0.78231 c 0.29697,-0.32815 0.60706,-0.59663 0.68909,-0.59663 0.082,0 -0.0938,0.26848 -0.39078,0.59663 -0.29697,0.32814 -0.60706,0.59662 -0.68909,0.59662 -0.082,0 0.0938,-0.26848 0.39078,-0.59662 z m 18.64457,0.48399 c 0,-0.0619 0.23492,-0.29687 0.52204,-0.52205 0.47315,-0.37106 0.4837,-0.36051 0.11263,0.11263 -0.3897,0.49692 -0.63467,0.65494 -0.63467,0.40942 z m -35.49926,-3.31797 c 0.38534,-0.41018 0.76775,-0.74578 0.84978,-0.74578 0.082,0 -0.16612,0.3356 -0.55147,0.74578 -0.38534,0.41018 -0.76775,0.74578 -0.84978,0.74578 -0.082,0 0.16612,-0.3356 0.55147,-0.74578 z m 24.16336,-0.26179 c 0,-0.0619 0.23492,-0.29686 0.52205,-0.52204 0.47314,-0.37107 0.48369,-0.36051 0.11263,0.11263 -0.38971,0.49691 -0.63468,0.65494 -0.63468,0.40941 z m -2.53566,-1.08062 c 0.29696,-0.32814 0.60706,-0.59662 0.68909,-0.59662 0.082,0 -0.0938,0.26848 -0.39078,0.59662 -0.29697,0.32815 -0.60706,0.59663 -0.68909,0.59663 -0.082,0 0.0938,-0.26848 0.39078,-0.59663 z m -19.53951,-0.74578 c 0.55659,-0.57425 1.0791,-1.0441 1.16113,-1.0441 0.082,0 -0.30623,0.46985 -0.86282,1.0441 -0.55658,0.57425 -1.07909,1.0441 -1.16113,1.0441 -0.082,0 0.30623,-0.46985 0.86282,-1.0441 z m -19.83782,-1.64072 c 0.97416,-0.98444 1.83832,-1.78988 1.92036,-1.78988 0.082,0 -0.64789,0.80544 -1.62205,1.78988 -0.97416,0.98443 -1.83832,1.78988 -1.92036,1.78988 -0.082,0 0.64789,-0.80545 1.62205,-1.78988 z m 21.32939,0.18568 c 0,-0.0619 0.23492,-0.29687 0.52204,-0.52205 0.47314,-0.37106 0.4837,-0.36051 0.11263,0.11263 -0.3897,0.49692 -0.63467,0.65494 -0.63467,0.40942 z m 25.35661,-0.89494 c 0,-0.0619 0.23492,-0.29687 0.52205,-0.52205 0.47314,-0.37106 0.48369,-0.36051 0.11263,0.11263 -0.38971,0.49692 -0.63468,0.65494 -0.63468,0.40942 z m -19.98698,-4.51122 c 0.38535,-0.41018 0.76775,-0.74578 0.84978,-0.74578 0.082,0 -0.16612,0.3356 -0.55147,0.74578 -0.38534,0.41018 -0.76774,0.74578 -0.84978,0.74578 -0.082,0 0.16613,-0.3356 0.55147,-0.74578 z m 121.43698,-1.21811 c 0.0143,-0.34752 0.085,-0.41821 0.18023,-0.18023 0.0862,0.21534 0.0756,0.47264 -0.0236,0.57176 -0.0991,0.0991 -0.16963,-0.0771 -0.15668,-0.39153 z m -119.34879,-0.87008 c 0.55659,-0.57426 1.0791,-1.0441 1.16114,-1.0441 0.082,0 -0.30624,0.46984 -0.86282,1.0441 -0.55659,0.57425 -1.0791,1.04409 -1.16114,1.04409 -0.082,0 0.30624,-0.46984 0.86282,-1.04409 z m -19.68866,-1.45504 c 0,-0.0619 0.23492,-0.29687 0.52205,-0.52205 0.47314,-0.37106 0.48369,-0.36051 0.11263,0.11263 -0.38971,0.49691 -0.63468,0.65494 -0.63468,0.40942 z m 21.77685,-0.63316 c 0.38535,-0.41018 0.76775,-0.74578 0.84979,-0.74578 0.082,0 -0.16613,0.3356 -0.55147,0.74578 -0.38535,0.41019 -0.76775,0.74579 -0.84979,0.74579 -0.082,0 0.16613,-0.3356 0.55147,-0.74579 z m 23.41758,-1.3424 c 0.29697,-0.32815 0.60706,-0.59663 0.6891,-0.59663 0.082,0 -0.0938,0.26848 -0.39078,0.59663 -0.29697,0.32814 -0.60706,0.59662 -0.6891,0.59662 -0.082,0 0.0938,-0.26848 0.39078,-0.59662 z m -21.32938,-0.74579 c 0.55658,-0.57425 1.07909,-1.04409 1.16113,-1.04409 0.082,0 -0.30623,0.46984 -0.86282,1.04409 -0.55659,0.57426 -1.0791,1.0441 -1.16113,1.0441 -0.082,0 0.30623,-0.46984 0.86282,-1.0441 z m -19.2412,-1.64072 c 0.29697,-0.32814 0.60706,-0.59663 0.6891,-0.59663 0.082,0 -0.0938,0.26849 -0.39079,0.59663 -0.29696,0.32815 -0.60705,0.59663 -0.68909,0.59663 -0.082,0 0.0938,-0.26848 0.39078,-0.59663 z m 21.32939,-0.44747 c 0.38534,-0.41018 0.76775,-0.74578 0.84978,-0.74578 0.082,0 -0.16612,0.3356 -0.55147,0.74578 -0.38534,0.41018 -0.76775,0.74578 -0.84978,0.74578 -0.082,0 0.16612,-0.3356 0.55147,-0.74578 z m 2.08819,-2.08819 c 0.55659,-0.57425 1.0791,-1.0441 1.16113,-1.0441 0.082,0 -0.30623,0.46985 -0.86282,1.0441 -0.55658,0.57425 -1.0791,1.0441 -1.16113,1.0441 -0.082,0 0.30623,-0.46985 0.86282,-1.0441 z m 21.77686,0.93147 c 0,-0.0619 0.23492,-0.29687 0.52204,-0.52205 0.47314,-0.37106 0.4837,-0.36051 0.11263,0.11263 -0.3897,0.49691 -0.63467,0.65494 -0.63467,0.40942 z m -19.39036,-3.31797 c 0.55659,-0.57426 1.0791,-1.0441 1.16114,-1.0441 0.082,0 -0.30623,0.46984 -0.86282,1.0441 -0.55659,0.57425 -1.0791,1.04409 -1.16114,1.04409 -0.082,0 0.30624,-0.46984 0.86282,-1.04409 z m 27.44481,-0.59663 c 0.38534,-0.41018 0.76775,-0.74578 0.84978,-0.74578 0.082,0 -0.16612,0.3356 -0.55147,0.74578 -0.38534,0.41018 -0.76774,0.74578 -0.84978,0.74578 -0.082,0 0.16612,-0.3356 0.55147,-0.74578 z m -46.686,-0.44747 c 0.29697,-0.32815 0.60706,-0.59663 0.6891,-0.59663 0.082,0 -0.0938,0.26848 -0.39079,0.59663 -0.29696,0.32814 -0.60706,0.59663 -0.68909,0.59663 -0.082,0 0.0938,-0.26849 0.39078,-0.59663 z m 22.07517,-1.78988 c 0.29697,-0.32814 0.60706,-0.59663 0.68909,-0.59663 0.082,0 -0.0938,0.26849 -0.39078,0.59663 -0.29696,0.32814 -0.60706,0.59663 -0.68909,0.59663 -0.082,0 0.0938,-0.26849 0.39078,-0.59663 z m 1.64072,-1.64072 c 0.38535,-0.41018 0.76775,-0.74578 0.84978,-0.74578 0.082,0 -0.16612,0.3356 -0.55147,0.74578 -0.38534,0.41018 -0.76774,0.74578 -0.84978,0.74578 -0.082,0 0.16613,-0.3356 0.55147,-0.74578 z m -19.53951,-0.14916 c 0.29697,-0.32814 0.60706,-0.59662 0.6891,-0.59662 0.082,0 -0.0938,0.26848 -0.39078,0.59662 -0.29697,0.32815 -0.60706,0.59663 -0.6891,0.59663 -0.082,0 0.0938,-0.26848 0.39078,-0.59663 z m 21.6277,-1.93903 c 0.55659,-0.57426 1.0791,-1.0441 1.16114,-1.0441 0.082,0 -0.30624,0.46984 -0.86282,1.0441 -0.55659,0.57425 -1.0791,1.04409 -1.16114,1.04409 -0.082,0 0.30623,-0.46984 0.86282,-1.04409 z m 4.17639,-4.17639 c 0.55658,-0.57425 1.07909,-1.04409 1.16113,-1.04409 0.082,0 -0.30623,0.46984 -0.86282,1.04409 -0.55659,0.57426 -1.0791,1.0441 -1.16114,1.0441 -0.082,0 0.30624,-0.46984 0.86283,-1.0441 z m 30.96862,-0.35293 c 0.21535,-0.0862 0.47264,-0.0756 0.57177,0.0236 0.0991,0.0991 -0.0771,0.16963 -0.39153,0.15668 -0.34752,-0.0143 -0.41821,-0.085 -0.18024,-0.18023 z m -28.29627,-2.25731 c 0.73146,-0.77934 1.36911,-1.41698 1.41698,-1.41698 0.224,0 -0.0128,0.26783 -1.32994,1.50403 l -1.41699,1.32994 z m 39.68811,-2.72287 c 0,-0.0619 0.23492,-0.29686 0.52204,-0.52204 0.47314,-0.37107 0.4837,-0.36051 0.11263,0.11263 -0.3897,0.49691 -0.63467,0.65494 -0.63467,0.40941 z m -15.67371,-11.54142 c -0.10815,-0.17499 -0.13265,-0.38214 -0.0545,-0.46034 0.0782,-0.0782 0.22167,0.065 0.31883,0.31816 0.20171,0.52566 0.0298,0.61812 -0.26437,0.14218 z m -0.73351,-3.41076 c 0.55658,-0.57425 1.07909,-1.04409 1.16113,-1.04409 0.082,0 -0.30623,0.46984 -0.86282,1.04409 -0.55659,0.57426 -1.0791,1.0441 -1.16114,1.0441 -0.082,0 0.30624,-0.46984 0.86283,-1.0441 z m 3.57975,-3.57975 c 0.38535,-0.41018 0.76775,-0.74579 0.84979,-0.74579 0.082,0 -0.16613,0.33561 -0.55147,0.74579 -0.38535,0.41018 -0.76775,0.74578 -0.84979,0.74578 -0.082,0 0.16613,-0.3356 0.55147,-0.74578 z m 1.19325,-1.15673 c 0,-0.062 0.23493,-0.29687 0.52205,-0.52205 0.47314,-0.37106 0.4837,-0.36051 0.11263,0.11263 -0.3897,0.49692 -0.63468,0.65494 -0.63468,0.40942 z m 2.37404,-2.34845 c 1.2362,-1.31711 1.50404,-1.55394 1.50404,-1.32994 0,0.0479 -0.63765,0.68551 -1.41699,1.41698 l -1.41699,1.32994 z m 4.93464,-4.99675 c 1.30488,-1.31258 2.43962,-2.3865 2.52166,-2.3865 0.082,0 -0.91847,1.07392 -2.22335,2.3865 -1.30488,1.31258 -2.43963,2.38651 -2.52167,2.38651 -0.082,0 0.91848,-1.07393 2.22336,-2.38651 z m 29.6441,-11.26132 c -0.37107,-0.47314 -0.36051,-0.48369 0.11263,-0.11263 0.49691,0.38971 0.65494,0.63468 0.40942,0.63468 -0.062,0 -0.29687,-0.23492 -0.52205,-0.52205 z m -200.42835,-4.96021 c 0,-0.0619 0.23492,-0.29687 0.52205,-0.52205 0.47314,-0.37107 0.48369,-0.36051 0.11263,0.11263 -0.38971,0.49691 -0.63468,0.65494 -0.63468,0.40942 z m 1.49156,-1.49157 c 0,-0.0619 0.23493,-0.29687 0.52205,-0.52205 0.47314,-0.37106 0.48369,-0.36051 0.11263,0.11263 -0.38971,0.49692 -0.63468,0.65494 -0.63468,0.40942 z m 192.67221,-0.40942 c -0.37106,-0.47314 -0.36051,-0.48369 0.11263,-0.11263 0.49692,0.38971 0.65494,0.63468 0.40942,0.63468 -0.0619,0 -0.29687,-0.23492 -0.52205,-0.52205 z m -75.78941,-39.05906 c 0.21535,-0.0862 0.47264,-0.0756 0.57177,0.0236 0.0991,0.0991 -0.0771,0.16963 -0.39154,0.15668 -0.34751,-0.0143 -0.4182,-0.085 -0.18023,-0.18023 z m -9.84433,-1.19325 c 0.21535,-0.0862 0.47264,-0.0756 0.57177,0.0236 0.0991,0.0991 -0.0771,0.16963 -0.39154,0.15668 -0.34752,-0.0143 -0.4182,-0.085 -0.18023,-0.18023 z m -15.68008,-0.3082 c 0.4512,-0.0684 1.18952,-0.0684 1.64072,0 0.4512,0.0683 0.082,0.12427 -0.82036,0.12427 -0.9024,0 -1.27156,-0.0559 -0.82036,-0.12427 z m 9.39686,0.003 c 0.36916,-0.0711 0.97325,-0.0711 1.34241,0 0.36916,0.0711 0.0671,0.12928 -0.6712,0.12928 -0.73833,0 -1.04037,-0.0582 -0.67121,-0.12928 z"
         id="path5" /><path
         style="fill:#ffffff;fill-opacity:1"
         d="m 230.51013,394.23787 c 0.21534,-0.0862 0.47264,-0.0756 0.57176,0.0236 0.0991,0.0991 -0.0771,0.16963 -0.39153,0.15668 -0.34752,-0.0143 -0.41821,-0.085 -0.18023,-0.18023 z m 3.2628,-0.0161 c 0.86137,-0.0603 2.2709,-0.0603 3.13228,0 0.86138,0.0603 0.15662,0.10956 -1.56614,0.10956 -1.72276,0 -2.42752,-0.0493 -1.56614,-0.10956 z m -9.52738,-0.28217 c 0.21535,-0.0862 0.47264,-0.0756 0.57177,0.0236 0.0991,0.0991 -0.0771,0.16963 -0.39154,0.15668 -0.34752,-0.0143 -0.4182,-0.085 -0.18023,-0.18024 z m -5.66795,-0.59662 c 0.21535,-0.0862 0.47264,-0.0756 0.57177,0.0236 0.0991,0.0991 -0.0771,0.16963 -0.39154,0.15668 -0.34751,-0.0143 -0.4182,-0.085 -0.18023,-0.18023 z m -2.3865,-0.29831 c 0.21534,-0.0862 0.47264,-0.0756 0.57176,0.0236 0.0991,0.0991 -0.0771,0.16963 -0.39153,0.15668 -0.34752,-0.0143 -0.41821,-0.085 -0.18023,-0.18023 z m 35.79757,0 c 0.21534,-0.0862 0.47264,-0.0756 0.57177,0.0236 0.0991,0.0991 -0.0771,0.16963 -0.39154,0.15668 -0.34752,-0.0143 -0.41821,-0.085 -0.18023,-0.18023 z m -37.58745,-0.29832 c 0.21534,-0.0862 0.47264,-0.0756 0.57177,0.0236 0.0991,0.0991 -0.0771,0.16964 -0.39154,0.15668 -0.34752,-0.0143 -0.41821,-0.085 -0.18023,-0.18023 z m -2.38651,-0.29831 c 0.21535,-0.0862 0.47264,-0.0756 0.57177,0.0236 0.0991,0.0991 -0.0771,0.16963 -0.39154,0.15668 -0.34751,-0.0143 -0.4182,-0.085 -0.18023,-0.18023 z m 43.83338,0.006 c 0.20509,-0.0828 0.5407,-0.0828 0.74579,0 0.20509,0.0828 0.0373,0.15047 -0.37289,0.15047 -0.41018,0 -0.57799,-0.0677 -0.3729,-0.15047 z m 23.64132,-6.36532 c -0.26887,-0.17375 -0.30566,-0.291 -0.0922,-0.29374 0.19541,-0.003 0.43825,0.12967 0.53966,0.29374 0.22889,0.37037 0.12562,0.37037 -0.44747,0 z m 2.23946,-2.08477 c -0.10451,-0.1691 0.0152,-0.21911 0.28071,-0.11724 0.5168,0.19831 0.61135,0.41213 0.18225,0.41213 -0.15439,0 -0.36272,-0.1327 -0.46296,-0.29489 z m -108.43892,-4.1798 c -0.26887,-0.17376 -0.30567,-0.291 -0.0922,-0.29375 0.19541,-0.003 0.43825,0.12968 0.53965,0.29375 0.2289,0.37036 0.12563,0.37036 -0.44746,0 z m 129.36517,-4.63733 c 0.0909,-0.23681 0.2854,-0.3563 0.43228,-0.26552 0.36994,0.22864 0.33589,0.33791 -0.16522,0.5302 -0.28835,0.11065 -0.37727,0.0225 -0.26706,-0.26468 z m 2.65111,-1.60663 c -0.0944,-0.15274 -0.0576,-0.3482 0.0818,-0.43435 0.13941,-0.0862 0.25346,0.0388 0.25346,0.2777 0,0.503 -0.0941,0.54695 -0.33529,0.15665 z m 4.01449,-3.91629 c 0,-0.17376 0.13424,-0.23296 0.29831,-0.13155 0.16407,0.1014 0.29831,0.24356 0.29831,0.31591 0,0.0724 -0.13424,0.13156 -0.29831,0.13156 -0.16407,0 -0.29831,-0.14217 -0.29831,-0.31592 z m -156.31251,-3.08841 c 0.19414,-0.19413 0.41177,-0.17774 0.63754,0.048 0.25818,0.25817 0.18542,0.33093 -0.29476,0.29476 -0.41991,-0.0316 -0.53692,-0.14865 -0.34278,-0.34279 z m -6.10623,-4.3312 c -0.0944,-0.15274 -0.0576,-0.34819 0.0818,-0.43435 0.1394,-0.0862 0.25346,0.0388 0.25346,0.2777 0,0.50301 -0.0941,0.54696 -0.33529,0.15665 z m -2.36852,-2.05909 c -0.0845,-0.13672 0.0359,-0.24859 0.26758,-0.24859 0.23168,0 0.35209,0.11187 0.26759,0.24859 -0.0845,0.13673 -0.20492,0.2486 -0.26759,0.2486 -0.0627,0 -0.18308,-0.11187 -0.26758,-0.2486 z m -3.34052,-3.10743 -0.56828,-0.6712 0.67121,0.56828 c 0.63076,0.53405 0.807,0.77413 0.56828,0.77413 -0.0566,0 -0.35865,-0.30204 -0.67121,-0.67121 z m 185.57909,0.0746 c 0.29697,-0.32814 0.60706,-0.59662 0.6891,-0.59662 0.082,0 -0.0938,0.26848 -0.39078,0.59662 -0.29697,0.32815 -0.60706,0.59663 -0.6891,0.59663 -0.082,0 0.0938,-0.26848 0.39078,-0.59663 z m 1.0441,-1.00757 c 0,-0.0619 0.23492,-0.29686 0.52205,-0.52204 0.47314,-0.37107 0.48369,-0.36052 0.11263,0.11263 -0.38971,0.49691 -0.63468,0.65494 -0.63468,0.40941 z m -187.93725,-1.6595 c 0,-0.7203 0.16589,-0.79296 0.40252,-0.17632 0.0924,0.24086 0.0397,0.51726 -0.11724,0.61424 -0.1569,0.097 -0.28528,-0.10009 -0.28528,-0.43792 z m -3.02118,-1.73291 c -0.37107,-0.47314 -0.36052,-0.48369 0.11263,-0.11263 0.28712,0.22518 0.52204,0.46011 0.52204,0.52205 0,0.24552 -0.24497,0.0875 -0.63467,-0.40942 z m 193.94156,0.40942 c 0,-0.0619 0.23492,-0.29687 0.52205,-0.52205 0.47314,-0.37106 0.48369,-0.36051 0.11263,0.11263 -0.38971,0.49692 -0.63468,0.65494 -0.63468,0.40942 z m 9.7259,-11.77017 c -0.0845,-0.13673 0.0359,-0.2486 0.26759,-0.2486 0.23167,0 0.35209,0.11187 0.26758,0.2486 -0.0845,0.13672 -0.20491,0.24859 -0.26758,0.24859 -0.0627,0 -0.18308,-0.11187 -0.26759,-0.24859 z m -213.4517,-1.66389 c -0.26914,-0.32429 -0.26041,-0.47222 0.038,-0.64445 0.21306,-0.12295 0.28786,-0.11369 0.16623,0.0206 -0.12163,0.13427 -0.0716,0.42427 0.1111,0.64446 0.18274,0.22018 0.26513,0.40034 0.1831,0.40034 -0.082,0 -0.30635,-0.18941 -0.49848,-0.42092 z m 50.6166,-2.46147 c 0.20509,-0.0827 0.5407,-0.0827 0.74579,0 0.20509,0.0828 0.0373,0.15047 -0.3729,0.15047 -0.41018,0 -0.57798,-0.0677 -0.37289,-0.15047 z m -4.15774,-0.30453 c 0.21535,-0.0862 0.47264,-0.0756 0.57177,0.0236 0.0991,0.0991 -0.0771,0.16964 -0.39153,0.15668 -0.34752,-0.0143 -0.41821,-0.085 -0.18024,-0.18023 z m -3.74188,-0.30126 c 0.29025,-0.0756 0.69298,-0.0707 0.89494,0.0111 0.20197,0.0817 -0.0355,0.1436 -0.52772,0.13752 -0.49222,-0.006 -0.65747,-0.0729 -0.36722,-0.14858 z m -4.01426,-0.29536 c 0.21535,-0.0862 0.47264,-0.0756 0.57177,0.0236 0.0991,0.0991 -0.0771,0.16963 -0.39154,0.15668 -0.34751,-0.0143 -0.4182,-0.085 -0.18023,-0.18023 z M 156.215,335.7613 c 0.37107,-0.0714 0.90804,-0.0686 1.19325,0.006 0.28521,0.0747 -0.0184,0.13304 -0.67468,0.12973 -0.65629,-0.003 -0.88965,-0.0644 -0.51857,-0.13575 z m 27.44133,-0.33592 c 0.28712,-0.3008 0.57473,-0.50541 0.63913,-0.45468 0.17622,0.1388 -0.59853,1.00158 -0.8994,1.00158 -0.14398,0 -0.0269,-0.24611 0.26027,-0.5469 z m -60.89973,-0.29832 c -0.0845,-0.13672 0.0359,-0.24859 0.26759,-0.24859 0.23167,0 0.35209,0.11187 0.26758,0.24859 -0.0845,0.13673 -0.20491,0.2486 -0.26758,0.2486 -0.0627,0 -0.18308,-0.11187 -0.26759,-0.2486 z m 222.24326,0 c -0.0845,-0.13672 0.0359,-0.24859 0.26759,-0.24859 0.23167,0 0.35208,0.11187 0.26758,0.24859 -0.0845,0.13673 -0.20491,0.2486 -0.26758,0.2486 -0.0627,0 -0.18309,-0.11187 -0.26759,-0.2486 z m -222.52519,-2.27187 c -0.11065,-0.28835 -0.0225,-0.37727 0.26468,-0.26706 0.23681,0.0909 0.3563,0.2854 0.26552,0.43228 -0.22864,0.36994 -0.3379,0.33589 -0.5302,-0.16522 z m 34.10974,-0.27698 c 0,-0.062 0.23492,-0.29687 0.52205,-0.52205 0.47314,-0.37106 0.48369,-0.36051 0.11263,0.11263 -0.38971,0.49692 -0.63468,0.65494 -0.63468,0.40942 z m 19.68867,-0.5016 c 0,-0.17376 0.13424,-0.23296 0.29831,-0.13155 0.16407,0.1014 0.29831,0.24356 0.29831,0.31591 0,0.0724 -0.13424,0.13156 -0.29831,0.13156 -0.16407,0 -0.29831,-0.14217 -0.29831,-0.31592 z m 8.50192,0.0176 c -0.1014,-0.16407 -0.0422,-0.29831 0.13155,-0.29831 0.17376,0 0.31592,0.13424 0.31592,0.29831 0,0.16407 -0.0592,0.29832 -0.13155,0.29832 -0.0724,0 -0.21452,-0.13425 -0.31592,-0.29832 z m -9.54602,-1.19325 c -0.1014,-0.16407 -0.0422,-0.29831 0.13155,-0.29831 0.17376,0 0.31592,0.13424 0.31592,0.29831 0,0.16407 -0.0592,0.29831 -0.13155,0.29831 -0.0724,0 -0.21452,-0.13424 -0.31592,-0.29831 z m -3.46865,-4.99674 c -0.37106,-0.47315 -0.36051,-0.4837 0.11263,-0.11263 0.28712,0.22518 0.52205,0.4601 0.52205,0.52204 0,0.24553 -0.24497,0.0875 -0.63468,-0.40941 z m -6.56289,-2.68482 c -0.36225,-0.4619 -0.3547,-0.47939 0.0655,-0.15175 0.2612,0.20367 0.58477,0.27079 0.71903,0.14916 0.13426,-0.12163 0.14755,-0.0534 0.0295,0.15174 -0.27737,0.48199 -0.32609,0.47306 -0.81406,-0.14915 z m 17.0419,-0.78384 c 0,-0.0619 0.23492,-0.29686 0.52205,-0.52204 0.47314,-0.37107 0.48369,-0.36052 0.11263,0.11263 -0.38971,0.49691 -0.63468,0.65494 -0.63468,0.40941 z m -10.73927,-7.04688 c 0,-0.16407 0.14216,-0.29831 0.31592,-0.29831 0.17375,0 0.23295,0.13424 0.13155,0.29831 -0.10141,0.16407 -0.24357,0.29831 -0.31592,0.29831 -0.0724,0 -0.13155,-0.13424 -0.13155,-0.29831 z m 29.33412,-2.82085 c 0,-0.23889 0.11405,-0.36386 0.25346,-0.2777 0.1394,0.0862 0.17623,0.28161 0.0818,0.43434 -0.24122,0.39031 -0.33529,0.34636 -0.33529,-0.15664 z m -23.74572,-1.39255 c 0.20235,-0.20387 0.44306,-0.29553 0.53491,-0.20368 0.0918,0.0918 -0.0737,0.25865 -0.36792,0.37067 -0.42516,0.16189 -0.45942,0.12763 -0.16699,-0.16699 z m 27.82266,0.037 c 0,-0.16408 0.14217,-0.29832 0.31592,-0.29832 0.17376,0 0.23296,0.13424 0.13155,0.29832 -0.1014,0.16407 -0.24356,0.29831 -0.31592,0.29831 -0.0724,0 -0.13155,-0.13424 -0.13155,-0.29831 z m -20.28529,-6.67552 c 0,-0.062 0.23492,-0.29687 0.52205,-0.52205 0.47314,-0.37106 0.48369,-0.36051 0.11263,0.11263 -0.38971,0.49691 -0.63468,0.65494 -0.63468,0.40942 z m 6.56289,-6.56289 c 0,-0.0619 0.23492,-0.29687 0.52205,-0.52205 0.47314,-0.37106 0.48369,-0.36051 0.11263,0.11263 -0.38971,0.49692 -0.63468,0.65494 -0.63468,0.40942 z m 35.68215,-2.32846 c 0.0862,-0.1394 0.28161,-0.17623 0.43435,-0.0818 0.39031,0.24122 0.34636,0.33529 -0.15665,0.33529 -0.23889,0 -0.36385,-0.11406 -0.2777,-0.25346 z m 1.9053,-1.2513 c 0,-0.0619 0.23492,-0.29687 0.52205,-0.52205 0.47314,-0.37106 0.48369,-0.36051 0.11263,0.11263 -0.38971,0.49692 -0.63468,0.65494 -0.63468,0.40942 z m 6.8612,-5.36963 c 0,-0.0619 0.23492,-0.29687 0.52205,-0.52205 0.47314,-0.37106 0.48369,-0.36051 0.11263,0.11263 -0.38971,0.49691 -0.63468,0.65494 -0.63468,0.40942 z m -31.62119,-4.37968 c 0,-0.17375 0.13424,-0.23295 0.29832,-0.13155 0.16407,0.10141 0.29831,0.24357 0.29831,0.31592 0,0.0724 -0.13424,0.13155 -0.29831,0.13155 -0.16408,0 -0.29832,-0.14216 -0.29832,-0.31592 z m 34.72514,-1.25022 -0.56829,-0.67121 0.67121,0.56829 c 0.63076,0.53404 0.80701,0.77412 0.56828,0.77412 -0.0566,0 -0.35865,-0.30204 -0.6712,-0.6712 z m 1.58888,0.0507 c 0.10549,-0.40339 0.24071,-0.53861 0.31518,-0.31519 0.0717,0.21522 -0.0114,0.53313 -0.18475,0.70649 -0.22137,0.22136 -0.26019,0.10489 -0.13043,-0.3913 z m 1.09593,-0.6473 -0.56828,-0.6712 0.65241,0.55127 c 0.36745,0.31049 0.81104,0.45323 1.01561,0.3268 0.23174,-0.14322 0.28616,-0.0998 0.15035,0.11993 -0.31182,0.50454 -0.61286,0.42584 -1.25009,-0.3268 z m -139.70779,-0.39775 c 0.0143,-0.34752 0.085,-0.4182 0.18023,-0.18023 0.0862,0.21535 0.0756,0.47264 -0.0236,0.57177 -0.0991,0.0991 -0.16963,-0.0771 -0.15668,-0.39154 z m 264.60372,-0.29831 c 0.0143,-0.34752 0.085,-0.41821 0.18023,-0.18023 0.0862,0.21534 0.0756,0.47264 -0.0236,0.57177 -0.0991,0.0991 -0.16963,-0.0771 -0.15668,-0.39154 z m -129.51401,-0.64635 -0.72321,-0.82036 0.82036,0.72321 c 0.4512,0.39776 0.82036,0.76692 0.82036,0.82036 0,0.23396 -0.24157,0.0436 -0.91751,-0.72321 z m 2.68481,-0.59662 -0.7232,-0.82036 0.82036,0.7232 c 0.4512,0.39776 0.82036,0.76693 0.82036,0.82036 0,0.23396 -0.24157,0.0436 -0.91752,-0.7232 z m -1.66786,0.0249 c 0,-0.21877 0.0975,-0.39775 0.21668,-0.39775 0.11917,0 0.28536,0.17898 0.36931,0.39775 0.0839,0.21876 -0.0136,0.39775 -0.21668,0.39775 -0.20312,0 -0.36931,-0.17899 -0.36931,-0.39775 z m -29.33412,-0.21207 c 0,-0.062 0.23492,-0.29687 0.52205,-0.52205 0.47314,-0.37106 0.48369,-0.36051 0.11263,0.11263 -0.38971,0.49692 -0.63468,0.65494 -0.63468,0.40942 z m 28.17832,-0.80216 c -0.10815,-0.17498 -0.13265,-0.38214 -0.0545,-0.46033 0.0782,-0.0782 0.22167,0.065 0.31883,0.31816 0.20171,0.52566 0.0298,0.61812 -0.26437,0.14217 z m -2.24766,-0.80051 -0.7232,-0.82036 0.82036,0.7232 c 0.4512,0.39777 0.82036,0.76693 0.82036,0.82036 0,0.23396 -0.24157,0.0435 -0.91752,-0.7232 z m 3.10788,0.32044 c 0.11088,-0.11088 -0.10167,-0.54716 -0.47233,-0.96951 l -0.67393,-0.76792 0.81116,0.71457 c 0.7092,0.62474 0.86336,1.22447 0.31476,1.22447 -0.0997,0 -0.0905,-0.0907 0.0203,-0.20161 z m 11.10375,-1.20251 c -0.16189,-0.42516 -0.12762,-0.45942 0.167,-0.167 0.20387,0.20236 0.29553,0.44307 0.20368,0.53492 -0.0918,0.0918 -0.25865,-0.0737 -0.37068,-0.36792 z m -16.29982,-1.20612 -0.7232,-0.82036 0.82036,0.7232 c 0.4512,0.39776 0.82036,0.76693 0.82036,0.82036 0,0.23396 -0.24158,0.0435 -0.91752,-0.7232 z m 17.62305,-1.11868 c 0.89119,-0.90239 1.68746,-1.64072 1.7695,-1.64072 0.082,0 -0.58,0.73833 -1.47119,1.64072 -0.89118,0.9024 -1.68746,1.64073 -1.76949,1.64073 -0.082,0 0.57999,-0.73833 1.47118,-1.64073 z m -14.93823,0.52205 -0.72321,-0.82036 0.82036,0.72321 c 0.4512,0.39776 0.82037,0.76692 0.82037,0.82036 0,0.23396 -0.24158,0.0435 -0.91752,-0.72321 z m -20.06384,-0.87008 c -0.39982,-0.39981 -0.1823,-1.21425 0.47233,-1.7685 l 0.6712,-0.56828 -0.5594,0.66139 c -0.32789,0.38767 -0.49377,0.91238 -0.40082,1.26783 0.16903,0.64636 0.1338,0.72467 -0.18331,0.40756 z m 12.57265,-0.005 c 0.21535,-0.0862 0.47264,-0.0756 0.57177,0.0236 0.0991,0.0991 -0.0771,0.16963 -0.39153,0.15668 -0.34752,-0.0143 -0.41821,-0.085 -0.18024,-0.18023 z m -9.54601,-0.29832 c 0.21534,-0.0862 0.47264,-0.0756 0.57176,0.0236 0.0991,0.0991 -0.0771,0.16964 -0.39153,0.15668 -0.34752,-0.0143 -0.41821,-0.085 -0.18023,-0.18023 z m 15.37924,-0.0301 c 0.11083,-0.17934 -0.0351,-0.4585 -0.32432,-0.62035 -0.28921,-0.16185 -0.44782,-0.37228 -0.35248,-0.46763 0.0953,-0.0953 0.40502,0.0826 0.68816,0.39548 0.38671,0.42731 0.42427,0.62479 0.15095,0.7937 -0.22506,0.1391 -0.28697,0.10049 -0.16231,-0.1012 z M 100.5251,273.45083 c 0.0143,-0.34752 0.085,-0.41821 0.18023,-0.18023 0.0862,0.21534 0.0756,0.47264 -0.0236,0.57177 -0.0991,0.0991 -0.16963,-0.0771 -0.15668,-0.39154 z m 113.93205,0.3597 c 0,-0.062 0.23492,-0.29687 0.52205,-0.52205 0.47314,-0.37106 0.48369,-0.36051 0.11263,0.11263 -0.38971,0.49692 -0.63468,0.65494 -0.63468,0.40942 z m 16.28879,-0.73259 c -0.0845,-0.13673 0.0359,-0.2486 0.26759,-0.2486 0.23167,0 0.35209,0.11187 0.26758,0.2486 -0.0845,0.13672 -0.20491,0.24859 -0.26758,0.24859 -0.0627,0 -0.18308,-0.11187 -0.26759,-0.24859 z m -3.14097,-0.76895 c -0.26914,-0.32429 -0.2604,-0.47222 0.038,-0.64445 0.21306,-0.12295 0.28786,-0.11369 0.16623,0.0206 -0.12163,0.13427 -0.0716,0.42427 0.11111,0.64446 0.18274,0.22018 0.26513,0.40034 0.18309,0.40034 -0.082,0 -0.30635,-0.18941 -0.49848,-0.42092 z m 6.83916,-0.28834 c 0,-0.0619 0.23492,-0.29687 0.52205,-0.52205 0.47314,-0.37106 0.48369,-0.36051 0.11263,0.11263 -0.38971,0.49692 -0.63468,0.65494 -0.63468,0.40942 z m -5.67657,-2.1993 -1.93041,-2.01361 2.01361,1.93042 c 1.87033,1.79305 2.14998,2.09681 1.93042,2.09681 -0.0458,0 -0.95189,-0.90613 -2.01362,-2.01362 z m -2.84412,0.74579 -0.87617,-0.96952 0.96951,0.87617 c 0.90373,0.81672 1.10664,1.06286 0.87618,1.06286 -0.0513,0 -0.48762,-0.43628 -0.96952,-0.96951 z m 141.89019,-0.69607 c 0.0143,-0.34752 0.085,-0.4182 0.18024,-0.18023 0.0862,0.21535 0.0756,0.47264 -0.0236,0.57177 -0.0991,0.0991 -0.16963,-0.0771 -0.15668,-0.39154 z m -148.57921,-0.84451 c 0.1932,-0.19319 0.39491,-0.19319 0.58811,0 0.19319,0.1932 0.0923,0.29405 -0.29405,0.29405 -0.38639,0 -0.48725,-0.10085 -0.29406,-0.29405 z m 4.44786,-0.69677 -0.7232,-0.82036 0.82036,0.7232 c 0.4512,0.39776 0.82036,0.76693 0.82036,0.82036 0,0.23396 -0.24158,0.0435 -0.91752,-0.7232 z m 15.53486,-0.48552 c 0,-0.0619 0.23492,-0.29687 0.52205,-0.52205 0.47314,-0.37106 0.48369,-0.36051 0.11263,0.11263 -0.38971,0.49691 -0.63468,0.65494 -0.63468,0.40942 z m -13.56308,-1.07002 c -0.46599,-0.48638 -0.93857,-0.82789 -1.05019,-0.7589 -0.11162,0.069 -0.20295,-0.0754 -0.20295,-0.32092 0,-0.27967 0.42701,-0.0294 1.14354,0.67029 0.62894,0.61415 1.14353,1.15651 1.14353,1.20525 0,0.21685 -0.24301,0.0298 -1.03393,-0.79572 z m 11.94325,-0.27512 c -0.0899,-0.14548 0.07,-0.44752 0.35528,-0.6712 0.45826,-0.35926 0.47558,-0.3513 0.14846,0.0682 -0.20366,0.26121 -0.28197,0.56325 -0.17401,0.67121 0.10796,0.10795 0.11471,0.19628 0.015,0.19628 -0.0997,0 -0.25483,-0.11903 -0.34474,-0.26451 z m 23.39669,-1.67452 c 0.55658,-0.57425 1.07909,-1.0441 1.16113,-1.0441 0.082,0 -0.30623,0.46985 -0.86282,1.0441 -0.55659,0.57425 -1.0791,1.04409 -1.16114,1.04409 -0.082,0 0.30624,-0.46984 0.86283,-1.04409 z m -41.80189,-0.96952 c -0.37106,-0.47314 -0.36051,-0.48369 0.11263,-0.11263 0.49691,0.38971 0.65494,0.63468 0.40942,0.63468 -0.0619,0 -0.29687,-0.23492 -0.52205,-0.52205 z m 21.06913,-0.0746 c 0.29696,-0.32814 0.60706,-0.59662 0.68909,-0.59662 0.082,0 -0.0938,0.26848 -0.39078,0.59662 -0.29697,0.32815 -0.60706,0.59663 -0.6891,0.59663 -0.082,0 0.0938,-0.26848 0.39079,-0.59663 z M 99.994317,262.58726 c 0,-0.9024 0.05592,-1.27156 0.124273,-0.82036 0.0684,0.4512 0.0684,1.18952 0,1.64072 -0.0683,0.4512 -0.124273,0.082 -0.124273,-0.82036 z m 121.796593,0.70359 c -0.15711,-0.40943 -0.11346,-0.42788 0.2664,-0.11263 0.51764,0.42961 0.57152,0.60229 0.1879,0.60229 -0.14652,0 -0.35095,-0.22035 -0.4543,-0.48966 z m -4.81686,-1.67311 -0.87618,-0.96951 0.96952,0.87617 c 0.90373,0.81671 1.10664,1.06286 0.87617,1.06286 -0.0513,0 -0.48762,-0.43628 -0.96951,-0.96952 z m 25.22622,0.55858 c 0,-0.0619 0.23492,-0.29687 0.52205,-0.52205 0.47314,-0.37106 0.48369,-0.36051 0.11263,0.11263 -0.38971,0.49691 -0.63468,0.65494 -0.63468,0.40942 z m -22.22367,-0.43493 c 0.0824,-0.0824 -0.0845,-0.42918 -0.37076,-0.77064 -0.37917,-0.45221 -0.29832,-0.4244 0.29766,0.10237 0.95788,0.84664 0.94494,0.81808 0.37076,0.81808 -0.24611,0 -0.38006,-0.0674 -0.29766,-0.14981 z m 25.00793,-0.1851 c 0,-0.23889 0.11405,-0.36386 0.25346,-0.2777 0.1394,0.0861 0.17622,0.28161 0.0818,0.43434 -0.24122,0.39031 -0.33529,0.34636 -0.33529,-0.15664 z m -27.37591,-0.67146 c -0.16189,-0.42516 -0.12763,-0.45942 0.16699,-0.167 0.20388,0.20236 0.29553,0.44307 0.20369,0.53492 -0.0918,0.0918 -0.25865,-0.0737 -0.37068,-0.36792 z m 29.3321,0.14935 c 0.21023,-0.27993 0.28387,-0.68266 0.16363,-0.89493 -0.17603,-0.31082 -0.13996,-0.31294 0.18527,-0.0109 0.3374,0.3133 0.31047,0.46059 -0.16363,0.89494 -0.51095,0.4681 -0.52941,0.46919 -0.18527,0.0109 z m -19.06546,-0.39316 c -0.20754,-0.25008 -0.30198,-0.53006 -0.20985,-0.62218 0.0921,-0.0921 0.31733,0.11248 0.50047,0.45468 0.39075,0.73011 0.24569,0.81371 -0.29062,0.1675 z M 99.928475,260.32505 c 0.01431,-0.34751 0.085,-0.4182 0.180235,-0.18023 0.0862,0.21535 0.0756,0.47264 -0.0236,0.57177 -0.09912,0.0991 -0.169629,-0.0771 -0.156675,-0.39154 z m 118.430295,-0.10507 c -0.0129,-0.23553 -0.3218,-0.77249 -0.68634,-1.19325 l -0.66279,-0.76501 0.84754,0.78816 c 0.46615,0.43348 0.775,0.97045 0.68634,1.19325 -0.1301,0.32696 -0.16574,0.3225 -0.18475,-0.0231 z m 47.40824,-0.46669 c 0.38534,-0.41018 0.76774,-0.74579 0.84978,-0.74579 0.082,0 -0.16613,0.33561 -0.55147,0.74579 -0.38535,0.41018 -0.76775,0.74578 -0.84978,0.74578 -0.082,0 0.16612,-0.3356 0.55147,-0.74578 z m -50.89073,-0.22374 -0.56828,-0.6712 0.6712,0.56828 c 0.63077,0.53405 0.80701,0.77413 0.56828,0.77413 -0.0566,0 -0.35865,-0.30205 -0.6712,-0.67121 z m 29.7105,0.55858 c 0,-0.0619 0.23492,-0.29687 0.52204,-0.52205 0.47314,-0.37106 0.4837,-0.36051 0.11263,0.11263 -0.3897,0.49691 -0.63467,0.65494 -0.63467,0.40942 z m 4.62385,-1.08063 c 0.29696,-0.32814 0.60706,-0.59662 0.68909,-0.59662 0.082,0 -0.0938,0.26848 -0.39078,0.59662 -0.29697,0.32815 -0.60706,0.59663 -0.68909,0.59663 -0.082,0 0.0938,-0.26848 0.39078,-0.59663 z M 99.928475,258.83349 c 0.01431,-0.34752 0.085,-0.41821 0.180235,-0.18023 0.0862,0.21534 0.0756,0.47264 -0.0236,0.57176 -0.09912,0.0991 -0.169629,-0.0771 -0.156675,-0.39153 z m 268.183475,0 c 0.0143,-0.34752 0.085,-0.41821 0.18023,-0.18023 0.0862,0.21534 0.0756,0.47264 -0.0236,0.57176 -0.0991,0.0991 -0.16964,-0.0771 -0.15668,-0.39153 z M 99.963079,257.36678 c 0.0061,-0.49222 0.07294,-0.65746 0.148571,-0.36721 0.0756,0.29025 0.0707,0.69297 -0.011,0.89494 -0.0817,0.20196 -0.1436,-0.0355 -0.137521,-0.52773 z m 112.825011,0.0746 -0.56829,-0.6712 0.67121,0.56828 c 0.63077,0.53404 0.80701,0.77412 0.56828,0.77412 -0.0566,0 -0.35865,-0.30204 -0.6712,-0.6712 z m 2.83974,-0.44747 -0.72321,-0.82036 0.82036,0.7232 c 0.76675,0.67595 0.95717,0.91752 0.72321,0.91752 -0.0534,0 -0.4226,-0.36916 -0.82036,-0.82036 z m 152.50767,0.22374 c 0,-0.41019 0.0677,-0.57799 0.15046,-0.3729 0.0828,0.20509 0.0828,0.5407 0,0.74579 -0.0827,0.20509 -0.15046,0.0373 -0.15046,-0.37289 z m -154.17005,0.0716 c 0.10841,-0.17541 0.0285,-0.38692 -0.17764,-0.47001 -0.22608,-0.0911 -0.16765,-0.16043 0.14729,-0.17464 0.59035,-0.0266 0.69817,0.42902 0.17765,0.75072 -0.20357,0.12581 -0.2638,0.0824 -0.1473,-0.10607 z m 37.78084,-0.51904 c 0.38534,-0.41019 0.76775,-0.74579 0.84978,-0.74579 0.082,0 -0.16612,0.3356 -0.55147,0.74579 -0.38534,0.41018 -0.76774,0.74578 -0.84978,0.74578 -0.082,0 0.16612,-0.3356 0.55147,-0.74578 z m -38.94213,-0.76563 c -0.30608,-0.49527 -0.0314,-0.56394 0.39692,-0.0992 0.21156,0.22956 0.25305,0.41739 0.0922,0.41739 -0.16086,0 -0.38096,-0.14318 -0.48911,-0.31816 z m -2.24766,-0.80052 -0.7232,-0.82036 0.82036,0.72321 c 0.4512,0.39776 0.82036,0.76692 0.82036,0.82036 0,0.23396 -0.24157,0.0435 -0.91752,-0.72321 z m 3.1058,0.32252 c 0.10974,-0.10974 -0.0357,-0.4789 -0.32317,-0.82036 -0.52133,-0.61921 -0.52096,-0.61936 0.14147,-0.0589 0.58622,0.49597 0.67453,1.07881 0.16345,1.07881 -0.0997,0 -0.0915,-0.0898 0.0182,-0.19953 z m 36.477,-0.45168 c 0.0862,-0.1394 0.28161,-0.17623 0.43435,-0.0818 0.39031,0.24122 0.34636,0.33529 -0.15665,0.33529 -0.23889,0 -0.36385,-0.11406 -0.2777,-0.25346 z m 6.77775,-3.06458 c 0,-0.23889 0.11406,-0.36386 0.25346,-0.2777 0.1394,0.0862 0.17623,0.28161 0.0818,0.43435 -0.24122,0.3903 -0.33529,0.34635 -0.33529,-0.15665 z m -20.8322,-1.05722 c 0.1014,-0.16407 0.24357,-0.29831 0.31592,-0.29831 0.0724,0 0.13155,0.13424 0.13155,0.29831 0,0.16407 -0.14216,0.29831 -0.31592,0.29831 -0.17375,0 -0.23295,-0.13424 -0.13155,-0.29831 z m -135.85806,-0.47233 c 0.0143,-0.34752 0.085,-0.4182 0.18023,-0.18023 0.0862,0.21534 0.0756,0.47264 -0.0236,0.57177 -0.0991,0.0991 -0.16964,-0.0771 -0.15668,-0.39154 z m 161.06552,-2.0268 c 0,-0.062 0.23492,-0.29687 0.52205,-0.52205 0.47314,-0.37107 0.48369,-0.36051 0.11263,0.11263 -0.38971,0.49691 -0.63468,0.65494 -0.63468,0.40942 z m -1.78988,-0.68315 c 0.24611,-0.10374 0.55837,-0.3363 0.69392,-0.51679 0.15851,-0.21106 0.20291,-0.16849 0.12443,0.11931 -0.0671,0.24611 -0.37937,0.47867 -0.69391,0.51679 -0.40184,0.0487 -0.43885,0.0132 -0.12444,-0.11931 z m 1.93904,-1.59073 c 0.1014,-0.16407 0.24356,-0.29831 0.31591,-0.29831 0.0724,0 0.13155,0.13424 0.13155,0.29831 0,0.16407 -0.14216,0.29831 -0.31591,0.29831 -0.17376,0 -0.23296,-0.13424 -0.13155,-0.29831 z m 2.60489,-0.29831 c 0.20493,-0.32815 0.49535,-0.59663 0.64539,-0.59663 0.15003,0 0.0298,0.26848 -0.26715,0.59663 -0.29697,0.32814 -0.5874,0.59662 -0.64539,0.59662 -0.058,0 0.0622,-0.26848 0.26715,-0.59662 z m -163.22295,-1.06896 c 0.0143,-0.34752 0.085,-0.4182 0.18023,-0.18023 0.0862,0.21535 0.0756,0.47264 -0.0236,0.57177 -0.0991,0.0991 -0.16963,-0.0771 -0.15668,-0.39154 z m 161.06552,0.0614 c 0,-0.0619 0.23493,-0.29687 0.52205,-0.52205 0.47314,-0.37106 0.4837,-0.36051 0.11263,0.11263 -0.3897,0.49691 -0.63468,0.65494 -0.63468,0.40942 z m 4.77301,-1.22978 c 0.38535,-0.41018 0.76775,-0.74578 0.84979,-0.74578 0.082,0 -0.16613,0.3356 -0.55147,0.74578 -0.38535,0.41018 -0.76775,0.74578 -0.84979,0.74578 -0.082,0 0.16613,-0.3356 0.55147,-0.74578 z m -45.6419,-0.26179 c 0,-0.0619 0.23492,-0.29686 0.52205,-0.52205 0.47314,-0.37106 0.48369,-0.36051 0.11263,0.11263 -0.38971,0.49692 -0.63468,0.65494 -0.63468,0.40942 z m -119.89831,-0.95632 c 0.0143,-0.34752 0.085,-0.41821 0.18023,-0.18023 0.0862,0.21534 0.0756,0.47264 -0.0236,0.57176 -0.0991,0.0991 -0.16964,-0.0771 -0.15668,-0.39153 z m 121.68819,-0.87008 c 0.38534,-0.41018 0.76775,-0.74579 0.84978,-0.74579 0.082,0 -0.16612,0.33561 -0.55147,0.74579 -0.38534,0.41018 -0.76774,0.74578 -0.84978,0.74578 -0.082,0 0.16612,-0.3356 0.55147,-0.74578 z m 45.74134,0.29831 c 0,-0.24611 0.066,-0.38151 0.14657,-0.3009 0.0806,0.0806 0.36028,-0.0178 0.62148,-0.21859 0.29099,-0.22375 0.25484,-0.10721 -0.0934,0.3009 -0.67415,0.79014 -0.67469,0.79032 -0.67469,0.21859 z m -167.13122,-1.51642 c 0.0143,-0.34752 0.085,-0.41821 0.18023,-0.18024 0.0862,0.21535 0.0756,0.47264 -0.0236,0.57177 -0.0991,0.0991 -0.16963,-0.0771 -0.15668,-0.39153 z m 181.07736,0.0896 c 0.0684,-0.0464 0.39278,-0.28135 0.72092,-0.52205 0.55188,-0.40481 0.56592,-0.39848 0.18721,0.0844 -0.22518,0.28713 -0.5496,0.52205 -0.72092,0.52205 -0.17133,0 -0.25558,-0.038 -0.18721,-0.0844 z m -10.91329,-1.10884 c 0.29697,-0.32815 0.60706,-0.59663 0.6891,-0.59663 0.082,0 -0.0938,0.26848 -0.39079,0.59663 -0.29696,0.32814 -0.60706,0.59663 -0.68909,0.59663 -0.082,0 0.0938,-0.26849 0.39078,-0.59663 z m -169.86576,-1.06896 c 0.0143,-0.34751 0.085,-0.4182 0.18023,-0.18023 0.0862,0.21535 0.0756,0.47264 -0.0236,0.57177 -0.0991,0.0991 -0.16963,-0.0771 -0.15668,-0.39154 z m 264.60372,-0.29831 c 0.0143,-0.34752 0.085,-0.4182 0.18023,-0.18023 0.0862,0.21534 0.0756,0.47264 -0.0236,0.57177 -0.0991,0.0991 -0.16963,-0.0771 -0.15668,-0.39154 z m -92.40117,-0.82036 c 0,-0.21876 0.17685,-0.39775 0.39301,-0.39775 0.29369,0 0.30959,0.10052 0.0629,0.39775 -0.18156,0.21876 -0.35841,0.39775 -0.39301,0.39775 -0.0346,0 -0.0629,-0.17899 -0.0629,-0.39775 z m -22.16629,-0.338 c -0.19967,-0.24059 -0.31171,-0.59142 -0.24898,-0.77962 0.0627,-0.1882 0.27391,0.009 0.46928,0.43744 0.39818,0.87391 0.32078,0.99413 -0.2203,0.34218 z m -22.97843,-0.86844 c 0,-0.0619 0.23492,-0.29687 0.52205,-0.52205 0.47314,-0.37107 0.48369,-0.36051 0.11263,0.11263 -0.38971,0.49691 -0.63468,0.65494 -0.63468,0.40942 z m 47.58094,-0.78231 c 0.29697,-0.32815 0.60706,-0.59663 0.6891,-0.59663 0.082,0 -0.0938,0.26848 -0.39079,0.59663 -0.29696,0.32814 -0.60706,0.59662 -0.68909,0.59662 -0.082,0 0.0938,-0.26848 0.39078,-0.59662 z M 103.50823,234.9685 c 0.0143,-0.34752 0.085,-0.41821 0.18023,-0.18023 0.0862,0.21534 0.0756,0.47264 -0.0236,0.57177 -0.0991,0.0991 -0.16963,-0.0771 -0.15668,-0.39154 z m 170.61154,-0.83355 c 0,-0.062 0.23492,-0.29687 0.52205,-0.52205 0.47314,-0.37106 0.48369,-0.36051 0.11263,0.11263 -0.38971,0.49691 -0.63468,0.65494 -0.63468,0.40942 z m 2.38651,-2.08819 c 0,-0.0619 0.23492,-0.29687 0.52204,-0.52205 0.47315,-0.37107 0.4837,-0.36051 0.11263,0.11263 -0.3897,0.49691 -0.63467,0.65494 -0.63467,0.40942 z m 4.27323,-0.68029 c 0.10796,-0.10796 0.0297,-0.41 -0.17402,-0.6712 -0.31947,-0.40974 -0.30512,-0.42409 0.10462,-0.10462 0.2612,0.20367 0.59238,0.27079 0.73595,0.14916 0.14356,-0.12163 0.0812,0.0138 -0.13856,0.3009 -0.21977,0.28713 -0.47264,0.52205 -0.56193,0.52205 -0.0893,0 -0.074,-0.0883 0.0339,-0.19629 z m -46.63369,-0.81589 c 0,-0.0645 0.20833,-0.19719 0.46296,-0.2949 0.26548,-0.10187 0.38522,-0.0519 0.28071,0.11724 -0.17519,0.28346 -0.74367,0.41927 -0.74367,0.17766 z m 1.49156,-0.87104 c 0,-0.0513 0.43629,-0.48763 0.96952,-0.96952 l 0.96952,-0.87617 -0.87618,0.96951 c -0.81671,0.90373 -1.06286,1.10664 -1.06286,0.87618 z m 48.17757,-1.09991 c 0.29696,-0.32815 0.60706,-0.59663 0.68909,-0.59663 0.082,0 -0.0938,0.26848 -0.39078,0.59663 -0.29697,0.32814 -0.60706,0.59662 -0.6891,0.59662 -0.082,0 0.0938,-0.26848 0.39079,-0.59662 z m -2.08819,-1.19325 c 0.29696,-0.32815 0.60706,-0.59663 0.68909,-0.59663 0.082,0 -0.0938,0.26848 -0.39078,0.59663 -0.29697,0.32814 -0.60706,0.59662 -0.6891,0.59662 -0.082,0 0.0938,-0.26848 0.39079,-0.59662 z m 4.94571,-0.77065 c 0.0143,-0.34751 0.085,-0.4182 0.18023,-0.18023 0.0862,0.21535 0.0756,0.47264 -0.0236,0.57177 -0.0991,0.0991 -0.16963,-0.0771 -0.15668,-0.39154 z m -42.08569,-6.09056 c 0,-0.16407 0.14216,-0.29831 0.31591,-0.29831 0.17376,0 0.23296,0.13424 0.13155,0.29831 -0.1014,0.16408 -0.24356,0.29832 -0.31591,0.29832 -0.0724,0 -0.13155,-0.13424 -0.13155,-0.29832 z m 22.53838,0.0255 c -0.096,-0.15541 -0.0475,-0.36115 0.10793,-0.4572 0.15541,-0.096 0.36115,-0.0475 0.4572,0.10793 0.096,0.15541 0.0475,0.36115 -0.10793,0.4572 -0.15541,0.096 -0.36115,0.0475 -0.4572,-0.10793 z m 27.22397,-3.80901 c 0.21534,-0.0862 0.47264,-0.0756 0.57177,0.0236 0.0991,0.0991 -0.0771,0.16963 -0.39154,0.15668 -0.34752,-0.0143 -0.41821,-0.085 -0.18023,-0.18023 z m 13.85919,-2.80676 c 0.29057,-0.16917 0.43763,-0.45431 0.3268,-0.63365 -0.12345,-0.19973 -0.063,-0.24047 0.15595,-0.10514 0.19661,0.12151 0.52573,0.1087 0.73138,-0.0285 0.20565,-0.13718 0.032,0.052 -0.38596,0.4203 -0.41793,0.36835 -0.89411,0.66631 -1.05818,0.66214 -0.16407,-0.004 -0.0606,-0.146 0.23001,-0.31517 z m -3.24149,-0.94211 -0.56828,-0.67121 0.67121,0.56829 c 0.63076,0.53404 0.807,0.77412 0.56828,0.77412 -0.0566,0 -0.35865,-0.30204 -0.67121,-0.6712 z m 54.17217,0.55396 c 0,-0.0645 0.20137,-0.19451 0.44747,-0.28895 0.24611,-0.0944 0.44747,-0.0417 0.44747,0.11724 0,0.15893 -0.20136,0.28895 -0.44747,0.28895 -0.2461,0 -0.44747,-0.0528 -0.44747,-0.11724 z m -80.3208,-0.37864 c 0.20509,-0.0827 0.5407,-0.0827 0.74579,0 0.20509,0.0828 0.0373,0.15047 -0.3729,0.15047 -0.41018,0 -0.57798,-0.0677 -0.37289,-0.15047 z m 28.67459,-0.9211 c -0.37107,-0.47315 -0.36051,-0.4837 0.11263,-0.11263 0.49691,0.3897 0.65494,0.63467 0.40941,0.63467 -0.0619,0 -0.29686,-0.23492 -0.52204,-0.52204 z m -4.77301,-1.49157 c -0.37107,-0.47314 -0.36051,-0.48369 0.11263,-0.11263 0.49691,0.38971 0.65494,0.63468 0.40942,0.63468 -0.0619,0 -0.29687,-0.23492 -0.52205,-0.52205 z m 2.70029,-0.59663 -0.72321,-0.82036 0.82037,0.72321 c 0.45119,0.39776 0.82036,0.76692 0.82036,0.82036 0,0.23396 -0.24158,0.0435 -0.91752,-0.72321 z m -47.11089,-0.0746 c -0.26887,-0.17376 -0.30566,-0.291 -0.0922,-0.29375 0.19541,-0.003 0.43826,0.12967 0.53966,0.29375 0.22889,0.37036 0.12562,0.37036 -0.44747,0 z m 54.74045,-0.29832 c 0.29697,-0.32814 0.60706,-0.59662 0.6891,-0.59662 0.082,0 -0.0938,0.26848 -0.39079,0.59662 -0.29696,0.32815 -0.60706,0.59663 -0.68909,0.59663 -0.082,0 0.0938,-0.26848 0.39078,-0.59663 z m 43.55371,-0.89494 c -0.1014,-0.16407 -0.0422,-0.29831 0.13155,-0.29831 0.17376,0 0.31592,0.13424 0.31592,0.29831 0,0.16408 -0.0592,0.29832 -0.13155,0.29832 -0.0724,0 -0.21452,-0.13424 -0.31592,-0.29832 z m -54.83989,-0.49719 c -0.27807,-0.27806 -0.24821,-0.69606 0.0497,-0.69606 0.13673,0 0.2486,0.20136 0.2486,0.44747 0,0.50694 -0.0218,0.52511 -0.29832,0.24859 z m 1.55295,-0.32317 c -0.37106,-0.47314 -0.36051,-0.48369 0.11263,-0.11263 0.49692,0.38971 0.65494,0.63468 0.40942,0.63468 -0.0619,0 -0.29687,-0.23492 -0.52205,-0.52205 z m -4.71291,-1.39043 c -0.26914,-0.32429 -0.26041,-0.47222 0.038,-0.64445 0.21306,-0.12295 0.28786,-0.11369 0.16623,0.0206 -0.12163,0.13427 -0.0716,0.42427 0.1111,0.64446 0.18274,0.22018 0.26514,0.40033 0.1831,0.40033 -0.082,0 -0.30635,-0.18941 -0.49848,-0.42091 z m -20.00902,-0.75473 c 0,-0.15439 0.1327,-0.36272 0.29489,-0.46297 0.16911,-0.10451 0.21912,0.0152 0.11724,0.28071 -0.19831,0.5168 -0.41213,0.61136 -0.41213,0.18226 z m 22.33543,-0.24134 c -0.37106,-0.47314 -0.36051,-0.4837 0.11263,-0.11263 0.49691,0.38971 0.65494,0.63468 0.40942,0.63468 -0.062,0 -0.29687,-0.23493 -0.52205,-0.52205 z m -4.4747,-1.19325 c -0.37106,-0.47315 -0.36051,-0.4837 0.11263,-0.11263 0.49692,0.3897 0.65494,0.63467 0.40942,0.63467 -0.062,0 -0.29687,-0.23492 -0.52205,-0.52204 z m 2.40198,-0.89494 -0.7232,-0.82037 0.82036,0.72321 c 0.4512,0.39776 0.82036,0.76692 0.82036,0.82036 0,0.23396 -0.24158,0.0435 -0.91752,-0.7232 z m -4.78848,-1.49157 c -0.37107,-0.47314 -0.36051,-0.48369 0.11263,-0.11263 0.49691,0.38971 0.65494,0.63468 0.40942,0.63468 -0.062,0 -0.29687,-0.23492 -0.52205,-0.52205 z m 2.68482,-0.59663 c -0.37107,-0.47314 -0.36052,-0.48369 0.11263,-0.11263 0.28712,0.22518 0.52204,0.46011 0.52204,0.52205 0,0.24552 -0.24497,0.0875 -0.63467,-0.40942 z m 12.59075,0.0497 c 0.0143,-0.34751 0.085,-0.4182 0.18023,-0.18023 0.0862,0.21535 0.0756,0.47264 -0.0236,0.57177 -0.0991,0.0991 -0.16963,-0.0771 -0.15668,-0.39154 z m -16.9803,-1.61586 c 0,-0.41018 0.0677,-0.57798 0.15047,-0.37289 0.0828,0.20509 0.0828,0.54069 0,0.74578 -0.0828,0.20509 -0.15047,0.0373 -0.15047,-0.37289 z m -15.39104,-0.0874 c 0.11202,-0.29421 0.27883,-0.45977 0.37067,-0.36792 0.0919,0.0918 1.9e-4,0.33255 -0.20368,0.53491 -0.29462,0.29243 -0.32888,0.25816 -0.16699,-0.16699 z m 16.9724,0.0676 c -0.10815,-0.17498 -0.13266,-0.38214 -0.0545,-0.46033 0.0782,-0.0782 0.22166,0.065 0.31882,0.31816 0.20171,0.52566 0.0298,0.61812 -0.26436,0.14217 z m 24.12436,-3.41075 c 0.001,-1.14851 0.0552,-1.58179 0.11982,-0.96286 0.0646,0.61893 0.0635,1.55861 -0.002,2.08819 -0.0659,0.52957 -0.11874,0.0232 -0.11741,-1.12533 z m -16.35596,-4.62385 c -0.1014,-0.16408 -0.0422,-0.29832 0.13155,-0.29832 0.17376,0 0.31592,0.13424 0.31592,0.29832 0,0.16407 -0.0592,0.29831 -0.13155,0.29831 -0.0724,0 -0.21451,-0.13424 -0.31592,-0.29831 z m 4.77301,-4.77301 c -0.1014,-0.16407 -0.0501,-0.29832 0.11395,-0.29832 0.16407,0 0.38128,0.13425 0.48268,0.29832 0.1014,0.16407 0.0501,0.29831 -0.11395,0.29831 -0.16407,0 -0.38128,-0.13424 -0.48268,-0.29831 z m 5.04284,-7.11343 c 0.11707,-0.18942 0.085,-0.3444 -0.0711,-0.3444 -0.1562,0 -0.35865,-0.19452 -0.44988,-0.43228 -0.10776,-0.28082 -0.0225,-0.37726 0.24333,-0.27525 0.55957,0.21473 0.80117,0.94127 0.39622,1.19154 -0.20066,0.12401 -0.24741,0.069 -0.11852,-0.13961 z m 29.07596,-1.16476 c -0.37106,-0.47314 -0.36051,-0.48369 0.11263,-0.11263 0.49691,0.38971 0.65494,0.63468 0.40942,0.63468 -0.062,0 -0.29687,-0.23492 -0.52205,-0.52205 z m -47.15135,-2.66487 c 0.21534,-0.0862 0.47264,-0.0756 0.57177,0.0236 0.0991,0.0991 -0.0771,0.16964 -0.39154,0.15668 -0.34752,-0.0143 -0.4182,-0.085 -0.18023,-0.18023 z m 2.96449,-0.31033 c 0.53323,-0.0662 1.4058,-0.0662 1.93903,0 0.53324,0.0662 0.0969,0.12032 -0.96952,0.12032 -1.06647,0 -1.50275,-0.0541 -0.96951,-0.12032 z m 34.64084,-8.3607 c -0.37106,-0.47314 -0.36051,-0.48369 0.11263,-0.11263 0.49692,0.38971 0.65494,0.63468 0.40942,0.63468 -0.062,0 -0.29687,-0.23492 -0.52205,-0.52205 z m -3.09423,-1.26783 c -0.10141,-0.16407 0.1,-0.29831 0.44747,-0.29831 0.34751,0 0.54887,0.13424 0.44746,0.29831 -0.1014,0.16407 -0.30276,0.29831 -0.44746,0.29831 -0.14471,0 -0.34607,-0.13424 -0.44747,-0.29831 z m 0.1111,-1.7153 c -0.37106,-0.47314 -0.36051,-0.48369 0.11263,-0.11263 0.49691,0.38971 0.65494,0.63468 0.40942,0.63468 -0.0619,0 -0.29687,-0.23492 -0.52205,-0.52205 z m -179.38454,-7.51179 c -0.0944,-0.15274 -0.0576,-0.34819 0.0818,-0.43435 0.1394,-0.0862 0.25346,0.0388 0.25346,0.2777 0,0.50301 -0.0941,0.54695 -0.3353,0.15665 z M 319.127,156.46238 c -0.37107,-0.47314 -0.36051,-0.4837 0.11263,-0.11263 0.49691,0.3897 0.65494,0.63467 0.40942,0.63467 -0.0619,0 -0.29687,-0.23492 -0.52205,-0.52204 z m -3.87807,-2.98313 c -0.37107,-0.47315 -0.36051,-0.4837 0.11263,-0.11263 0.49691,0.3897 0.65494,0.63467 0.40942,0.63467 -0.062,0 -0.29687,-0.23492 -0.52205,-0.52204 z m -156.7004,-2.35413 c -0.15711,-0.40942 -0.11346,-0.42788 0.2664,-0.11263 0.51765,0.42961 0.57152,0.6023 0.1879,0.6023 -0.14652,0 -0.35095,-0.22035 -0.4543,-0.48967 z m 144.35846,-5.17828 c -0.10141,-0.16407 -0.0422,-0.29831 0.13155,-0.29831 0.17375,0 0.31592,0.13424 0.31592,0.29831 0,0.16407 -0.0592,0.29831 -0.13156,0.29831 -0.0723,0 -0.21451,-0.13424 -0.31591,-0.29831 z m -133.64427,-2.3865 c -0.1014,-0.16408 0.0328,-0.29832 0.29831,-0.29832 0.26548,0 0.39972,0.13424 0.29831,0.29832 -0.1014,0.16407 -0.23564,0.29831 -0.29831,0.29831 -0.0627,0 -0.19691,-0.13424 -0.29831,-0.29831 z m 1.21073,-0.56834 c -0.0898,-0.14525 0.0566,-0.34843 0.32524,-0.45152 0.64304,-0.24676 0.73646,-0.11198 0.23959,0.34568 -0.22089,0.20346 -0.47506,0.25108 -0.56483,0.10584 z m 124.52824,-1.96733 c 0,-0.25854 0.17763,-0.36058 0.44747,-0.25703 0.24611,0.0944 0.44747,0.21011 0.44747,0.25703 0,0.0469 -0.20136,0.1626 -0.44747,0.25704 -0.26984,0.10354 -0.44747,0.002 -0.44747,-0.25704 z m -110.83558,-4.34538 c -0.10815,-0.17499 -0.11607,-0.39873 -0.0176,-0.49719 0.0985,-0.0985 0.17903,-0.0145 0.17903,0.18661 0,0.2011 0.15498,0.26985 0.3444,0.15278 0.21339,-0.13188 0.26343,-0.0818 0.13156,0.13155 -0.26375,0.42675 -0.38673,0.43182 -0.63738,0.0263 z m 27.55029,-8.83502 c 0.21535,-0.0862 0.47264,-0.0756 0.57177,0.0236 0.0991,0.0991 -0.0771,0.16964 -0.39154,0.15668 -0.34752,-0.0143 -0.4182,-0.085 -0.18023,-0.18023 z m 44.15034,0 c 0.21534,-0.0862 0.47264,-0.0756 0.57177,0.0236 0.0991,0.0991 -0.0771,0.16964 -0.39154,0.15668 -0.34752,-0.0143 -0.4182,-0.085 -0.18023,-0.18023 z m -39.97396,-0.59662 c 0.21535,-0.0862 0.47264,-0.0756 0.57177,0.0236 0.0991,0.0991 -0.0771,0.16963 -0.39153,0.15668 -0.34752,-0.0143 -0.41821,-0.085 -0.18024,-0.18023 z m 35.77893,0.006 c 0.20509,-0.0828 0.54069,-0.0828 0.74578,0 0.20509,0.0828 0.0373,0.15047 -0.37289,0.15047 -0.41018,0 -0.57798,-0.0677 -0.37289,-0.15047 z m -8.42865,-0.40117 c -0.2072,-0.33527 0.66641,-0.77463 0.95883,-0.48221 0.10231,0.1023 -0.0713,0.18806 -0.38576,0.19058 -0.47836,0.004 -0.49867,0.0518 -0.12429,0.29374 0.26886,0.17376 0.30566,0.291 0.0922,0.29375 -0.19541,0.003 -0.43884,-0.13062 -0.54096,-0.29586 z m -10.66339,-0.81444 c 0.86138,-0.0603 2.27091,-0.0603 3.13229,0 0.86138,0.0603 0.15661,0.10956 -1.56614,0.10956 -1.72276,0 -2.42753,-0.0493 -1.56615,-0.10956 z"
         id="path4" /><path
         style="fill:#ffffff;fill-opacity:1"
         d="m 222.67503,393.82789 c -7.67132,-0.8525 -12.51282,-1.62563 -17.61474,-2.81285 -1.64072,-0.38179 -3.55423,-0.7857 -4.25223,-0.89757 -0.78504,-0.12581 -1.19414,-0.32467 -1.07258,-0.52136 0.11805,-0.19101 0.0547,-0.23032 -0.15866,-0.0985 -0.98971,0.61167 -15.33487,-4.50974 -23.30374,-8.31973 -1.1584,-0.55385 -3.96145,-1.96356 -4.62386,-2.32545 -0.32814,-0.17927 -1.33495,-0.71825 -2.23735,-1.19773 -0.90239,-0.47948 -1.60383,-1.0029 -1.55875,-1.16316 0.0451,-0.16026 -0.0442,-0.21337 -0.19853,-0.11803 -0.15427,0.0953 -1.39933,-0.52068 -2.76679,-1.36895 -1.36745,-0.84826 -2.78728,-1.68818 -3.15516,-1.86648 -0.36788,-0.1783 -0.66992,-0.42486 -0.6712,-0.54791 -0.001,-0.12306 -0.13695,-0.22374 -0.30148,-0.22374 -0.35723,0 -5.64719,-3.67932 -6.97284,-4.84981 -0.59622,-0.52644 -0.72606,-0.74984 -0.36064,-0.62051 0.40406,0.143 0.50573,0.0965 0.34779,-0.15907 -0.12276,-0.19863 -0.45911,-0.28627 -0.74745,-0.19475 -0.64035,0.20324 -6.08988,-4.21133 -5.79254,-4.69244 0.11196,-0.18114 0.0526,-0.22713 -0.13965,-0.10829 -0.42175,0.26065 -2.19331,-1.28554 -1.94088,-1.69397 0.10282,-0.16637 0.0479,-0.21658 -0.12198,-0.11156 -0.4275,0.26421 -2.30573,-1.42728 -2.04797,-1.84435 0.12641,-0.20454 0.0491,-0.27496 -0.19789,-0.18019 -0.51351,0.19705 -6.55743,-5.8126 -6.36088,-6.32481 0.0826,-0.21534 -0.0235,-0.30659 -0.25377,-0.21822 -0.47161,0.18098 -2.31116,-1.94414 -2.04945,-2.36759 0.0997,-0.16135 0.0373,-0.20434 -0.13876,-0.0956 -0.36512,0.22566 -5.2295,-5.54067 -8.36524,-9.91631 -1.90803,-2.66249 -2.46397,-3.63882 -2.25996,-3.96891 0.12372,-0.20019 0.0711,-0.24994 -0.13173,-0.12458 -0.32842,0.20297 -1.31237,-1.18359 -4.23566,-5.9688 -2.60353,-4.2618 -6.90485,-12.72198 -6.96314,-13.69566 -0.0224,-0.37407 -0.12565,-0.62769 -0.22945,-0.56362 -0.30068,0.18561 -1.51117,-2.87069 -1.32703,-3.35056 0.0916,-0.23866 0.0524,-0.36343 -0.087,-0.27725 -0.46707,0.28867 -4.36914,-10.43097 -5.57955,-15.32793 -1.63628,-6.61994 -2.59958,-11.13899 -3.08986,-14.4952 -1.38737,-9.49728 -1.50948,-11.45314 -1.39586,-22.3582 0.11128,-10.68006 0.25034,-12.2643 2.10786,-24.01421 0.0649,-0.41018 0.44643,-2.08819 0.84796,-3.72891 0.40154,-1.64072 0.82632,-3.5201 0.94396,-4.17638 0.11765,-0.65629 0.59539,-2.40142 1.06165,-3.87807 0.46626,-1.47665 0.99765,-3.2594 1.18086,-3.96165 0.20943,-0.80273 0.45583,-1.201 0.6636,-1.07259 0.2071,0.128 0.24577,0.0672 0.10357,-0.1629 -0.20783,-0.33628 0.79679,-3.61024 1.80598,-5.88553 0.22932,-0.51702 0.41694,-1.09546 0.41694,-1.28544 0,-0.18998 0.15498,-0.24963 0.34441,-0.13256 0.19751,0.12207 0.264,0.0828 0.15589,-0.0922 -0.4953,-0.8014 5.36723,-13.11284 8.98999,-18.8792 0.67002,-1.06647 1.74859,-2.8116 2.39682,-3.87807 2.86992,-4.72159 8.50217,-12.1734 9.06966,-11.99971 0.14729,0.0451 0.19303,-0.039 0.10162,-0.18692 -0.24818,-0.40158 8.89606,-10.78348 9.49795,-10.78348 0.0867,0 0.71847,-0.60845 1.40396,-1.35211 2.19858,-2.38518 7.07781,-6.46452 7.45401,-6.23201 0.21014,0.12987 0.27477,0.0911 0.15936,-0.0957 -0.1853,-0.29981 4.69292,-4.41795 6.13026,-5.1751 0.37607,-0.19811 0.75088,-0.45898 0.83292,-0.57971 0.47017,-0.69201 11.5033,-7.62703 14.46818,-9.09418 0.65629,-0.32476 1.26037,-0.65759 1.34241,-0.73963 0.082,-0.082 1.02172,-0.55188 2.08819,-1.04409 1.06647,-0.49222 1.98378,-0.99562 2.03847,-1.11868 0.0547,-0.12305 0.24723,-0.22373 0.42787,-0.22373 0.18063,0 0.87421,-0.25641 1.54128,-0.5698 3.95606,-1.85854 4.71088,-2.15298 5.11839,-1.9966 0.24805,0.0952 0.38049,0.059 0.29431,-0.0805 -0.0862,-0.13944 0.67873,-0.59266 1.69981,-1.00716 2.37042,-0.96227 6.85291,-2.59589 7.57006,-2.75887 0.30306,-0.0689 1.22221,-0.32739 2.04257,-0.57448 7.67729,-2.31235 13.17534,-3.56473 19.69321,-4.48586 8.19289,-1.15785 9.05958,-1.20707 20.72822,-1.17717 10.5494,0.027 11.09277,0.0572 17.45131,0.96776 13.12435,1.87952 25.35827,5.39532 36.99083,10.63046 3.72693,1.67728 5.51661,2.66261 5.51775,3.03787 5.7e-4,0.19082 0.25209,0.27932 0.56289,0.19804 0.30901,-0.0808 1.08194,0.1814 1.71761,0.58268 0.63567,0.40128 1.69169,0.99507 2.3467,1.31954 0.65502,0.32447 2.33199,1.3011 3.72661,2.17028 1.39461,0.86919 2.89508,1.79717 3.33437,2.06218 1.79823,1.08481 7.31078,4.93667 8.05708,5.62983 0.44073,0.40935 1.06478,0.89517 1.38678,1.07959 2.24688,1.28687 10.65571,8.90336 15.71067,14.23029 2.55085,2.68809 8.50192,9.69251 8.50192,10.00677 0,0.10399 0.41137,0.67523 0.91416,1.26943 1.99316,2.35551 3.59682,4.80822 3.38462,5.17656 -0.11993,0.20818 -0.10734,0.27812 0.028,0.15544 0.3456,-0.31334 4.35295,5.79068 4.15531,6.32939 -0.0885,0.24111 -0.065,0.3425 0.0522,0.22532 0.30915,-0.30915 1.67641,1.81882 1.42745,2.22165 -0.11528,0.18652 -0.0809,0.25957 0.0764,0.16234 0.30529,-0.18868 4.458,7.43843 4.3891,8.06126 -0.0225,0.20333 0.0782,0.29609 0.22373,0.20613 0.14555,-0.0899 0.26463,-0.0177 0.26463,0.16062 0,0.1783 0.68738,1.8288 1.52751,3.66779 0.84013,1.83898 1.54489,3.63464 1.56614,3.99034 0.0213,0.35571 0.13932,0.58458 0.26238,0.5086 0.12305,-0.076 0.22373,0.0173 0.22373,0.20728 0,0.18998 0.2226,0.8145 0.49466,1.38783 0.42063,0.88641 0.43179,1.0822 0.0746,1.30834 -0.35138,0.22245 -0.34485,0.26668 0.0399,0.2705 0.30686,0.003 0.77074,0.87354 1.3934,2.61481 1.22995,3.43957 2.62894,8.0704 3.22184,10.6647 0.26248,1.1485 0.73154,3.16211 1.04235,4.47469 0.77473,3.27172 0.81922,3.51889 1.63788,9.09855 1.10554,7.53492 1.19391,8.9701 1.19391,19.39035 0,10.67819 -0.0911,12.17436 -1.20167,19.73093 -0.99795,6.79035 -0.91183,6.30655 -1.62958,9.15454 -0.34442,1.36661 -0.76097,3.11174 -0.92568,3.87807 -0.89914,4.18342 -3.01885,10.94575 -5.01867,16.01065 -1.48375,3.75784 -1.95296,4.8816 -2.89204,6.92638 -3.59914,7.83689 -8.23598,16.07349 -8.83888,15.70087 -0.17992,-0.11119 -0.23199,-0.0569 -0.11972,0.12471 0.34738,0.56208 -1.72417,3.79041 -2.23116,3.47707 -0.14027,-0.0867 -0.18442,0.0264 -0.0981,0.2513 0.0863,0.22491 -0.50755,1.33937 -1.31967,2.47658 -2.24122,3.13838 -2.74712,3.72816 -3.0417,3.5461 -0.14864,-0.0919 -0.18185,0.0633 -0.0738,0.34488 0.14382,0.37479 0.0906,0.4465 -0.19867,0.26771 -0.26227,-0.16209 -0.32385,-0.1289 -0.18316,0.0987 0.39634,0.64129 -7.78974,9.92749 -13.7165,15.55986 -5.03445,4.78438 -10.55625,9.31131 -11.10416,9.10352 -0.21361,-0.081 -0.31843,-0.0341 -0.23293,0.10424 0.2337,0.37812 -0.76837,1.17889 -5.22395,4.17455 -3.97368,2.67165 -4.69738,3.0755 -4.26889,2.38219 0.13294,-0.2151 0.0817,-0.26336 -0.13642,-0.12855 -0.1921,0.11873 -0.27912,0.32937 -0.19339,0.46809 0.18291,0.29595 -1.88657,1.64533 -2.13791,1.39399 -0.0938,-0.0938 -0.38875,0.0883 -0.65551,0.40461 -1.51182,1.79264 -20.0129,10.55643 -22.28551,10.55643 -0.55646,0 -0.87168,0.0866 -0.70049,0.19237 0.27837,0.17204 -2.52456,1.356 -3.83156,1.61845 -0.2836,0.0569 -1.83086,0.52687 -3.43835,1.04427 -1.6075,0.51741 -3.75536,1.1235 -4.77301,1.34687 -1.01766,0.22338 -3.59542,0.80106 -5.72836,1.28375 -2.13294,0.48268 -6.02593,1.16628 -8.65108,1.51911 -2.62516,0.35282 -5.30997,0.72139 -5.96626,0.81903 -2.00518,0.29834 -21.91984,0.37502 -24.44741,0.0941 z m 59.79751,-9.64613 c 0,-0.0645 -0.20834,-0.19718 -0.46296,-0.29489 -0.26548,-0.10187 -0.38522,-0.0519 -0.28071,0.11724 0.17518,0.28346 0.74367,0.41926 0.74367,0.17765 z m 27.4448,-14.33334 c 0,-0.0723 -0.13424,-0.21451 -0.29831,-0.31591 -0.16407,-0.10141 -0.29831,-0.0422 -0.29831,0.13155 0,0.17375 0.13424,0.31592 0.29831,0.31592 0.16407,0 0.29831,-0.0592 0.29831,-0.13156 z M 140.2814,354.30898 c -0.23663,-0.61664 -0.40252,-0.54398 -0.40252,0.17632 0,0.33783 0.12838,0.53489 0.28528,0.43792 0.15691,-0.097 0.20967,-0.37338 0.11724,-0.61424 z m -12.89256,-14.56065 c -0.18274,-0.22019 -0.23273,-0.51019 -0.1111,-0.64446 0.12163,-0.13426 0.0468,-0.14352 -0.16623,-0.0206 -0.29846,0.17223 -0.30719,0.32016 -0.038,0.64445 0.19213,0.23151 0.41644,0.42092 0.49848,0.42092 0.082,0 -3.6e-4,-0.18016 -0.1831,-0.40034 z m 52.46399,-2.51734 c 0,-0.31946 -13.52908,-13.81513 -13.75113,-13.71718 -0.0978,0.0432 -0.43344,-0.12288 -0.74578,-0.36899 -0.52298,-0.41208 -0.53602,-0.40679 -0.1649,0.0668 0.36071,0.46035 -0.14787,1.06622 -4.84759,5.77478 -2.88782,2.89325 -5.25058,5.49799 -5.25058,5.78831 0,0.29032 0.1678,0.66353 0.37289,0.82936 0.20509,0.16583 2.51631,0.39371 5.13605,0.5064 2.61974,0.11269 4.84172,0.25344 4.93774,0.31278 0.096,0.0593 1.64421,0.19985 3.44044,0.31224 1.79624,0.11239 4.47405,0.30311 5.9507,0.42382 3.89544,0.31844 4.92216,0.33339 4.92216,0.0716 z m 4.11672,-1.61668 c 0.50813,-0.50812 0.44625,-1.58822 -0.24593,-4.29274 -0.33215,-1.2978 -0.65577,-2.62813 -0.71915,-2.95627 -0.0634,-0.32815 -0.19046,-0.79799 -0.2824,-1.0441 -0.0919,-0.24611 -0.22449,-0.78307 -0.29455,-1.19325 -0.0701,-0.41018 -0.2193,-1.22878 -0.33164,-1.81911 -0.29856,-1.56897 0.50706,-2.29513 5.21478,-4.70048 4.22939,-2.16094 6.57727,-3.39705 9.92816,-5.22697 1.11257,-0.60758 2.17368,-1.01147 2.35802,-0.89754 0.19892,0.12293 0.25239,0.0732 0.13155,-0.1223 -0.11198,-0.18119 0.0598,-0.47042 0.38177,-0.64272 0.77381,-0.41414 1.00547,-0.39556 0.74352,0.0596 -0.11802,0.20509 -0.11475,0.2834 0.007,0.17402 0.12201,-0.10939 0.20086,-0.29444 0.17521,-0.41123 -0.0472,-0.21508 2.2793,-1.63434 2.83001,-1.72639 0.16455,-0.0275 0.4746,-0.28494 0.689,-0.57206 0.21439,-0.28713 0.52724,-0.52205 0.69523,-0.52205 0.16798,0 0.99937,-0.44729 1.84754,-0.99398 0.84816,-0.54669 2.88453,-1.7882 4.52525,-2.75893 1.64072,-0.97072 3.11737,-1.86504 3.28144,-1.98738 0.16407,-0.12235 2.11057,-1.43562 4.32554,-2.91838 2.21498,-1.48277 4.88889,-3.28973 5.94204,-4.01548 1.05315,-0.72574 2.04713,-1.23776 2.20886,-1.1378 0.1628,0.10061 0.20031,0.0301 0.084,-0.15808 -0.12283,-0.19873 0.14746,-0.55845 0.65102,-0.86645 0.47357,-0.28966 1.31922,-0.88768 1.87922,-1.32896 3.4631,-2.72884 4.56588,-3.48607 4.83485,-3.31983 0.16651,0.1029 0.22172,0.056 0.12269,-0.10424 -0.099,-0.16023 1.0884,-1.34808 2.63873,-2.63966 1.55033,-1.29158 2.81878,-2.42151 2.81878,-2.51095 0,-0.0894 -2.22559,-2.39112 -4.94577,-5.11482 l -4.94577,-4.9522 -1.09507,0.24127 c -0.60229,0.1327 -2.63884,0.58286 -4.52567,1.00035 -4.55859,1.00866 -4.82475,1.06555 -5.51879,1.17946 -0.76532,0.12561 -5.77323,1.20852 -7.9011,1.70853 -1.47717,0.34711 -1.88799,0.64306 -4.21897,3.03927 -1.59056,1.63508 -2.71697,2.57158 -2.9327,2.43825 -0.21703,-0.13413 -0.3143,-0.0497 -0.25573,0.22202 0.10497,0.48692 -28.59612,29.35479 -29.05273,29.22156 -0.15451,-0.0451 -0.21924,0.022 -0.14385,0.14916 0.19768,0.33331 -3.55145,3.97715 -3.83183,3.72422 -0.12904,-0.11641 -0.14746,-0.0591 -0.0409,0.12744 0.2088,0.36552 -0.47245,1.09369 -0.7967,0.85157 -0.10796,-0.0806 -0.13152,-0.0594 -0.0524,0.0471 0.0792,0.10651 -0.44608,0.78366 -1.1672,1.50478 l -1.31113,1.31113 3.43244,3.40076 c 2.19496,2.1747 3.35199,3.53092 3.20931,3.7618 -0.14641,0.23688 -0.0976,0.28347 0.14182,0.13548 0.45085,-0.27864 4.26945,3.40034 4.0705,3.92167 -0.0751,0.19674 0.0288,0.29425 0.2309,0.21671 0.20208,-0.0775 1.01371,0.53338 1.80361,1.3576 1.47535,1.53945 2.62362,1.92388 3.40688,1.14062 z m -60.96468,-2.5939 c 0.0908,-0.14688 -0.0287,-0.3414 -0.26552,-0.43228 -0.2872,-0.11021 -0.37533,-0.0213 -0.26468,0.26706 0.1923,0.50111 0.30156,0.53516 0.5302,0.16522 z m 53.86483,-0.75944 c 0,-0.0723 -0.13424,-0.21451 -0.29831,-0.31591 -0.16407,-0.10141 -0.29831,-0.0422 -0.29831,0.13155 0,0.17375 0.13424,0.31592 0.29831,0.31592 0.16407,0 0.29831,-0.0592 0.29831,-0.13156 z m 8.35277,-0.16676 c 0,-0.16407 -0.14216,-0.29831 -0.31592,-0.29831 -0.17375,0 -0.23295,0.13424 -0.13155,0.29831 0.1014,0.16407 0.24356,0.29832 0.31592,0.29832 0.0724,0 0.13155,-0.13425 0.13155,-0.29832 z m -9.54602,-1.19325 c 0,-0.16407 -0.14216,-0.29831 -0.31592,-0.29831 -0.17375,0 -0.23295,0.13424 -0.13155,0.29831 0.1014,0.16407 0.24357,0.29831 0.31592,0.29831 0.0724,0 0.13155,-0.13424 0.13155,-0.29831 z m -3.72891,-15.51228 c 0.1014,-0.16407 0.0422,-0.29831 -0.13155,-0.29831 -0.17376,0 -0.31592,0.13424 -0.31592,0.29831 0,0.16407 0.0592,0.29831 0.13155,0.29831 0.0724,0 0.21451,-0.13424 0.31592,-0.29831 z m 5.67584,-4.41708 c -0.0918,-0.0919 -0.33256,-1.9e-4 -0.53491,0.20368 -0.29243,0.29462 -0.25817,0.32888 0.16699,0.16699 0.2942,-0.11202 0.45977,-0.27883 0.36792,-0.37067 z m 27.73522,0.2407 c 0.10141,-0.16408 0.0422,-0.29832 -0.13155,-0.29832 -0.17375,0 -0.31592,0.13424 -0.31592,0.29832 0,0.16407 0.0592,0.29831 0.13155,0.29831 0.0724,0 0.21452,-0.13424 0.31592,-0.29831 z m 35.28679,-28.08222 c -0.0745,-0.22342 -0.20969,-0.0882 -0.31518,0.31519 -0.12976,0.49619 -0.0909,0.61266 0.13043,0.3913 0.17335,-0.17336 0.25649,-0.49127 0.18475,-0.70649 z m 3.70137,-1.67452 c 9.3857,-8.90868 19.42982,-19.12311 24.40338,-24.81714 1.06647,-1.22096 2.37062,-2.69761 2.89813,-3.28145 0.93377,-1.03349 5.17102,-6.39284 6.05666,-7.66057 4.47791,-6.40985 7.27921,-11.49994 8.23165,-14.95728 0.46502,-1.68801 0.97232,-3.88585 0.99766,-4.32232 0.0233,-0.40141 -0.84593,-0.23511 -1.09471,0.20943 -0.13333,0.23825 -1.22574,1.31881 -2.42758,2.40125 -1.89759,1.70908 -2.25041,1.91707 -2.68096,1.58044 -0.43535,-0.34037 -0.44961,-0.32847 -0.11693,0.0976 0.32932,0.42178 -0.0546,0.86093 -2.93483,3.35739 -1.82254,1.57968 -3.45686,2.78366 -3.63183,2.67553 -0.17528,-0.10833 -0.23199,-0.0572 -0.12629,0.11379 0.2455,0.39721 -4.84636,4.90457 -5.25517,4.65191 -0.16846,-0.10411 -0.22678,-0.0606 -0.12959,0.0966 0.14002,0.22655 -3.34916,3.68409 -3.71813,3.68442 -0.0524,4e-5 -1.02371,0.86677 -2.15842,1.92605 -1.1347,1.05928 -2.1784,1.85471 -2.31931,1.76762 -0.14092,-0.0871 -0.21933,-0.0301 -0.17425,0.12654 0.13171,0.45775 -2.69976,2.81008 -3.09124,2.56814 -0.20913,-0.12925 -0.26999,-0.0873 -0.15149,0.10446 0.11235,0.18177 -1.8526,2.12928 -4.53958,4.4993 -3.64467,3.21474 -4.81937,4.09773 -5.09183,3.8274 -0.27249,-0.27037 -0.31133,-0.23884 -0.16843,0.13673 0.13892,0.36511 -1.65557,2.09448 -7.11955,6.8612 -4.01791,3.50518 -7.31532,6.59362 -7.32758,6.86319 -0.0123,0.26957 0.18758,0.57067 0.44409,0.6691 0.26105,0.10017 0.37209,0.33152 0.25222,0.52548 -0.13222,0.21393 -0.084,0.26605 0.12611,0.13621 0.41728,-0.25789 4.2759,3.67509 4.01684,4.09426 -0.10265,0.16609 -0.0268,0.1973 0.17552,0.0722 0.22273,-0.13765 1.10408,0.57179 2.35164,1.89295 1.09748,1.16221 2.03748,2.11311 2.08889,2.11311 0.0514,0 1.04812,-0.90613 2.21491,-2.01362 z M 238.411,280.8838 c -0.0839,-0.21877 -0.25014,-0.39775 -0.36931,-0.39775 -0.11917,0 -0.21668,0.17898 -0.21668,0.39775 0,0.21876 0.16619,0.39775 0.36931,0.39775 0.20312,0 0.30063,-0.17899 0.21668,-0.39775 z m -1.47742,-1.1564 c -0.0972,-0.25319 -0.24063,-0.39636 -0.31883,-0.31816 -0.0782,0.0782 -0.0537,0.28535 0.0545,0.46033 0.29415,0.47595 0.46608,0.38349 0.26437,-0.14217 z m 11.8666,-1.70741 c -0.29462,-0.29242 -0.32889,-0.25816 -0.167,0.167 0.11203,0.2942 0.27883,0.45976 0.37068,0.36792 0.0918,-0.0919 1.9e-4,-0.33256 -0.20368,-0.53492 z m -31.56535,-2.50471 c 0.52318,-0.077 2.74296,-0.54505 4.93285,-1.04019 2.18988,-0.49514 4.33774,-0.96415 4.77301,-1.04225 1.06124,-0.19041 1.41442,-0.57943 0.99016,-1.09063 -0.18851,-0.22714 -0.27679,-0.50131 -0.19618,-0.60927 0.0806,-0.10796 0.0543,-0.12644 -0.0584,-0.0411 -0.31089,0.23547 -2.48208,-1.99851 -2.27227,-2.33799 0.10059,-0.16276 0.0497,-0.21362 -0.11304,-0.11303 -0.16276,0.10059 -0.81483,-0.34851 -1.44904,-0.99801 -0.63421,-0.64949 -1.29367,-1.18089 -1.46546,-1.18088 -0.1718,0 -0.69184,0.47561 -1.15566,1.05691 -0.59939,0.7512 -1.00198,1.00655 -1.39188,0.8828 -0.30172,-0.0958 -0.63397,-0.036 -0.73833,0.13292 -0.1129,0.18267 -0.002,0.23507 0.2732,0.12937 0.96323,-0.36962 0.38253,0.40417 -2.07269,2.76192 -1.39462,1.33925 -2.53566,2.64294 -2.53566,2.89709 0,0.51138 0.88943,1.12698 1.27974,0.88576 0.13661,-0.0844 0.67644,-0.21649 1.19962,-0.29346 z m -2.143,-2.11417 c 0.37106,-0.47314 0.36051,-0.48369 -0.11263,-0.11263 -0.28713,0.22518 -0.52205,0.4601 -0.52205,0.52205 0,0.24552 0.24497,0.0875 0.63468,-0.40942 z m 16.18928,-0.32317 c 0.0845,-0.13673 -0.0359,-0.2486 -0.26758,-0.2486 -0.23167,0 -0.35209,0.11187 -0.26759,0.2486 0.0845,0.13672 0.20492,0.24859 0.26759,0.24859 0.0627,0 0.18308,-0.11187 0.26758,-0.24859 z m 0.40362,-1.17846 c -0.13784,-0.43215 5.70482,-5.49267 6.07644,-5.26299 0.20508,0.12674 0.27653,0.0925 0.16924,-0.0811 -0.28219,-0.45659 7.48,-7.32889 7.94989,-7.03849 0.15962,0.0987 0.20338,0.0389 0.0972,-0.13288 -0.25248,-0.40853 4.22125,-4.32441 4.64281,-4.06387 0.17775,0.10986 0.2399,0.065 0.13811,-0.0997 -0.10179,-0.1647 0.17951,-0.61629 0.62511,-1.00353 0.44561,-0.38725 3.21431,-2.81854 6.15267,-5.40288 2.93837,-2.58434 5.47613,-4.6162 5.63947,-4.51526 0.16333,0.10095 0.21304,0.0477 0.11046,-0.11824 -0.10258,-0.16598 4.34585,-4.26748 9.88539,-9.11443 10.30608,-9.01755 12.09754,-10.73001 12.59574,-12.04037 0.45842,-1.20576 0.34108,-4.52964 -0.20019,-5.67027 -0.72511,-1.52806 -2.94681,-3.33364 -4.74521,-3.85645 -1.77547,-0.51614 -3.75181,-0.23224 -5.37747,0.77247 -0.51255,0.31677 -5.92187,5.56562 -12.02071,11.66411 -6.09884,6.09848 -11.13432,11.03402 -11.18996,10.96786 -0.0556,-0.0662 -0.25112,-0.38878 -0.4344,-0.71693 -0.24631,-0.44098 -0.33561,-0.476 -0.34231,-0.13424 -0.005,0.25431 0.15023,0.62169 0.34493,0.81639 0.27313,0.27313 -0.83432,1.54639 -4.84759,5.57335 -2.93478,2.94481 -5.37084,5.15806 -5.58997,5.07871 -0.2144,-0.0776 -0.3029,-0.002 -0.19756,0.16813 0.10495,0.16983 -2.70928,3.21142 -6.25387,6.75911 -6.07151,6.07683 -6.46977,6.41718 -6.87789,5.87781 -0.23826,-0.31489 -0.43747,-0.43157 -0.44268,-0.25929 -0.005,0.17227 0.14516,0.46787 0.33418,0.65689 0.25935,0.25935 -0.085,0.78141 -1.40333,2.12781 -0.96085,0.98128 -1.8567,1.71635 -1.99077,1.63348 -0.13408,-0.0829 -0.21306,0.25247 -0.17552,0.74519 0.0376,0.49272 0.15064,0.84494 0.25133,0.78271 0.10068,-0.0622 1.4488,1.16688 2.99583,2.73135 2.33053,2.35682 3.3261,3.17912 4.08059,3.37042 0.041,0.0104 0.041,-0.0863 0,-0.21489 z m -31.84492,-2.87456 c 0.41018,-0.0939 1.21563,-0.25201 1.78988,-0.35128 0.57425,-0.0993 2.0509,-0.42606 3.28144,-0.7262 1.23054,-0.30013 4.31809,-0.97751 6.8612,-1.50527 7.51218,-1.55896 7.86465,-1.64477 7.96252,-1.93836 0.0515,-0.1545 -2.12194,-2.49343 -4.82986,-5.19763 l -4.92349,-4.91671 -6.86072,6.85586 c -3.7734,3.77072 -6.86073,6.99791 -6.86073,7.17152 0,0.98045 1.12176,1.17099 3.57976,0.60807 z m 48.31436,-31.01705 c 18.86957,-18.8644 25.75217,-25.56847 26.10885,-25.4316 0.2664,0.10223 0.41114,0.0674 0.32165,-0.0774 -0.18859,-0.30514 1.61738,-1.08138 3.21178,-1.38049 0.60298,-0.11312 1.09633,-0.29625 1.09633,-0.40695 0,-0.33384 -2.47778,-2.13037 -3.18197,-2.30711 -0.44393,-0.11142 -0.60542,-0.32486 -0.49894,-0.65944 0.11215,-0.35241 0.0797,-0.38713 -0.11271,-0.12072 -0.21397,0.29621 -0.56841,0.27234 -1.7045,-0.11476 -2.96658,-1.01082 -7.8202,2.8e-4 -12.61511,2.62795 -5.79164,3.17389 -14.19466,9.59577 -23.30463,17.8102 -1.20432,1.08594 -2.45026,2.11565 -2.76875,2.28825 -0.31849,0.1726 -0.50947,0.38342 -0.4244,0.46848 0.0851,0.0851 -0.61416,0.81641 -1.55383,1.62522 -3.43368,2.95549 -20.95561,20.04707 -20.95561,20.44093 0,0.10771 0.4649,0.70338 1.0331,1.32371 0.5682,0.62033 0.95018,1.26203 0.84885,1.42599 -0.10555,0.17078 -0.0335,0.20493 0.16876,0.0799 0.41552,-0.25681 4.50974,3.91311 4.51675,4.60026 0.004,0.35267 0.0573,0.36483 0.25234,0.0572 0.18532,-0.29221 0.38887,-0.17943 0.80756,0.44747 0.30788,0.46099 0.5266,0.94882 0.48605,1.08407 -0.0406,0.13525 0.0627,0.16159 0.22947,0.0585 0.34046,-0.21041 1.79977,1.12414 1.79977,1.64591 0,0.1852 0.13831,0.29063 0.30735,0.23428 0.16904,-0.0563 11.83837,-11.63031 25.93184,-25.71991 z m -2.83435,23.70506 c 0.0944,-0.15273 0.0576,-0.34819 -0.0818,-0.43434 -0.13941,-0.0862 -0.25346,0.0388 -0.25346,0.2777 0,0.503 0.0941,0.54695 0.33529,0.15664 z m -27.54421,-0.9951 c -0.29462,-0.29242 -0.32888,-0.25816 -0.16699,0.167 0.11203,0.2942 0.27883,0.45976 0.37068,0.36792 0.0918,-0.0918 1.9e-4,-0.33256 -0.20369,-0.53492 z m -3.31846,-3.81612 c 0,-0.15439 -0.23492,-0.27011 -0.52205,-0.25716 -0.31494,0.0142 -0.37337,0.0835 -0.14729,0.17464 0.20611,0.0831 0.28605,0.2946 0.17764,0.47001 -0.1165,0.1885 -0.0563,0.23188 0.1473,0.10607 0.18942,-0.11707 0.3444,-0.33917 0.3444,-0.49356 z m -1.25607,-0.99641 c -0.21156,-0.22956 -0.43165,-0.37273 -0.4891,-0.31816 -0.17694,0.16809 0.27151,0.73555 0.58129,0.73555 0.16086,0 0.11937,-0.18783 -0.0922,-0.41739 z m 23.33124,-4.95225 c 0,-0.16407 -0.0592,-0.29831 -0.13155,-0.29831 -0.0724,0 -0.21452,0.13424 -0.31592,0.29831 -0.1014,0.16407 -0.0422,0.29831 0.13155,0.29831 0.17376,0 0.31592,-0.13424 0.31592,-0.29831 z m 23.78846,-3.57976 c 0.0785,-0.2878 0.0341,-0.33037 -0.12443,-0.11931 -0.13555,0.18049 -0.44781,0.41305 -0.69392,0.51679 -0.31441,0.13254 -0.2774,0.16802 0.12444,0.11931 0.31454,-0.0381 0.62681,-0.27068 0.69391,-0.51679 z m 1.56815,-1.19325 c 0,-0.16407 -0.0592,-0.29831 -0.13155,-0.29831 -0.0724,0 -0.21451,0.13424 -0.31591,0.29831 -0.10141,0.16407 -0.0422,0.29831 0.13155,0.29831 0.17375,0 0.31591,-0.13424 0.31591,-0.29831 z m 21.5166,-6.19 c 0.37871,-0.48289 0.36467,-0.48922 -0.18721,-0.0844 -0.32814,0.2407 -0.65256,0.47562 -0.72092,0.52205 -0.0684,0.0464 0.0159,0.0844 0.18721,0.0844 0.17132,0 0.49574,-0.23492 0.72092,-0.52205 z m -179.71707,-5.20183 c -0.0952,-0.23798 -0.16591,-0.16729 -0.18023,0.18023 -0.013,0.31447 0.0576,0.49066 0.15668,0.39154 0.0991,-0.0991 0.10973,-0.35643 0.0236,-0.57177 z m 141.34578,-14.2631 c 0.10141,-0.16407 0.0422,-0.29831 -0.13155,-0.29831 -0.17375,0 -0.31591,0.13424 -0.31591,0.29831 0,0.16408 0.0592,0.29832 0.13155,0.29832 0.0724,0 0.21451,-0.13424 0.31591,-0.29832 z m 22.65605,-0.32379 c -0.096,-0.15541 -0.30179,-0.20398 -0.4572,-0.10793 -0.15541,0.096 -0.20398,0.30179 -0.10793,0.4572 0.096,0.15541 0.30179,0.20398 0.4572,0.10793 0.15541,-0.0961 0.20398,-0.30179 0.10793,-0.4572 z m 35.9942,-4.00298 c 0.91985,-0.2905 1.97523,-0.75657 2.3453,-1.03571 l 0.67286,-0.50754 -4.07622,-4.07857 c -2.45087,-2.45229 -3.99213,-4.21461 -3.86535,-4.41975 0.13115,-0.21221 0.0785,-0.25939 -0.13921,-0.12483 -0.54891,0.33925 -6.00669,-5.26381 -6.00669,-6.16658 0,-0.73029 0.91988,-1.84465 1.29204,-1.56522 0.10974,0.0824 0.12831,0.0562 0.0413,-0.0582 -0.2363,-0.31054 4.39273,-4.86266 4.73175,-4.65313 0.16044,0.0992 0.21004,0.0481 0.11023,-0.11335 -0.23953,-0.38757 2.88289,-3.46166 3.21199,-3.16227 0.13992,0.12729 0.17277,0.0878 0.073,-0.0877 -0.2346,-0.41281 5.85044,-6.48762 6.1894,-6.179 0.14112,0.12848 0.17375,0.088 0.0725,-0.0899 -0.10122,-0.17791 0.41422,-0.91063 1.14543,-1.62826 0.73121,-0.71763 1.32947,-1.39323 1.32947,-1.50134 0,-0.10811 -0.54175,-0.55507 -1.20389,-0.99325 -0.70363,-0.46565 -1.11834,-0.93513 -0.998,-1.12983 0.12494,-0.20217 0.0707,-0.2496 -0.13791,-0.12066 -0.18908,0.11686 -0.71323,0.0154 -1.16476,-0.22551 -3.31102,-1.76641 -5.91658,-2.39671 -9.91953,-2.39961 -3.87083,-0.003 -6.07156,0.55556 -9.72636,2.46775 -3.47173,1.8164 -6.80393,5.30954 -8.62819,9.04493 -0.6968,1.42677 -1.37067,2.5007 -1.49749,2.38651 -0.12682,-0.11419 -0.13558,-0.0423 -0.0195,0.15967 0.11612,0.20201 0.044,1.20881 -0.16024,2.23735 -0.40411,2.03497 -0.54146,8.01326 -0.17897,7.78985 0.12306,-0.0759 0.22812,0.23918 0.23347,0.70007 0.005,0.46088 0.28682,1.57629 0.62546,2.47868 0.33865,0.9024 0.61567,1.96335 0.6156,2.35766 -9e-5,0.5212 0.0697,0.60398 0.25558,0.3032 0.18987,-0.30722 0.37321,-0.13251 0.71212,0.67861 0.62792,1.50281 3.14749,4.46405 5.18564,6.09464 2.22274,1.77827 6.0639,3.58825 8.70477,4.10174 1.72577,0.33556 8.52273,-0.0388 10.17437,-0.56046 z m 5.60807,-2.74912 c 4.76197,-3.60315 7.72508,-8.41257 8.67754,-14.0845 0.78372,-4.66703 -0.51818,-10.08065 -3.50792,-14.58682 l -1.64895,-2.48529 -2.36121,2.33614 c -1.29867,1.28488 -3.9209,3.90646 -5.82719,5.82574 -1.90628,1.91927 -3.6096,3.40796 -3.78516,3.30819 -0.17555,-0.0998 -0.21967,-0.0716 -0.098,0.0627 0.31129,0.34362 -0.36571,1.07946 -0.777,0.84452 -0.1865,-0.10654 -0.23423,-0.0785 -0.10606,0.0623 0.12816,0.1408 -0.87662,1.37143 -2.23284,2.73473 l -2.46586,2.47874 6.81888,6.82371 c 6.07483,6.07914 6.75791,6.85914 6.26006,7.14836 -0.30735,0.17856 -0.43725,0.32873 -0.28866,0.33372 0.14859,0.005 0.75267,-0.35603 1.34241,-0.80225 z m 0.84852,-10.84679 c -0.69656,-0.40571 -0.65901,-1.52128 0.10138,-3.01177 0.62183,-1.2189 0.6434,-2.09714 0.11317,-4.60905 -0.15855,-0.75111 -0.0714,-1.02054 0.4475,-1.38401 0.93719,-0.65643 1.65874,-0.32914 2.27185,1.03048 1.11645,2.47586 0.36871,6.56941 -1.43014,7.82938 -0.7753,0.54304 -0.81393,0.54677 -1.50376,0.14497 z m -51.38443,7.48173 c -0.1014,-0.16408 -0.34425,-0.29626 -0.53966,-0.29375 -0.21347,0.003 -0.17668,0.11999 0.0922,0.29375 0.57309,0.37036 0.67636,0.37036 0.44747,0 z m 98.29416,-1.19326 c 0,-0.16407 -0.14216,-0.29831 -0.31592,-0.29831 -0.17375,0 -0.23295,0.13424 -0.13155,0.29831 0.1014,0.16408 0.24357,0.29832 0.31592,0.29832 0.0723,0 0.13155,-0.13424 0.13155,-0.29832 z m -54.98904,-0.74578 c 0,-0.24611 -0.11187,-0.44747 -0.2486,-0.44747 -0.29793,0 -0.32779,0.418 -0.0497,0.69606 0.27651,0.27652 0.29832,0.25835 0.29832,-0.24859 z m -7.85208,-8.36563 c -0.0972,-0.25319 -0.24063,-0.39636 -0.31882,-0.31816 -0.0782,0.0782 -0.0537,0.28535 0.0545,0.46033 0.29415,0.47595 0.46607,0.38349 0.26436,-0.14217 z m 7.95151,-7.89243 c 0,-0.16408 -0.14216,-0.29832 -0.31592,-0.29832 -0.17375,0 -0.23295,0.13424 -0.13155,0.29832 0.10141,0.16407 0.24357,0.29831 0.31592,0.29831 0.0723,0 0.13155,-0.13424 0.13155,-0.29831 z m 4.92217,-4.77301 c -0.1014,-0.16407 -0.31861,-0.29832 -0.48268,-0.29832 -0.16407,0 -0.21535,0.13425 -0.11395,0.29832 0.1014,0.16407 0.31861,0.29831 0.48268,0.29831 0.16408,0 0.21535,-0.13424 0.11395,-0.29831 z m 4.73691,-7.59347 c -0.0876,-0.22817 -0.34333,-0.48552 -0.5684,-0.57189 -0.26584,-0.10201 -0.35109,-0.006 -0.24333,0.27525 0.0912,0.23776 0.29368,0.43228 0.44988,0.43228 0.1562,0 0.18822,0.15498 0.0711,0.3444 -0.12889,0.20856 -0.0821,0.26362 0.11852,0.13961 0.18226,-0.11264 0.25974,-0.39149 0.17218,-0.61965 z m 17.03994,-13.28845 c 0.10141,-0.16407 -0.1,-0.29831 -0.44746,-0.29831 -0.34752,0 -0.54888,0.13424 -0.44747,0.29831 0.1014,0.16407 0.30276,0.29831 0.44747,0.29831 0.1447,0 0.34606,-0.13424 0.44746,-0.29831 z M 159.26923,151.50216 c 0,-0.0619 -0.20443,-0.2823 -0.4543,-0.48967 -0.37986,-0.31525 -0.42351,-0.29679 -0.2664,0.11263 0.16047,0.41816 0.7207,0.71125 0.7207,0.37704 z m 144.08523,-5.55532 c 0,-0.16407 -0.14217,-0.29831 -0.31592,-0.29831 -0.17376,0 -0.23296,0.13424 -0.13155,0.29831 0.1014,0.16407 0.24356,0.29831 0.31591,0.29831 0.0724,0 0.13156,-0.13424 0.13156,-0.29831 z m -133.49512,-2.3865 c 0.10141,-0.16408 -0.0328,-0.29832 -0.29831,-0.29832 -0.26547,0 -0.39971,0.13424 -0.29831,0.29832 0.1014,0.16407 0.23564,0.29831 0.29831,0.29831 0.0627,0 0.19691,-0.13424 0.29831,-0.29831 z m 1.50418,-1.1257 c -0.19163,-0.20475 -1.03477,0.32322 -0.89007,0.55736 0.0898,0.14524 0.34394,0.0976 0.56483,-0.10584 0.22089,-0.20346 0.36724,-0.40664 0.32524,-0.45152 z m 13.43997,-5.7816 c 0.13187,-0.21338 0.0818,-0.26343 -0.13156,-0.13155 -0.18942,0.11707 -0.3444,0.0483 -0.3444,-0.15278 0,-0.2011 -0.0806,-0.28508 -0.17903,-0.18661 -0.17065,0.17064 0.0888,0.81535 0.32819,0.81535 0.0627,0 0.20973,-0.15499 0.3268,-0.34441 z m 59.18666,-9.61717 c 0,-0.0645 -0.20833,-0.19718 -0.46296,-0.29489 -0.26548,-0.10187 -0.38522,-0.0519 -0.28071,0.11724 0.17518,0.28346 0.74367,0.41926 0.74367,0.17765 z"
         id="path3" /><path
         style="fill:#ffffff;fill-opacity:1"
         d="m 168.461,336.66344 c 0.21535,-0.0862 0.47264,-0.0756 0.57177,0.0236 0.0991,0.0991 -0.0771,0.16963 -0.39154,0.15668 -0.34751,-0.0143 -0.4182,-0.085 -0.18023,-0.18023 z m -7.75614,-0.59663 c 0.21535,-0.0862 0.47264,-0.0756 0.57177,0.0236 0.0991,0.0991 -0.0771,0.16964 -0.39154,0.15668 -0.34752,-0.0143 -0.4182,-0.085 -0.18023,-0.18023 z M 276.82814,197.6793 c 0.0143,-0.34751 0.085,-0.4182 0.18023,-0.18023 0.0862,0.21535 0.0756,0.47264 -0.0236,0.57177 -0.0991,0.0991 -0.16963,-0.0771 -0.15668,-0.39154 z m 0.0236,-2.80911 c 0,-0.41018 0.0677,-0.57798 0.15047,-0.37289 0.0827,0.20509 0.0827,0.54069 0,0.74578 -0.0828,0.20509 -0.15047,0.0373 -0.15047,-0.37289 z"
         id="path2" /></g><path
       style="fill:#000000"
       id="path1" /></g></g></svg>
