<?xml version="1.0" encoding="UTF-8" standalone="no"?>
<svg
   version="1.1"
   id="Layer_1"
   x="0px"
   y="0px"
   width="600px"
   height="600px"
   viewBox="0 0 600 600"
   enable-background="new 0 0 600 600"
   xml:space="preserve"
   sodipodi:docname="react.svg"
   inkscape:version="1.3.2 (091e20e, 2023-11-25, custom)"
   xmlns:inkscape="http://www.inkscape.org/namespaces/inkscape"
   xmlns:sodipodi="http://sodipodi.sourceforge.net/DTD/sodipodi-0.dtd"
   xmlns="http://www.w3.org/2000/svg"
   xmlns:svg="http://www.w3.org/2000/svg"><defs
   id="defs1" /><sodipodi:namedview
   id="namedview1"
   pagecolor="#ffffff"
   bordercolor="#000000"
   borderopacity="0.25"
   inkscape:showpageshadow="2"
   inkscape:pageopacity="0.0"
   inkscape:pagecheckerboard="0"
   inkscape:deskcolor="#d1d1d1"
   inkscape:zoom="0.47906484"
   inkscape:cx="924.71825"
   inkscape:cy="514.54413"
   inkscape:window-width="1920"
   inkscape:window-height="1009"
   inkscape:window-x="1073"
   inkscape:window-y="2152"
   inkscape:window-maximized="1"
   inkscape:current-layer="Layer_1" />  
<path
   style="fill:#ffffff"
   d="m 404.54966,554.42755 c -10.437,-1.48266 -28.8583,-7.94088 -40.7467,-14.28522 -18.4564,-9.84938 -40.8741,-26.18432 -55.6375,-40.54097 l -6.2453,-6.07316 -10.3448,9.15883 c -25.2816,22.38329 -52.7359,39.35946 -75.5988,46.74598 -30.1107,9.72814 -53.4264,6.14428 -68.5174,-10.53184 -20.2291,-22.35384 -25.687,-64.80897 -15.3263,-119.21744 1.5637,-8.21206 3.0706,-16.21414 3.3485,-17.78242 0.4794,-2.70435 0.058,-2.9837 -8.1637,-5.41696 -11.5012,-3.40368 -29.444369,-10.66043 -42.402179,-17.14865 -44.06259,-22.06298 -69.65509,-52.44742 -67.11223,-79.67833 3.1486,-33.71766 41.4576,-65.55121 103.730509,-86.19677 8.1459,-2.70064 14.7309,-5.3089 14.6333,-5.79614 -8.0031,-39.95835 -8.6415,-45.08768 -8.6443,-69.45793 0,-22.49335 1.3437,-32.14841 6.6059,-47.375114 6.7831,-19.62777 20.4771,-33.31661 37.1817,-37.16771 11.8103,-2.72277 30.5594,-0.7222 46.3252,4.94298 22.1859,7.97214 44.9975,22.39587 72.2152,45.661554 l 10.8322,9.25932 4.2663,-3.69753 c 25.6726,-22.250214 40.5978,-33.127804 58.6784,-42.765224 49.4951,-26.38213 86.2203,-18.48866 102.0072,21.92468 9.086,23.259794 10.3619,59.178914 3.4572,97.328074 -1.5965,8.82036 -3.1267,17.54664 -3.4005,19.39175 l -0.4978,3.35474 13.9343,4.61826 c 54.8173,18.16802 93.2567,46.59068 102.0989,75.49332 2.38,7.77954 2.38,19.87049 0,27.65002 -6.5378,21.37019 -30.3135,44.02027 -63.8652,60.84174 -13.6166,6.8268 -32.0855,14.39394 -43.2355,17.71455 l -7.9021,2.35334 0.6468,3.50872 c 0.3557,1.9298 1.9351,10.47652 3.5098,18.99273 3.4768,18.80398 4.9025,52.84097 2.8564,68.19179 -3.0433,22.83131 -10.2794,40.61965 -20.9643,51.53619 -7.8999,8.07113 -15.6915,12.23601 -26.4951,14.16258 -9.5896,1.71006 -11.1487,1.73212 -21.2281,0.30026 z m 23.949,-26.1603 c 9.0343,-4.60898 15.6129,-16.17235 19.4252,-34.1444 4.1273,-19.45717 2.7766,-53.58701 -3.1868,-80.52213 -0.9427,-4.2581 -2.0341,-8.06982 -2.4252,-8.47049 -0.3911,-0.40068 -7.9278,0.7029 -16.7481,2.45238 -16.4132,3.25549 -47.9902,7.67712 -54.8262,7.67712 -2.2947,0 -4.4407,0.77085 -5.3883,1.9355 -0.8661,1.06452 -7.5487,9.8987 -14.8502,19.63151 -7.3016,9.73281 -17.522,22.63931 -22.7122,28.68111 l -9.4366,10.9851 6.7767,6.15791 c 28.2864,25.70349 58.521,43.60715 80.5287,47.6857 7.7369,1.43381 17.7552,0.52627 22.843,-2.06931 z m -221.6598,-1.26528 c 11.8915,-3.80975 25.7102,-10.63176 38.6889,-19.09982 10.2623,-6.69572 29.3062,-21.79591 35.0473,-27.78951 l 3.7685,-3.9342 -6.5335,-7.40021 c -12.2991,-13.93068 -18.8985,-22.00879 -29.7172,-36.37549 -5.9549,-7.90791 -11.1378,-14.72536 -11.5177,-15.14989 -0.3798,-0.42453 -9.7426,-1.80198 -20.8063,-3.06099 -11.0636,-1.25901 -27.9855,-3.71931 -37.604,-5.46734 -9.6186,-1.74802 -17.8346,-2.85908 -18.2579,-2.46901 -1.1994,1.1054 -6.1509,27.08689 -7.6034,39.89633 -1.8473,16.2921 -0.7938,43.55522 2.1038,54.4404 2.8135,10.56936 6.6448,18.16563 11.4239,22.65009 6.2918,5.90378 9.3601,6.94872 20.5466,6.9972 8.3697,0.0363 12.0696,-0.54916 20.461,-3.23756 z m 103.4186,-78.13212 c 4.2443,-4.934 11.3287,-13.64375 15.743,-19.35501 l 8.0259,-10.38411 -32.3717,-0.29347 c -17.8045,-0.16141 -32.6124,-0.0529 -32.9065,0.24125 -1.1499,1.14993 31.3552,39.69948 32.9557,39.08397 0.4602,-0.17695 4.3093,-4.35863 8.5536,-9.29263 z m 33.3144,-55.56341 9.2532,-0.71973 9.6916,-15.48401 c 13.1212,-20.9634 25.2571,-42.23968 33.9964,-59.60165 l 7.2658,-14.43465 -6.2131,-12.19889 c -8.6571,-16.99742 -24.2139,-44.04388 -35.5184,-61.75112 l -9.5379,-14.93992 -11.8604,-0.93144 c -14.3448,-1.12655 -74.1223,-0.85348 -84.6783,0.38682 l -7.5639,0.88873 -9.544,14.93101 c -11.9448,18.68683 -25.1672,41.68147 -34.5023,60.00142 l -7.186,14.10239 6.5226,12.74586 c 9.8731,19.29276 25.1981,45.82734 35.8866,62.13564 l 9.5728,14.60621 6.083,0.39217 c 10.9633,0.70681 78.862,0.60777 88.3323,-0.12884 z m -56.1425,-41.73303 c -8.6383,-2.32296 -15.6859,-6.51068 -22.6104,-13.43518 -22.1712,-22.17119 -18.6557,-59.29761 7.2531,-76.59886 26.092,-17.42353 59.684,-8.37611 73.6522,19.8369 4.0193,8.1182 4.0784,8.43092 4.0784,21.56701 0,12.7029 -0.1664,13.68069 -3.5408,20.80431 -4.1809,8.82622 -12.8417,18.39731 -20.697,22.8724 -11.1362,6.34413 -25.8547,8.25592 -38.1355,4.95342 z m -69.7938,37.75314 c 0,-0.27234 -2.9113,-5.12492 -6.4696,-10.78351 -6.3461,-10.09185 -19.8323,-33.62763 -24.274,-42.36237 l -2.2497,-4.424 -1.1014,2.765 c -13.5004,33.89154 -17.6345,46.34719 -15.766,47.50198 1.2521,0.77384 16.1657,3.54015 35.4827,6.58168 6.8955,1.08572 14.378,1.46105 14.378,0.72122 z m 185.8465,-2.26951 c 15.6274,-2.5259 24.9869,-4.29872 30.1002,-5.70144 1.0645,-0.29203 1.9355,-0.99212 1.9355,-1.55575 0,-1.17626 -11.8544,-32.9853 -15.5344,-41.68368 -1.3511,-3.19358 -2.788,-5.8065 -3.1931,-5.8065 -0.405,0 -3.4493,5.07839 -6.765,11.28532 -3.3157,6.20693 -10.6323,19.01042 -16.2591,28.45219 -5.6267,9.44178 -10.2305,17.3036 -10.2305,17.4707 0,0.63508 3.3468,0.22218 19.9464,-2.46084 z m -258.3724,-17.97285 c 3.9039,-12.53855 12.0396,-34.20127 18.4466,-49.11786 3.5867,-8.35041 6.5213,-15.88819 6.5213,-16.75064 0,-0.86245 -1.5552,-4.99641 -3.456,-9.18657 -5.2926,-11.66748 -15.7522,-38.44429 -19.717,-50.47602 -2.6649,-8.08712 -4.0294,-10.78351 -5.4569,-10.78351 -1.047,0 -6.8539,1.6821 -12.9043,3.73799 -34.592299,11.75418 -57.317489,24.45126 -73.342909,40.97835 -18.07901,18.64495 -17.80996,33.40657 0.95901,52.61756 11.87212,12.15171 25.57122,21.21613 47.557999,31.46818 11.7794,5.49253 34.5098,13.85817 37.6786,13.86713 1.145,0.003 2.4057,-2.1539 3.7136,-6.35461 z m 328.7497,0.94587 c 33.2309,-11.94738 56.9854,-25.62749 71.9081,-41.41148 8.5343,-9.02681 12.6497,-16.4373 13.3864,-24.10443 1.7403,-18.11119 -24.6979,-42.4242 -64.3173,-59.14741 -12.065,-5.09262 -33.2276,-12.6027 -35.4806,-12.5912 -0.6409,0.003 -3.1023,5.60241 -5.4698,12.44251 -5.2409,15.14161 -13.4482,35.94642 -18.8134,47.69016 -2.1885,4.79028 -3.979,9.24066 -3.979,9.88974 0,0.64909 3.4307,8.92343 7.6238,18.38744 7.319,16.51927 17.831,43.74994 19.3446,50.1108 0.3981,1.67283 1.4194,3.04151 2.2697,3.04151 0.8503,0 6.9377,-1.93844 13.5275,-4.30764 z M 188.45326,267.88512 c 3.9527,-7.83613 18.9398,-33.97004 24.5777,-42.85753 2.5082,-3.95395 4.0911,-7.34874 3.5176,-7.54398 -2.2299,-0.75906 -49.789,7.87382 -49.789,9.03765 0,3.22085 16.7265,47.16448 17.9539,47.16802 0.4459,10e-4 2.1288,-2.61058 3.7398,-5.80416 z m 234.7086,-8.84801 c 5.8255,-15.06239 11.2499,-30.44482 11.2499,-31.90259 0,-0.453 -3.4324,-1.6043 -7.6274,-2.55844 -10.6705,-2.42696 -42.2748,-7.527 -42.8819,-6.91992 -0.2761,0.27606 1.6715,3.91394 4.3278,8.08418 5.6013,8.79339 21.575,36.37386 25.0495,43.25078 1.3062,2.58528 2.7888,4.7005 3.2946,4.7005 0.5058,0 3.4702,-6.59453 6.5875,-14.65451 z m -244.4706,-60.01782 c 8.3409,-1.55062 24.5536,-4.02089 36.0281,-5.48949 11.4746,-1.46861 20.9976,-2.82118 21.1624,-3.00572 0.1647,-0.18453 4.7501,-6.30792 10.1897,-13.60753 11.1161,-14.91703 25.8222,-32.8765 33.0906,-40.4112 l 4.8418,-5.01918 -4.7046,-4.5158 c -21.3856,-20.52726 -52.6793,-40.289744 -74.9357,-47.323214 -10.3728,-3.278 -24.4338,-4.08915 -30.4101,-1.75428 -8.9516,3.49727 -15.3796,12.88419 -19.4789,28.445394 -4.68,17.76611 -3.8511,52.85963 1.9023,80.53229 2.8769,13.83751 3.7395,16.27643 5.5154,15.59494 0.8986,-0.34481 8.4581,-1.8956 16.799,-3.44621 z m 264.2478,-2.75834 c 6.2817,-27.53323 8.2613,-66.47361 4.2956,-84.49633 -3.8314,-17.412454 -8.8544,-26.754874 -17.4366,-32.431314 -4.2621,-2.81903 -5.4733,-3.06012 -15.216,-3.02888 -12.3913,0.0397 -20.0207,2.23782 -36.7467,10.5869 -16.1882,8.08064 -34.9151,21.449624 -54.55,38.942894 l -5.5033,4.90305 2.7383,3.37495 c 1.506,1.85622 6.8968,8.26495 11.9795,14.24163 5.0826,5.97668 14.4799,17.8345 20.8829,26.3507 6.403,8.51621 11.7699,15.63613 11.9265,15.82204 0.1567,0.18592 9.9208,1.57754 21.6981,3.09249 11.7774,1.51494 28.1323,4.15655 36.3444,5.87022 8.212,1.71368 15.6669,3.05464 16.5665,2.97991 1.0383,-0.0863 2.1413,-2.35294 3.0208,-6.20826 z m -115.2382,-15.74989 c -3.4233,-4.41018 -10.8002,-13.4233 -16.3932,-20.02915 l -10.169,-12.01064 -6.5035,7.03364 c -3.5769,3.8685 -10.5027,12.01064 -15.3907,18.09364 -4.888,6.08301 -9.6285,11.93098 -10.5345,12.99551 -1.5633,1.83698 0.055,1.9355 31.7839,1.9355 h 33.4311 z"
   id="path1" /></svg>
