<?xml version="1.0" encoding="UTF-8" standalone="no"?>
<!-- Created with Inkscape (http://www.inkscape.org/) -->

<svg
   xmlns:dc="http://purl.org/dc/elements/1.1/"
   xmlns:cc="http://creativecommons.org/ns#"
   xmlns:rdf="http://www.w3.org/1999/02/22-rdf-syntax-ns#"
   xmlns:svg="http://www.w3.org/2000/svg"
   xmlns="http://www.w3.org/2000/svg"
   xmlns:sodipodi="http://sodipodi.sourceforge.net/DTD/sodipodi-0.dtd"
   xmlns:inkscape="http://www.inkscape.org/namespaces/inkscape"
   width="600"
   height="600"
   viewBox="0 0 600.00001 600.00001"
   id="svg2"
   version="1.1"
   inkscape:version="0.91 r13725"
   sodipodi:docname="sass.svg">
  <defs
     id="defs4" />
  <sodipodi:namedview
     id="base"
     pagecolor="#ffffff"
     bordercolor="#666666"
     borderopacity="1.0"
     inkscape:pageopacity="0.0"
     inkscape:pageshadow="2"
     inkscape:zoom="0.98994949"
     inkscape:cx="487.25728"
     inkscape:cy="393.23774"
     inkscape:document-units="px"
     inkscape:current-layer="layer1"
     showgrid="false"
     units="px"
     inkscape:showpageshadow="false"
     inkscape:window-width="1920"
     inkscape:window-height="1017"
     inkscape:window-x="-8"
     inkscape:window-y="-8"
     inkscape:window-maximized="1" />
  <metadata
     id="metadata7">
    <rdf:RDF>
      <cc:Work
         rdf:about="">
        <dc:format>image/svg+xml</dc:format>
        <dc:type
           rdf:resource="http://purl.org/dc/dcmitype/StillImage" />
        <dc:title></dc:title>
      </cc:Work>
    </rdf:RDF>
  </metadata>
  <g
     inkscape:label="Layer 1"
     inkscape:groupmode="layer"
     id="layer1"
     transform="translate(0,-452.36216)">
    <path
       style="fill:#ffffff"
       d="m 88.094861,1004.2462 c -16.646933,-4.37191 -30.504425,-18.35101 -34.750635,-35.05551 -1.01981,-4.0119 -1.157489,-28.9612 -1.157489,-209.7492 0,-227.44953 -0.435787,-208.63712 5.097003,-220.03277 3.871599,-7.97417 12.904923,-17.00749 20.879087,-20.87909 11.395644,-5.53278 -7.416754,-5.097 220.032763,-5.097 227.4495,0 208.63712,-0.43578 220.03275,5.097 7.97416,3.8716 17.00749,12.90492 20.87908,20.87909 5.53279,11.39565 5.09701,-7.41676 5.09701,220.03277 0,180.788 -0.13765,205.7373 -1.15744,209.7492 -4.28966,16.8753 -18.2269,30.81251 -35.1022,35.10211 -6.72273,1.7089 -413.337423,1.6637 -419.849929,-0.047 z m 57.675059,-83.38041 c 19.80541,-4.41231 37.94498,-18.95315 47.64578,-38.19328 7.75096,-15.3729 9.53917,-38.31307 4.22088,-54.14764 -1.07075,-3.188 -1.83173,-5.90941 -1.69108,-6.0476 1.53345,-1.50648 22.00643,-12.90803 22.39852,-12.4739 0.12137,0.13437 -0.5838,3.41277 -1.56702,7.28537 -4.98322,19.62733 -4.02191,36.51234 2.93614,51.57214 5.2932,11.45643 12.32363,15.97041 21.16545,13.58956 5.69964,-1.53476 9.39051,-5.86839 15.57134,-18.28307 3.04919,-6.12455 6.26981,-12.85457 7.15694,-14.95557 l 1.61293,-3.82002 0.0618,8.83837 c 0.0962,13.75699 2.8135,20.27162 9.26102,22.20335 6.65368,1.99349 14.585,-4.38366 22.18732,-17.83961 10.91786,-19.32439 22.87846,-43.90254 31.33395,-64.38902 2.42776,-5.88212 4.58295,-10.17964 4.7893,-9.55003 0.20634,0.62961 1.27609,4.75465 2.37721,9.16677 1.21932,4.8857 3.66561,11.50389 6.25706,16.92789 l 4.25502,8.90586 -3.4697,4.84619 c -1.90834,2.66539 -8.14971,10.45956 -13.86973,17.32035 -13.14987,15.77245 -14.37182,17.61482 -14.37182,21.66878 0,6.09 5.83374,8.45032 16.98718,6.87302 10.92337,-1.54477 21.84337,-6.3979 29.03057,-12.90194 10.57879,-9.57325 13.07939,-21.14218 8.08736,-37.41582 l -2.09358,-6.82493 4.92866,-7.59869 c 6.0165,-9.27588 12.59115,-20.61083 16.73217,-28.84693 3.24886,-6.46164 3.76827,-6.60073 4.81689,-1.28985 1.13257,5.73611 4.48555,15.80242 7.27399,21.838 l 2.9229,6.32662 -6.63263,6.73677 c -11.17495,11.35038 -17.20928,22.19275 -18.18544,32.67527 -1.14556,12.30165 6.75849,16.36061 21.17476,10.87388 11.71606,-4.45908 23.40116,-13.88312 27.36389,-22.06903 3.42276,-7.07052 3.59115,-15.50953 0.48513,-24.31298 -0.63547,-1.80112 -1.06578,-3.34648 -0.95625,-3.43411 2.74509,-2.19623 14.6882,-4.87674 24.26525,-5.44609 31.84608,-1.89324 56.25187,10.99239 60.43206,31.90658 1.59872,7.99865 -2.15516,15.98601 -10.36262,22.04923 -4.91554,3.63132 -5.69525,6.13216 -1.91191,6.13216 6.02138,0 16.07419,-8.10554 19.67503,-15.86392 2.40416,-5.17994 3.11181,-13.58544 1.71161,-20.33018 -2.83061,-13.63498 -15.0349,-27.1693 -30.28868,-33.58953 -18.18851,-7.65542 -42.82338,-7.22266 -63.27443,1.11152 -2.96735,1.20925 -5.50222,2.19981 -5.63308,2.20125 -1.01506,0.0111 -7.85761,-16.60932 -8.59004,-20.86511 -1.4535,-8.44579 -0.60106,-18.76458 2.27369,-27.5228 2.33144,-7.10296 2.39587,-7.59515 1.17131,-8.94826 -2.17766,-2.4063 -6.19198,-3.26573 -12.89747,-2.76127 -7.92625,0.59629 -11.6329,1.68552 -13.03908,3.8316 -0.61981,0.94596 -2.05972,5.31236 -3.19979,9.70313 -1.47307,5.67323 -3.74288,11.29921 -7.8444,19.44324 -6.15072,12.21295 -18.45067,33.96676 -19.21642,33.98635 -0.25295,0.006 -1.57089,-2.39856 -2.92877,-5.34451 -4.71631,-10.23218 -5.03571,-23.74134 -0.86961,-36.78176 1.29603,-4.05675 2.17605,-7.84596 1.9556,-8.42047 -0.75102,-1.95713 -3.76525,-3.14988 -8.88608,-3.51628 -6.00047,-0.42933 -14.62431,1.01458 -16.64897,2.78757 -0.78197,0.68477 -2.29846,4.37919 -3.36996,8.20981 -1.07151,3.83063 -5.02771,13.97276 -8.79158,22.53808 -23.50547,53.49076 -32.65295,72.63306 -33.85596,70.8481 -1.39967,-2.07676 0.39672,-12.95006 5.28222,-31.97271 2.75192,-10.71514 5.15591,-21.08404 5.34222,-23.042 0.40706,-4.27813 -1.06128,-6.15523 -5.96386,-7.62408 -2.73832,-0.82041 -3.50479,-0.78032 -5.3523,0.28002 l -2.15631,1.23754 0.053,-7.50209 c 0.0455,-6.44293 -0.21577,-8.08916 -1.85078,-11.6605 -4.08868,-8.93085 -12.94445,-10.3983 -25.40332,-4.20945 -8.44121,4.19312 -17.49318,11.7742 -24.08325,20.1699 -1.29997,1.65614 -8.53241,6.03694 -23.09067,13.98639 l -21.19784,11.57492 -7.07027,-6.37386 c -3.8886,-3.50563 -13.11288,-11.05873 -20.49835,-16.78466 -19.09926,-14.80759 -27.03365,-22.27255 -33.44586,-31.46701 -10.54325,-15.11798 -9.69042,-34.46842 2.32801,-52.82233 4.6483,-7.09865 15.95177,-19.05544 24.68191,-26.1085 22.76516,-18.39192 59.63127,-37.8966 87.61921,-46.35651 18.64516,-5.63587 33.63377,-7.74902 50.59197,-7.13265 18.18681,0.66102 30.51052,4.54856 37.92565,11.9637 13.94288,13.94287 4.1114,44.08567 -21.27449,65.22656 -16.28435,13.56128 -36.84869,23.39881 -58.598,28.03201 -10.61007,2.26022 -28.506,2.86119 -36.29013,1.21865 -7.24594,-1.52897 -15.54387,-5.59034 -20.46891,-10.01838 -3.96752,-3.56715 -6.00471,-4.25542 -6.76111,-2.28426 -1.42616,3.71652 2.99745,11.2678 10.03996,17.13859 9.56346,7.9723 21.96253,11.48812 40.49214,11.48171 27.62614,-0.01 55.53063,-7.74665 76.40027,-21.18356 31.79201,-20.4693 51.34267,-56.55814 45.96626,-84.84973 -2.89342,-15.22574 -11.60823,-25.88314 -27.63019,-33.78909 -13.97596,-6.89637 -28.76426,-9.8981 -48.76409,-9.8981 -26.33285,0 -49.18877,5.42148 -81.11636,19.241 -54.36349,23.53066 -93.87609,55.8179 -109.741572,89.67393 -10.514645,22.43768 -7.284191,39.48669 11.637282,61.41667 8.53766,9.89516 20.46019,19.60434 44.82923,36.50697 7.25625,5.03303 15.29743,10.78503 17.86928,12.78225 l 4.6761,3.63133 -7.73623,4.05054 c -20.15549,10.55305 -36.24855,21.74946 -47.10238,32.7705 -9.80753,9.95861 -13.72176,17.2478 -15.8141,29.44937 -2.581287,15.05292 5.25961,31.46967 16.47246,34.48898 8.67748,2.3366 19.06214,2.38841 29.13059,0.14533 z m -13.36291,-24.47801 c -3.9909,-1.99368 -5.53468,-5.56188 -5.07157,-11.72216 1.10401,-14.68578 11.39691,-27.42509 35.24968,-43.62778 11.97239,-8.1326 17.96995,-11.59879 18.7344,-10.82726 0.90008,0.90843 2.26285,9.69795 2.2699,14.64042 0.0324,22.72449 -17.84967,46.24982 -39.30988,51.71528 -5.89801,1.5021 -8.58933,1.46163 -11.87253,-0.1785 z M 337.70768,849.0208 c 3.71964,-4.09696 8.29817,-9.48522 10.17453,-11.97392 2.37013,-3.14358 3.48735,-4.1329 3.65977,-3.24082 0.34116,1.7649 -1.27972,6.45701 -3.34244,9.67572 -3.31908,5.17914 -12.85031,12.98805 -15.85268,12.98805 -0.99365,0 0.56817,-2.1702 5.36082,-7.44903 z m -98.14717,5.73002 c -3.21412,-4.04955 -4.00142,-22.00483 -1.44888,-33.04312 2.86944,-12.40876 10.41333,-27.45277 17.79268,-35.48212 4.2001,-4.57007 9.87428,-7.9455 12.68545,-7.54626 2.71753,0.38595 2.64978,5.29008 -0.2119,15.33705 -5.4187,19.02438 -18.7803,52.46222 -23.81124,59.58844 -1.5733,2.22854 -3.7512,2.72711 -5.00611,1.14601 z m 153.37141,-14.62789 c 0,-2.63986 4.05845,-12.2236 7.11121,-16.79258 3.73234,-5.58609 8.66872,-10.90065 9.42967,-10.15209 0.35705,0.35123 0.63916,3.44544 0.62691,6.87603 -0.0187,5.23948 -0.347,6.85961 -2.05194,10.12622 -2.2458,4.30287 -5.95,7.90778 -10.52264,10.24057 -3.87586,1.97731 -4.59321,1.93074 -4.59321,-0.29815 z"
       id="path4156"
       inkscape:connector-curvature="0" />
  </g>
</svg>
