<?xml version="1.0" encoding="UTF-8" standalone="no"?>
<svg
   xmlns:dc="http://purl.org/dc/elements/1.1/"
   xmlns:cc="http://creativecommons.org/ns#"
   xmlns:rdf="http://www.w3.org/1999/02/22-rdf-syntax-ns#"
   xmlns:svg="http://www.w3.org/2000/svg"
   xmlns="http://www.w3.org/2000/svg"
   xmlns:sodipodi="http://sodipodi.sourceforge.net/DTD/sodipodi-0.dtd"
   xmlns:inkscape="http://www.inkscape.org/namespaces/inkscape"
   version="1.1"
   id="Layer_1"
   x="0px"
   y="0px"
   width="600px"
   height="600px"
   viewBox="0 0 600 600"
   enable-background="new 0 0 600 600"
   xml:space="preserve"
   sodipodi:docname="sql.svg"
   inkscape:version="0.92.4 (5da689c313, 2019-01-14)"><metadata
   id="metadata829"><rdf:RDF><cc:Work
       rdf:about=""><dc:format>image/svg+xml</dc:format><dc:type
         rdf:resource="http://purl.org/dc/dcmitype/StillImage" /><dc:title /></cc:Work></rdf:RDF></metadata><defs
   id="defs827" /><sodipodi:namedview
   pagecolor="#ffffff"
   bordercolor="#666666"
   borderopacity="1"
   objecttolerance="10"
   gridtolerance="10"
   guidetolerance="10"
   inkscape:pageopacity="0"
   inkscape:pageshadow="2"
   inkscape:window-width="1920"
   inkscape:window-height="1017"
   id="namedview825"
   showgrid="false"
   inkscape:zoom="0.70833333"
   inkscape:cx="190.71844"
   inkscape:cy="286.53632"
   inkscape:window-x="-8"
   inkscape:window-y="-8"
   inkscape:window-maximized="1"
   inkscape:current-layer="Layer_1" />  
<path
   style="fill:#ffffff;stroke-width:1.50311697"
   d="m 270.20242,569.58232 c -13.63491,-2.93762 -29.77679,-11.89498 -39.60677,-21.97837 -29.10371,-29.85392 -29.9867,-76.16913 -2.02787,-106.368 10.1962,-11.01311 19.90273,-17.34386 34.05597,-22.21181 9.72706,-3.3456 12.67558,-3.6795 26.95041,-3.05208 l 16.02849,0.70449 4.83823,-9.53183 c 13.01564,-25.64306 37.42055,-45.47855 67.62448,-54.96289 9.5508,-2.99906 14.23978,-3.5085 31.5124,-3.42375 17.84801,0.0876 21.74048,0.58434 32.31701,4.12431 29.62178,9.91437 52.33943,29.64792 66.08454,57.40392 9.05117,18.27739 11.78083,31.22017 11.10082,52.63709 l -0.53932,16.99172 5.26737,0.85577 c 11.98961,1.94789 23.94165,11.18056 31.0302,23.97003 3.79026,6.83834 4.29786,9.27097 4.28493,20.53384 -0.015,9.83002 -0.75216,14.37881 -3.21276,19.7245 -4.45644,9.68239 -12.86939,18.49512 -21.99932,23.04471 l -7.74631,3.86021 -123.30339,-0.15308 c -96.98802,-0.1204 -125.30004,-0.58327 -132.65911,-2.16878 z m 52.68447,-82.06589 c -215.25793,74.98905 -107.62897,37.49452 0,0 z M 166.12615,504.90854 C 106.79389,495.65581 62.140639,474.56165 49.454756,449.79309 l -3.631245,-7.08982 0.009,-171.7811 C 45.838511,150.73853 46.336987,97.354176 47.492538,93.192 48.637537,89.067808 52.208372,84.202369 59.133309,77.330914 78.508439,58.105372 116.07349,43.243529 163.8188,35.91424 c 19.76715,-3.034432 65.96255,-4.814919 87.93234,-3.389138 72.24603,4.688523 135.30028,29.706311 148.95565,59.10041 2.64759,5.699158 2.7949,12.259168 2.82616,125.886048 l 0.0316,119.87358 h -4.98479 c -8.56777,0 -22.36157,3.10165 -34.40981,7.73726 -23.3425,8.98123 -44.84369,26.55668 -58.56038,47.8682 l -7.24953,11.26352 -9.4014,-0.47408 c -23.36968,-1.17849 -47.85697,8.7828 -65.77425,26.75662 -17.60396,17.65952 -25.94614,37.70097 -26.13895,62.79686 l -0.10687,13.90383 -9.04503,-0.17233 c -4.97477,-0.0947 -14.77047,-1.06518 -21.76823,-2.15648 z M 275.95177,355.32565 c -17.97627,-14.969 -27.19275,-23.06263 -27.11563,-23.8121 0.0505,-0.49084 2.92523,-2.94042 6.38825,-5.44352 22.52789,-16.28332 25.51139,-54.48824 5.84645,-74.8657 -7.10241,-7.35976 -14.4018,-11.0984 -24.8754,-12.74081 -17.05473,-2.67445 -33.87473,2.43583 -43.65736,13.26404 -8.9642,9.92231 -11.89595,17.25207 -12.61746,31.54536 -0.76371,15.12903 1.00745,22.71442 7.59209,32.51513 6.13633,9.13342 14.81732,14.97267 26.94212,18.12252 8.73012,2.26798 10.2685,3.33306 19.2583,13.33324 l 9.77026,10.86836 18.0374,0.10823 18.03741,0.10822 -3.60643,-3.00311 z m -57.44796,-45.67141 c -11.87169,-6.6971 -13.4722,-33.46944 -2.62232,-43.86429 3.53883,-3.39042 5.89205,-4.31222 11.00851,-4.31222 11.32155,0 17.34495,8.61281 17.34495,24.80143 0,10.01916 -2.43331,17.30976 -7.19147,21.5468 -4.15015,3.69563 -13.5809,4.62564 -18.53967,1.82828 z m -63.32654,20.78143 c 17.67136,-8.49703 21.45278,-30.84543 7.49753,-44.31091 -1.85128,-1.78631 -8.91064,-5.84221 -15.68746,-9.01311 -13.09153,-6.12558 -16.66192,-9.87685 -14.04843,-14.76019 2.89303,-5.40567 16.05949,-5.71288 28.15981,-0.65704 l 5.10229,2.13187 -0.43984,-11.6388 -0.43986,-11.6388 -5.26091,-1.19871 c -9.40331,-2.14256 -27.45391,-1.74975 -36.09671,0.78552 -13.44564,3.94412 -21.45119,14.13862 -21.45119,27.3165 0,13.65774 6.78583,21.73243 24.60953,29.28368 11.97131,5.07182 15.65897,10.10655 11.0957,15.14891 -2.46747,2.72653 -4.19217,3.16137 -10.47196,2.6402 -4.13488,-0.34317 -11.40729,-2.40477 -16.16089,-4.58135 l -8.64293,-3.95744 v 12.58554 12.58554 l 7.89137,1.6091 c 13.45966,2.74454 15.10796,2.88207 25.92877,2.16355 7.0114,-0.46556 13.15529,-1.96492 18.41518,-4.49406 z m 194.27581,-7.33015 V 311.83215 H 332.91879 316.3845 V 275.38156 238.93097 H 302.85645 289.3284 v 47.72397 47.72396 h 30.06234 30.06234 z M 272.3414,132.15508 c 23.32008,-3.03588 44.80368,-8.54617 58.09184,-14.89988 11.85493,-5.66846 14.18235,-7.32861 17.96149,-12.81187 12.66406,-18.374391 -17.45028,-35.336795 -77.85523,-43.853216 -20.08231,-2.831376 -75.5309,-2.358675 -97.40437,0.830382 -45.1753,6.586343 -74.702531,20.083492 -74.702531,34.147181 0,9.097423 4.799591,14.169323 20.523081,21.687523 12.82676,6.13311 34.46632,11.82307 56.13589,14.76051 22.01563,2.98433 74.81498,3.06001 97.24983,0.13934 z"
   id="path885"
   inkscape:connector-curvature="0"
   sodipodi:nodetypes="ccscscccccsccccccccsccccsccccsscccscsccscccccccsscssscscccccsssscsssssscccssssscccccccsccccccccccccccccssscscc" /></svg>