<?xml version="1.0" encoding="UTF-8" standalone="no"?>
<svg
   version="1.1"
   id="Layer_1"
   x="0px"
   y="0px"
   width="600px"
   height="600px"
   viewBox="0 0 600 600"
   enable-background="new 0 0 600 600"
   xml:space="preserve"
   sodipodi:docname="swagger.svg"
   inkscape:version="1.3.2 (091e20e, 2023-11-25, custom)"
   xmlns:inkscape="http://www.inkscape.org/namespaces/inkscape"
   xmlns:sodipodi="http://sodipodi.sourceforge.net/DTD/sodipodi-0.dtd"
   xmlns="http://www.w3.org/2000/svg"
   xmlns:svg="http://www.w3.org/2000/svg"><defs
   id="defs1"><pattern
     id="EMFhbasepattern"
     patternUnits="userSpaceOnUse"
     width="6"
     height="6"
     x="0"
     y="0" /></defs><sodipodi:namedview
   id="namedview1"
   pagecolor="#ffffff"
   bordercolor="#000000"
   borderopacity="0.25"
   inkscape:showpageshadow="2"
   inkscape:pageopacity="0.0"
   inkscape:pagecheckerboard="0"
   inkscape:deskcolor="#d1d1d1"
   inkscape:zoom="0.47906484"
   inkscape:cx="217.08961"
   inkscape:cy="510.36932"
   inkscape:window-width="1920"
   inkscape:window-height="1009"
   inkscape:window-x="1073"
   inkscape:window-y="2152"
   inkscape:window-maximized="1"
   inkscape:current-layer="g5" />  
<g
   id="g1"
   transform="matrix(0.39238967,0,0,0.39238967,653.50563,226.04184)"><g
     style="fill:none"
     id="g5"
     transform="matrix(8.5429944,0,0,8.5429944,-1559.151,-471.69565)"><path
       style="fill:#ffffff;stroke-width:1.14602"
       d="m 70.612484,136.94446 c -0.874288,-0.11681 -3.4473,-0.55973 -7.860612,-1.35316 -3.517709,-0.63243 -14.109686,-4.9367 -15.61255,-6.34448 -0.257639,-0.24135 -1.042997,-0.73225 -1.745248,-1.09092 -0.702242,-0.35866 -1.276803,-0.78172 -1.276803,-0.94015 0,-0.15841 -0.230766,-0.28804 -0.512813,-0.28804 -0.282047,0 -0.512813,-0.15385 -0.512813,-0.34187 0,-0.18803 -0.235594,-0.34187 -0.523537,-0.34187 -0.287944,0 -0.612099,-0.23077 -0.720332,-0.51281 -0.108182,-0.28205 -0.37333,-0.51281 -0.589098,-0.51281 -0.723454,0 -5.956096,-4.88122 -9.365787,-8.73679 -4.796864,-5.42412 -9.68381,-14.39225 -11.561052,-21.215929 -1.745741,-6.34569 -2.347608,-10.814914 -2.319769,-17.22587 0.02147,-4.931306 0.30852,-8.140938 1.00919,-11.281834 0.272647,-1.222198 0.578188,-2.606787 0.678983,-3.076864 1.330365,-6.204636 6.773598,-16.962541 11.135444,-22.007849 1.552111,-1.795327 7.518162,-7.742463 8.617165,-8.589852 0.487717,-0.37606 1.379838,-1.106815 1.982486,-1.623901 0.602637,-0.517083 1.298766,-0.940152 1.546944,-0.940152 0.248188,0 0.451238,-0.138874 0.451238,-0.308608 0,-0.399964 5.822983,-3.873652 8.617474,-5.140734 2.467901,-1.119001 8.578221,-3.290271 10.052814,-3.572213 0.543097,-0.103841 2.141271,-0.427797 3.551506,-0.719901 2.74964,-0.56954 8.013573,-1.03181 11.623715,-1.020775 10.506786,0.03211 21.262996,3.203843 30.683161,9.047673 1.55125,0.962324 2.82046,1.89562 2.82046,2.073992 0,0.178373 0.23558,0.324313 0.52353,0.324313 0.28795,0 0.61209,0.230766 0.72033,0.512812 0.10818,0.282045 0.36721,0.512811 0.57552,0.512811 0.42342,0 0.43407,0.0097 5.18903,4.726281 3.58136,3.552464 5.98279,6.209587 5.98279,6.619805 0,0.133316 0.34962,0.619639 0.77694,1.080719 2.4229,2.614349 6.98395,12.256622 8.6518,18.290322 1.69507,6.132118 2.52151,15.156797 1.88316,20.563934 -0.65813,5.574718 -0.75706,6.288997 -0.90393,6.526637 -0.0785,0.127079 -0.23728,0.825916 -0.35277,1.552972 -0.49927,3.143401 -4.62866,14.142191 -5.30953,14.142191 -0.16572,0 -0.30131,0.20729 -0.30131,0.46065 0,0.46772 -3.4336,6.12155 -4.28794,7.06057 -0.25661,0.28205 -0.78138,0.85896 -1.16618,1.28203 -0.38479,0.42307 -0.69961,0.91259 -0.69961,1.08781 0,0.17523 -0.46154,0.64723 -1.02563,1.0489 -0.56408,0.40167 -1.02561,0.9174 -1.02561,1.14605 0,0.45122 -3.44015,3.98206 -3.87979,3.98206 -0.14774,0 -0.78159,0.49999 -1.40854,1.1111 -1.94525,1.89601 -2.44885,2.30764 -2.82328,2.30764 -0.19915,0 -0.45064,0.23076 -0.55886,0.51281 -0.1082,0.28204 -0.43239,0.51281 -0.72033,0.51281 -0.28795,0 -0.52354,0.15384 -0.52354,0.34187 0,0.18802 -0.23077,0.34187 -0.51282,0.34187 -0.28203,0 -0.51281,0.12963 -0.51281,0.28804 0,0.15843 -0.5769,0.58149 -1.28202,0.94015 -0.70512,0.35867 -1.35894,0.73716 -1.45296,0.84111 -0.44317,0.48995 -2.73561,1.71371 -2.74023,1.46279 -0.003,-0.15635 -0.11827,-0.10841 -0.25641,0.10646 -0.54924,0.85454 -9.635108,4.32194 -13.242363,5.05364 -0.564094,0.11438 -1.410225,0.29205 -1.880304,0.39472 -4.4509,0.97216 -13.652273,1.45809 -17.606499,0.92981 z m -11.96559,-25.59339 c 0.635294,-0.17002 0.676087,-0.42414 0.575579,-3.585 l -0.108182,-3.40202 -1.601205,-0.0437 c -2.717599,-0.0741 -3.127685,-0.17987 -3.828457,-0.98787 -0.74929,-0.86394 -0.738915,-0.81015 -0.857051,-4.438488 C 52.444766,87.138308 51.556815,83.638171 48.023944,79.95889 46.602039,78.478059 46.487838,78.250419 47.01797,77.953745 c 1.036566,-0.580094 2.53453,-2.41492 3.423663,-4.19357 1.218423,-2.437381 1.882101,-6.404736 2.029257,-12.130422 0.147834,-5.752551 0.329157,-7.068897 1.089398,-7.908955 0.753523,-0.832629 2.707954,-1.434263 4.012524,-1.235169 1.852937,0.282785 1.92877,0.145354 1.92877,-3.495647 v -3.352203 l -1.111095,-0.179057 c -0.611102,-0.09847 -1.957225,-0.138698 -2.991397,-0.08936 -4.927348,0.235019 -7.642236,1.819155 -9.215611,5.377306 -0.82234,1.859697 -0.960127,2.686045 -1.216092,7.293417 -0.783703,14.106258 -1.330673,15.65493 -5.718129,16.190426 l -1.798543,0.219515 -0.09625,4.017017 c -0.09523,3.972729 -0.08763,4.01745 0.68375,4.056451 0.429039,0.0217 0.933911,0.07518 1.121932,0.118865 0.188031,0.04369 0.688024,0.102866 1.111094,0.1315 0.619896,0.04196 3.504211,2.438287 3.504211,2.911338 0,0.06835 0.160644,0.952949 0.357007,1.965774 0.196362,1.012825 0.432603,4.379912 0.524985,7.482417 0.09235,3.102503 0.231722,6.025532 0.30965,6.495602 0.07797,0.47008 0.219035,1.38569 0.313543,2.03468 0.09451,0.649 0.644714,2.1105 1.222687,3.24781 1.146258,2.2555 2.588564,3.34811 5.470321,4.14398 1.603516,0.44284 5.481221,0.61458 6.673315,0.29555 z m 44.101716,-0.78195 c 4.18054,-1.88744 5.44299,-5.04709 5.82586,-14.580988 0.31149,-7.756006 0.62392,-10.42715 1.21961,-10.42715 0.16765,0 0.26636,-0.135313 0.21934,-0.300695 -0.24853,-0.874405 3.64466,-3.152301 4.4923,-2.628429 0.17474,0.10799 0.56235,0.10248 0.86137,-0.01228 0.45479,-0.174522 0.54366,-0.873219 0.54366,-4.274531 v -4.065903 h -1.37848 c -1.76464,0 -3.55254,-0.748601 -4.21845,-1.766283 -1.03644,-1.583943 -1.60569,-4.845079 -1.75052,-10.028363 -0.18634,-6.66949 -0.65803,-10.417702 -1.51399,-12.030796 -2.10808,-3.972751 -5.1797,-5.191079 -12.420188,-4.926331 l -0.940156,0.03438 v 3.418737 3.418737 l 1.623897,0.002 c 0.893138,0.001 2.213112,0.165516 2.933232,0.365484 1.769475,0.49135 2.143085,1.52979 2.450765,6.811958 0.3499,6.006785 0.37739,6.32503 0.827,9.572465 0.23017,1.662421 0.77145,3.673008 1.26493,4.698506 0.84296,1.751824 2.60476,3.848337 3.23391,3.848337 0.71465,0 0.23452,1.187237 -0.96645,2.389771 -3.21058,3.214801 -4.02037,6.437925 -4.3385,17.267971 -0.13407,4.564573 -0.18122,4.839063 -0.993305,5.784143 -0.58112,0.67629 -1.21661,0.97823 -2.307632,1.09635 -0.828123,0.0896 -2.005661,0.23903 -2.616763,0.33192 l -1.111084,0.16887 v 3.44105 3.44108 l 3.675137,-0.13909 c 2.870937,-0.10864 4.049177,-0.30795 5.384507,-0.91083 z M 95.518183,81.862851 c 3.128542,-2.8313 1.227936,-7.92917 -2.954354,-7.924298 -2.245508,0.0027 -4.682725,2.411536 -4.685437,4.631055 -0.001,1.093895 1.508935,3.766276 2.174873,3.848373 0.213343,0.0263 1.003272,0.178171 1.755387,0.337487 1.482442,0.314012 2.699941,0.02104 3.709531,-0.892617 z m -32.608122,0.52578 c 1.176778,-0.595455 2.403481,-2.536023 2.402854,-3.801148 -0.001,-2.392675 -2.204057,-4.650206 -4.537592,-4.650206 -2.394297,0 -4.692473,2.252135 -4.692473,4.59847 0,3.107826 3.923645,5.322105 6.827211,3.852884 z m 16.147222,-0.05485 c 0.907942,-0.379358 1.270229,-0.799966 1.580187,-1.834501 0.831996,-2.776962 0.13299,-5.099517 -1.812637,-6.022779 -3.925832,-1.862932 -7.808355,1.527285 -6.427428,5.612437 0.432357,1.279055 1.462883,2.851147 1.462883,2.231673 0,-0.116788 0.269226,-0.05553 0.598271,0.136121 0.872059,0.507921 3.240387,0.444601 4.598724,-0.122951 z"
       id="path5" /></g></g></svg>
