<?xml version="1.0" encoding="UTF-8" standalone="no"?>
<svg
   version="1.1"
   id="Layer_1"
   x="0px"
   y="0px"
   width="600px"
   height="600px"
   viewBox="0 0 600 600"
   enable-background="new 0 0 600 600"
   xml:space="preserve"
   sodipodi:docname="threejs.svg"
   inkscape:version="1.3.2 (091e20e, 2023-11-25, custom)"
   xmlns:inkscape="http://www.inkscape.org/namespaces/inkscape"
   xmlns:sodipodi="http://sodipodi.sourceforge.net/DTD/sodipodi-0.dtd"
   xmlns="http://www.w3.org/2000/svg"
   xmlns:svg="http://www.w3.org/2000/svg"><defs
   id="defs1"><pattern
     id="EMFhbasepattern"
     patternUnits="userSpaceOnUse"
     width="6"
     height="6"
     x="0"
     y="0" /></defs><sodipodi:namedview
   id="namedview1"
   pagecolor="#ffffff"
   bordercolor="#000000"
   borderopacity="0.25"
   inkscape:showpageshadow="2"
   inkscape:pageopacity="0.0"
   inkscape:pagecheckerboard="0"
   inkscape:deskcolor="#d1d1d1"
   inkscape:zoom="0.47906484"
   inkscape:cx="216.04591"
   inkscape:cy="510.36933"
   inkscape:window-width="2560"
   inkscape:window-height="1369"
   inkscape:window-x="-8"
   inkscape:window-y="-8"
   inkscape:window-maximized="1"
   inkscape:current-layer="g5"
   showgrid="false" />  
<g
   id="g1"
   transform="matrix(0.39238967,0,0,0.39238967,653.50563,226.04184)"><g
     style="fill:none"
     id="g5"
     transform="matrix(8.5429944,0,0,8.5429944,-1559.151,-471.69565)"><path
       style="fill:#ffffff;stroke-width:1.99322"
       d="m 41.157285,151.25303 c -0.521048,-0.74391 -0.947378,-1.65995 -0.947378,-2.03561 0,-0.37569 -4.12876,-17.37386 -9.175021,-37.77373 C 25.988606,91.043841 18.890862,62.312303 15.262102,47.595846 11.633341,32.879389 7.7579003,17.226437 6.6500073,12.81149 4.9769763,6.1445399 4.7686253,4.6463149 5.4204283,3.9697959 c 0.66185,-0.686944 3.424714,-0.0598 17.6384807,4.004203 9.269539,2.6503081 25.282228,7.2268851 35.583738,10.1701771 10.301511,2.943291 21.004391,6.017757 23.784161,6.832147 5.98969,1.754793 19.683932,5.713671 40.135802,11.602905 8.1758,2.354274 18.16812,5.238068 22.20517,6.408428 4.32932,1.255092 7.47737,2.485787 7.67484,3.000377 0.37293,0.971835 0.79217,0.553079 -33.15035,33.112023 -12.59073,12.077531 -29.715332,28.543914 -38.054662,36.591974 -25.438073,24.54959 -38.043688,36.5454 -38.601272,36.73386 -0.292406,0.0989 -0.957982,-0.42894 -1.479051,-1.17286 z M 55.40103,136.05759 c 6.159116,-5.96045 11.062378,-10.97318 10.896128,-11.13944 -0.48172,-0.48174 -29.682346,-8.7394 -30.177143,-8.53382 -0.245725,0.10205 1.083276,6.33976 2.953297,13.8615 1.870021,7.52174 3.557602,14.43471 3.750187,15.36216 0.192546,0.92743 0.581663,1.59637 0.86464,1.48651 0.282978,-0.10983 5.553775,-5.07648 11.712891,-11.03691 z m 8.27506,-29.3314 c -1.844627,-7.599614 -3.491905,-14.177227 -3.660632,-14.616912 -0.236914,-0.6174 -0.66462,-0.517978 -1.878133,0.436576 -2.156686,1.696451 -21.025842,20.240016 -20.791618,20.432856 0.710464,0.58493 29.361261,8.36332 29.504171,8.01006 0.0991,-0.2448 -1.32918,-6.66298 -3.173788,-14.26258 z m 20.432858,1.67547 c 5.01307,-4.88521 9.02667,-8.949391 8.91907,-9.031532 -0.10763,-0.08212 -5.54708,-1.681961 -12.08771,-3.555151 -6.54064,-1.87319 -13.07464,-3.788537 -14.51999,-4.256326 -1.445344,-0.467789 -2.744208,-0.734243 -2.886344,-0.592087 -0.21178,0.21178 3.816564,17.315176 6.485124,27.534266 l 0.6595,2.52552 2.15782,-1.87126 c 1.18683,-1.02918 6.25946,-5.86823 11.27253,-10.75343 z M 46.120428,99.539911 C 52.079505,93.770749 56.732761,88.924229 56.461025,88.769874 55.109421,88.002165 27.61966,80.50173 27.306246,80.815164 c -0.319833,0.319832 6.120407,27.872536 6.801192,29.096856 0.145904,0.26255 0.470819,0.39633 0.721866,0.29731 0.251046,-0.0991 5.332048,-4.90026 11.291124,-10.669419 z m 47.96482,-4.524375 c -0.17262,-0.572314 -1.82059,-7.194715 -3.66227,-14.716457 -1.84166,-7.521743 -3.45814,-14.03336 -3.59216,-14.470254 -0.22311,-0.727307 -22.836729,20.358192 -22.836729,21.293531 0,0.365119 27.991079,8.751063 29.621629,8.874443 0.47883,0.03628 0.66135,-0.345186 0.46953,-0.981263 z M 113.20896,80.296169 c 6.51614,-6.339662 7.16166,-7.147097 6.04446,-7.560391 -3.4694,-1.283416 -28.674132,-8.219928 -28.931822,-7.962245 -0.16424,0.164242 1.38268,7.150944 3.43754,15.526064 l 3.73611,15.227459 4.209212,-4.066591 c 2.31509,-2.236635 7.4921,-7.260551 11.5045,-11.164296 z M 54.702565,70.363006 C 52.639879,62.09249 50.943368,55.224724 50.932525,55.101324 50.900434,54.73758 45.857761,59.422928 36.524898,68.487723 l -8.739163,8.488136 4.874225,1.44985 c 2.680824,0.797409 7.683732,2.268486 11.117575,3.269044 3.433844,1.000558 7.982576,2.326349 10.108287,2.946162 2.125692,0.619832 4.0229,1.044268 4.215984,0.943172 0.193143,-0.101056 -1.336555,-6.950564 -3.399241,-15.221081 z m 20.280733,1.189954 c 3.93237,-3.829259 7.68367,-7.352697 8.33626,-7.829875 0.65258,-0.477177 1.05313,-0.985987 0.89013,-1.130655 -0.48374,-0.42938 -29.402419,-8.600972 -29.760402,-8.409444 -0.180586,0.09667 1.336974,6.815026 3.372452,14.929712 2.035479,8.114706 3.721804,14.877728 3.747397,15.028954 0.05282,0.312358 3.166453,-2.609626 13.414163,-12.588692 z M 37.478894,63.018142 48.594675,52.277845 33.36883,47.93856 c -8.374204,-2.386604 -15.316118,-4.242772 -15.426443,-4.124813 -0.180984,0.193542 6.432686,27.652966 7.11688,29.548182 0.157464,0.435977 0.515148,0.703547 0.795016,0.594598 0.279868,-0.10903 5.51094,-5.031232 11.624611,-10.938385 z m 83.453316,5.53751 c -0.14909,-0.40879 -1.82886,-7.105159 -3.73278,-14.880818 -1.90393,-7.775659 -3.66695,-14.063597 -3.91782,-13.973204 -0.73141,0.263544 -21.935732,20.75004 -21.935732,21.193153 0,0.220969 4.48182,1.672951 9.959612,3.226608 5.4778,1.553657 11.56506,3.339803 13.52726,3.969203 4.22091,1.353896 6.48671,1.526648 6.09946,0.465058 z m 26.30232,-21.186615 c -0.004,-0.388339 -29.86353,-9.050305 -30.16357,-8.750265 -0.17241,0.172414 6.68394,28.439293 7.27566,29.99572 0.19514,0.513075 4.37443,-3.103905 11.5985,-10.037767 6.21146,-5.961946 11.2917,-11.005396 11.28941,-11.207688 z M 84.807538,58.447365 c 0.004,-1.378671 -6.69462,-28.09006 -7.17814,-28.62239 -0.26344,-0.290053 -5.43446,4.247856 -11.49116,10.084229 -6.056704,5.836374 -10.938065,10.685723 -10.847473,10.776315 0.181383,0.181384 28.351693,8.37552 29.068513,8.455408 0.24529,0.02731 0.44698,-0.284772 0.44826,-0.693562 z m 18.889182,-14.38026 c 4.81435,-4.692822 7.03949,-7.247335 6.54064,-7.508746 -1.53757,-0.8058 -28.556132,-8.334379 -28.851252,-8.039243 -0.24702,0.24702 3.75997,17.53856 6.46635,27.904531 l 0.59715,2.287182 3.9752,-3.765595 c 2.18637,-2.071077 7.25872,-6.966231 11.271912,-10.878129 z M 49.128978,48.4034 c 0,-0.869543 -6.39031,-26.757472 -7.035456,-28.501441 -0.443014,-1.197608 -1.444927,-0.383496 -11.441494,9.297045 -6.025769,5.835277 -11.030012,10.77781 -11.120544,10.983391 -0.124577,0.282818 26.838894,8.447016 29.15155,8.826745 0.245266,0.04026 0.445944,-0.23231 0.445944,-0.60574 z m 17.72562,-13.708644 c 4.91782,-4.748892 8.18031,-8.320766 7.72986,-8.462922 -9.562903,-3.018057 -27.417708,-8.068902 -28.523687,-8.068902 -0.749651,0 -0.286545,2.536854 2.577934,14.121859 1.920449,7.767008 3.622581,14.487196 3.782498,14.933758 0.336735,0.940262 1.851384,-0.373989 14.433395,-12.523793 z M 34.263587,21.254878 c 2.779608,-2.627485 4.906775,-4.924315 4.727006,-5.104064 C 38.550729,15.71095 9.2219013,7.3304479 8.9775523,7.5747969 c -0.10584,0.10584 1.5147287,7.0132711 3.6012137,15.3498831 2.086485,8.336631 3.805619,15.286717 3.820289,15.44466 0.01395,0.157864 2.903089,-2.553317 6.418694,-6.025032 3.515585,-3.471694 8.66621,-8.461945 11.445838,-11.08943 z"
       id="path1" /></g></g></svg>
