<?xml version="1.0" encoding="UTF-8" standalone="no"?>
<svg
   xmlns:dc="http://purl.org/dc/elements/1.1/"
   xmlns:cc="http://creativecommons.org/ns#"
   xmlns:rdf="http://www.w3.org/1999/02/22-rdf-syntax-ns#"
   xmlns:svg="http://www.w3.org/2000/svg"
   xmlns="http://www.w3.org/2000/svg"
   xmlns:sodipodi="http://sodipodi.sourceforge.net/DTD/sodipodi-0.dtd"
   xmlns:inkscape="http://www.inkscape.org/namespaces/inkscape"
   version="1.1"
   id="Layer_1"
   x="0px"
   y="0px"
   width="600px"
   height="600px"
   viewBox="0 0 600 600"
   enable-background="new 0 0 600 600"
   xml:space="preserve"
   sodipodi:docname="tortoisesvn.svg"
   inkscape:version="0.92.4 (5da689c313, 2019-01-14)"><metadata
   id="metadata829"><rdf:RDF><cc:Work
       rdf:about=""><dc:format>image/svg+xml</dc:format><dc:type
         rdf:resource="http://purl.org/dc/dcmitype/StillImage" /><dc:title /></cc:Work></rdf:RDF></metadata><defs
   id="defs827" /><sodipodi:namedview
   pagecolor="#ffffff"
   bordercolor="#666666"
   borderopacity="1"
   objecttolerance="10"
   gridtolerance="10"
   guidetolerance="10"
   inkscape:pageopacity="0"
   inkscape:pageshadow="2"
   inkscape:window-width="1920"
   inkscape:window-height="1017"
   id="namedview825"
   showgrid="false"
   inkscape:zoom="0.70833333"
   inkscape:cx="658.85295"
   inkscape:cy="469.10305"
   inkscape:window-x="-8"
   inkscape:window-y="-8"
   inkscape:window-maximized="1"
   inkscape:current-layer="Layer_1" />  
<path
   style="fill:#ffffff"
   d="m 287.5089,588.54953 c -5.9101,-2.25059 -14.3115,-6.73637 -17.2979,-9.23582 -1.5547,-1.3012 -3.5372,-2.36582 -4.4056,-2.36582 -0.8684,0 -2.9714,-1.04229 -4.6733,-2.31619 -1.7019,-1.27391 -9.3944,-5.84043 -17.0944,-10.14784 -7.7,-4.3074 -17.36213,-9.90261 -21.4714,-12.4338 -4.10928,-2.5312 -9.28428,-5.54497 -11.5,-6.69728 -6.18833,-3.21831 -33.32768,-18.8451 -39.72955,-22.87621 -3.13553,-1.97436 -7.26726,-4.2442 -9.18162,-5.04407 -1.91436,-0.79987 -3.77046,-1.92321 -4.12466,-2.49632 -0.35419,-0.5731 -4.09747,-2.84326 -8.31838,-5.04478 -4.22091,-2.20153 -9.69938,-5.33809 -12.17438,-6.97014 -2.475,-1.63205 -6.01724,-3.67262 -7.87165,-4.53461 -1.8544,-0.86198 -5.2294,-2.76431 -7.5,-4.22737 -2.27059,-1.46306 -5.22269,-3.24993 -6.56023,-3.97081 -4.90321,-2.64263 -20.767064,-11.70668 -27.853584,-15.91456 -4.00701,-2.37931 -7.60701,-4.32708 -8,-4.32839 -0.393,-10e-4 -3.41453,-1.84414 -6.71453,-4.09516 -3.3,-2.25101 -8.06551,-5.14605 -10.59002,-6.43338 -5.92143,-3.01958 -10.27254,-8.03384 -12.31974,-14.1974 -1.48222,-4.46252 -1.60643,-17.6393 -1.36068,-144.34126 0.25938,-133.72877 0.3465,-139.57355 2.13062,-142.93043 2.1478,-4.04115 8.54401,-11 10.11063,-11 0.5857,0 2.85688,-1.22476 5.04705,-2.72167 2.19017,-1.49693 5.33214,-3.46656 6.98214,-4.37694 1.65,-0.9104 5.28949,-2.94814 8.08776,-4.52832 2.79826,-1.58019 8.42326,-4.75083 12.5,-7.04588 4.07673,-2.29503 8.711934,-4.99503 10.300464,-5.99999 3.42523,-2.16691 12.88178,-7.59044 17.11177,-9.81395 1.65,-0.86733 4.19415,-2.35012 5.65367,-3.2951 3.5082,-2.27142 14.18958,-8.40901 19.94639,-11.461324 2.53003,-1.34145 7.25503,-4.11208 10.5,-6.15697 3.24497,-2.04489 9.94994,-5.98058 14.89994,-8.74598 4.95,-2.765396 12.12882,-6.901318 15.95293,-9.190936 3.82412,-2.289618 9.05831,-5.287942 11.63155,-6.662942 2.57324,-1.375001 7.76942,-4.363032 11.54707,-6.64007 3.77765,-2.277038 12.04345,-7.127497 18.36845,-10.778798 6.32499,-3.6513 12.17499,-7.081443 12.99999,-7.62254 0.825,-0.541097 3.3,-1.884636 5.5,-2.985642 2.2,-1.101006 5.6752,-3.007831 7.7226,-4.237389 7.6272,-4.580341 23.427,-13.578283 27.7774,-15.819096 3.6485,-1.879281 6.5035,-2.394385 15.0882,-2.722254 9.4122,-0.359467 11.2473,-0.138215 16.5207,1.99184 5.6438,2.279629 26.4014,13.615132 40.3911,22.057166 3.575,2.15732 9.425,5.602149 13,7.655174 13.9819,8.029453 34.2709,19.736674 38.7701,22.371318 2.6015,1.52334 6.3107,3.54834 8.2427,4.5 1.932,0.95166 4.857,2.660439 6.5,3.797286 2.9166,2.018155 18.214,10.934333 29.0517,16.933003 2.9811,1.65 8.947,5.105444 13.2577,7.678754 4.3106,2.57332 10.5016,6.08362 13.7577,7.80068 3.2561,1.71707 9.0701,5.12015 12.9201,7.56239 3.85,2.44224 9.025,5.39989 11.5,6.57254 2.475,1.17265 5.175,2.704 6,3.403 0.825,0.69901 5.1,3.2792 9.5,5.73376 19.7766,11.0325 24.2665,13.88999 28.2715,17.99263 3.597,3.68477 4.425,5.31364 5.2442,10.31596 1.5109,9.22693 1.3097,274.24426 -0.2138,281.6206 -1.3961,6.75942 -5.3794,11.30886 -14.2461,16.27106 -2.9961,1.67675 -11.6593,6.69818 -19.2516,11.15874 -23.8422,14.00758 -25.2551,14.82023 -31.1036,17.88989 -3.1436,1.65 -7.8184,4.4625 -10.3883,6.25 -2.57,1.7875 -4.9937,3.25 -5.3861,3.25 -0.3924,0 -4.3614,2.19023 -8.8199,4.86718 -4.4584,2.67695 -10.3563,6.07393 -13.1063,7.54884 -2.75,1.47492 -6.35,3.59866 -8,4.71942 -1.65,1.12077 -8.625,5.20445 -15.5,9.07484 -6.875,3.8704 -16.55,9.44761 -21.5,12.3938 -4.95,2.9462 -11.4162,6.50864 -14.3694,7.91654 -2.9532,1.40789 -6.7782,3.61387 -8.5,4.90216 -1.7218,1.2883 -6.2806,4.04296 -10.1306,6.12148 -3.85,2.07853 -9.3712,5.28137 -12.2694,7.11744 -2.8982,1.83606 -5.4907,3.3383 -5.7611,3.3383 -0.2705,0 -6.1929,3.43573 -13.161,7.63495 -6.9681,4.19923 -16.0756,9.26173 -20.2389,11.25 -7.0449,3.36447 -8.2974,3.63049 -18.0696,3.83778 -6.8807,0.14596 -11.7164,-0.24048 -14.0288,-1.12109 z m 10.0288,-53.01406 c 21.8609,-6.75635 32.0041,-18.40461 39.1213,-44.92617 1.7473,-6.51124 3.6723,-11.97368 4.2778,-12.13876 4.727,-1.28876 15.7698,-3.52265 17.4134,-3.52265 1.1145,0 4.4251,2.17875 7.3569,4.84166 11.5938,10.53033 22.9051,16.89488 32.4216,18.24257 5.7586,0.81554 6.8672,0.64465 13.5896,-2.0947 4.0257,-1.64046 7.4319,-2.98421 7.5694,-2.9861 0.1375,-0.002 0.25,-0.53693 0.25,-1.18898 0,-0.65205 0.8578,-2.11455 1.9062,-3.25 4.9385,-5.34838 6.3638,-20.77852 3.6124,-39.10695 -1.6849,-11.22436 -2.5127,-9.14238 8.0683,-20.29215 l 5.087,-5.36034 5.913,1.53147 c 5.4179,1.40322 12.1216,2.69414 21.5263,4.14531 5.8615,0.90442 22.9614,-1.36965 26.694,-3.54996 1.8189,-1.0625 3.8945,-1.93183 4.6125,-1.93183 2.9108,0 14.0097,-9.89272 18.6646,-16.63616 6.7934,-9.8415 9.5305,-25.27024 7.03,-39.62876 -1.2916,-7.41697 -5.8382,-18.36098 -9.102,-21.90921 -11.1838,-12.15845 -14.8917,-14.37553 -35.7348,-21.36663 -9.2054,-3.08764 -11.0333,-4.52898 -11.8532,-9.34652 -3.5273,-20.72518 -6.2005,-28.95619 -13.2856,-40.90672 -1.7263,-2.91171 -3.1387,-5.80297 -3.1387,-6.42504 0,-1.45941 -30.4507,-55.17023 -33.89,-59.77713 -6.7626,-9.05861 -6.9069,-9.40653 -6.0638,-14.61135 0.4359,-2.69086 2.4466,-10.74247 4.4682,-17.89247 3.1142,-11.0141 3.7576,-15.02692 4.2117,-26.26848 0.6474,-16.02564 -0.5749,-20.98009 -7.2508,-29.38972 -10.8843,-13.71102 -29.2054,-19.51372 -48.6193,-15.39885 -13.3444,2.82842 -22.5156,10.23103 -28.1642,22.73308 -4.9357,10.92399 -6.4193,14.74831 -8.1243,20.94162 l -1.5464,5.61766 -4.2606,-0.82411 c -2.3433,-0.45325 -12.0114,-0.8437 -21.4848,-0.86765 l -17.2243,-0.0436 -1.6438,-3.25 c -0.904,-1.78749 -2.8281,-4.81593 -4.2756,-6.72985 -1.4476,-1.91391 -4.207,-6.03666 -6.132,-9.16167 -11.6522,-18.91598 -17.855,-25.05543 -30.2239,-29.91515 -6.8872,-2.70598 -10.00183,-3.328954 -18.5595,-3.712154 -8.7751,-0.39295 -11.34191,-0.12503 -17.5,1.826584 -10.08042,3.19468 -17.12505,7.37576 -24.27213,14.40584 -6.89518,6.78232 -8.43878,9.59692 -11.53688,21.0364 -1.80791,6.67554 -2.08029,9.73836 -1.64527,18.5 0.4952,9.97366 1.91478,15.30972 6.65087,25 1.78741,3.65713 5.05464,10.11475 8.97853,17.74589 l 4.23999,8.24588 -5.40598,8.25412 c -4.6679,7.12717 -13.29838,23.72618 -15.05151,28.94859 -0.5279,1.57254 -1.05841,1.54807 -7.37152,-0.33993 -4.53691,-1.35681 -11.00165,-2.21348 -19.40948,-2.57204 -16.01087,-0.68279 -23.66328,1.31354 -31.99775,8.34743 -5.35701,4.52108 -12.895454,15.24892 -12.895454,18.35133 0,0.89031 -0.5625,2.18102 -1.25,2.86825 -0.87838,0.87804 -1.25,5.3227 -1.25,14.95 0,12.80614 0.17683,14.07789 2.70894,19.48208 6.473244,13.81559 13.912244,18.91092 38.291054,26.22738 4.4,1.32051 12.725,3.7759 18.5,5.45642 5.775,1.68052 10.98296,3.70302 11.57324,4.49444 0.59028,0.79142 1.69348,3.37422 2.45156,5.73956 1.47406,4.59933 36.98651,67.94973 39.96912,71.3006 0.9791,1.1 3.18362,4.516 4.89892,7.59111 3.79155,6.7973 13.90703,17.11105 26.89175,27.41881 0.1565,0.12425 -0.1399,2.64785 -0.6587,5.608 -0.5188,2.96014 -1.6955,9.65708 -2.6149,14.88208 -5.22405,29.68979 8.4955,54.52548 34.489,62.43326 6.0401,1.83752 24.2507,1.93119 30,0.15432 z m -18.7182,-27.1123 c -11.8463,-3.49779 -19.2818,-12.82216 -19.2818,-24.17991 0,-3.74025 2.4946,-15.7113 3.5674,-17.1191 0.1357,-0.17805 1.5261,0.33607 3.0897,1.14249 4.6189,2.38216 28.7639,8.70244 35.731,9.35303 8.6139,0.80437 8.8191,0.98935 7.171,6.46562 -3.2846,10.91394 -11.0309,21.29257 -17.2981,23.17649 -7.1799,2.15823 -9.0395,2.32463 -12.9792,1.16138 z m 115.9824,-43.13946 -3.2358,-2.57027 2.3935,-1.88277 c 3.1651,-2.48965 4.5751,-2.37688 4.5918,0.36723 0.01,1.2375 0.285,3.2625 0.6166,4.5 0.774,2.88832 -0.3417,2.78247 -4.3661,-0.41419 z m -68.4806,-37.68547 c -0.156,-13.28269 -0.1412,-26.62535 0.033,-29.65035 l 0.3166,-5.5 22.1834,-12.65508 c 20.1157,-11.47548 22.3699,-12.52844 24.1835,-11.29631 1.1,0.74732 4.25,2.55498 7,4.01699 2.75,1.46201 5.675,3.19584 6.5,3.85295 0.825,0.6571 2.625,1.74957 4,2.42769 1.375,0.67813 3.4,1.77764 4.5,2.44336 1.1,0.66573 7.175,4.30894 13.5,8.09603 6.325,3.7871 11.6233,6.98541 11.774,7.10735 0.1507,0.12196 -1.7848,3.01851 -4.3012,6.43679 -5.664,7.69399 -19.393,21.46048 -23.5414,23.60571 -1.6975,0.87781 -4.9955,3.02893 -7.3288,4.78027 -4.4059,3.30688 -9.8502,6.22225 -22.6026,12.10342 -6.8261,3.14806 -20.5489,6.55828 -31.7164,7.8818 l -4.2164,0.4997 z m -35.7836,18.6432 c -3.575,-1.2288 -7.4,-2.66159 -8.5,-3.18399 -1.1,-0.52238 -5.5304,-2.5983 -9.8454,-4.61314 -8.0896,-3.7774 -16.905,-9.15204 -22.1546,-13.50743 -4.0146,-3.33073 -13.5684,-13.07911 -15.7588,-16.07963 -0.9674,-1.32514 -2.83461,-3.77053 -4.14946,-5.4342 -1.31484,-1.66367 -3.98997,-5.75372 -5.94472,-9.08901 -1.95476,-3.33528 -4.25966,-6.64971 -5.12201,-7.36539 -1.35087,-1.12113 0.68449,-2.59272 14.70349,-10.63082 8.9493,-5.13127 17.1361,-9.34315 18.1928,-9.35975 1.0567,-0.0166 2.6317,0.59447 3.5,1.35792 0.8683,0.76346 4.0537,2.65023 7.0787,4.19283 3.025,1.5426 6.85,3.77583 8.5,4.96274 1.65,1.18689 7.1905,4.58763 12.3122,7.55716 5.1218,2.96954 10.5218,6.1105 12,6.9799 l 2.6878,1.58074 0.2674,24.01022 c 0.1471,13.20561 -0.078,25.55052 -0.5,27.43312 l -0.7674,3.4229 z m 169.3666,-46.50068 -7.1335,-2.03035 2.7667,-6.13126 c 3.0046,-6.65854 8.4633,-25.40786 9.5003,-32.63126 1.1007,-7.66723 1.3381,-8.0731 4.3179,-7.38135 9.1047,2.11361 21.0185,10.18032 24.1758,16.36924 2.6264,5.14804 2.6402,13.07103 0.032,18.45835 -3.0609,6.32301 -10.6669,13.08724 -16.2188,14.42392 -6.2381,1.50187 -8.9725,1.33297 -17.4406,-1.07729 z m -31.3666,-32.79514 c -2.475,-1.56479 -6.75,-4.05477 -9.5,-5.53329 -2.75,-1.47853 -5.675,-3.24981 -6.5,-3.93618 -0.825,-0.68637 -3.975,-2.59564 -7,-4.24282 -3.025,-1.64718 -7.075,-3.95638 -9,-5.13155 -1.925,-1.17519 -4.175,-2.43878 -5,-2.80802 -0.825,-0.36923 -2.7375,-1.52874 -4.25,-2.57668 l -2.75,-1.90538 v -24.80946 c 0,-18.62783 0.3115,-25.06783 1.25,-25.84645 1.7807,-1.47729 32.9965,-19.31241 33.2231,-18.98206 1.6129,2.35083 7.9134,14.82208 9.9899,19.77416 1.4991,3.575 3.1885,7.37007 3.7543,8.43347 6.596,12.3966 7.6715,45.57198 2.1176,65.31653 -0.8123,2.8875 -1.5574,5.21463 -1.6559,5.1714 -0.099,-0.0432 -2.204,-1.35888 -4.679,-2.92367 z m -120.2812,-1.88619 c -2.0373,-1.03866 -12.4825,-6.97134 -23.2115,-13.1837 L 265.5377,340.5805 v -24.66131 c 0,-22.24199 0.1717,-24.81025 1.75,-26.1794 0.9625,-0.83494 11.5874,-7.05842 23.6109,-13.82992 17.7765,-10.01156 22.1671,-12.10425 23.5,-11.20061 0.9015,0.61119 5.2391,3.21859 9.6391,5.79422 4.4,2.57563 13.7451,8.07391 20.7669,12.21839 l 12.7668,7.53541 -0.2668,25.09531 -0.2669,25.0953 -8,4.67805 c -4.4,2.57293 -9.8,5.9964 -12,7.60771 -3.7867,2.77341 -23.5886,14.21424 -24.6022,14.21424 -0.2612,0 -2.1418,-0.8498 -4.179,-1.88846 z M 197.2259,347.69789 c -12.201,-25.00468 -15.29754,-41.89361 -12.16681,-66.35939 0.90723,-7.08984 2.39857,-14.53612 3.31407,-16.54731 l 1.66455,-3.6567 17.5,10.34108 c 9.625,5.68759 18.625,10.96282 20,11.72273 11.53379,6.3743 10.99999,5.56172 10.99999,16.74559 0,5.32731 -0.2946,16.49292 -0.6547,24.81245 l -0.6547,15.12644 -16.73548,9.53256 c -9.2045,5.2429 -16.96992,9.53255 -17.25648,9.53255 -0.28656,0 -2.99126,-5.0625 -6.01044,-11.25 z m -48.18819,-41.84311 c -17.42182,-4.85584 -20.12679,-5.90117 -23.59135,-9.11682 -7.39713,-6.86568 -8.57789,-11.22805 -5.14168,-18.99618 1.62781,-3.67992 3.1737,-5.29067 7.38716,-7.69708 6.01754,-3.43675 7.3471,-3.4094 21.33798,0.43886 7.32011,2.01343 7.9862,2.40708 7.7554,4.58346 -0.13888,1.30948 -0.31755,9.24338 -0.39706,17.63087 -0.0795,8.3875 -0.19089,15.21804 -0.24751,15.17897 -0.0566,-0.0391 -3.25294,-0.949 -7.10294,-2.02208 z M 368.9996,262.88621 c -0.3609,-0.58393 -1.625,-1.47615 -2.809,-1.98271 -1.1841,-0.50656 -3.9529,-2.0431 -6.1529,-3.41452 -2.2,-1.37143 -5.8,-3.50116 -8,-4.73275 -2.2,-1.23159 -4.7287,-2.7048 -5.6194,-3.2738 -0.8907,-0.569 -5.2352,-3.18662 -9.6545,-5.81695 -4.4192,-2.63032 -8.6061,-5.47056 -9.3041,-6.31163 -1.0169,-1.22522 -1.049,-6.70552 -0.1615,-27.56833 0.6092,-14.32152 1.363,-26.29446 1.6751,-26.60655 0.3121,-0.31208 1.5792,-0.0872 2.8159,0.49983 1.2367,0.58699 3.8235,1.64045 5.7485,2.34104 11.9397,4.34531 28.9361,14.69758 40.8308,24.86939 10.8678,9.2937 26.6373,32.15928 23.8952,34.64789 -1.3239,1.20158 -31.3663,18.41077 -32.1399,18.41077 -0.2575,0 -0.7633,-0.47775 -1.1242,-1.06168 z m -121.9619,-2.41593 c -2.2,-1.31497 -6.25,-3.59791 -9,-5.07319 -2.75,-1.47529 -5.4899,-3.07472 -6.08864,-3.55431 -1.68195,-1.34717 -22.69834,-13.89024 -23.34169,-13.93085 -0.31331,-0.0198 -1.79854,-1.04232 -3.30051,-2.2723 l -2.73086,-2.23634 4.6108,-5.9777 c 13.69289,-17.75226 33.823,-33.50264 50.8509,-39.78713 13.2164,-4.87779 36.4749,-9.68166 40.1139,-8.28523 1.1348,0.43546 1.3861,5.50114 1.3861,27.94167 v 27.40977 l -5.25,3.95129 c -5.5509,4.17774 -40.6965,24.32244 -42.3054,24.24856 -0.5195,-0.0239 -2.7446,-1.11926 -4.9446,-2.43424 z m -41.99589,-81.51446 c -1.57989,-3.05517 -1.55011,-3.19149 1.44134,-6.59857 2.68193,-3.05455 3.05456,-4.21272 3.05456,-9.49382 0,-10.14947 -2.12471,-12.54697 -11.65541,-13.15182 l -4.15541,-0.26372 1.51637,-4.46712 c 2.24889,-6.62504 7.60205,-12.53079 14.46848,-15.96198 6.13769,-3.06704 8.82009,-3.22303 15.05162,-0.87531 2.23431,0.84177 2.54978,1.35551 1.75,2.8499 -1.73367,3.23941 -1.15537,13.1475 0.97091,16.63466 1.56934,2.57376 2.80975,3.31072 6.50513,3.86488 4.4439,0.6664 7.431,0.39967 10.5974,-0.94632 1.0985,-0.46696 2.1691,0.44471 3.6809,3.13463 l 2.1318,3.7931 -20.98717,11.98678 c -11.54295,6.59273 -21.38546,12.12798 -21.87224,12.30056 -0.48678,0.17258 -1.61101,-1.09005 -2.49828,-2.80585 z m 170.98619,-7.0234 c -4.3946,-2.67747 -11.2593,-6.31942 -15.2547,-8.09324 -6.2664,-2.78203 -7.1853,-3.5113 -6.6883,-5.3082 2.3952,-8.66104 5.9872,-18.38706 7.5927,-20.5586 1.0575,-1.43026 3.8588,-3.65817 6.2253,-4.95092 3.5036,-1.91392 5.1228,-2.22288 8.7187,-1.66357 2.4288,0.37778 5.334,1.45257 6.4559,2.38843 2.8093,2.3433 8.4601,12.46059 8.4601,15.1471 0,1.80222 -6.6793,27.06709 -7.327,27.71477 -0.1058,0.10579 -3.788,-1.9983 -8.1827,-4.67577 z"
   id="path2649"
   inkscape:connector-curvature="0" /></svg>