<?xml version="1.0" encoding="UTF-8" standalone="no"?>
<svg
   xmlns:dc="http://purl.org/dc/elements/1.1/"
   xmlns:cc="http://creativecommons.org/ns#"
   xmlns:rdf="http://www.w3.org/1999/02/22-rdf-syntax-ns#"
   xmlns:svg="http://www.w3.org/2000/svg"
   xmlns="http://www.w3.org/2000/svg"
   xmlns:sodipodi="http://sodipodi.sourceforge.net/DTD/sodipodi-0.dtd"
   xmlns:inkscape="http://www.inkscape.org/namespaces/inkscape"
   version="1.1"
   id="Layer_1"
   x="0px"
   y="0px"
   width="600px"
   height="600px"
   viewBox="0 0 600 600"
   enable-background="new 0 0 600 600"
   xml:space="preserve"
   sodipodi:docname="ts.svg"
   inkscape:version="0.92.4 (5da689c313, 2019-01-14)"><metadata
   id="metadata834"><rdf:RDF><cc:Work
       rdf:about=""><dc:format>image/svg+xml</dc:format><dc:type
         rdf:resource="http://purl.org/dc/dcmitype/StillImage" /><dc:title></dc:title></cc:Work></rdf:RDF></metadata><defs
   id="defs832" /><sodipodi:namedview
   pagecolor="#ffffff"
   bordercolor="#666666"
   borderopacity="1"
   objecttolerance="10"
   gridtolerance="10"
   guidetolerance="10"
   inkscape:pageopacity="0"
   inkscape:pageshadow="2"
   inkscape:window-width="1920"
   inkscape:window-height="1017"
   id="namedview830"
   showgrid="false"
   inkscape:zoom="0.70833333"
   inkscape:cx="240.28464"
   inkscape:cy="310.86799"
   inkscape:window-x="-8"
   inkscape:window-y="-8"
   inkscape:window-maximized="1"
   inkscape:current-layer="Layer_1" />  
<path
   style="fill:#ffffff;stroke-width:0.56920415"
   d="M 69.176496,301.41177 V 69.176473 H 301.41178 533.64706 V 301.41177 533.64706 H 301.41178 69.176496 Z M 439.54491,494.90375 c 23.8454,-3.24884 42.71628,-15.27555 51.36959,-32.73864 7.5748,-15.28659 7.61804,-37.97999 0.10395,-54.55197 -6.60283,-14.56222 -22.22436,-26.92059 -49.01324,-38.77495 -24.34518,-10.77299 -29.78006,-13.62334 -33.9752,-17.81848 -4.04993,-4.04994 -5.56809,-7.82859 -5.54916,-13.81168 0.0138,-4.35903 0.2196,-5.31639 1.85848,-8.64545 3.30507,-6.71352 9.00667,-9.70159 18.59754,-9.74649 10.02813,-0.047 16.09037,2.77465 22.05588,10.26565 1.644,2.06441 3.67442,4.55956 4.51203,5.54478 l 1.52292,1.7913 1.8923,-1.10859 c 8.14844,-4.77374 30.63711,-20.14383 30.63711,-20.93923 0,-1.40455 -6.56379,-9.8606 -11.66501,-15.02789 -11.34706,-11.49403 -22.05619,-16.39378 -39.14914,-17.91193 -10.59752,-0.94123 -21.97592,-0.37199 -28.98288,1.44994 -18.16256,4.72261 -31.1871,14.88592 -38.60182,30.12181 -4.16234,8.55284 -5.1139,13.2985 -5.09461,25.40811 0.0188,11.7901 0.81259,16.95009 3.59903,23.3951 8.30024,19.19835 20.69385,29.27698 53.78473,43.73846 23.99267,10.48535 30.78542,14.87992 34.33652,22.21402 1.617,3.33959 1.78381,12.15461 0.2948,15.57849 -2.35611,5.4177 -7.38176,9.49393 -14.97358,12.14483 -4.12316,1.43973 -5.19253,1.5693 -13.02987,1.57881 -9.83822,0.0119 -13.09177,-0.6705 -20.75954,-4.35434 -4.10125,-1.97037 -5.72603,-3.21943 -10.8724,-8.3583 -3.32782,-3.32296 -7.11664,-7.63349 -8.41958,-9.57895 l -2.36902,-3.53722 -6.68074,3.88239 c -3.6744,2.13531 -11.03514,6.39311 -16.3572,9.46179 -12.38311,7.14004 -11.66818,6.67021 -11.67177,7.67037 -0.006,1.55332 8.72292,13.85853 13.08726,18.4501 5.00361,5.26413 10.24392,9.28375 17.36825,13.3224 9.55563,5.41693 22.86423,9.79159 33.05487,10.86544 6.67947,0.70387 23.9838,0.71595 29.0895,0.0203 z M 274.08998,407.28374 v -85.94982 h 30.17549 30.1755 l -0.14998,-18.92604 -0.14997,-18.92604 h -81.3962 -81.39618 l -0.14998,18.92604 -0.14997,18.92604 h 30.17549 30.1755 v 85.94982 85.94983 h 21.34514 21.34516 z"
   id="path4571"
   inkscape:connector-curvature="0" /></svg>