<?xml version="1.0" encoding="UTF-8" standalone="no"?>
<svg
   version="1.1"
   id="Layer_1"
   x="0px"
   y="0px"
   width="600px"
   height="600px"
   viewBox="0 0 600 600"
   enable-background="new 0 0 600 600"
   xml:space="preserve"
   sodipodi:docname="ui5.svg"
   inkscape:version="1.3.2 (091e20e, 2023-11-25, custom)"
   xmlns:inkscape="http://www.inkscape.org/namespaces/inkscape"
   xmlns:sodipodi="http://sodipodi.sourceforge.net/DTD/sodipodi-0.dtd"
   xmlns="http://www.w3.org/2000/svg"
   xmlns:svg="http://www.w3.org/2000/svg"><defs
   id="defs1" /><sodipodi:namedview
   id="namedview1"
   pagecolor="#ffffff"
   bordercolor="#000000"
   borderopacity="0.25"
   inkscape:showpageshadow="2"
   inkscape:pageopacity="0.0"
   inkscape:pagecheckerboard="0"
   inkscape:deskcolor="#d1d1d1"
   inkscape:zoom="0.47906484"
   inkscape:cx="924.71824"
   inkscape:cy="514.54412"
   inkscape:window-width="1920"
   inkscape:window-height="1009"
   inkscape:window-x="1073"
   inkscape:window-y="2152"
   inkscape:window-maximized="1"
   inkscape:current-layer="Layer_1" />  
<path
   style="fill:#ffffff"
   d="M 279.82644,584.14305 C 241.24694,580.5414 207.11422,570.69837 175.38346,554.02427 120.00631,524.92432 75.623001,476.6071 51.873931,419.56751 c -12.38008,-29.734 -17.15893,-54.21231 -17.19789,-88.09143 -0.0523,-45.44404 10.5288,-80.29298 33.65642,-110.84807 21.81459,-28.82038 46.106819,-48.83851 101.043209,-83.26517 21.84636,-13.69033 39.6356,-25.78653 47.38461,-32.22026 10.50841,-8.724761 9.62474,-8.420111 7.97873,-2.75074 -5.06926,17.46015 -15.055,29.98149 -45.53278,57.09456 -30.85711,27.45052 -44.64046,43.94651 -56.60801,67.74879 -4.94591,9.83692 -10.3664,26.47104 -12.4335,38.15529 -2.26142,12.78262 -2.31766,36.82816 -0.11192,47.84958 5.05464,25.25642 17.07633,48.93443 33.74463,66.46366 10.28502,10.81623 17.7729,16.46301 29.27534,22.07716 13.76785,6.71987 22.73318,8.56841 38.81951,8.00412 14.13466,-0.49582 19.989,-1.92589 30.50105,-7.45063 8.23085,-4.32582 17.99314,-14.47458 22.00298,-22.87401 12.51928,-26.22423 1.97466,-50.80144 -24.73892,-57.66102 -11.32338,-2.90764 -21.38297,-1.43731 -31.3886,4.58784 -3.00962,1.81232 -5.76034,2.97086 -6.1127,2.57453 -3.20442,-3.6042 -3.70751,-18.80385 -0.88886,-26.85443 4.15529,-11.86829 16.31329,-25.38262 32.52858,-36.15743 4.72864,-3.1421 18.41921,-10.68493 30.42349,-16.76183 26.96288,-13.64935 43.71072,-24.55734 56.38997,-36.72717 13.7138,-13.16285 20.2253,-22.96567 22.4844,-33.84931 l 1.1724,-5.64848 2.025,6.46992 c 4.7257,15.09877 3.7395,37.81164 -2.3246,53.53624 -0.5744,1.4895 0.2002,1.27586 4.7894,-1.3209 15.2036,-8.60289 30.3586,-21.24898 38.0957,-31.78895 l 3.4062,-4.64023 0.6497,3.66035 c 1.2254,6.90466 0.8122,32.21111 -0.6642,40.67748 -1.2256,7.02848 -3.9541,16.39225 -6.3807,21.89827 -0.658,1.49303 -0.4466,1.51755 2.9013,0.33637 4.8226,-1.70154 13.7775,-6.26113 21.1057,-10.74645 l 5.9766,-3.6581 v 3.95508 c 0,12.69116 -8.8893,30.64609 -21.3336,43.09043 l -5.7193,5.71929 2.5264,2.63698 c 3.492,3.64493 12.1203,7.31984 18.8336,8.02151 21.5297,2.2503 46.68,-15.09007 59.7505,-41.1961 5.5647,-11.11444 8.0487,-22.35312 8.0836,-36.57337 0.045,-18.39012 -3.8226,-33.09527 -13.7356,-52.22149 -9.0167,-17.39695 -20.891,-32.57525 -39.6781,-50.71812 -18.103,-17.48231 -36.7555,-31.576151 -65.5703,-49.545018 -26.8485,-16.742603 -45.12159,-32.108325 -54.03891,-45.440835 -4.20216,-6.282754 -7.19945,-12.880912 -6.27241,-13.80795 0.2271,-0.227103 3.14759,1.420881 6.48996,3.662187 8.69126,5.828124 29.72046,16.25263 57.98056,28.741834 66.8324,29.535803 98.7819,48.203022 131.2285,76.673102 29.0217,25.46503 52.4569,61.04605 64.6509,98.1577 8.8128,26.82119 12.0353,47.02761 12.7419,79.89892 0.5378,25.01647 -0.2438,37.27493 -3.5607,55.8466 -11.7912,66.01969 -48.2181,125.00086 -102.375,165.76182 -37.6319,28.32342 -80.2019,45.77924 -127.7528,52.38493 -10.1373,1.40827 -47.37405,2.53888 -56.26893,1.70849 z M 263.51936,292.73749 c 2.496,-2.496 2.34309,-6.94058 -0.33693,-9.79333 -3.40564,-3.62514 -8.46762,-3.15693 -17.64289,1.63188 -4.14671,2.16427 -7.59079,4.29468 -7.65352,4.73423 -0.19072,1.33634 17.14593,6.08616 20.62686,5.65126 1.74884,-0.21849 4.00175,-1.21931 5.00648,-2.22404 z"
   id="path1" /></svg>
