<?xml version="1.0" encoding="UTF-8" standalone="no"?>
<svg
   version="1.1"
   id="Layer_1"
   x="0px"
   y="0px"
   width="600px"
   height="600px"
   viewBox="0 0 600 600"
   enable-background="new 0 0 600 600"
   xml:space="preserve"
   sodipodi:docname="uipath.svg"
   inkscape:version="1.3.2 (091e20e, 2023-11-25, custom)"
   xmlns:inkscape="http://www.inkscape.org/namespaces/inkscape"
   xmlns:sodipodi="http://sodipodi.sourceforge.net/DTD/sodipodi-0.dtd"
   xmlns="http://www.w3.org/2000/svg"
   xmlns:svg="http://www.w3.org/2000/svg"><defs
   id="defs1"><pattern
     id="EMFhbasepattern"
     patternUnits="userSpaceOnUse"
     width="6"
     height="6"
     x="0"
     y="0" /></defs><sodipodi:namedview
   id="namedview1"
   pagecolor="#ffffff"
   bordercolor="#000000"
   borderopacity="0.25"
   inkscape:showpageshadow="2"
   inkscape:pageopacity="0.0"
   inkscape:pagecheckerboard="0"
   inkscape:deskcolor="#d1d1d1"
   inkscape:zoom="0.47906484"
   inkscape:cx="215.00221"
   inkscape:cy="510.36933"
   inkscape:window-width="3840"
   inkscape:window-height="2066"
   inkscape:window-x="-11"
   inkscape:window-y="-11"
   inkscape:window-maximized="1"
   inkscape:current-layer="g1" />  
<g
   id="g1"
   transform="matrix(0.39238967,0,0,0.39238967,653.50563,226.04184)"><path
     style="fill:#ffffff;stroke-width:0.350846"
     d="M -1602.7932,187.31398 V -52.758816 h 240.0728 240.0729 V 187.31398 427.38685 h -240.0729 -240.0728 z m 430.0746,0 V -2.6877561 h -190.0018 -190.0017 V 187.31398 377.31578 h 190.0017 190.0018 z m -259.8074,132.8887 c -22.5861,-4.11574 -37.1581,-11.62436 -50.9269,-26.24154 -11.2314,-11.9235 -18.0562,-25.05576 -22.2906,-42.89146 -3.7982,-15.9991 -4.0606,-22.68671 -4.0606,-103.50906 V 70.630564 h 24.5443 24.5444 l 0.2982,80.247796 c 0.296,79.67406 0.3123,80.29895 2.2812,87.40081 6.7465,24.33449 22.5946,36.26062 48.1002,36.19659 22.7038,-0.057 38.3443,-11.65693 44.9866,-33.36491 3.0822,-10.07317 3.6655,-25.98989 3.6678,-100.08203 V 70.602254 l 24.8121,0.23769 24.812,0.23767 v 79.577226 c 0,83.70668 -0.084,85.76815 -4.1448,101.87081 -8.9713,35.57404 -33.2121,58.92848 -69.2246,66.69333 -12.7837,2.75639 -35.1287,3.2201 -47.4015,0.9837 z m 160.0775,-2.12276 c -0.2341,-0.61471 -0.3221,-44.57218 -0.1954,-97.68325 l 0.2303,-96.56564 h 25.0355 25.0355 l 0.2275,97.68329 0.2275,97.68326 h -25.0676 c -19.2308,0 -25.1667,-0.26022 -25.4933,-1.11766 z m 15.13,-218.735466 c -8.2214,-2.80484 -14.8052,-8.80269 -18.4341,-16.79355 -2.8277,-6.22667 -2.761,-17.67621 0.1412,-24.22394 2.7751,-6.26091 10.8868,-13.78726 17.2387,-15.99461 6.6343,-2.30547 17.5727,-2.08883 23.3607,0.46267 14.1586,6.24151 21.2835,21.19017 17.2205,36.12978 -4.5318,16.66282 -22.8302,26.115836 -39.527,20.41965 z m 462.21985,221.269456 c -37.1131,-7.06937 -61.65167,-32.05587 -71.19959,-72.49934 -1.63147,-6.91075 -1.89794,-10.76188 -1.88678,-27.27086 0.0119,-17.85282 0.17753,-19.82945 2.32053,-27.7179 5.15477,-18.97494 11.9517,-32.0779 22.6131,-43.59322 14.94445,-16.14137 33.06956,-24.83729 56.44691,-27.08154 27.74626,-2.66373 53.13928,6.80925 66.44707,24.78834 2.24959,3.03923 4.39189,5.55396 4.76073,5.58831 0.36885,0.0344 0.67061,-6.57643 0.67061,-14.69066 v -14.75306 h 25.03552 25.03552 v 98.35386 98.35387 h -25.03552 -25.03552 l -0.0302,-13.63541 -0.0298,-13.63545 -2.8441,3.57652 c -9.5689,12.03314 -22.14833,19.66772 -38.27707,23.23073 -9.11704,2.01407 -30.72514,2.56037 -38.99145,0.98581 z m 40.34681,-44.80933 c 8.45707,-2.20278 15.53924,-6.47412 22.88297,-13.80097 11.14925,-11.12364 16.37657,-24.16865 16.31423,-40.71285 -0.0539,-14.30507 -4.17658,-26.24902 -12.72139,-36.85554 -19.10963,-23.72048 -51.06852,-25.44657 -72.57053,-3.91948 -20.64976,20.67384 -22.47353,54.31683 -4.19766,77.4342 6.67323,8.44103 16.65795,15.21509 26.356,17.88103 5.93241,1.63076 17.62361,1.61789 23.93638,-0.0263 z m -314.02776,-80.21994 0.2267,-124.507026 46.9416,-0.27352 c 51.03597,-0.29738 63.435,0.32642 76.99698,3.87383 10.35198,2.70779 24.47426,9.6544 31.73288,15.60906 11.32656,9.2919 20.59268,24.010366 24.42925,38.803886 2.43326,9.38253 3.95491,25.31686 3.21073,33.62183 -3.20143,35.72747 -21.68736,60.34699 -53.21611,70.87324 -14.10032,4.70755 -26.1323,6.16973 -56.32995,6.84542 l -23.69438,0.5302 -0.2328,39.56506 -0.2328,39.56509 h -25.0294 -25.0293 z m 104.07466,1.9333 c 8.12186,-2.47353 12.458,-5.08256 17.62161,-10.60284 4.46451,-4.77294 7.59806,-10.8524 9.43084,-18.29685 1.40216,-5.69525 1.41303,-21.24354 0.019,-26.9298 -2.5863,-10.54846 -9.9389,-20.1375 -18.91547,-24.66885 -9.2758,-4.68242 -14.2603,-5.31524 -39.78419,-5.05084 l -23.04275,0.23864 -0.2329,42.47097 c -0.128,23.35907 -0.04,42.97395 0.1955,43.58866 0.328,0.85586 6.068,1.11766 24.50367,1.11766 21.85941,0 24.63944,-0.17181 30.20481,-1.86675 z m 471.52212,-7.52157 V 59.901034 h 25.03552 25.03551 l 0.0469,45.376886 c 0.0437,42.2612 0.1469,45.22342 1.50348,43.14157 3.22532,-4.94966 15.21586,-15.80139 20.57591,-18.6217 9.52132,-5.00983 20.99314,-7.43347 35.54482,-7.50954 25.8426,-0.13507 45.07811,7.71401 61.30076,25.0139 7.48326,7.98013 12.17677,15.3995 15.97875,25.25876 5.79,15.01459 5.70854,13.89795 6.08093,83.37724 l 0.33902,63.25943 h -25.08488 -25.08484 l -0.0179,-55.65934 c -0.01,-31.23057 -0.40087,-58.40638 -0.89076,-61.91824 -3.44681,-24.71053 -19.16334,-38.89449 -43.09702,-38.89449 -23.20343,0 -38.27366,11.51336 -45.0586,34.42387 -1.43619,4.84956 -1.61908,11.01042 -1.90457,64.15352 l -0.31579,58.78881 h -24.99373 -24.99369 z m -70.63596,127.8413 c -15.71526,-2.40684 -25.34099,-6.79743 -34.03692,-15.52521 -6.66428,-6.6887 -10.46359,-13.6171 -13.54026,-24.69172 -1.91874,-6.90675 -2.00361,-8.93861 -2.46406,-59.01234 l -0.47687,-51.85932 -11.40014,-0.25022 -11.4001,-0.25026 v -21.40559 -21.4056 l 11.4001,-0.25026 11.40014,-0.25022 0.23686,-26.614386 0.23685,-26.61435 24.79866,0.23762 24.79866,0.23767 0.23686,26.60025 0.23682,26.600246 h 21.44573 21.44573 v 21.45903 21.45902 h -21.45903 -21.45903 v 46.33228 c 0,50.31199 0.18953,52.52947 4.92314,57.60172 4.71972,5.0573 6.74305,5.56526 23.46534,5.89088 l 15.42367,0.30036 v 21.38513 21.38518 l -18.10603,-0.098 c -9.95833,-0.0539 -21.52607,-0.62177 -25.70612,-1.26195 z m 274.28728,-226.418686 -0.23766,-24.81199 -8.32041,-0.25777 -8.32042,-0.25773 0.27328,-3.76584 0.27327,-3.7658 20.78842,-0.24001 20.78842,-0.24002 v 4.00389 4.00389 l -7.37653,0.25969 -7.37654,0.2597 -0.23766,24.81199 -0.2377,24.811986 h -4.88938 -4.88943 z m 36.86853,-4.24709 v -29.05912 h 5.34412 c 4.58064,0 5.52034,0.28745 6.5773,2.01178 0.67822,1.1065 5.00426,11.16542 9.61335,22.35316 4.6091,11.18777 8.63056,20.341366 8.93657,20.341366 0.30601,0 4.71011,-9.555976 9.78684,-21.235496 5.07678,-11.67952 9.62704,-21.75658 10.1117,-22.39351 0.58398,-0.7674 2.56717,-1.06899 5.87947,-0.89413 l 4.99825,0.26391 0.23595,28.83556 0.23591,28.835556 h -4.48304 -4.483 V 96.113124 c 0,-11.0648 -0.34857,-20.11781 -0.77457,-20.11781 -0.42599,0 -4.50338,9.05301 -9.06083,20.11781 l -8.28624,20.117846 h -3.68939 -3.68936 l -8.93236,-20.633236 -8.93236,-20.63324 -0.24001,20.63324 -0.24001,20.633236 h -4.45417 -4.45412 z"
     id="path3" /></g></svg>
