<?xml version="1.0" encoding="UTF-8" standalone="no"?>
<svg
   version="1.1"
   id="Layer_1"
   x="0px"
   y="0px"
   width="600px"
   height="600px"
   viewBox="0 0 600 600"
   enable-background="new 0 0 600 600"
   xml:space="preserve"
   sodipodi:docname="vite.svg"
   inkscape:version="1.3.2 (091e20e, 2023-11-25, custom)"
   xmlns:inkscape="http://www.inkscape.org/namespaces/inkscape"
   xmlns:sodipodi="http://sodipodi.sourceforge.net/DTD/sodipodi-0.dtd"
   xmlns="http://www.w3.org/2000/svg"
   xmlns:svg="http://www.w3.org/2000/svg"><defs
   id="defs1" /><sodipodi:namedview
   id="namedview1"
   pagecolor="#ffffff"
   bordercolor="#000000"
   borderopacity="0.25"
   inkscape:showpageshadow="2"
   inkscape:pageopacity="0.0"
   inkscape:pagecheckerboard="0"
   inkscape:deskcolor="#d1d1d1"
   inkscape:zoom="0.6775"
   inkscape:cx="584.50185"
   inkscape:cy="173.43173"
   inkscape:window-width="1920"
   inkscape:window-height="1009"
   inkscape:window-x="-8"
   inkscape:window-y="-8"
   inkscape:window-maximized="1"
   inkscape:current-layer="g1" />  
<g
   id="g1"
   transform="matrix(0.39238967,0,0,0.39238967,653.50563,226.04184)"><path
     style="fill:#ffffff;stroke-width:1.09058"
     d="m -907.36712,755.0168 c -4.58648,-1.98638 -9.76232,-5.36652 -11.50186,-7.51158 -5.06556,-6.24619 -521.10152,-911.77266 -525.43022,-922.0112 -7.3496,-17.38379 4.804,-36.4684 23.3547,-36.67321 4.2575,-0.047 82.4978,13.26599 173.8674,29.58444 91.3696,16.31845 166.6174,29.17656 167.2173,28.57358 0.5999,-0.603 2.5637,-23.6089 4.3639,-51.12424 3.4349,-52.50189 5.3324,-60.29332 16.6565,-68.3967 4.6684,-3.34063 71.59178,-18.242 203.95831,-45.41403 108.3555,-22.24306 198.73201,-40.44194 200.83669,-40.44194 8.31021,0 27.87929,11.62127 32.36979,19.22307 2.61155,4.42101 4.74827,12.24169 4.74827,17.3793 0,5.13761 -9.43484,42.30672 -20.96631,82.59802 -11.53147,40.2913 -20.34534,73.8779 -19.58637,74.63687 0.75898,0.75898 60.11443,-9.40044 131.90103,-22.57648 71.78658,-13.17603 134.83523,-23.95643 140.10809,-23.95643 6.59287,0 11.8204,2.23336 16.73804,7.151 10.54203,10.54204 11.95895,21.27693 4.6612,35.31445 -34.09324,65.57978 -513.68875,917.77951 -518.0425,920.51675 -9.65585,6.0706 -16.50189,6.91864 -25.25396,3.12833 z m 17.29241,-183.03499 c 7.71474,-8.38547 317.61762,-625.008935 317.61762,-631.973757 0,-7.485082 -5.28773,-12.140079 -13.75767,-12.11144 -3.89802,0.0132 -29.4451,4.390629 -56.7713,9.727651 -27.32621,5.337023 -53.23418,9.70367 -57.57326,9.70367 -14.99347,0 -15.14413,-6.655784 -1.24284,-54.903624 6.93491,-24.06937 13.86063,-45.93425 15.39046,-48.58861 1.52983,-2.65436 2.78151,-7.97044 2.78151,-11.81353 0,-3.84308 9.38023,-39.50429 20.84495,-79.24716 11.46473,-39.74285 20.84496,-74.1767 20.84496,-76.51967 0,-10.40095 -11.77465,-8.87517 -152.72316,19.79019 -232.78226,47.34201 -248.26546,50.69171 -250.41936,54.17673 -1.1402,1.84501 -2.863,18.49519 -3.8283,37.00042 -0.9653,18.50522 -3.0098,43.65144 -4.5434,55.88048 -3.9482,31.48361 -19.3368,306.51699 -17.4285,311.49003 3.9212,10.21832 10.725,9.87311 69.1027,-3.50607 60.19707,-13.79618 65.62655,-13.91168 67.48862,-1.43571 0.4772,3.19727 -6.28803,41.60734 -15.03386,85.35572 l -15.9015,79.54249 5.85944,5.85944 5.85943,5.85943 37.95729,-11.41247 c 42.95682,-12.91565 51.26441,-12.62662 51.26441,1.78363 0,6.04376 -40.19456,209.98899 -48.44759,245.82074 -1.27336,5.52848 7.31454,15.77491 13.22152,15.77491 2.02648,0 6.2735,-2.81413 9.43783,-6.25349 z"
     id="path1" /></g></svg>
