<?xml version="1.0" encoding="UTF-8" standalone="no"?>
<!-- Created with Inkscape (http://www.inkscape.org/) -->

<svg
   xmlns:dc="http://purl.org/dc/elements/1.1/"
   xmlns:cc="http://creativecommons.org/ns#"
   xmlns:rdf="http://www.w3.org/1999/02/22-rdf-syntax-ns#"
   xmlns:svg="http://www.w3.org/2000/svg"
   xmlns="http://www.w3.org/2000/svg"
   xmlns:sodipodi="http://sodipodi.sourceforge.net/DTD/sodipodi-0.dtd"
   xmlns:inkscape="http://www.inkscape.org/namespaces/inkscape"
   width="650"
   height="470"
   viewBox="0 0 650.00001 470.00001"
   id="svg2"
   version="1.1"
   inkscape:version="0.91 r13725"
   sodipodi:docname="graph.svg">
  <defs
     id="defs4" />
  <sodipodi:namedview
     id="base"
     pagecolor="#ffffff"
     bordercolor="#666666"
     borderopacity="1.0"
     inkscape:pageopacity="0.0"
     inkscape:pageshadow="2"
     inkscape:zoom="0.98994949"
     inkscape:cx="338.55698"
     inkscape:cy="395.84091"
     inkscape:document-units="px"
     inkscape:current-layer="g4220"
     showgrid="false"
     units="px"
     inkscape:showpageshadow="false"
     inkscape:window-width="1920"
     inkscape:window-height="1017"
     inkscape:window-x="-8"
     inkscape:window-y="-8"
     inkscape:window-maximized="1"
     showguides="true"
     inkscape:guide-bbox="true">
    <sodipodi:guide
       position="-884.89364,-208.09143"
       orientation="1,0"
       id="guide4196" />
  </sodipodi:namedview>
  <metadata
     id="metadata7">
    <rdf:RDF>
      <cc:Work
         rdf:about="">
        <dc:format>image/svg+xml</dc:format>
        <dc:type
           rdf:resource="http://purl.org/dc/dcmitype/StillImage" />
        <dc:title></dc:title>
      </cc:Work>
    </rdf:RDF>
  </metadata>
  <g
     inkscape:label="Layer 1"
     inkscape:groupmode="layer"
     id="layer1"
     transform="translate(0,-582.36216)">
    <g
       id="g4147"
       transform="translate(1515.7143,-186.42857)">
      <g
         id="g4220"
         transform="translate(937.14286,-71.428571)">
        <path
           style="fill:#f7f7f7"
           d="m -2453.4822,1075.6097 0,-236.30604 325,0 325,0 0,236.30604 0,236.306 -325,0 -325,0 0,-236.306 z"
           id="path4236"
           inkscape:connector-curvature="0" />
        <path
           style="fill:#e4e4e4"
           d="m -2453.4822,1075.6097 0,-236.30604 325,0 325,0 0,236.30604 0,236.306 -325,0 -325,0 0,-236.306 z m 412.665,37.9622 c 53.2481,-12.0303 91.0335,-28.7651 119.256,-52.8174 15.0423,-12.8197 28.9544,-33.2887 33.0567,-48.6367 3.7754,-14.12522 2.6052,-31.79052 -2.9284,-44.20788 -3.9168,-8.78932 -7.7712,-15.8382 -8.6602,-15.8382 -0.5239,0 -0.9525,-0.65401 -0.9525,-1.45337 0,-1.90707 -7.9485,-11.68378 -15.1697,-18.65898 -4.64,-4.48183 -13.9135,-11.73264 -27.3412,-21.37757 -9.384,-6.74054 -37.3162,-19.45033 -55.0524,-25.05022 -3.8329,-1.21015 -8.1314,-2.63155 -9.5523,-3.15868 -2.8477,-1.05642 -19.0958,-5.03442 -32.8941,-8.05345 -19.601,-4.28864 -54.8974,-8.4076 -72.0469,-8.4076 l -8.4112,0 0,29.14232 c 0,16.02827 0.1425,29.16349 0.3168,29.18934 0.1742,0.0263 7.5176,0.53976 16.3188,1.14197 41.6489,2.84966 77.8416,16.60178 96.3743,36.61925 10.4183,11.25308 12.9788,17.39577 13.0245,31.24632 0.034,10.07655 -0.3924,12.27955 -3.6584,18.93145 -5.889,11.9939 -18.4536,23.4165 -34.9491,31.7722 -8.6308,4.3721 -28.5022,11.1987 -38.6452,13.2763 -13.0118,2.6651 -12.8759,2.354 -6.2434,14.3017 3.1792,5.7267 6.6314,12.1228 7.6716,14.2134 1.0403,2.0907 2.5928,4.9415 3.4502,6.3353 0.8574,1.3938 3.9655,7.238 6.9069,12.9873 6.073,11.8699 5.7784,11.7454 20.1292,8.5032 z"
           id="path4234"
           inkscape:connector-curvature="0" />
        <path
           style="fill:#aecce5"
           d="m -2453.4822,1075.6097 0,-236.30604 325,0 325,0 0,236.30604 0,236.306 -325,0 -325,0 0,-236.306 z m 412.8,179.8555 c 19.6948,-4.5597 25.6138,-6.0891 37.6386,-9.7254 6.9688,-2.1074 14.4672,-4.6151 16.6632,-5.5725 2.196,-0.9575 4.3722,-1.7409 4.8359,-1.7409 1.5849,0 27.9426,-13.3854 36.1728,-18.37 24.1304,-14.614 43.5559,-34.4623 51.9108,-53.0404 7.6029,-16.9058 7.6204,-17.1399 7.6157,-102.2573 0,-77.23778 -0.027,-77.92777 -2.9212,-88.74874 -6.2879,-23.51028 -24.278,-45.54531 -52.0793,-63.789 -30.0631,-19.72797 -71.6058,-34.42044 -116.6813,-41.26682 -14.3057,-2.17285 -44.8596,-4.96238 -54.808,-5.00391 l -9.194,-0.0384 0.3246,97.86285 c 0.3194,96.31232 0.3642,97.87052 2.827,98.34482 1.3765,0.2649 3.087,1.2468 3.8012,2.1818 0.8024,1.0504 6.3074,2.2038 14.4044,3.0183 7.208,0.7249 13.6129,1.6315 14.2329,2.0147 0.6345,0.3923 1.1357,29.6321 1.1467,66.9038 l 0.019,66.2072 6.0204,11.3723 c 3.3112,6.2549 9.9583,18.627 14.7713,27.4937 9.8674,18.178 8.7776,17.5158 23.2987,14.154 z"
           id="path4232"
           inkscape:connector-curvature="0" />
        <path
           style="fill:#5fabe8"
           d="m -2453.4822,1075.6097 0,-236.30604 325,0 325,0 0,236.30604 0,236.306 -325,0 -325,0 0,-236.306 z m 411.3397,180.5793 c 20.105,-4.0405 47.361,-11.7792 59.3718,-16.8574 32.1138,-13.5776 50.3832,-25.1775 69.1524,-43.9074 10.5704,-10.5483 15.5188,-17.3168 20.5955,-28.1709 7.2253,-15.4478 7.1833,-14.8401 7.1649,-103.6301 l -0.017,-81.77566 -3.6507,-10.48798 c -2.0078,-5.76845 -5.5638,-13.72901 -7.9021,-17.69024 -5.0057,-8.47995 -23.356,-28.10483 -31.4932,-33.681 -3.136,-2.14903 -6.4095,-4.60134 -7.2745,-5.44976 -2.5701,-2.52063 -23.3591,-14.09879 -34.734,-19.34461 -35.4483,-16.34781 -94.516,-29.13632 -135.0627,-29.24175 l -15.5214,-0.0403 0,97.59469 0,97.59481 3.0348,1.1537 c 1.669,0.6346 3.2792,1.8874 3.578,2.7839 0.3691,1.1072 4.7248,1.9109 13.5803,2.5059 7.1704,0.4818 13.5251,1.3639 14.1215,1.9603 0.5965,0.5965 1.458,31.0079 1.9146,67.5808 l 0.8301,66.4965 3.1913,6.3352 c 1.7554,3.4845 4.0613,8.0459 5.1244,10.1365 1.063,2.0906 5.7299,10.6433 10.3705,19.0058 4.6407,8.3626 8.8031,16.2026 9.2497,17.4221 0.9837,2.6854 -0.6055,2.7178 14.3757,-0.293 z"
           id="path4230"
           inkscape:connector-curvature="0" />
        <path
           style="fill:#2093f0"
           d="m -2453.4822,1075.6097 0,-236.30604 325,0 325,0 0,236.30604 0,236.306 -325,0 -325,0 0,-236.306 z m 412.8,181.099 c 21.8655,-5.1228 25.7352,-6.1291 37.0051,-9.6219 6.6203,-2.0518 13.027,-4.2696 14.2371,-4.9284 1.2101,-0.6588 2.7939,-1.1979 3.5197,-1.1979 2.2239,0 29.3468,-12.9235 36.4345,-17.3604 3.6721,-2.2987 6.975,-4.1795 7.3396,-4.1795 1.0982,0 13.8724,-9.6969 19.1051,-14.5026 2.6897,-2.4701 5.2765,-4.4939 5.7484,-4.4972 2.206,-0.015 19.0654,-21.6865 23.1835,-29.8 9.5274,-18.7702 9.4893,-18.3473 9.5136,-105.5701 0.021,-74.52139 -0.086,-78.13767 -2.6076,-88.06034 -4.1371,-16.28056 -11.2697,-28.30098 -25.3116,-42.65683 -26.3537,-26.94279 -64.4652,-46.57112 -112.7023,-58.0442 -30.1559,-7.17255 -44.6533,-9.15813 -73.1804,-10.023 l -24.3987,-0.7397 0.3246,98.07277 0.3247,98.0726 2.8536,0.4053 c 1.5695,0.2229 3.4111,1.4468 4.0924,2.7197 0.9517,1.7784 3.372,2.5036 10.4504,3.1314 5.0665,0.4493 11.3402,1.127 13.9417,1.5059 l 4.73,0.6891 0.019,66.2959 0.019,66.296 5.0701,8.9472 c 2.7885,4.9211 5.0701,9.2308 5.0701,9.5773 0,0.3464 4.2763,8.3469 9.503,17.7788 5.2265,9.4319 9.5029,17.7185 9.5029,18.4148 0,1.8423 6.494,1.552 16.2113,-0.7247 z"
           id="path4228"
           inkscape:connector-curvature="0" />
        <path
           style="fill:#1979c7"
           d="m -2195.6362,1264.1871 c -26.9647,-2.9316 -58.3178,-9.4548 -79.191,-16.4764 -35.7972,-12.0418 -64.5142,-28.4058 -84.2952,-48.0345 -11.2634,-11.1767 -16.1231,-17.625 -21.9479,-29.1228 -7.6593,-15.1188 -7.792,-16.8824 -7.792,-103.5833 0,-49.6237 0.4767,-80.44306 1.2875,-83.23038 0.7081,-2.43448 1.5864,-6.07792 1.9515,-8.0966 1.789,-9.89125 13.7472,-28.98893 25.5291,-40.77073 10.796,-10.79603 35.038,-27.68407 48.5942,-33.85281 35.1801,-16.00878 58.7257,-22.80731 101.2927,-29.24709 15.0283,-2.27357 55.2845,-5.03114 57.0966,-3.91116 0.7227,0.44665 1.188,39.20504 1.188,98.96308 l 0,98.22889 14.2543,-0.9939 c 23.6513,-1.649 20.7359,-2.7251 27.8588,10.2832 11.6755,21.3228 15.8669,29.1318 19.7217,36.7446 l 3.8498,7.6024 0.809,71.2719 c 0.4448,39.1996 0.633,71.2958 0.4179,71.325 -37.0971,5.0348 -80.522,6.1735 -110.625,2.9006 z"
           id="path4226"
           inkscape:connector-curvature="0" />
        <path
           style="fill:#12578e"
           d="m -2189.9344,1264.3047 c -1.7423,-0.2771 -8.8694,-1.1306 -15.8382,-1.8969 -24.8754,-2.7349 -61.26,-11.4891 -81.0917,-19.5108 -9.0357,-3.6549 -10.0245,-4.0717 -18.3723,-7.7441 -9.9239,-4.3659 -31.7124,-17.1762 -38.4248,-22.5914 -14.1566,-11.4205 -18.0027,-15.1296 -25.2463,-24.3474 -8.5256,-10.8492 -13.3091,-19.7762 -16.606,-30.9907 -1.8381,-6.2522 -2.0816,-16.8577 -2.0816,-90.6856 0,-73.40595 0.2488,-84.36711 2.039,-89.84951 3.8806,-11.88428 9.7233,-22.78938 16.9182,-31.57717 5.8195,-7.10779 20.8994,-21.00446 27.9113,-25.72125 3.8398,-2.58297 7.2665,-5.00883 7.615,-5.39067 1.1144,-1.22144 12.124,-7.35511 22.3713,-12.46348 11.2794,-5.62289 30.3495,-13.2529 41.615,-16.6501 28.9698,-8.73618 77.4756,-16.45171 103.3767,-16.44351 l 12.1486,0.004 0.8388,43.92056 c 0.4612,24.15628 0.8387,68.40645 0.8387,98.33363 l 0,54.4132 14.2543,-0.6652 c 7.84,-0.3659 15.6987,-1.0404 17.4638,-1.499 3.4514,-0.8965 4.0277,-0.013 21.8844,33.5671 3.15,5.9234 7.1957,13.3357 8.9906,16.4717 l 3.2633,5.7018 0.015,70.9911 0.015,70.9912 -11.0868,1.7139 c -10.4226,1.6111 -85.0452,3.1539 -92.8118,1.9189 z"
           id="path4224"
           inkscape:connector-curvature="0" />
        <path
           style="fill:#004e8c"
           d="m -2185.4997,1264.2628 c -24.9466,-1.5754 -58.3848,-7.9619 -85.5264,-16.3349 -53.3227,-16.4498 -95.2826,-46.6816 -109.9937,-79.2495 -6.7606,-14.9666 -6.6213,-12.9552 -6.2692,-90.5767 0.1885,-41.5733 0.7662,-70.031 1.3623,-67.1119 1.497,7.3297 7.59,21.055 12.8947,29.0468 5.7638,8.6835 20.0456,22.9593 31.9066,31.8928 5.0004,3.7663 9.4505,6.8479 9.8891,6.8479 0.4385,0 4.4913,2.2279 9.0061,4.9508 8.3702,5.0484 31.1385,15.4584 40.383,18.4639 2.8157,0.9153 9.3957,2.9105 14.6223,4.4336 5.2266,1.5231 12.0687,3.5426 15.2047,4.4877 4.962,1.4955 12.0852,2.965 30.4093,6.2732 2.4391,0.4404 14.1277,1.9053 25.9747,3.2555 27.9744,3.188 59.2493,3.2043 86.7866,0.046 11.4947,-1.3187 21.3302,-2.1314 21.8567,-1.8061 0.5264,0.3253 0.9571,32.1918 0.9571,70.8142 l 0,70.2228 -2.8509,0.6105 c -14.1728,3.0349 -72.1825,5.2771 -96.613,3.7342 z m 5.7017,-200.244 c -30.4875,-4.5789 -50.959,-11.2623 -68.8061,-22.4633 -21.9209,-13.7575 -32.346,-30.1219 -31.0135,-48.68244 1.3672,-19.0472 16.3679,-35.96707 43.6572,-49.24247 19.4127,-9.44373 51.2265,-16.87466 72.3174,-16.89159 l 10.4532,-0.0101 0,69.05458 0,69.05462 -11.7203,-0.1726 c -6.4462,-0.095 -13.1457,-0.3867 -14.8879,-0.6483 z"
           id="path4222"
           inkscape:connector-curvature="0" />
      </g>
    </g>
  </g>
</svg>
